<svg xmlns="http://www.w3.org/2000/svg" xmlns:xlink="http://www.w3.org/1999/xlink" xmlns:xodm="http://www.corel.com/coreldraw/odm/2003" xml:space="preserve" version="1.1" style="shape-rendering:geometricPrecision; text-rendering:geometricPrecision; image-rendering:optimizeQuality; fill-rule:evenodd; clip-rule:evenodd" viewBox="35787.65 36098.02 28427.61 27803.54">
 <defs>
  <style type="text/css">
   <![CDATA[
    .fil0 {fill:#0063A2;fill-rule:nonzero}
   ]]>
  </style>
 </defs>
 <g id="Layer_x0020_1">
  <metadata id="CorelCorpID_0Corel-Layer"/>
  <g id="_1413088250928">
   <path class="fil0" d="M63594 61154c87,1070 -495,2056 -1424,2497 -957,454 -2115,283 -2870,-462 -1386,-1367 -2757,-2750 -4134,-4126 -1352,-1352 -2711,-2698 -4051,-4062 -234,-239 -356,-207 -572,11 -2663,2696 -5333,5385 -8006,8071 -891,895 -2133,1067 -3186,462 -1363,-783 -1699,-2744 -599,-3870 2017,-2064 4074,-4087 6122,-6120 381,-378 839,-369 1209,-18 345,326 366,789 50,1189 -79,99 -172,188 -262,278 -1865,1872 -3730,3743 -5595,5615 -66,66 -134,129 -194,199 -274,317 -290,715 -44,1015 240,293 709,377 1040,163 163,-106 306,-248 444,-387 2829,-2826 5656,-5653 8483,-8480 627,-627 1048,-628 1682,-1 2893,2860 5784,5721 8674,8583 220,219 447,399 783,380 600,-34 937,-650 618,-1160 -97,-155 -231,-289 -362,-420 -1645,-1649 -3292,-3296 -4941,-4941 -234,-233 -401,-487 -324,-831 73,-325 253,-580 580,-682 336,-104 640,-22 893,232 548,550 1099,1097 1648,1646 1180,1180 2357,2363 3541,3539 491,488 773,1062 797,1681z"/>
   <path class="fil0" d="M62441 41171c27,-580 -150,-1207 -435,-1815 -127,-271 -225,-315 -459,-79 -2196,2212 -4404,4411 -6606,6617 -269,270 -555,454 -957,320 -624,-209 -818,-894 -390,-1396 67,-79 144,-151 217,-225 2417,-2417 4833,-4834 7251,-7251 648,-648 1158,-624 1745,81 1998,2401 1859,5761 -347,7980 -2426,2440 -4865,4869 -7298,7301 -529,528 -938,534 -1465,23 -1314,-1274 -2628,-2548 -3940,-3825 -518,-504 -539,-860 -97,-1415 401,-504 353,-1045 -150,-1548 -2104,-2107 -4211,-4212 -6316,-6318 -656,-656 -1311,-1311 -1965,-1968 -249,-250 -407,-531 -298,-904 179,-614 840,-845 1354,-469 74,55 141,120 207,185 2755,2734 5507,5470 8264,8203 476,472 783,1023 893,1689 81,496 11,971 -162,1432 -70,187 -64,316 87,461 902,867 1801,1737 2688,2620 217,215 315,51 443,-78 1764,-1776 3527,-3552 5291,-5327 433,-436 872,-865 1298,-1307 780,-811 1154,-1766 1150,-2988z"/>
   <path class="fil0" d="M46533 51974c-870,-20 -1570,-343 -2163,-940 -2419,-2429 -4846,-4850 -7270,-7275 -335,-336 -674,-669 -1006,-1009 -385,-393 -408,-913 -64,-1268 354,-364 892,-349 1293,50 2724,2714 5446,5431 8167,8147 669,668 1107,707 1882,163 385,-270 852,-220 1158,125 307,347 308,806 -31,1162 -540,565 -1224,813 -1966,844z"/>
   <path class="fil0" d="M46543 45939c-1,412 -173,668 -486,833 -310,163 -604,116 -881,-83 -65,-47 -124,-104 -181,-162 -2107,-2105 -4213,-4210 -6318,-6318 -385,-385 -440,-862 -157,-1215 350,-437 899,-458 1333,-33 878,859 1749,1724 2619,2591 1182,1178 2363,2356 3537,3542 248,250 552,481 535,845z"/>
  </g>
 </g>
</svg>