<svg xmlns="http://www.w3.org/2000/svg" xmlns:xlink="http://www.w3.org/1999/xlink" xmlns:xodm="http://www.corel.com/coreldraw/odm/2003" xml:space="preserve" version="1.1" style="shape-rendering:geometricPrecision; text-rendering:geometricPrecision; image-rendering:optimizeQuality; fill-rule:evenodd; clip-rule:evenodd" viewBox="27520.88 31225.73 44957.85 37548.97">
 <defs>
  <style type="text/css">
   <![CDATA[
    .fil0 {fill:#0063A2}
   ]]>
  </style>
 </defs>
 <g id="Layer_x0020_1">
  <metadata id="CorelCorpID_0Corel-Layer"/>
  <g id="_1409739078432">
   <path class="fil0" d="M65029 33631l-24 14604 -10838 -3c24,-644 2443,-7687 2540,-8471 146,-1179 -1578,-832 -3384,-833l-5527 0c-1035,0 -1533,-224 -1883,634 -198,486 -628,1310 -739,1756 -186,750 659,1245 1150,685 417,-475 453,-1224 826,-1682l7935 -10 -2432 7920 -1450 2c-920,0 24,-373 -2580,-368l-3272 -9c-759,-3457 287,-4540 -1951,-6448 -172,-146 -53,-33 -164,-147 664,-1295 1041,-2391 301,-3945 -1206,-2535 -4785,-2948 -6527,-664 -1298,1702 -685,2872 -531,3972 -746,344 -1518,1565 -1743,2779 -240,1293 -362,2768 -534,4095 -394,3034 -1179,5246 562,7450 -2267,425 -2173,2476 -1352,3367 432,469 748,405 1386,636 37,1169 -426,3726 -589,5027 -104,831 -211,1640 -307,2459 -120,1015 -405,1539 129,2278l721 32c441,-641 427,-1128 494,-1996 1393,1 6637,-55 7449,39 80,804 6,1999 859,1978 989,-24 582,-1278 526,-2071 2474,272 2710,-1574 2974,-2948 255,-1324 1928,-9434 1806,-10108 -404,-2232 -3142,-1721 -4843,-1722l-1843 0c-745,0 -1927,-115 -1611,897 226,722 1510,483 2440,483l3593 0c1462,0 732,1681 524,2774l-1300 6796c-178,974 -232,2880 -1515,2432 -986,-345 -307,-2271 -122,-3242 220,-1156 438,-2320 660,-3468 859,-4447 1589,-3661 -5619,-3652 -1919,0 -2760,-52 -3631,-1204 -881,-1164 -466,-2619 -272,-4103 124,-954 663,-5733 880,-6419 250,-792 597,-1037 996,-1480 674,320 1398,1334 3320,1121 544,-60 1465,-518 1726,-480 1568,230 1499,3692 1659,5161 66,606 24,1452 561,1653 285,106 3948,56 4620,56 465,0 976,-65 1081,343 211,823 -1400,580 -2555,580l-3685 0c-1293,1 -1058,-841 -1246,-2843 -61,-641 -277,-1328 -1085,-941 -506,243 -293,1069 -236,1694 131,1419 81,2336 1064,3067 886,658 4517,404 6017,402 1160,-1 2699,181 3066,-1409 6,-25 68,-298 71,-304 119,-263 -49,-224 825,-222l18243 0c758,0 1919,196 1831,-783 -78,-865 -1512,-597 -2661,-597l-3376 -1c-108,-1052 -27,-11442 -29,-14233 0,-750 168,-1694 -485,-1840 -973,-218 -896,707 -896,1471zm-25600 2999c-3269,940 -1786,5686 1322,4773 1082,-318 2114,-1480 1712,-3016 -299,-1142 -1517,-2194 -3034,-1757zm2193 22294c-496,-12 -423,34 -516,535 -49,263 -109,585 -158,838 -117,604 -231,1161 -353,1765 -198,981 -944,3011 122,3252 755,172 1006,-299 1123,-887 515,-2579 303,-1861 -17,-4576 -18,-152 -31,-349 -56,-494l-146 -433zm-6449 -1384c1082,-4 7942,160 8289,-159 374,-343 209,-1020 -458,-1020l-7371 -21c-550,0 -1213,-100 -1349,439 -160,633 358,759 889,761zm259 7825l3419 7c-167,-1469 40,-1866 316,-3248 209,-1048 486,-2155 630,-3200l-3575 6 -791 6437z"/>
   <path class="fil0" d="M58938 58952c30,990 -739,6198 -949,7902 -118,957 -465,2070 902,1865 433,-602 432,-1109 493,-1967 1122,12 6879,-83 7445,53 35,340 126,1301 220,1549 169,443 783,575 1129,207 603,-643 -1102,-8069 -893,-9649 1868,-215 2475,-2274 1276,-3406 -955,-901 -3906,-544 -5473,-545 -982,-1 -1966,-3 -2948,-1 -1105,2 -1843,-71 -2515,555 -898,837 -731,2387 176,3009 482,331 630,241 1136,427zm631 6415l7058 2 -780 -6442c-1024,-15 -4735,-135 -5487,46l-791 6394zm663 -7827l5805 0c497,0 1341,119 1610,-206 421,-507 7,-993 -688,-994l-7371 0c-617,0 -1493,87 -1126,876 219,472 1175,324 1771,324z"/>
   <path class="fil0" d="M31031 33554c0,7281 72,7446 -13,14681l-1743 0c-756,0 -2027,-146 -1702,897 228,733 1586,483 2533,483 1379,0 3252,341 3016,-859 -113,-572 -499,-279 -707,-676l-3 -14158c0,-832 270,-2497 -485,-2667 -1213,-272 -895,1419 -895,2299z"/>
   <path class="fil0" d="M55073 51918l15111 0c816,0 2391,300 2290,-782 -82,-876 -1739,-598 -3120,-598l-14742 0c-842,0 -2917,-343 -2529,896 224,717 1799,484 2990,484z"/>
   <path class="fil0" d="M29275 51918l2304 0c711,0 1637,110 1555,-783 -78,-846 -1358,-597 -2476,-597 -672,0 -2601,-172 -2957,209 -285,306 -167,849 155,1054 312,199 971,117 1420,117z"/>
  </g>
 </g>
</svg>