<svg xmlns="http://www.w3.org/2000/svg" xmlns:xlink="http://www.w3.org/1999/xlink" xmlns:xodm="http://www.corel.com/coreldraw/odm/2003" xml:space="preserve" version="1.1" style="shape-rendering:geometricPrecision; text-rendering:geometricPrecision; image-rendering:optimizeQuality; fill-rule:evenodd; clip-rule:evenodd" viewBox="30711.04 35786.75 38578.97 28428.51">
 <defs>
  <style type="text/css">
   <![CDATA[
    .fil0 {fill:#0063A2;fill-rule:nonzero}
   ]]>
  </style>
 </defs>
 <g id="Layer_x0020_1">
  <metadata id="CorelCorpID_0Corel-Layer"/>
  <g id="_1408047064656">
   <path class="fil0" d="M49985 60207c-5716,0 -11432,5 -17148,-9 -472,-1 -643,115 -624,610 37,967 -1,1937 16,2905 6,370 -125,506 -497,501 -1139,-15 -990,64 -991,-953 -5,-3382 69,-6766 -28,-10145 -63,-2191 1396,-4103 4105,-4085 3842,25 7685,6 11527,6 6287,0 12575,0 18862,1 1411,0 2626,418 3459,1637 385,564 613,1186 613,1872 6,3715 0,7431 11,11146 1,395 -135,529 -526,522 -1095,-20 -959,65 -965,-933 -5,-826 -30,-1653 10,-2476 24,-500 -163,-608 -629,-607 -5731,14 -11463,9 -17195,9zm27 -1546l0 0c5731,0 11462,-4 17193,8 450,1 608,-127 601,-593 -24,-1651 -6,-3302 -9,-4953 -4,-1711 -835,-2539 -2549,-2539 -10192,-1 -20383,-1 -30576,0 -1576,0 -2445,869 -2448,2448 -3,1667 -1,3334 0,5001 0,626 2,628 643,628 5715,1 11430,0 17145,0z"/>
   <path class="fil0" d="M50027 37338c-4015,0 -8031,-2 -12046,0 -2117,1 -3480,1365 -3484,3485 -4,1889 0,3777 -2,5666 -1,629 -19,644 -636,650 -912,7 -913,7 -913,-896 0,-1793 -4,-3587 1,-5380 7,-2972 2102,-5071 5073,-5073 8015,-4 16030,-5 24044,1 2402,2 4365,1525 4869,3766 83,369 133,753 135,1131 14,1952 -4,3904 15,5856 5,457 -149,611 -604,604 -954,-15 -954,4 -954,-958 0,-1825 5,-3650 -2,-5476 -8,-1981 -1415,-3374 -3404,-3374 -4031,-2 -8062,0 -12094,-1z"/>
   <path class="fil0" d="M56821 40243c841,-1 1683,-5 2524,0 1578,10 2609,972 2661,2555 43,1284 6,2571 13,3857 2,339 -140,475 -483,489 -1069,43 -1067,53 -1066,-1034 1,-1063 5,-2127 -2,-3191 -6,-790 -377,-1180 -1164,-1185 -1683,-12 -3365,-12 -5048,-1 -730,5 -1095,391 -1100,1138 -8,1222 -16,2445 4,3667 7,454 -158,613 -612,608 -937,-11 -939,9 -939,-923 -1,-1143 -6,-2286 2,-3429 10,-1506 1040,-2538 2544,-2550 889,-7 1778,-1 2667,-2z"/>
   <path class="fil0" d="M43268 40245c905,0 1809,-12 2714,3 1359,22 2406,1062 2426,2428 20,1317 -3,2635 11,3953 4,361 -114,509 -490,517 -1061,24 -1060,37 -1060,-1008 0,-1095 4,-2191 -4,-3286 -5,-716 -364,-1109 -1067,-1115 -1714,-15 -3429,-17 -5143,1 -725,8 -1095,415 -1100,1152 -8,1222 -16,2445 5,3667 7,424 -121,594 -566,593 -988,-4 -989,15 -990,-987 -1,-1064 -7,-2127 4,-3191 18,-1716 1032,-2722 2737,-2727 841,-2 1683,0 2524,0 0,1 0,2 0,2z"/>
  </g>
 </g>
</svg>