<svg xmlns="http://www.w3.org/2000/svg" xmlns:xlink="http://www.w3.org/1999/xlink" xmlns:xodm="http://www.corel.com/coreldraw/odm/2003" xml:space="preserve" version="1.1" style="shape-rendering:geometricPrecision; text-rendering:geometricPrecision; image-rendering:optimizeQuality; fill-rule:evenodd; clip-rule:evenodd" viewBox="32774.22 32047 34454.14 35908.91">
 <defs>
  <style type="text/css">
   <![CDATA[
    .fil0 {fill:#0063A2;fill-rule:nonzero}
   ]]>
  </style>
 </defs>
 <g id="Layer_x0020_1">
  <metadata id="CorelCorpID_0Corel-Layer"/>
  <g id="_1413108591120">
   <path class="fil0" d="M57124 66730c-121,-746 -78,-4913 115,-5535 1022,-3295 5665,-3181 6564,71 181,654 213,4712 104,5467l-6783 -3zm-10499 -4905c-9,-1645 1643,-3059 3364,-3061 1733,-1 3361,1416 3361,3061 153,151 143,4392 68,4900 -363,127 -6493,128 -6859,0 -69,-469 -74,-4849 66,-4901zm-3913 -54c207,348 174,4334 65,4964 -669,103 -4789,22 -6102,30l-627 -23c-15,-3 -47,-2 -57,-26 -10,-23 -36,-20 -54,-30 0,-1470 -30,-2970 0,-4436 29,-1435 710,-2385 1526,-2918 2460,-1606 5306,477 5248,2439zm13174 4901c-256,164 -993,94 -1297,63l2 -4831c-39,-2346 -2131,-4299 -4520,-4341 -2414,-43 -4679,1959 -4659,4259l-45 4945 -1406 -46 -28 -5035c-63,-1663 -1216,-2843 -2185,-3455 -1352,-854 -3011,-872 -4493,-158 -1088,524 -2135,1690 -2431,3214 -313,1613 129,3870 -120,5444l-694 1 33 -14605 31925 0 -32 14606 -757 0c-330,-1569 396,-4558 -461,-6457 -1628,-3612 -6773,-3594 -8409,-13 -694,1519 -381,4545 -423,6409zm-20469 -33404l29172 2 1 17655 -29204 -4 31 -17652zm-1235 17657c-1650,-1 -1379,-82 -1377,3025 1,1808 -73,12607 5,13379 80,788 815,610 1526,609l31227 -1c2136,0 1605,243 1611,-5040l4 -11127c-15,-991 -512,-845 -1381,-845 -13,-5787 -15,-11578 -1,-17365 4,-1798 81,-1494 -2734,-1493l-26062 0c-2948,-2 -2818,-286 -2816,1494 5,5789 -4,11578 0,17366z"/>
   <path class="fil0" d="M38194 48066l0 -12095 23587 0 0 12503 -23586 0 0 -408zm-808 -13252c-615,228 -396,1439 -396,2130l0 10155c-2,3149 -820,2576 5172,2579 2019,1 20090,80 20448,-49 591,-212 375,-1474 375,-2127l0 -10155c-3,-3134 844,-2582 -5170,-2580 -3416,2 -6831,-1 -10247,1 -1211,1 -9795,-97 -10181,46z"/>
   <path class="fil0" d="M49412 38757c2237,-367 4038,1277 4319,3150 336,2244 -1268,4043 -3157,4324 -2237,333 -4012,-1245 -4323,-3130 -379,-2296 1267,-4033 3162,-4344zm-4409 4070c157,2626 2485,4823 5305,4643 2627,-167 4827,-2436 4665,-5283 -150,-2639 -2462,-4855 -5311,-4673 -2642,169 -4830,2449 -4659,5313z"/>
   <path class="fil0" d="M48935 53917c1438,-335 2680,361 3355,1118 1168,1311 498,3454 1735,2709 798,-480 -126,-4504 -3575,-5051 -5276,-837 -6450,6164 -4489,5057 383,-216 296,-1158 524,-1738 407,-1037 1213,-1808 2450,-2096z"/>
   <path class="fil0" d="M38614 53922c1549,-369 2658,378 3344,1119 982,1061 682,2143 928,2539 146,235 530,343 817,171 705,-421 -15,-2519 -746,-3385 -620,-734 -1457,-1450 -2839,-1678 -5155,-847 -6506,6107 -4476,5071 386,-198 300,-1138 523,-1739 390,-1051 1241,-1810 2449,-2098z"/>
   <path class="fil0" d="M59762 53926c1523,-352 2679,341 3345,1107 1239,1425 505,3383 1739,2722 910,-488 -176,-4453 -3518,-5056 -4923,-889 -6611,5767 -4596,5096 489,-163 327,-1060 564,-1702 394,-1074 1246,-1884 2467,-2166z"/>
   <path class="fil0" d="M49309 43667l-16 -2341c270,95 1588,979 1731,1197 -258,195 -1441,1035 -1715,1144zm-780 -4094c-629,181 -442,1031 -439,2126 2,887 4,1776 -2,2663 -14,2001 1350,724 2857,-336 462,-325 1111,-696 1539,-1043 755,-612 -311,-1187 -703,-1462l-2350 -1604c-262,-186 -527,-452 -902,-344z"/>
   <path class="fil0" d="M53350 61825l14 4881 -6757 0 18 -4881c-141,52 -135,4431 -66,4901 367,127 6497,126 6859,0 74,-508 85,-4749 -68,-4900z"/>
   <path class="fil0" d="M35937 66686c18,10 43,7 54,30 10,24 42,23 57,26l627 23c1313,-8 5433,73 6102,-30 109,-630 142,-4616 -65,-4964l24 4915 -6799 0z"/>
   <path class="fil0" d="M45411 61822c-159,196 -81,4248 -85,4866l-1286 3c6,-833 148,-4551 -109,-5005l28 5035 1406 46 45 -4945z"/>
   <path class="fil0" d="M55885 66672l-1225 -2c0,-820 132,-4315 -70,-4766l-2 4831c305,31 1042,100 1297,-63z"/>
  </g>
 </g>
</svg>