<svg xmlns="http://www.w3.org/2000/svg" xmlns:xlink="http://www.w3.org/1999/xlink" xmlns:xodm="http://www.corel.com/coreldraw/odm/2003" xml:space="preserve" version="1.1" style="shape-rendering:geometricPrecision; text-rendering:geometricPrecision; image-rendering:optimizeQuality; fill-rule:evenodd; clip-rule:evenodd" viewBox="32311.21 32415.92 35375.89 35168.12">
 <defs>
  <style type="text/css">
   <![CDATA[
    .fil0 {fill:#0063A2;fill-rule:nonzero}
   ]]>
  </style>
 </defs>
 <g id="Layer_x0020_1">
  <metadata id="CorelCorpID_0Corel-Layer"/>
  <g id="_1409079019264">
   <path class="fil0" d="M61794 54773c-11,1212 -530,1835 -1683,2151 -1109,304 -2151,807 -3219,1229 -7796,3085 -15589,6178 -23384,9268 -81,32 -163,64 -245,94 -276,104 -541,109 -765,-115 -224,-224 -224,-490 -118,-765 413,-1073 827,-2145 1242,-3217 3011,-7772 6021,-15543 9031,-23316 63,-163 133,-328 160,-498 218,-1375 1386,-1771 2361,-1665 1467,159 2741,826 3979,1568 1419,850 2733,1845 3980,2931 404,352 406,350 680,-119 750,-1285 1185,-2665 1256,-4156 31,-646 34,-646 690,-645 38,0 75,0 113,0 508,3 516,3 501,528 -32,1122 -272,2203 -659,3254 -269,730 -603,1429 -1042,2071 -154,225 -123,359 67,537 428,402 847,816 1243,1249 198,216 341,197 569,51 1624,-1038 3400,-1613 5330,-1683 496,-18 496,-5 500,491 4,781 4,771 -790,820 -1515,94 -2906,576 -4204,1353 -286,171 -194,296 -30,486 1244,1442 2376,2965 3289,4642 485,893 902,1813 1080,2823 36,208 47,421 70,631zm-2436 851l0 0c978,24 1226,-269 1128,-1037 -43,-337 -106,-668 -222,-984 -882,-2388 -2416,-4357 -4029,-6277 -125,-149 -227,-104 -342,9 -294,288 -596,569 -889,860 -660,655 -653,652 -1308,-35 -167,-174 -180,-290 -2,-461 443,-422 868,-865 1309,-1290 141,-136 193,-237 28,-396 -387,-372 -766,-754 -1138,-1141 -150,-156 -254,-142 -397,11 -289,311 -594,608 -894,909 -656,657 -651,652 -1306,-34 -167,-174 -180,-289 -2,-460 397,-380 770,-785 1167,-1166 243,-232 247,-393 -28,-620 -743,-613 -1479,-1233 -2263,-1792 -1316,-937 -2663,-1821 -4222,-2318 -383,-122 -771,-211 -1178,-184 -458,31 -681,249 -698,712 -7,185 11,374 42,558 130,787 452,1505 818,2205 920,1761 2096,3345 3406,4830 2427,2752 5093,5229 8305,7056 915,520 1860,976 2715,1045zm-16145 -13351l0 0c2,-4 -28,34 -45,78 -458,1175 -912,2352 -1374,3526 -86,219 -66,409 55,605 309,499 603,1007 920,1501 1388,2158 3111,4031 4956,5800 1657,1589 3477,2964 5451,4137 239,142 444,164 700,53 539,-233 1089,-439 1634,-656 669,-267 1338,-535 1980,-792 -6196,-3332 -10940,-8084 -14278,-14252zm-3240 8376l0 0c-37,61 -60,91 -73,124 -491,1270 -978,2541 -1476,3809 -74,189 2,305 106,438 1829,2331 3911,4409 6229,6254 190,151 349,178 576,85 1146,-467 2298,-915 3446,-1375 97,-39 258,-39 256,-171 -1,-68 -126,-143 -205,-199 -2969,-2105 -5546,-4615 -7770,-7492 -364,-471 -710,-957 -1091,-1473zm-5878 15109l0 0c102,-13 141,-11 174,-24 2149,-849 4297,-1700 6447,-2546 251,-99 196,-185 33,-328 -1336,-1171 -2589,-2426 -3753,-3769 -170,-197 -254,-199 -345,51 -181,493 -372,981 -562,1470 -658,1700 -1317,3398 -1994,5146zm6990 -18035l0 0c-128,328 -200,598 -331,834 -231,416 -137,740 124,1122 2422,3549 5402,6538 8889,9044 602,433 1116,575 1746,178 112,-70 312,-52 333,-202 23,-159 -169,-196 -277,-265 -3057,-1943 -5645,-4409 -7971,-7164 -919,-1089 -1722,-2265 -2513,-3548zm2445 14304l0 0c-14,-141 -118,-179 -190,-243 -671,-597 -1357,-1178 -2012,-1792 -1176,-1102 -2272,-2280 -3288,-3532 -172,-212 -273,-230 -366,52 -78,237 -168,471 -271,697 -84,185 -51,326 76,476 1426,1694 2986,3253 4671,4688 112,96 222,151 373,89 288,-119 581,-226 870,-343 53,-21 97,-66 137,-94z"/>
   <path class="fil0" d="M66342 39740c-685,-97 -1426,-210 -2169,-305 -698,-89 -499,-194 -814,414 -302,583 -591,1173 -882,1762 -122,246 -283,429 -587,377 -294,-50 -376,-279 -413,-534 -117,-807 -239,-1613 -344,-2421 -24,-189 -103,-246 -279,-270 -753,-99 -1503,-212 -2254,-320 -93,-13 -185,-31 -277,-48 -226,-41 -377,-167 -414,-399 -37,-232 67,-404 267,-512 265,-142 535,-273 803,-408 444,-222 887,-450 1336,-663 167,-79 232,-165 200,-367 -126,-777 -228,-1557 -339,-2337 -11,-74 -13,-149 -19,-224 -17,-217 56,-392 255,-491 196,-97 384,-58 552,76 558,444 1129,873 1666,1342 248,217 448,211 726,84 777,-354 1567,-679 2350,-1017 228,-98 454,-148 654,48 211,206 156,437 52,676 -357,826 -706,1657 -1069,2481 -82,187 -66,320 67,480 461,556 906,1126 1358,1689 115,143 207,290 181,485 -35,262 -233,409 -608,402zm-4115 128l0 0c40,-37 57,-46 65,-61 161,-318 320,-637 480,-956 247,-494 371,-554 909,-468 426,69 852,130 1280,186 87,12 206,65 259,-30 46,-83 -61,-145 -111,-208 -237,-302 -474,-606 -722,-900 -192,-228 -218,-459 -97,-730 237,-531 462,-1067 688,-1603 30,-71 117,-155 30,-227 -64,-54 -141,17 -207,45 -535,228 -1072,452 -1602,690 -282,127 -519,87 -752,-112 -300,-256 -613,-496 -922,-741 -49,-39 -98,-114 -166,-82 -87,41 -47,135 -38,203 61,455 126,909 197,1363 80,505 15,642 -443,872 -345,174 -691,348 -1100,554 517,71 953,133 1389,191 479,63 609,193 676,672 60,436 121,872 186,1341z"/>
   <path class="fil0" d="M49118 37244c-70,-646 117,-1284 680,-1783 359,-318 776,-494 1261,-504 809,-16 1230,-446 1237,-1259 2,-255 7,-510 -1,-765 -6,-184 72,-250 252,-248 841,12 686,-91 694,650 4,348 36,698 -52,1044 -223,876 -983,1495 -1887,1526 -820,28 -1229,444 -1237,1261 -2,236 0,472 -1,709 0,57 16,128 -11,167 -194,277 -481,84 -722,129 -156,29 -218,-67 -215,-219 4,-208 1,-416 1,-709z"/>
   <path class="fil0" d="M66444 47638c-75,0 -150,0 -224,0 -892,3 -1284,379 -1318,1262 -38,1008 -896,1854 -1906,1875 -336,7 -672,-5 -1007,4 -188,5 -270,-57 -266,-256 14,-822 -91,-664 650,-682 140,-4 280,1 420,-2 703,-11 1134,-423 1173,-1122 71,-1267 863,-2017 2132,-2017 270,0 541,5 812,-1 161,-4 240,54 237,226 -12,878 107,689 -703,711z"/>
   <path class="fil0" d="M45628 33314c0,64 0,128 0,191 0,688 12,702 678,822 572,103 1047,640 1065,1222 12,391 -3,781 6,1172 5,191 -72,256 -257,252 -784,-15 -643,93 -657,-641 -4,-209 7,-419 -4,-627 -15,-295 -165,-445 -456,-480 -854,-102 -1287,-591 -1287,-1457 0,-318 7,-636 -2,-954 -6,-191 73,-256 257,-252 783,15 641,-94 657,641 1,37 0,73 0,109z"/>
   <path class="fil0" d="M66777 55396c-419,-11 -844,53 -1234,-181 -428,-256 -674,-620 -726,-1113 -47,-448 -189,-588 -633,-593 -334,-4 -668,-7 -1002,1 -191,4 -260,-74 -257,-261 12,-874 -94,-708 674,-725 275,-6 550,-6 825,1 718,18 1304,572 1372,1291 43,456 193,591 661,594 324,2 648,7 972,-1 191,-5 261,73 258,261 -11,874 92,707 -675,726 -78,2 -157,0 -235,0z"/>
   <path class="fil0" d="M57244 33820c0,367 -5,733 2,1100 4,178 -60,255 -245,252 -850,-13 -687,95 -698,-669 -10,-602 4,-1204 -5,-1805 -3,-203 63,-285 274,-282 804,15 656,-83 672,643 6,254 1,508 1,762 0,0 -1,0 -1,0z"/>
  </g>
 </g>
</svg>