<svg xmlns="http://www.w3.org/2000/svg" xmlns:xlink="http://www.w3.org/1999/xlink" xmlns:xodm="http://www.corel.com/coreldraw/odm/2003" xml:space="preserve" version="1.1" style="shape-rendering:geometricPrecision; text-rendering:geometricPrecision; image-rendering:optimizeQuality; fill-rule:evenodd; clip-rule:evenodd" viewBox="31457.78 31490.3 37082.78 37019.63">
 <defs>
  <style type="text/css">
   <![CDATA[
    .fil0 {fill:#0063A2;fill-rule:nonzero}
   ]]>
  </style>
 </defs>
 <g id="Layer_x0020_1">
  <metadata id="CorelCorpID_0Corel-Layer"/>
  <g id="_1414739038576">
   <path class="fil0" d="M54463 44857c766,0 3456,143 4107,-91 587,-211 436,-1316 436,-1819 0,-920 256,-5690 -198,-6372 -244,-367 -813,-373 -1206,-378 -1026,-13 -2071,70 -3105,70l-134 0 -31 -130c-227,-951 166,-3730 -192,-4293 -289,-455 -1361,-306 -1829,-306 -816,-1 -6098,-213 -6454,265 -417,561 7,3375 -220,4334l-31 131 -134 0c-5222,2 -4500,-959 -4509,4267 -8,5173 -778,4327 4543,4324l160 0 9 160c305,5191 -1366,4566 4308,4570 5674,4 4004,611 4309,-4570l9 -160 160 0zm-1450 -730l-25 4387 -136 34c-541,134 -5185,136 -5712,-1l-133 -35 -47 -4375c-169,-787 -1298,-605 -1920,-605 -949,0 -1898,1 -2846,1l-180 0 -27 -5946 181 0c5760,0 4844,885 4844,-4848l0 -180 5947 0 0 180c0,5735 -913,4848 4841,4848l181 0 -1 5944 -180 0c-956,2 -1912,1 -2868,1 -622,0 -1747,-181 -1919,594z"/>
   <path class="fil0" d="M33683 41409c-683,156 -1339,549 -1724,1146 -543,843 -543,1393 -463,2379l974 11957c411,5037 1146,4906 4889,7689 1080,803 1922,1231 2520,2531 139,304 240,874 425,1117 668,878 1806,-374 34,-2656 -1948,-2509 -5791,-3092 -6472,-6563 -127,-648 -172,-1441 -232,-2102 -108,-1201 -204,-2403 -298,-3605 -163,-2087 -308,-4176 -474,-6262 -74,-926 -287,-2080 -218,-2985 89,-1170 1296,-1922 2386,-1355 933,485 968,1519 1155,2429 167,813 832,4581 1185,4990 135,98 490,139 661,80 401,-140 266,-868 200,-1160 -398,-1772 -758,-3552 -1131,-5328 -339,-1615 -1768,-2678 -3416,-2302zm31431 -7c-1872,419 -2108,1822 -2452,3448 -162,768 -1165,4636 -915,5158 95,127 380,257 543,259 396,7 556,-578 618,-873 192,-901 388,-1801 577,-2703 183,-877 367,-1754 555,-2630 247,-1149 1196,-1882 2350,-1393 1137,482 976,1618 893,2633l-733 9002c-126,1552 -157,4466 -778,5813 -757,1645 -2076,2237 -3461,3238 -1392,1006 -2305,1442 -3140,3028 -192,365 -776,1578 -333,1957 191,164 600,134 778,-25 218,-194 315,-726 426,-1004 1112,-2804 5139,-3485 6628,-6345 869,-1668 815,-3533 967,-5358 174,-2096 374,-4189 547,-6286 100,-1220 198,-2443 274,-3665 29,-466 129,-1506 57,-1946 -261,-1611 -1797,-2669 -3402,-2310zm-7061 17657c-274,442 109,926 597,872 402,-44 957,-779 1257,-1057 447,-415 895,-829 1342,-1244 222,-206 402,-453 624,-663 587,-556 1480,-1226 1759,-1997 718,-1979 -942,-4030 -3040,-3548 -960,221 -2252,1382 -3086,1959 -1784,1236 -4519,2705 -5544,4665 -675,1290 -453,3216 -454,4639 0,695 -215,4295 166,4693 354,333 931,112 1006,-359 158,-986 20,-2818 -1,-3862 -20,-955 -131,-3137 106,-4009 526,-1937 4109,-3899 5719,-5018 502,-349 998,-702 1480,-1080 1856,-1455 3635,641 2013,2167l-3944 3841zm-19831 -7628c-1243,323 -2059,1320 -2031,2628 34,1603 1119,1956 1994,2963l1966 1887c355,326 1327,1617 1790,756 324,-603 -344,-948 -709,-1301 -218,-211 -395,-457 -619,-663l-2000 -1907c-446,-527 -1127,-851 -1221,-1624 -119,-982 731,-1781 1704,-1610 579,102 2615,1741 3261,2168 1060,702 2123,1383 3126,2167 433,339 1032,943 1333,1400 491,746 491,1460 491,2323 0,1753 -1,3506 0,5258 0,473 -173,1466 416,1624 732,198 777,-447 775,-1019 -7,-1753 -2,-3507 -2,-5260 0,-2452 -205,-3617 -2203,-5201 -1496,-1187 -3163,-2098 -4661,-3263 -1041,-809 -1986,-1695 -3410,-1325z"/>
  </g>
 </g>
</svg>