<svg xmlns="http://www.w3.org/2000/svg" xmlns:xlink="http://www.w3.org/1999/xlink" xmlns:xodm="http://www.corel.com/coreldraw/odm/2003" xml:space="preserve" version="1.1" style="shape-rendering:geometricPrecision; text-rendering:geometricPrecision; image-rendering:optimizeQuality; fill-rule:evenodd; clip-rule:evenodd" viewBox="33246.75 32045.01 33508.62 35907.42">
 <defs>
  <style type="text/css">
   <![CDATA[
    .fil0 {fill:#0063A2;fill-rule:nonzero}
   ]]>
  </style>
 </defs>
 <g id="Layer_x0020_1">
  <metadata id="CorelCorpID_0Corel-Layer"/>
  <g id="_1407384905808">
   <path class="fil0" d="M40622 38882c54,-44 85,-64 110,-89 212,-222 563,-426 598,-674 38,-269 -368,-456 -548,-709 -501,-704 -484,-1657 59,-2326 563,-693 1444,-915 2248,-524 291,141 354,103 337,-209 -15,-271 -25,-546 35,-817 203,-919 1022,-1537 1935,-1452 915,85 1618,840 1647,1775 8,269 2,538 2,867 804,-457 1546,-444 2296,64 84,-295 33,-565 44,-828 20,-468 225,-693 688,-694 2152,-5 4303,-5 6455,0 439,1 661,230 669,672 9,535 19,1070 -3,1604 -13,324 62,580 324,782 261,202 453,662 728,614 223,-39 253,-546 373,-843 215,-530 399,-1072 615,-1602 692,-1696 2539,-2719 4287,-2385 1861,356 3209,1972 3234,3852 7,557 -87,1086 -281,1604 -1071,2851 -2131,5706 -3223,8550 -140,365 -83,699 -82,1052 4,1070 2,2139 2,3209 0,4838 2,9676 -2,14514 -1,1518 -969,2706 -2442,3007 -181,37 -370,43 -556,43 -5422,2 -10845,2 -16267,2 -486,0 -491,-3 -487,-501 7,-842 -91,-743 729,-744 3967,-4 7935,-2 11902,-2 500,0 502,-1 502,-480 1,-5746 -2,-11492 8,-17238 0,-315 -107,-496 -364,-662 -809,-524 -805,-536 -1617,9 -1015,682 -946,692 -1957,7 -815,-552 -818,-547 -1643,3 -965,644 -965,644 -1925,7 -834,-554 -834,-554 -1673,6 -950,633 -950,633 -1894,3 -846,-565 -846,-565 -1705,8 -83,55 -165,110 -248,165 -654,433 -720,433 -1365,3 -93,-62 -186,-124 -280,-185 -138,-89 -207,-51 -207,114 0,100 -1,199 -2,298 0,2649 0,5298 0,7947 0,493 -2,498 -493,494 -862,-7 -751,96 -752,-757 -4,-2935 -4,-5870 3,-8806 0,-276 -56,-502 -245,-713 -248,-277 -478,-574 -698,-875 -804,-1102 -934,-2280 -336,-3511 119,-244 76,-370 -109,-534 -585,-521 -1148,-1066 -1736,-1583 -235,-207 -278,-345 -34,-593 608,-617 595,-629 1247,-33 486,445 972,891 1461,1332 76,69 143,207 277,123 155,-98 56,-222 0,-326 -401,-744 -798,-1491 -1215,-2226 -146,-258 -137,-399 149,-551 780,-412 772,-425 1200,347 71,128 146,254 226,391zm17174 18719l0 0c0,2897 4,5794 -5,8691 -1,300 78,422 397,411 583,-22 1169,-3 1753,-7 1244,-8 1979,-732 1980,-1971 4,-5371 2,-10742 -1,-16113 0,-104 60,-247 -64,-304 -95,-44 -189,53 -257,116 -579,535 -1146,503 -1710,-20 -45,-42 -103,-69 -155,-104 -774,-513 -767,-502 -1552,2 -282,181 -395,378 -393,721 15,2859 8,5719 9,8579zm7691 -21627l0 0c-30,-183 -48,-434 -115,-671 -328,-1158 -1281,-1947 -2475,-1969 -1049,-19 -2096,564 -2575,1850 -1305,3503 -2627,7000 -3943,10499 -385,1025 -383,1020 557,1615 171,108 299,123 468,2 333,-239 689,-445 1019,-689 374,-277 720,-265 1090,7 330,243 680,459 1023,683 90,59 184,164 301,82 348,-244 749,-398 922,-867 1144,-3099 2311,-6190 3476,-9281 146,-389 225,-786 250,-1260zm-20767 -939l0 0c-2,0 -4,0 -6,0 0,385 9,771 -3,1156 -9,289 -111,545 -403,659 -298,116 -556,32 -776,-200 -257,-270 -517,-538 -788,-794 -233,-221 -594,-238 -819,-59 -239,189 -294,559 -110,841 73,113 174,210 268,308 448,466 906,923 1346,1396 228,245 265,540 63,819 -201,278 -479,335 -794,195 -57,-25 -114,-50 -171,-73 -248,-100 -472,-43 -649,141 -175,181 -250,417 -128,652 172,330 364,625 797,698 1193,202 2025,883 2522,1986 265,589 546,1171 829,1752 48,100 53,287 219,247 128,-31 228,-159 261,-295 29,-118 21,-246 22,-370 1,-1554 5,-3107 -3,-4661 -2,-291 89,-515 285,-736 579,-651 1216,-1244 1814,-1876 334,-352 361,-724 84,-990 -246,-237 -644,-189 -956,120 -248,245 -484,501 -738,738 -274,254 -633,276 -880,70 -210,-176 -252,-419 -254,-674 -2,-733 4,-1467 -9,-2200 -6,-339 -241,-583 -526,-550 -309,35 -496,214 -497,545 -1,385 0,770 0,1156zm8246 11481l0 0c0,-2126 -2,-4187 4,-6249 0,-248 -39,-392 -341,-389 -1552,11 -3104,8 -4656,2 -238,-1 -332,78 -330,323 9,1043 9,2086 0,3129 -2,273 96,317 337,237 602,-199 1226,-227 1839,-101 1658,341 2671,1378 3147,3048zm1247 -3280l0 0c0,1106 -2,2212 4,3317 0,128 -76,337 66,369 176,40 304,-132 380,-296 42,-90 72,-185 107,-278 847,-2256 1698,-4509 2537,-6768 150,-404 487,-823 378,-1217 -112,-404 -594,-644 -889,-979 -167,-191 -284,-163 -450,7 -624,641 -1257,1273 -1898,1898 -176,171 -241,351 -239,593 10,1118 4,2237 4,3355zm-12127 -1211l0 0c-800,-11 -1399,347 -1765,1039 -370,700 -330,1409 95,2090 146,235 287,320 521,97 170,-162 369,-294 556,-438 769,-590 763,-586 1317,223 129,189 109,301 -66,430 -359,267 -704,553 -1067,815 -193,139 -226,244 -10,384 334,216 668,433 993,663 152,107 268,72 404,-21 338,-233 686,-450 1021,-687 308,-217 614,-320 963,-90 185,122 250,15 239,-159 -6,-97 -32,-198 -73,-286 -472,-1014 -928,-2037 -1433,-3034 -341,-672 -932,-1011 -1694,-1027zm4386 5165l0 0c2,9 -5,90 31,121 67,57 139,-5 200,-45 300,-199 599,-401 900,-601 547,-365 674,-366 1210,-11 322,213 647,420 961,643 166,119 300,122 469,2 333,-239 670,-478 1025,-680 294,-167 283,-339 134,-602 -562,-1000 -1743,-1526 -2900,-1272 -1102,242 -1963,1260 -2029,2446zm2148 -8591l0 0c49,15 82,35 115,35 1452,2 2903,2 4355,2 99,0 207,9 282,-67 532,-543 1060,-1089 1623,-1668 -1544,0 -3043,0 -4543,0 -89,0 -177,12 -241,78 -528,536 -1053,1073 -1590,1622zm4637 -4089l0 0c-634,0 -1269,-5 -1902,2 -817,7 -704,-115 -730,744 -9,313 98,405 406,402 1380,-13 2760,1 4141,-8 881,-6 764,152 783,-799 6,-262 -91,-348 -348,-344 -783,12 -1567,4 -2350,4z"/>
   <path class="fil0" d="M33256 61617c-134,-1689 1211,-2980 2522,-3225 676,-126 1341,-81 1961,239 259,133 317,67 304,-201 -29,-585 -337,-1010 -912,-1171 -226,-63 -301,-180 -286,-398 12,-173 17,-350 -1,-522 -37,-363 149,-420 452,-368 1124,194 1973,1181 1991,2326 7,443 7,443 423,272 2082,-856 4333,654 4356,2908 18,1785 -451,3441 -1284,5000 -724,1355 -2214,1840 -3641,1185 -335,-153 -599,-165 -941,-7 -1483,687 -2970,155 -3718,-1298 -745,-1446 -1193,-2969 -1226,-4741zm1269 -16l0 0c23,1500 426,2895 1117,4217 258,493 647,772 1191,849 350,49 678,-46 958,-232 584,-387 1149,-420 1726,-5 30,22 66,34 100,50 869,417 1639,146 2094,-711 695,-1309 1048,-2705 1101,-4181 44,-1232 -1055,-2167 -2268,-1942 -506,94 -874,394 -1220,743 -533,536 -779,535 -1306,13 -115,-114 -224,-235 -350,-335 -643,-509 -1347,-619 -2092,-257 -741,361 -1022,1009 -1050,1791z"/>
   <path class="fil0" d="M59937 41478c232,-25 269,91 303,196 344,1050 685,2101 1027,3152 8,23 24,50 19,71 -108,456 -560,296 -834,458 -139,82 -314,120 -389,-111 -349,-1075 -699,-2148 -1046,-3224 -32,-98 -42,-206 83,-251 303,-109 609,-212 838,-291z"/>
   <path class="fil0" d="M63037 40743c-3,250 -222,255 -370,283 -270,51 -516,350 -819,111 -50,-40 -60,-133 -83,-204 -319,-977 -631,-1957 -961,-2931 -91,-270 -39,-404 243,-491 1048,-322 796,-394 1122,542 281,807 531,1625 794,2438 26,83 49,166 74,251z"/>
  </g>
 </g>
</svg>