<svg xmlns="http://www.w3.org/2000/svg" xmlns:xlink="http://www.w3.org/1999/xlink" xmlns:xodm="http://www.corel.com/coreldraw/odm/2003" xml:space="preserve" version="1.1" style="shape-rendering:geometricPrecision; text-rendering:geometricPrecision; image-rendering:optimizeQuality; fill-rule:evenodd; clip-rule:evenodd" viewBox="30265 32046 39468.94 35908.48">
 <defs>
  <style type="text/css">
   <![CDATA[
    .fil0 {fill:#0063A2;fill-rule:nonzero}
   ]]>
  </style>
 </defs>
 <g id="Layer_x0020_1">
  <metadata id="CorelCorpID_0Corel-Layer"/>
  <g id="_1413100555008">
   <path class="fil0" d="M45136 49019l5319 -207 0 1978 -5319 0 0 -1771zm11635 19l5953 0 0 1752 -5953 0 0 -1752zm0 -3001l5953 0 0 1745 -5953 0 0 -1745zm0 -3002l5953 0 0 1746 -5953 0 0 -1746zm0 -3007l6009 0c-25,546 -44,1124 -50,1752l-5959 0 0 -1752zm-25877 106l6204 0 0 10656 -3881 0c-346,0 -628,283 -628,628 0,345 282,628 628,628l22298 0 0 3573c0,345 282,628 628,628 352,0 628,-283 628,-628l0 -3573 5953 0 0 4829c0,346 282,628 628,628 345,0 628,-283 628,-628l0 -4829 4961 0c345,0 628,-283 628,-628 0,-345 -283,-628 -628,-628l-4961 0 0 -8113c0,-8037 1331,-8037 1897,-8037 1048,0 1896,848 1896,1896l0 2129c0,345 283,628 628,628 352,0 628,-283 628,-628l0 -2129c0,-1739 -1413,-3152 -3152,-3152 -1783,0 -2700,1532 -3015,5387l-6091 0 0 -3152c0,-1049 854,-1896 1902,-1896 1043,0 1897,848 1897,1896l0 1331c0,345 283,628 628,628 345,0 628,-282 628,-628l0 -1331c0,-1739 -1413,-3152 -3152,-3152 -1739,0 -3158,1413 -3158,3152l0 15171 -3806 0 0 -2022 1256 -50c352,-13 621,-307 609,-653 -19,-346 -327,-616 -654,-603l-8194 314 -2493 -2059c-264,-220 -659,-182 -879,88 -226,263 -188,659 81,885l2443 2015 0 2085 -5526 0 0 -10656 6204 0c345,0 628,-282 628,-628 0,-4120 -3346,-7460 -7460,-7460 -4113,0 -7460,3340 -7460,7460 0,345 283,628 628,628z"/>
   <path class="fil0" d="M68713 58099c-2505,2009 -5159,864 -7096,29 -777,-335 -1338,-577 -1817,-577 -220,0 -464,59 -1798,842 -2783,1631 -5399,7 -6065,-175 -1821,-696 -3908,-559 -5593,369 -1318,726 -2966,854 -4410,344l-2987 -1054c-3139,-1109 -5365,490 -8141,1169 -330,106 -512,459 -406,790 106,330 457,511 789,406 2949,-746 4725,-2104 7340,-1181l2987 1055c1774,626 3804,470 5434,-427 1590,-876 2951,-757 4657,-257 574,167 3705,1996 7030,46 806,-472 1115,-619 1224,-664 254,37 784,265 1257,469 1977,853 5285,2279 8380,-202 270,-217 314,-613 97,-883 -217,-270 -611,-314 -883,-97z"/>
   <path class="fil0" d="M68713 61812c-3504,2810 -7269,-548 -8912,-548 -1271,0 -2771,2827 -7406,844 -2175,-933 -4335,-753 -6051,191 -2983,1642 -5555,-276 -7397,-711 -3143,-1109 -5363,489 -8141,1169 -330,106 -512,459 -406,790 106,330 457,512 789,407 2958,-750 4726,-2104 7340,-1180 1702,388 4849,2594 8421,626 1391,-766 3131,-915 4952,-137 4568,1953 6474,-124 7960,-737 1272,183 5659,3455 9637,267 270,-217 314,-612 97,-883 -217,-270 -611,-315 -883,-97z"/>
   <path class="fil0" d="M68713 65524c-3461,2776 -7425,-547 -8912,-547 -1269,0 -2763,2828 -7406,844 -4966,-2129 -6382,1977 -10461,536 -2050,-544 -4187,-2106 -7280,-1117l-3848 1231c-330,105 -512,459 -406,789 106,330 457,513 789,407l3847 -1231c2581,-826 4310,509 6479,1105 4809,1697 5848,-2505 10386,-565 4574,1957 6555,-118 7923,-722 2243,674 6011,3186 9674,251 270,-217 314,-613 97,-883 -217,-270 -611,-314 -883,-98z"/>
   <path class="fil0" d="M41896 55786c347,0 628,-281 628,-628 0,-347 -281,-628 -628,-628l-168 0c-347,0 -628,281 -628,628 0,347 281,628 628,628l168 0z"/>
   <path class="fil0" d="M47258 55786c347,0 628,-281 628,-628 0,-347 -281,-628 -628,-628l-168 0c-347,0 -628,281 -628,628 0,347 281,628 628,628l168 0z"/>
  </g>
 </g>
</svg>