<svg xmlns="http://www.w3.org/2000/svg" xmlns:xlink="http://www.w3.org/1999/xlink" xmlns:xodm="http://www.corel.com/coreldraw/odm/2003" xml:space="preserve" version="1.1" style="shape-rendering:geometricPrecision; text-rendering:geometricPrecision; image-rendering:optimizeQuality; fill-rule:evenodd; clip-rule:evenodd" viewBox="19462 19462 11077 11077">
 <defs>
  <style type="text/css">
   <![CDATA[
    .fil0 {fill:#0063A2}
   ]]>
  </style>
 </defs>
 <g id="Layer_x0020_1">
  <metadata id="CorelCorpID_0Corel-Layer"/>
  <g id="_1407384884544">
   <polygon class="fil0" points="30539,19462 29745,19462 19462,29615 19462,30539 20234,30539 30539,20234 "/>
   <polygon class="fil0" points="26613,19462 19462,26539 19462,28077 28179,19462 "/>
   <polygon class="fil0" points="23486,19487 19462,23434 19462,25000 25000,19462 "/>
   <polygon class="fil0" points="20345,19462 19462,20385 19462,21923 21911,19462 "/>
   <polygon class="fil0" points="30539,21800 21800,30539 23367,30539 30539,23367 "/>
   <polygon class="fil0" points="30539,24935 24935,30539 26502,30539 30539,26502 "/>
   <polygon class="fil0" points="30539,28068 28068,30539 29634,30539 30539,29634 "/>
  </g>
 </g>
</svg>