<svg xmlns="http://www.w3.org/2000/svg" xmlns:xlink="http://www.w3.org/1999/xlink" xmlns:xodm="http://www.corel.com/coreldraw/odm/2003" xml:space="preserve" version="1.1" style="shape-rendering:geometricPrecision; text-rendering:geometricPrecision; image-rendering:optimizeQuality; fill-rule:evenodd; clip-rule:evenodd" viewBox="19463 19462 11073 11075">
 <defs>
  <style type="text/css">
   <![CDATA[
    .fil0 {fill:#0063A2}
   ]]>
  </style>
 </defs>
 <g id="Layer_x0020_1">
  <metadata id="CorelCorpID_0Corel-Layer"/>
  <g id="_1407308636176">
   <path class="fil0" d="M24989 30537c-1776,0 -3552,0 -5329,0 -197,0 -197,0 -197,-200 0,-170 0,-170 171,-170 26,0 52,-2 78,0 83,9 111,-27 109,-109 -4,-256 -2,-513 -2,-769 0,-2267 0,-4533 0,-6800 0,-172 0,-172 169,-172 609,0 1219,-2 1828,2 111,1 146,-27 146,-143 -4,-854 -2,-1709 -2,-2564 0,-149 1,-150 146,-150 1691,0 3381,0 5072,0 146,0 147,1 147,150 0,1323 0,2646 0,3969 0,163 0,163 165,163 847,0 1694,0 2542,0 146,0 147,1 147,150 0,2036 0,4072 0,6109 0,163 0,163 164,164 193,0 193,0 193,193 0,177 0,177 -176,177 -1791,0 -3582,0 -5373,0zm-4798 -4122l0 0c0,1204 1,2408 -2,3611 0,102 21,143 134,143 1453,-4 2906,-4 4358,0 110,0 136,-36 136,-141 -2,-2400 -3,-4800 0,-7201 0,-115 -35,-143 -146,-143 -1445,4 -2891,2 -4336,3 -144,0 -145,0 -145,149 0,1193 0,2385 0,3578zm5709 721l0 0c0,966 1,1932 -2,2898 0,100 25,140 131,134 152,-8 305,-6 457,0 87,3 116,-27 115,-115 -3,-751 -3,-1501 0,-2252 0,-93 -30,-120 -122,-121 -259,0 -233,50 -239,-248 -1,-91 30,-124 122,-122 305,4 609,2 914,2 687,0 1374,1 2062,-2 94,0 133,24 131,125 -8,292 24,243 -241,246 -72,1 -119,9 -119,101 2,761 2,1523 0,2285 0,81 33,102 107,100 148,-4 297,-1 446,-1 148,0 148,0 148,-146 0,-1921 -1,-3842 2,-5763 0,-111 -27,-146 -143,-145 -1207,4 -2415,2 -3622,3 -148,0 -148,0 -148,146 0,959 0,1917 0,2876zm-714 -888l0 0c0,342 0,683 0,1025 0,918 0,1836 1,2754 0,43 -20,107 24,124 91,34 193,31 284,4 65,-19 33,-98 33,-150 2,-2029 1,-4057 2,-6086 0,-174 0,-174 178,-174 371,0 743,-4 1115,2 110,2 137,-36 136,-141 -3,-1215 -3,-2430 0,-3645 0,-107 -37,-130 -135,-130 -1449,2 -2898,2 -4347,2 -144,0 -144,0 -144,150 0,728 0,1457 0,2185 0,148 0,148 146,148 847,0 1694,0 2541,0 167,0 167,0 167,163 0,1256 0,2512 0,3768zm3554 2688l0 0c0,-375 -3,-750 2,-1125 1,-94 -22,-131 -124,-130 -509,4 -1017,4 -1526,0 -89,-1 -124,22 -124,118 3,750 3,1500 0,2250 0,95 34,119 123,119 509,-4 1018,-4 1526,0 101,1 125,-35 124,-130 -4,-367 -2,-735 -2,-1103z"/>
   <path class="fil0" d="M21064 24115c-141,0 -282,-2 -423,1 -72,2 -109,-20 -108,-100 3,-297 2,-594 1,-891 0,-65 24,-94 91,-94 301,2 601,2 902,0 67,0 91,30 91,94 -1,297 -2,594 0,891 1,81 -37,101 -109,100 -148,-3 -297,-1 -445,-1zm183 -543l0 0c0,-170 0,-170 -156,-170 -187,0 -187,0 -187,172 0,170 0,170 145,170 198,0 198,0 198,-172z"/>
   <path class="fil0" d="M23044 23564c0,148 -2,297 1,445 2,75 -26,107 -104,106 -293,-2 -586,-2 -879,0 -78,1 -104,-31 -103,-106 2,-293 2,-586 0,-879 0,-70 25,-101 97,-100 297,2 594,2 891,0 72,0 98,30 97,100 -3,144 -1,289 -1,434zm-370 0l0 0c0,-163 0,-163 -185,-163 -158,0 -158,0 -157,191 0,152 0,152 197,152 146,0 146,0 146,-180z"/>
   <path class="fil0" d="M24471 23584c0,141 -2,282 1,423 2,72 -20,109 -100,108 -297,-3 -594,-2 -891,-1 -65,0 -94,-24 -94,-91 2,-300 2,-601 0,-902 0,-68 30,-91 94,-91 297,2 594,2 891,0 81,-1 101,37 100,109 -3,148 -1,297 -1,445zm-370 -4l0 0c0,-179 0,-179 -170,-179 -174,0 -174,0 -174,164 0,179 0,179 170,179 173,0 173,0 174,-164z"/>
   <path class="fil0" d="M23387 27847c0,-141 3,-282 -1,-423 -2,-79 24,-113 108,-113 289,4 579,3 868,0 82,-1 111,30 110,111 -3,289 -3,579 0,868 1,85 -35,108 -113,107 -286,-3 -572,-4 -857,0 -88,1 -119,-30 -116,-117 5,-144 1,-289 1,-434zm713 9l0 0c0,-173 0,-173 -154,-173 -189,0 -189,0 -189,170 0,172 0,173 143,172 208,-2 201,26 200,-170z"/>
   <path class="fil0" d="M22500 29823c-145,0 -289,-2 -434,1 -75,2 -107,-25 -106,-103 3,-293 3,-586 0,-880 -1,-78 31,-104 106,-103 293,2 586,2 879,0 70,0 101,25 100,97 -2,297 -2,593 0,890 0,72 -30,99 -100,97 -148,-2 -297,-1 -445,0zm7 -713l0 0c-176,0 -176,0 -176,174 0,169 0,170 157,169 208,-1 185,17 186,-195 0,-148 0,-148 -167,-148z"/>
   <path class="fil0" d="M23938 29823c-148,0 -297,-2 -445,1 -75,2 -107,-25 -106,-103 3,-293 3,-586 0,-879 -1,-78 31,-104 106,-103 293,2 586,2 880,0 70,0 100,25 100,97 -2,297 -2,594 0,891 0,72 -30,98 -100,97 -144,-3 -289,-1 -434,-1zm163 -534l0 0c0,-180 0,-180 -180,-179 -163,0 -163,0 -163,175 0,168 0,168 192,168 152,0 152,0 151,-164z"/>
   <path class="fil0" d="M21083 24458c141,0 282,3 423,-1 79,-2 114,24 113,108 -3,289 -3,579 0,869 1,82 -30,111 -111,110 -289,-3 -579,-3 -869,0 -85,1 -107,-35 -107,-114 3,-285 4,-571 0,-857 -1,-87 30,-119 117,-115 144,5 289,1 434,1zm1 370l0 0c-180,0 -180,0 -180,157 0,185 0,185 174,185 169,0 169,0 169,-146 0,-196 0,-196 -163,-196z"/>
   <path class="fil0" d="M22496 25542c-141,0 -282,-3 -423,1 -78,2 -114,-22 -113,-107 4,-289 3,-579 0,-868 -1,-81 28,-111 110,-111 289,3 579,4 868,0 84,-1 109,34 108,113 -3,285 -4,571 0,857 1,86 -29,119 -116,116 -144,-5 -289,-1 -434,-1zm0 -370l0 0c178,0 178,0 178,-148 0,-194 0,-194 -154,-195 -189,0 -189,0 -189,159 0,184 0,184 165,184z"/>
   <path class="fil0" d="M23923 25542c-141,0 -282,-3 -423,1 -78,2 -115,-22 -113,-107 3,-289 3,-579 0,-868 -1,-81 28,-111 110,-111 289,3 579,2 868,0 74,-1 108,22 107,101 -3,293 -2,586 0,880 1,76 -27,107 -104,105 -148,-4 -296,-1 -445,-1zm-4 -370l0 0c181,0 181,0 182,-156 0,-187 0,-187 -173,-187 -170,0 -170,0 -170,144 0,198 0,198 161,198z"/>
   <path class="fil0" d="M21617 26431c0,144 -3,289 1,434 2,77 -29,105 -105,104 -293,-2 -586,-3 -880,0 -80,1 -102,-34 -101,-107 2,-289 3,-579 0,-868 -1,-82 30,-111 111,-110 289,3 579,4 868,0 85,-1 109,35 107,113 -4,145 -1,289 -1,434zm-370 6l0 0c0,-181 0,-181 -156,-181 -187,0 -187,0 -187,150 0,193 0,193 167,193 176,0 176,0 176,-161z"/>
   <path class="fil0" d="M20533 29279c0,-145 2,-290 -1,-434 -2,-75 25,-107 103,-106 293,3 586,2 880,0 78,-1 104,30 103,106 -2,293 -2,586 0,880 1,70 -24,100 -97,100 -297,-2 -594,-2 -891,0 -72,0 -98,-30 -97,-100 2,-148 1,-297 1,-445zm550 -169l0 0c-180,0 -180,0 -180,180 0,163 0,163 163,163 180,0 180,0 180,-180 0,-163 0,-163 -163,-163z"/>
   <path class="fil0" d="M22502 26969c-145,0 -289,-3 -434,1 -83,2 -110,-31 -109,-112 3,-289 3,-579 0,-868 -1,-75 25,-107 103,-106 293,3 587,3 880,0 78,0 104,31 103,106 -2,289 -3,579 0,869 1,80 -26,114 -109,112 -145,-4 -289,-1 -434,-1zm2 -713l0 0c-173,0 -173,0 -174,142 0,201 0,201 147,201 196,1 196,1 196,-153 0,-190 0,-190 -170,-190z"/>
   <path class="fil0" d="M24471 26430c0,145 -2,290 1,434 2,75 -25,107 -103,106 -293,-3 -587,-3 -880,0 -78,1 -104,-31 -103,-106 2,-293 2,-586 0,-879 0,-70 24,-101 97,-100 297,2 594,2 891,0 72,-1 99,30 97,100 -2,148 -1,297 0,445zm-713 -4l0 0c0,172 0,172 154,172 189,0 189,0 189,-170 0,-172 0,-172 -154,-172 -189,0 -189,0 -189,170z"/>
   <path class="fil0" d="M21074 28396c-145,0 -289,-2 -434,1 -74,2 -108,-22 -107,-102 3,-293 2,-587 0,-880 -1,-76 28,-105 105,-104 293,2 586,2 879,0 80,0 102,34 102,107 -2,290 -3,579 0,869 1,81 -29,113 -111,110 -144,-4 -289,-1 -434,-1zm-170 -541l0 0c0,171 0,171 178,170 165,0 165,0 165,-183 0,-160 0,-160 -200,-159 -143,0 -143,0 -143,172z"/>
   <path class="fil0" d="M23044 27854c0,145 -2,290 1,434 2,72 -20,109 -100,109 -297,-3 -594,-2 -891,0 -65,0 -94,-24 -94,-92 1,-300 1,-601 0,-902 0,-67 30,-91 94,-91 297,2 594,2 891,0 81,-1 102,36 100,109 -3,144 -1,289 -1,434zm-541 -171l0 0c-172,0 -172,0 -172,187 0,156 0,156 170,156 173,0 173,0 172,-187 0,-156 0,-156 -171,-156z"/>
   <path class="fil0" d="M28743 26969c-200,0 -401,-3 -601,2 -86,2 -119,-27 -117,-115 4,-286 3,-572 0,-857 -1,-78 22,-114 107,-114 408,3 817,3 1225,0 81,0 112,27 111,109 -3,290 -4,579 0,869 1,84 -33,109 -113,108 -204,-4 -408,-1 -612,-1zm-8 -371l0 0c0,0 0,0 0,0 44,0 89,1 133,0 257,-5 222,41 229,-233 2,-91 -34,-115 -118,-112 -115,6 -230,0 -344,2 -269,5 -236,-55 -239,254 -1,70 31,91 95,89 81,-3 163,-1 244,-1z"/>
   <path class="fil0" d="M26954 25542c-200,0 -401,-2 -601,1 -80,1 -113,-26 -112,-109 4,-289 4,-579 0,-869 -1,-83 32,-109 112,-109 404,2 809,3 1213,0 85,-1 119,26 118,115 -4,286 -4,572 0,857 2,90 -33,116 -118,115 -204,-4 -408,-1 -613,-1zm9 -713l0 0c-41,0 -81,-1 -122,0 -256,4 -222,-39 -230,233 -2,91 35,115 118,111 115,-5 230,1 344,-2 268,-6 236,55 239,-255 1,-69 -31,-91 -95,-89 -85,3 -170,1 -256,1z"/>
   <path class="fil0" d="M28741 25542c-200,0 -401,-3 -601,2 -89,2 -116,-33 -115,-118 4,-286 3,-572 0,-857 -1,-80 26,-112 109,-112 408,3 817,3 1225,0 83,0 110,31 109,112 -3,285 -3,571 0,857 1,85 -26,120 -115,118 -204,-5 -408,-2 -612,-2zm4 -371l0 0c0,0 0,0 0,0 37,0 74,1 111,0 270,-6 238,53 241,-254 1,-68 -28,-91 -93,-90 -122,3 -244,1 -367,1 -265,0 -265,2 -242,265 5,56 27,79 82,78 89,-1 178,0 267,0z"/>
   <path class="fil0" d="M26957 26969c-200,0 -401,-3 -601,2 -89,2 -116,-32 -115,-117 4,-286 3,-572 0,-857 -1,-80 26,-112 109,-112 408,3 817,3 1225,0 83,0 110,31 109,112 -3,285 -3,571 0,857 1,85 -26,120 -115,118 -204,-5 -408,-2 -612,-2zm1 -371l0 0c0,0 0,0 0,0 41,0 81,1 122,0 262,-6 228,44 233,-239 2,-76 -23,-108 -102,-105 -122,4 -244,-1 -367,2 -261,4 -230,-50 -233,250 -1,65 22,96 90,93 85,-3 170,-1 256,-1z"/>
   <path class="fil0" d="M24637 21974c-606,0 -1211,0 -1817,0 -146,0 -147,-1 -147,-150 0,-505 2,-1010 -2,-1515 -1,-100 30,-135 133,-134 1226,3 2451,3 3677,0 104,0 133,35 132,135 -4,509 -4,1018 0,1527 1,106 -30,141 -139,140 -613,-4 -1226,-2 -1838,-2zm15 -1427l0 0c-494,0 -988,2 -1482,-2 -95,-1 -131,24 -129,125 6,271 5,543 0,813 -2,91 26,122 120,122 984,-3 1968,-3 2952,0 96,0 131,-24 129,-125 -6,-267 -6,-535 0,-802 2,-101 -27,-135 -131,-134 -486,5 -973,2 -1459,2z"/>
  </g>
 </g>
</svg>