<svg xmlns="http://www.w3.org/2000/svg" xmlns:xlink="http://www.w3.org/1999/xlink" xmlns:xodm="http://www.corel.com/coreldraw/odm/2003" xml:space="preserve" version="1.1" style="shape-rendering:geometricPrecision; text-rendering:geometricPrecision; image-rendering:optimizeQuality; fill-rule:evenodd; clip-rule:evenodd" viewBox="19463 19465.18 11075 11071.82">
 <defs>
  <style type="text/css">
   <![CDATA[
    .fil0 {fill:#0063A2}
    .fil6 {fill:#272727}
    .fil3 {fill:#333332}
    .fil2 {fill:#404040}
    .fil1 {fill:#4B4B4B}
    .fil4 {fill:#4D4D4D}
    .fil5 {fill:#7D7D7D}
   ]]>
  </style>
 </defs>
 <g id="Layer_x0020_1">
  <metadata id="CorelCorpID_0Corel-Layer"/>
  <g id="_1408082593328">
   <path class="fil0" d="M24083 20398c-52,-102 -24,-775 -24,-892l-902 1 0 4109 -901 9c-43,-40 -30,69 -48,-103l2 -4032 -2727 0 0 2720 848 3c60,12 55,24 69,33l-11 914 -920 1 0 2756 919 6 10 917c-75,76 -344,35 -448,35 -153,0 -306,0 -459,0l0 3633 1804 -1c11,-211 -30,-743 22,-903l913 -9c73,218 -17,675 35,929l847 3c73,-188 28,-3198 28,-3667l-1826 -1c-49,-95 -52,-669 -37,-835 15,-165 11,-79 46,-113l1834 9 0 -1381 1843 0 0 921 -921 0 0 5065 915 0 7 -920 921 0 1 917 1807 1c70,-246 -39,-702 40,-921l914 -7c73,238 -34,684 39,928l1804 0 5 -2759 -922 -4 2 -920 920 -1 0 -1375 -4609 -6 0 -2296 922 -6 0 1375 3685 6 2 -1374 -911 -7 -20 -915c33,-25 -69,-42 126,-42l789 0 0 -2710 -3650 0c0,358 39,2622 -28,2767 -145,39 -525,16 -729,19 -184,3 -166,5 -199,-52l14 -2750 -917 0 -6 920 -917 -2z"/>
   <path class="fil1" d="M20401 22248c-14,-9 -9,-22 -69,-33l-848 -3 0 -2720 2727 0 -2 4032c18,171 6,63 48,103l-14 -4143 -2776 -13 -4 2772 939 5z"/>
   <path class="fil2" d="M25909 22229c33,56 15,55 199,52 204,-3 584,20 729,-19 68,-145 28,-2409 28,-2767l3650 0 0 2710 -789 0c-195,0 -93,17 -126,42l925 -1 13 -2767 -3696 -6 -5 2764 -928 -7z"/>
   <path class="fil3" d="M21292 30532l4 -22 -1804 1 0 -3633c153,0 306,-1 459,0 104,0 373,41 448,-35l-934 5 5 3689 1822 -3z"/>
   <path class="fil4" d="M23113 30530c69,-44 35,71 56,-102l-4 -353c0,-500 18,-3012 -8,-3237l-1839 0 5 -924c-35,34 -31,-52 -46,113 -15,167 -12,740 37,835l1826 1c0,468 45,3478 -28,3667z"/>
   <path class="fil5" d="M21296 30510l-4 22c47,-47 28,16 37,-104 2,-20 -2,-85 -2,-110l0 -694 898 1c1,159 1,318 0,477 -1,165 -31,393 42,424 -52,-254 39,-711 -35,-929l-913 9c-52,159 -12,691 -22,903z"/>
   <path class="fil5" d="M27730 30526c53,-40 41,57 46,-73l0 -829 898 1c1,159 2,318 1,477 -1,195 -35,393 48,424 -72,-244 34,-690 -39,-928l-914 7c-79,219 30,674 -40,921z"/>
   <path class="fil6" d="M24083 20398l-1 -919c-152,-2 -817,-44 -925,29l902 -1c0,117 -28,789 24,892z"/>
  </g>
 </g>
</svg>