<svg xmlns="http://www.w3.org/2000/svg" xmlns:xlink="http://www.w3.org/1999/xlink" xmlns:xodm="http://www.corel.com/coreldraw/odm/2003" xml:space="preserve" version="1.1" style="shape-rendering:geometricPrecision; text-rendering:geometricPrecision; image-rendering:optimizeQuality; fill-rule:evenodd; clip-rule:evenodd" viewBox="19463 19465 11074.26 11069.95">
 <defs>
  <style type="text/css">
   <![CDATA[
    .fil0 {fill:#0063A2}
   ]]>
  </style>
 </defs>
 <g id="Layer_x0020_1">
  <metadata id="CorelCorpID_0Corel-Layer"/>
  <g id="_1408093401136">
   <path class="fil0" d="M19463 24986c0,-1722 0,-3443 0,-5165 0,-302 52,-356 347,-356 3462,0 6925,0 10387,0 267,0 335,66 335,328 0,863 0,1726 0,2589 0,255 -68,322 -326,322 -2431,0 -4863,0 -7294,0 -208,0 -209,0 -209,214 0,2417 0,4834 0,7251 0,308 -54,363 -357,363 -854,0 -1707,0 -2561,0 -254,0 -322,-69 -322,-326 0,-1741 0,-3481 0,-5222zm6924 -5043l0 0c-652,0 -1304,0 -1956,0 -528,0 -1055,0 -1583,0 -76,0 -144,-2 -144,107 2,691 1,1381 0,2071 0,83 39,108 116,107 144,-2 288,-4 431,1 91,3 132,-30 128,-125 -4,-115 -5,-230 2,-345 8,-134 107,-221 237,-220 130,1 224,88 236,222 5,52 1,105 2,158 9,347 -72,305 330,310 91,1 116,-42 114,-124 -3,-115 -5,-230 2,-345 8,-134 106,-221 236,-221 130,0 224,87 235,222 5,57 2,115 3,172 6,328 -56,289 301,297 120,3 146,-47 144,-154 -5,-244 -3,-489 0,-734 2,-167 93,-264 238,-264 145,0 235,97 237,265 3,192 -2,383 2,575 7,346 -71,306 330,310 91,1 116,-42 114,-124 -3,-115 -5,-230 2,-345 8,-133 107,-221 236,-221 129,0 224,88 236,222 5,52 2,106 3,158 6,351 -58,303 315,310 104,2 133,-43 129,-138 -5,-115 -6,-231 3,-345 10,-125 110,-207 235,-207 124,0 220,81 235,207 7,61 2,124 4,187 6,331 -52,288 301,297 118,3 147,-46 144,-154 -6,-244 -4,-489 -1,-733 2,-167 93,-265 237,-265 146,0 235,97 238,264 3,192 -2,383 2,575 7,349 -71,306 329,311 90,1 117,-40 115,-123 -3,-110 -4,-220 1,-331 7,-144 102,-236 236,-236 135,-1 231,91 237,235 6,110 6,221 1,331 -4,95 37,127 128,124 129,-4 259,-9 388,1 131,10 161,-44 161,-167 -5,-643 -2,-1285 -3,-1928 0,-193 0,-194 -201,-194 -1156,0 -2311,0 -3467,0zm-6446 6431l0 0c0,662 0,1324 0,1985 0,518 0,1036 0,1554 0,76 -2,144 107,144 690,-2 1381,-2 2071,0 83,0 109,-39 107,-115 -2,-149 -4,-297 0,-446 2,-91 -43,-115 -124,-113 -115,3 -230,5 -345,-3 -135,-8 -221,-106 -221,-236 1,-130 88,-224 222,-235 57,-5 115,-2 172,-3 330,-5 287,52 296,-301 3,-120 -47,-146 -154,-144 -244,5 -489,3 -733,0 -167,-2 -265,-92 -264,-238 0,-145 97,-235 265,-237 196,-3 393,1 590,-1 331,-4 288,51 297,-301 3,-120 -46,-149 -154,-144 -110,6 -221,6 -331,-3 -126,-11 -207,-110 -207,-234 0,-124 82,-220 207,-235 57,-7 115,-2 172,-4 349,-9 306,72 310,-330 1,-90 -40,-117 -123,-115 -120,3 -240,6 -359,-4 -125,-10 -207,-110 -207,-234 0,-124 82,-221 207,-235 62,-7 124,-2 187,-4 332,-6 289,51 298,-300 3,-118 -45,-148 -153,-145 -244,6 -489,4 -734,1 -168,-2 -265,-92 -265,-237 0,-145 97,-236 264,-238 197,-3 393,1 590,-1 331,-5 289,51 298,-301 3,-118 -45,-150 -153,-144 -110,6 -221,6 -331,-3 -126,-11 -207,-110 -207,-234 0,-125 82,-221 207,-235 57,-7 115,-3 172,-4 348,-8 308,71 309,-329 0,-5 0,-9 0,-14 4,-76 -37,-101 -107,-100 -115,2 -230,4 -345,-2 -144,-6 -235,-102 -236,-236 -1,-135 91,-231 235,-237 110,-5 221,-6 331,-1 95,4 128,-37 125,-128 -4,-130 -9,-259 1,-388 10,-131 -44,-162 -167,-161 -633,5 -1266,2 -1899,2 -222,0 -222,0 -222,217 0,1151 0,2302 0,3452zm1128 -6432l0 0c-321,0 -642,5 -963,-2 -122,-3 -169,29 -168,160 6,657 6,1313 0,1970 -1,131 46,161 168,160 652,-5 1304,-5 1956,0 121,1 169,-30 168,-160 -6,-657 -6,-1313 0,-1970 1,-131 -46,-163 -168,-160 -331,7 -661,2 -992,2z"/>
   <path class="fil0" d="M27522 25103c0,-176 -1,-347 0,-518 2,-181 85,-281 233,-283 155,-2 242,100 243,289 1,302 2,604 -1,906 -1,83 23,146 84,203 161,152 319,305 474,461 93,94 128,205 51,326 -65,102 -165,125 -278,98 -64,-15 -105,-65 -150,-108 -556,-548 -1115,-1095 -1667,-1648 -99,-100 -156,-113 -263,-6 -548,551 -1104,1093 -1657,1639 -34,33 -68,69 -107,96 -99,66 -241,48 -314,-41 -80,-96 -86,-200 -7,-302 26,-34 58,-64 89,-94 622,-619 1245,-1237 1868,-1855 206,-205 311,-204 519,2 248,246 496,494 746,739 36,35 62,85 137,98z"/>
   <path class="fil0" d="M26365 28231c-436,0 -872,1 -1309,0 -219,0 -296,-76 -297,-293 -2,-426 -1,-853 0,-1280 0,-180 85,-281 233,-284 154,-3 243,100 244,288 2,311 4,623 -2,935 -2,115 29,161 153,160 661,-5 1323,-5 1984,0 123,1 155,-45 153,-160 -6,-311 -3,-623 -2,-935 1,-190 88,-291 243,-288 148,2 232,103 233,284 1,431 2,863 0,1294 -1,196 -83,278 -282,279 -450,2 -901,0 -1352,0z"/>
   <path class="fil0" d="M30067 30532c-86,0 -173,6 -259,-2 -127,-11 -210,-106 -213,-229 -2,-130 83,-227 216,-243 213,-25 213,-25 246,-254 15,-100 70,-169 165,-197 94,-28 181,-8 249,68 87,98 89,676 2,776 -46,54 -106,81 -177,81 -77,0 -154,0 -230,0 0,0 0,-1 0,-1z"/>
   <path class="fil0" d="M25230 30533c-139,0 -278,4 -416,-1 -151,-6 -249,-106 -248,-243 1,-126 101,-228 245,-230 278,-5 555,-5 833,0 151,3 251,107 248,242 -3,129 -101,226 -244,231 -139,5 -278,1 -417,1z"/>
   <path class="fil0" d="M28586 30533c-139,0 -278,4 -417,-1 -146,-5 -240,-98 -243,-230 -3,-139 93,-241 244,-243 278,-4 556,-5 835,0 141,3 238,107 237,237 -1,130 -98,231 -239,236 -139,6 -278,1 -417,1z"/>
   <path class="fil0" d="M26911 30533c-139,0 -278,4 -417,-1 -141,-4 -242,-103 -246,-230 -4,-133 100,-242 246,-244 278,-4 556,-4 834,1 144,2 238,104 237,236 -2,134 -95,232 -237,237 -139,5 -278,1 -417,2z"/>
   <path class="fil0" d="M30531 25408c0,129 3,258 -1,387 -5,153 -99,248 -239,247 -139,-1 -233,-96 -235,-250 -4,-258 -4,-517 0,-775 2,-156 93,-252 232,-255 145,-3 239,95 243,258 3,129 0,258 0,387z"/>
   <path class="fil0" d="M30055 27008c0,-129 -3,-258 1,-387 5,-154 100,-248 240,-246 139,2 233,97 235,252 4,258 3,517 0,775 -2,156 -94,251 -233,254 -145,2 -238,-95 -242,-259 -3,-129 0,-258 0,-387z"/>
   <path class="fil0" d="M30531 28633c0,124 2,249 -1,373 -4,165 -96,262 -241,260 -139,-2 -231,-97 -233,-252 -4,-258 -4,-517 0,-775 2,-155 95,-251 233,-253 144,-2 238,96 242,260 3,129 1,258 1,387z"/>
   <path class="fil0" d="M30530 23968c0,81 5,163 -1,244 -10,134 -107,220 -236,220 -130,-1 -230,-87 -235,-221 -7,-167 -7,-335 1,-502 6,-126 105,-209 228,-212 130,-3 231,82 242,214 7,85 1,172 2,258z"/>
   <path class="fil0" d="M23723 30532c-81,0 -163,6 -244,-1 -133,-11 -218,-110 -216,-240 2,-124 85,-224 211,-230 172,-8 344,-8 516,0 125,6 207,107 208,231 2,130 -85,228 -217,238 -85,7 -172,1 -258,1z"/>
  </g>
 </g>
</svg>