<svg xmlns="http://www.w3.org/2000/svg" xmlns:xlink="http://www.w3.org/1999/xlink" xmlns:xodm="http://www.corel.com/coreldraw/odm/2003" xml:space="preserve" version="1.1" style="shape-rendering:geometricPrecision; text-rendering:geometricPrecision; image-rendering:optimizeQuality; fill-rule:evenodd; clip-rule:evenodd" viewBox="20561 20076 8878 9847.42">
 <defs>
  <style type="text/css">
   <![CDATA[
    .fil0 {fill:#0063A2}
   ]]>
  </style>
 </defs>
 <g id="Layer_x0020_1">
  <metadata id="CorelCorpID_0Corel-Layer"/>
  <g id="_1409604224192">
   <path class="fil0" d="M26236 20988l0 1322c-108,115 -209,241 -303,376l0 -1922 303 223zm-934 -689l0 3652c-128,346 -229,702 -303,1064l0 -4939 303 223zm466 344l0 2308c-110,193 -211,392 -302,596l0 -3126 302 222z"/>
   <path class="fil0" d="M23930 20866l0 1856c-54,-61 -109,-120 -165,-178l0 -1556 165 -122zm763 -563l0 3713 -1 -2c-48,-135 -103,-267 -165,-395l0 -3195 165 -122zm-382 282l0 2646c-52,-82 -107,-162 -164,-241l0 -2284 164 -121z"/>
   <g>
    <path class="fil0" d="M29439 21482c-1355,1770 85,4311 -762,6344 -296,678 -729,1042 -1271,1178 -746,204 -1398,-34 -1830,-610 -585,-864 -712,-3330 474,-5354 707,-1206 2033,-1626 3388,-1559z"/>
    <path class="fil0" d="M24424 24125c813,1694 -813,4947 1965,5286 -406,610 -1762,610 -2575,339 -1084,-271 -2033,-1220 -2440,-2237 -745,-1830 356,-4685 -813,-6031 1694,0 3321,1084 3863,2643l0 0z"/>
   </g>
  </g>
 </g>
</svg>