<svg xmlns="http://www.w3.org/2000/svg" xmlns:xlink="http://www.w3.org/1999/xlink" xmlns:xodm="http://www.corel.com/coreldraw/odm/2003" xml:space="preserve" version="1.1" style="shape-rendering:geometricPrecision; text-rendering:geometricPrecision; image-rendering:optimizeQuality; fill-rule:evenodd; clip-rule:evenodd" viewBox="20811.04 18045.18 8377.62 13907.82">
 <defs>
  <style type="text/css">
   <![CDATA[
    .fil0 {fill:#0063A2}
   ]]>
  </style>
 </defs>
 <g id="Layer_x0020_1">
  <metadata id="CorelCorpID_0Corel-Layer"/>
  <g id="_1409592706688">
   <path class="fil0" d="M24952 18048c2109,1 3811,1413 4174,3438 163,909 0,1774 -396,2609 -1186,2502 -2360,5010 -3539,7515 -39,84 -76,170 -117,254 -17,35 -24,89 -74,89 -51,0 -57,-54 -74,-89 -166,-351 -331,-702 -496,-1054 -784,-1667 -1570,-3333 -2349,-5003 -343,-736 -737,-1452 -1016,-2215 -887,-2425 639,-5038 3185,-5485 251,-44 502,-69 701,-60zm-6 539l0 0c-194,-6 -452,17 -706,72 -2236,476 -3540,2815 -2567,4988 1035,2309 2146,4583 3225,6872 26,54 36,146 96,148 75,2 81,-95 108,-152 1081,-2293 2167,-4585 3237,-6884 323,-694 401,-1432 235,-2183 -377,-1707 -1815,-2857 -3628,-2861z"/>
   <path class="fil0" d="M26999 22031c1,1119 -880,2004 -1994,2005 -1117,1 -2004,-882 -2005,-1995 -1,-1119 880,-2003 1994,-2004 1119,-1 2004,880 2004,1994zm-569 0l0 0c-2,-803 -624,-1424 -1428,-1425 -810,-1 -1435,625 -1433,1435 2,809 632,1431 1443,1426 802,-6 1420,-631 1418,-1436z"/>
  </g>
 </g>
</svg>