<svg xmlns="http://www.w3.org/2000/svg" xmlns:xlink="http://www.w3.org/1999/xlink" xmlns:xodm="http://www.corel.com/coreldraw/odm/2003" xml:space="preserve" version="1.1" style="shape-rendering:geometricPrecision; text-rendering:geometricPrecision; image-rendering:optimizeQuality; fill-rule:evenodd; clip-rule:evenodd" viewBox="17589.46 17825.86 14823.68 14349.14">
 <defs>
  <style type="text/css">
   <![CDATA[
    .fil0 {fill:#0063A2}
   ]]>
  </style>
 </defs>
 <g id="Layer_x0020_1">
  <metadata id="CorelCorpID_0Corel-Layer"/>
  <g id="_1428913465328">
   <path class="fil0" d="M27751 21465c14,326 -6,652 -87,969 -36,139 6,154 129,130 309,-62 621,-110 930,-173 194,-40 329,3 450,176 1044,1494 2095,2982 3144,4472 148,210 128,337 -80,484 -1807,1273 -3614,2546 -5421,3819 -217,152 -343,130 -494,-85 -1049,-1490 -2096,-2981 -3149,-4469 -116,-164 -121,-302 -18,-469 166,-269 317,-546 477,-819 44,-76 48,-102 -56,-130 -231,-61 -371,-17 -511,208 -284,457 -717,754 -1228,927 -122,41 -189,104 -219,229 -73,299 -250,501 -553,594 -164,51 -199,176 -92,316 180,235 208,484 117,761 -111,334 -210,672 -319,1007 -76,236 -229,399 -469,480 -227,76 -261,184 -122,382 137,195 177,405 111,633 -35,119 -73,238 -109,356 -61,198 -184,345 -369,439 -263,133 -524,270 -791,397 -346,165 -721,56 -915,-275 -165,-281 -313,-572 -458,-864 -87,-175 -68,-363 -11,-546 383,-1219 768,-2438 1152,-3657 89,-281 172,-565 267,-844 37,-109 22,-189 -47,-284 -893,-1238 -534,-2915 780,-3663 22,-13 44,-32 68,-37 301,-59 341,-271 352,-535 63,-1635 1273,-3099 2941,-3476 2147,-485 4288,999 4571,3176 16,124 28,246 32,371zm-3814 -3177l0 0c-231,-7 -506,29 -779,99 -1367,350 -2407,1626 -2437,2993 -6,256 -6,256 247,254 1593,-14 2772,1359 2515,2926 -48,291 -47,283 261,307 177,14 280,-37 367,-201 259,-483 540,-955 807,-1435 77,-140 183,-209 340,-235 541,-89 1080,-191 1620,-280 136,-22 203,-83 240,-216 132,-470 176,-944 106,-1428 -230,-1600 -1615,-2792 -3287,-2786zm675 6513l0 0c206,-17 366,-90 531,-139 126,-38 187,-102 210,-245 77,-477 543,-748 974,-576 280,112 440,323 461,626 20,295 -101,526 -356,676 -261,154 -524,135 -776,-29 -52,-34 -92,-78 -166,-44 -356,163 -733,252 -1119,302 -77,10 -117,50 -152,113 -160,284 -314,572 -487,848 -90,144 -81,248 18,388 896,1262 1785,2529 2676,3794 222,316 223,315 538,91 198,-141 199,-141 59,-339 -663,-944 -1328,-1889 -1991,-2833 -148,-212 -128,-319 81,-467 461,-326 922,-651 1384,-975 266,-186 355,-167 543,102 667,948 1336,1895 2001,2845 69,99 119,127 231,47 788,-563 1578,-1121 2374,-1672 133,-93 132,-153 44,-278 -943,-1331 -1880,-2664 -2814,-4001 -76,-109 -156,-127 -273,-106 -947,169 -1893,346 -2843,493 -300,46 -493,158 -624,438 -148,316 -340,612 -527,941zm-5570 -847l0 0c-4,1432 1137,2383 2354,2137 1510,-306 2130,-2068 1135,-3246 -417,-494 -969,-707 -1611,-694 -60,1 -152,-2 -150,73 3,133 32,271 101,386 56,93 154,17 229,10 438,-37 852,204 1009,598 162,407 41,867 -298,1133 -342,269 -821,280 -1171,28 -362,-260 -531,-725 -337,-1126 122,-252 112,-462 17,-697 -13,-33 -22,-70 -25,-106 -14,-146 -84,-135 -186,-77 -686,384 -1037,970 -1065,1580zm-934 6672l0 0c-7,102 9,160 39,217 122,228 242,457 366,684 81,148 168,176 320,104 163,-78 319,-176 487,-240 261,-100 408,-275 457,-551 20,-115 21,-205 -50,-304 -303,-417 -140,-928 350,-1101 113,-40 181,-107 216,-221 98,-322 199,-643 300,-963 37,-118 23,-219 -59,-318 -87,-106 -135,-232 -142,-371 -19,-356 147,-584 536,-741 62,-25 144,-50 130,-130 -13,-69 -96,-44 -148,-48 -447,-31 -866,-156 -1240,-404 -122,-81 -162,-70 -206,72 -415,1322 -835,2643 -1254,3965 -41,128 -76,257 -104,350zm8558 -4117l0 0c-23,13 -51,26 -76,44 -313,220 -626,442 -941,659 -81,56 -76,105 -24,178 627,887 1252,1776 1876,2665 61,87 113,99 201,35 302,-219 605,-434 914,-643 98,-66 83,-117 25,-197 -206,-285 -406,-574 -609,-862 -417,-592 -833,-1184 -1252,-1776 -28,-40 -47,-94 -114,-103zm-5012 -2925l0 0c1,-232 -174,-427 -406,-454 -41,-5 -88,-17 -117,18 -34,41 6,80 27,111 98,145 198,290 304,430 31,42 63,115 128,92 58,-21 47,-97 60,-151 4,-15 4,-31 5,-46z"/>
   <path class="fil0" d="M28856 24611c393,6 717,159 947,476 350,481 690,970 1030,1459 122,174 100,298 -77,424 -493,352 -989,699 -1486,1045 -155,108 -292,87 -404,-70 -360,-506 -728,-1008 -1065,-1529 -248,-383 -228,-798 -10,-1196 211,-385 616,-611 1065,-610zm20 516l0 0c-310,-1 -514,128 -644,360 -132,234 -127,480 26,705 271,397 553,787 826,1183 57,83 101,76 174,24 307,-219 616,-437 927,-650 85,-58 89,-107 31,-188 -271,-378 -534,-762 -807,-1139 -137,-191 -324,-302 -533,-295z"/>
   <path class="fil0" d="M20100 27108c-13,48 -35,133 -62,217 -237,755 -475,1510 -714,2265 -14,44 -28,89 -48,131 -65,129 -187,182 -308,139 -137,-49 -211,-178 -168,-321 112,-372 231,-741 348,-1111 148,-469 294,-938 445,-1406 58,-180 178,-260 320,-218 129,39 198,126 188,305z"/>
  </g>
 </g>
</svg>