<svg xmlns="http://www.w3.org/2000/svg" xmlns:xlink="http://www.w3.org/1999/xlink" xmlns:xodm="http://www.corel.com/coreldraw/odm/2003" xml:space="preserve" version="1.1" style="shape-rendering:geometricPrecision; text-rendering:geometricPrecision; image-rendering:optimizeQuality; fill-rule:evenodd; clip-rule:evenodd" viewBox="18184.98 18533.5 13630.68 12931.8">
 <defs>
  <style type="text/css">
   <![CDATA[
    .fil0 {fill:#0063A2}
   ]]>
  </style>
 </defs>
 <g id="Layer_x0020_1">
  <metadata id="CorelCorpID_0Corel-Layer"/>
  <g id="_1414463753056">
   <path class="fil0" d="M24469 31463c-1403,0 -2806,0 -4209,0 -236,0 -236,0 -236,-243 0,-31 3,-62 0,-93 -15,-131 50,-171 173,-170 440,4 880,2 1320,1 220,0 220,-1 220,-212 0,-2522 -1,-5043 3,-7565 0,-157 -46,-211 -203,-202 -212,12 -425,6 -637,2 -101,-2 -163,25 -151,138 15,142 -57,174 -185,173 -730,-4 -1460,-5 -2190,0 -140,1 -190,-42 -189,-186 6,-647 7,-1294 0,-1942 -1,-147 55,-202 191,-182 229,33 399,-67 576,-204 946,-731 1902,-1450 2852,-2177 127,-97 245,-75 378,-24 1231,477 2462,952 3694,1427 1067,411 2135,822 3202,1235 99,38 197,56 302,55 337,-2 673,0 1010,-1 126,0 232,37 319,131 335,367 673,731 1007,1099 125,137 131,281 26,386 -74,75 -167,71 -261,71 -1440,0 -2879,0 -4319,0 -1015,0 -2030,4 -3045,-3 -159,-1 -200,48 -200,203 4,2527 5,5054 0,7581 0,163 56,199 207,198 1502,-5 3003,-4 4505,-1 89,0 212,-45 259,49 61,120 44,265 11,395 -21,87 -111,59 -174,59 -652,2 -1305,1 -1957,1 -767,0 -1533,0 -2299,0zm6498 -9015l0 0c-144,-159 -287,-302 -413,-458 -117,-145 -253,-194 -441,-194 -2967,6 -5934,4 -8901,4 -464,0 -464,0 -462,465 1,213 1,215 219,215 3272,0 6545,0 9817,0 55,0 113,16 182,-30zm-3229 -1154l0 0c1,-12 2,-24 3,-37 -1704,-657 -3407,-1314 -5150,-1986 36,66 47,88 60,110 357,582 717,1163 1067,1749 74,123 157,168 298,167 1195,-4 2391,-2 3586,-2 45,0 90,0 135,0zm-6001 -2013l0 0c-754,574 -1472,1121 -2191,1668 355,32 691,35 1027,31 122,-2 189,36 176,168 -12,120 54,150 161,147 145,-4 290,0 435,-1 392,0 392,0 392,-397 0,-522 0,-1044 0,-1616zm-2287 3504l0 0c212,0 424,-4 636,2 110,2 160,-33 158,-151 -5,-331 -4,-662 0,-993 1,-111 -35,-157 -152,-156 -424,4 -848,4 -1272,0 -103,-1 -151,30 -149,142 5,336 5,672 0,1008 -2,119 50,152 158,150 207,-5 414,-1 621,-1zm3926 7337l0 0c13,-7 26,-13 39,-20 0,-578 0,-1157 0,-1735 0,-25 4,-57 -26,-67 -42,-16 -66,20 -92,43 -302,260 -601,523 -905,780 -81,69 -64,107 9,166 137,110 266,230 399,344 191,164 383,326 575,489zm39 -3949l0 0c0,-264 0,-528 0,-792 0,-35 11,-79 -25,-100 -41,-24 -65,19 -91,41 -291,249 -579,501 -872,747 -89,75 -95,128 -1,206 290,242 573,492 860,737 30,25 57,74 103,50 43,-22 25,-75 25,-114 2,-259 1,-517 1,-776zm-1163 -606l0 0c339,-292 654,-564 971,-835 68,-58 45,-100 -13,-149 -181,-154 -356,-315 -539,-467 -133,-110 -252,-240 -419,-341 0,600 0,1176 0,1793zm4 1211l0 0c0,618 0,1197 0,1807 335,-290 647,-560 959,-829 52,-45 69,-88 9,-140 -315,-272 -630,-546 -968,-838zm22 -7054l0 0c-12,3 -23,6 -35,9 0,484 0,968 0,1452 0,69 32,107 102,107 258,1 516,1 774,1 86,0 97,-37 55,-106 -299,-487 -598,-975 -896,-1463zm-37 10086l0 0c0,362 5,672 -2,982 -3,132 50,170 174,167 274,-6 549,0 823,-2 59,0 135,24 165,-51 33,-85 -36,-132 -90,-180 -160,-140 -320,-279 -481,-417 -183,-157 -368,-313 -589,-500zm1173 -6271l0 0c0,0 0,0 -1,0 0,-139 -2,-279 1,-419 2,-97 -35,-141 -136,-139 -305,4 -610,1 -915,2 -41,0 -89,-7 -109,40 -22,52 13,89 49,120 336,291 673,580 1010,870 22,19 49,55 78,30 18,-15 20,-56 20,-85 2,-140 1,-279 1,-419z"/>
   <path class="fil0" d="M28621 29369c-440,-4 -828,-374 -852,-811 -8,-148 87,-276 220,-295 131,-19 253,82 278,234 9,56 10,113 37,165 79,152 246,235 402,196 168,-42 267,-162 273,-331 7,-190 -87,-319 -266,-369 -15,-4 -30,-7 -45,-11 -88,-22 -204,38 -263,-48 -56,-81 -17,-192 -22,-289 -2,-31 0,-62 0,-93 0,-221 0,-221 -216,-227 -195,-6 -274,-71 -304,-261 -54,-352 -106,-706 -157,-1059 -19,-130 -7,-249 120,-327 94,-57 59,-145 46,-224 -100,-633 -200,-1267 -307,-1900 -19,-114 11,-156 121,-179 352,-74 346,-76 400,282 93,603 196,1205 289,1808 19,123 63,177 198,174 326,-5 320,1 370,-319 93,-608 196,-1215 289,-1824 21,-140 76,-176 218,-150 332,60 313,14 257,349 -97,597 -190,1195 -288,1793 -15,93 -15,161 81,219 96,58 112,165 93,276 -60,352 -115,705 -174,1057 -37,226 -103,280 -329,284 -16,0 -31,-1 -47,1 -59,6 -132,-18 -152,69 -19,84 22,132 97,170 324,165 498,428 494,797 -5,465 -398,847 -863,843zm36 -3063l0 0c0,0 0,0 0,1 -104,0 -207,1 -311,0 -82,-1 -112,41 -99,118 6,41 14,81 21,122 95,561 -28,442 538,458 101,3 153,-35 166,-138 14,-118 39,-234 58,-352 33,-208 33,-208 -186,-209 -62,0 -124,0 -187,0z"/>
  </g>
 </g>
</svg>