<svg xmlns="http://www.w3.org/2000/svg" xmlns:xlink="http://www.w3.org/1999/xlink" xmlns:xodm="http://www.corel.com/coreldraw/odm/2003" xml:space="preserve" version="1.1" style="shape-rendering:geometricPrecision; text-rendering:geometricPrecision; image-rendering:optimizeQuality; fill-rule:evenodd; clip-rule:evenodd" viewBox="19207.42 19966.74 11585.08 10067.71">
 <defs>
  <style type="text/css">
   <![CDATA[
    .fil0 {fill:#0063A2}
   ]]>
  </style>
 </defs>
 <g id="Layer_x0020_1">
  <metadata id="CorelCorpID_0Corel-Layer"/>
  <g id="_1408051276208">
   <path class="fil0" d="M20344 26978c0,-660 -1,-1320 1,-1980 0,-200 132,-354 317,-385 200,-35 381,71 451,260 23,63 20,127 20,191 0,1228 0,2455 0,3683 0,362 135,498 494,498 427,0 854,-4 1280,2 111,2 144,-31 144,-143 -4,-833 -2,-1666 -2,-2499 0,-307 143,-451 450,-451 994,0 1988,0 2982,0 301,0 448,150 448,455 0,829 2,1658 -2,2487 -1,113 28,154 147,152 439,-7 878,-2 1316,-3 304,-1 454,-150 455,-454 1,-1256 0,-2511 1,-3767 0,-263 172,-429 424,-415 184,10 344,161 362,344 3,32 2,65 2,97 0,1268 1,2535 0,3803 0,589 -381,1050 -958,1164 -74,15 -152,16 -228,16 -616,2 -1231,1 -1847,1 -313,0 -460,-146 -460,-455 0,-829 -2,-1658 2,-2487 0,-114 -28,-153 -148,-152 -672,5 -1344,5 -2016,0 -111,-1 -144,32 -144,144 4,833 3,1666 2,2499 0,305 -146,450 -452,451 -620,0 -1240,1 -1859,0 -678,-2 -1180,-505 -1183,-1183 0,-8 0,-16 0,-24 0,-616 0,-1231 0,-1847z"/>
   <path class="fil0" d="M19631 24604c-205,-2 -344,-104 -402,-274 -55,-161 -4,-329 143,-439 203,-152 411,-297 617,-444 1572,-1122 3143,-2245 4715,-3368 207,-148 360,-150 565,-4 1768,1263 3535,2526 5304,3789 113,80 202,174 217,318 16,163 -45,294 -183,381 -148,93 -301,83 -442,-15 -248,-172 -493,-349 -738,-524 -1444,-1031 -2889,-2061 -4331,-3096 -86,-62 -138,-52 -218,5 -1669,1194 -3339,2386 -5009,3579 -81,58 -167,96 -238,93z"/>
   <path class="fil0" d="M21513 19970c254,0 507,-2 760,0 238,2 407,171 405,400 -2,224 -169,386 -404,388 -338,2 -676,4 -1013,-1 -101,-2 -131,33 -130,132 5,330 2,659 2,989 -1,256 -157,424 -390,426 -237,2 -398,-171 -398,-431 -1,-491 -1,-981 0,-1472 0,-281 150,-430 433,-431 245,-1 491,0 736,0z"/>
  </g>
 </g>
</svg>