<?xml version="1.0" encoding="UTF-8"?>
<!DOCTYPE svg PUBLIC "-//W3C//DTD SVG 1.1//EN" "http://www.w3.org/Graphics/SVG/1.1/DTD/svg11.dtd">
<!-- Creator: CorelDRAW 2021.5 -->
<svg xmlns="http://www.w3.org/2000/svg" xml:space="preserve" width="2in" height="2.5in" version="1.1" style="shape-rendering:geometricPrecision; text-rendering:geometricPrecision; image-rendering:optimizeQuality; fill-rule:evenodd; clip-rule:evenodd"
viewBox="0 0 200000 250000"
 xmlns:xlink="http://www.w3.org/1999/xlink"
 xmlns:xodm="http://www.corel.com/coreldraw/odm/2003">
 <defs>
  <style type="text/css">
   <![CDATA[
    .fil0 {fill:gray}
   ]]>
  </style>
 </defs>
 <g id="Layer_x0020_1">
  <metadata id="CorelCorpID_0Corel-Layer"/>
  <g id="_1408158024640">
   <path class="fil0" d="M75524 140203c-185,563 -256,1178 -271,1772 -44,1670 -108,3335 -408,4987 -265,1462 -418,2937 -354,4426 13,309 23,619 39,1031 -162,-156 -243,-231 -321,-310 -685,-693 -1341,-1416 -2058,-2076 -2862,-2635 -6333,-4269 -9996,-5574 -271,-97 -565,-150 -853,-182 -503,-56 -1013,10 -1331,416 -513,658 -962,1359 -959,2236 3,1018 402,1945 692,2897 421,1387 868,2767 1263,4161 200,705 313,1433 462,2152 29,136 46,275 89,541 -1127,-1089 -2384,-1743 -3718,-2289 -1506,-617 -2988,-1290 -4498,-1898 -642,-259 -1318,-463 -1998,-602 -696,-142 -1242,190 -1662,722 -456,578 -515,1244 -452,1930 163,1786 560,3524 1227,5198 1053,2645 2726,4831 5184,6427 100,65 182,154 366,312 -333,-5 -541,-3 -749,-12 -1795,-76 -3580,-34 -5337,382 -2000,474 -3907,1130 -5569,2362 -482,357 -1093,553 -1648,818 -591,282 -1218,507 -1767,850 -615,383 -700,802 -482,1469 178,543 522,973 994,1288 414,276 854,534 1315,726 1998,831 4055,1521 6004,2480 1207,594 2531,980 3821,1406 2576,850 5213,1401 7955,1379 88,-1 176,30 319,56 -100,135 -159,225 -229,308 -1072,1287 -1660,2757 -1731,4404 -93,2149 283,4229 1117,6222 672,1606 1552,3107 2583,4527 1228,1691 2706,3118 4692,3959 1287,545 2419,1283 3435,2208 253,230 536,441 837,609 675,376 1267,250 1759,-334 537,-638 878,-1348 1014,-2173 305,-1850 -112,-3587 -833,-5274 -770,-1801 -1603,-3578 -2372,-5379 -589,-1379 -990,-2822 -1046,-4312 -109,-2875 570,-5581 2020,-8112 389,-680 924,-766 1501,-663 813,144 1492,530 2057,1108 165,169 300,403 635,307 -20,-78 -26,-156 -59,-219 -904,-1701 -264,-3659 1255,-4763 1450,-1054 2721,-2257 3780,-3711 1917,-2631 3212,-5489 3813,-8643 508,-2662 525,-5326 83,-8005 -259,-1569 -676,-3088 -1251,-4567 -734,-1886 -1728,-3648 -2930,-5295 -757,-1035 -1657,-1946 -2789,-2608 -387,-226 -764,-336 -1111,-336 -690,0 -1257,436 -1528,1260zm2113 30900c39,-99 72,-202 120,-297 1251,-2497 1663,-5117 1367,-7876 -352,-3272 -1575,-6222 -3479,-8905 -647,-912 -923,-1845 -892,-2890 33,-1104 69,-2217 242,-3306 315,-1989 506,-3980 538,-5991 9,-553 107,-1128 292,-1651 325,-917 1064,-1200 1948,-747 507,259 967,630 1393,1007 1036,916 1709,2082 2286,3297 822,1731 1418,3540 1783,5407 446,2276 494,4577 328,6889 -327,4544 -1761,8746 -4062,12704 -400,689 -791,1372 -1322,1974 -137,155 -288,298 -432,446 -37,-20 -74,-40 -111,-60zm1036 -499c1620,-2406 2904,-4972 3819,-7698 1188,-3540 1594,-7181 1378,-10891 -92,-1580 -331,-3141 -787,-4658 -314,-1043 -736,-2056 -1108,-3083 -30,-85 -46,-174 -69,-261 38,-15 76,-31 113,-46 396,762 818,1512 1183,2287 811,1721 1322,3543 1644,5394 638,3665 399,7294 -808,10842 -742,2180 -1851,4169 -3266,6019 -557,729 -1146,1412 -1817,2037 -91,85 -194,158 -372,302 54,-150 62,-203 89,-243zm-5537 2636c-2268,-1657 -4474,-3388 -6285,-5520 -1204,-1416 -2037,-3055 -2819,-4715 -278,-591 -612,-1163 -837,-1772 -437,-1184 -815,-2388 -1083,-3185 -389,-1735 -685,-3056 -981,-4378 -363,-1618 -897,-3186 -1450,-4752 -217,-614 -355,-1274 -392,-1921 -47,-813 422,-1491 888,-2132 186,-256 502,-367 828,-343 308,22 629,48 917,146 4726,1604 8964,3928 12174,7746 1441,1714 2639,3576 3476,5631 1134,2783 1684,5664 1201,8653 -286,1770 -815,3475 -1917,4966 -496,670 -1110,1204 -1853,1602 -322,173 -649,277 -972,277 -304,0 -604,-92 -894,-304zm-5503 -3629c-1170,-460 -2328,-961 -3525,-1345 -1817,-583 -3466,-1425 -4970,-2569 -1607,-1222 -3284,-2357 -4883,-3587 -1646,-1266 -2976,-2805 -3915,-4637 -512,-999 -885,-2035 -885,-3171 0,-598 87,-1159 511,-1631 544,-606 1198,-693 1844,-199 487,374 954,775 1407,1187 1448,1316 3161,2018 5144,2165 615,46 1237,165 1823,350 881,278 1463,840 1695,1767 463,1844 998,3678 1913,5368 725,1340 1507,2658 2374,3916 555,805 1308,1483 1978,2213 173,189 368,359 552,537 -26,30 -52,60 -78,90 -328,-153 -648,-323 -985,-455zm-10944 -14332c-1772,-437 -3048,-1594 -4293,-2819 2342,1135 4844,1920 7269,3084 -109,32 -286,46 -506,46 -681,0 -1769,-139 -2471,-312zm3972 11967c-1168,-207 -2357,-345 -3494,-657 -692,-189 -1357,-580 -1943,-999 -2033,-1457 -3469,-3375 -4418,-5629 -268,-636 -463,-1301 -691,-1952 37,-7 73,-14 110,-21 523,717 1015,1457 1575,2146 1078,1328 2418,2391 3822,3382 1683,1187 3370,2370 5054,3557 40,28 63,78 96,120 -44,22 -78,54 -106,54 -2,0 -4,0 -6,0zm-14797 1248c638,-263 1268,-544 1915,-784 2944,-1093 5992,-1199 9081,-840 2778,323 5474,961 8078,1955 194,74 396,130 693,225 -171,53 -255,107 -328,97 -1749,-256 -3481,-81 -5224,114 -3227,362 -6435,237 -9618,-456 -924,-201 -1878,-302 -2824,-364 -571,-37 -1153,90 -1731,143 -14,-30 -28,-61 -41,-91zm9148 10172c-2006,-494 -3987,-1095 -5851,-1949 -2042,-935 -4138,-1729 -6222,-2560 -464,-185 -933,-411 -1318,-715 -367,-288 -675,-674 -922,-1068 -277,-442 -180,-901 257,-1202 438,-301 922,-567 1426,-747 770,-276 1499,-600 2193,-1033 996,-621 2142,-783 3304,-708 793,52 1590,161 2363,335 3101,698 6231,840 9393,553 1237,-113 2474,-258 3715,-289 869,-22 1748,81 2611,204 1625,231 2996,1000 4271,1963 628,475 1288,911 1929,1370 172,123 334,261 485,406 524,505 577,905 64,1417 -606,606 -1244,1196 -1940,1700 -1670,1211 -3559,1991 -5097,2320 -1881,462 -3643,672 -5343,672 -1822,0 -3572,-241 -5320,-672zm17629 15850c-660,-657 -1371,-1267 -2022,-1931 -1086,-1111 -2015,-2332 -2631,-3755 -863,-1990 -1001,-4021 -462,-6113 301,-1168 900,-2193 1556,-3187 659,-997 1380,-1956 2089,-2921 176,-239 408,-440 614,-659 43,24 86,48 129,71 -76,146 -149,293 -230,437 -1445,2573 -2077,5330 -1906,8240 78,1333 416,2637 946,3876 770,1800 1583,3582 2362,5378 230,530 406,1083 509,1670 -316,-370 -609,-762 -954,-1106zm-854 7228c-291,-143 -557,-344 -811,-545 -453,-357 -861,-770 -1338,-1091 -557,-374 -1138,-739 -1759,-994 -2150,-885 -3802,-2320 -5122,-4148 -1150,-1593 -2151,-3271 -2783,-5115 -708,-2064 -1103,-4185 -739,-6374 195,-1175 699,-2224 1437,-3170 350,-448 755,-730 1408,-752 1505,-50 2970,-389 4403,-822 1263,-382 2477,-889 3598,-1580 78,-48 160,-90 241,-134 26,24 52,48 78,71 -413,590 -839,1171 -1235,1771 -773,1170 -1541,2338 -1902,3712 -800,3047 -211,5832 1624,8401 833,1167 1817,2217 2900,3156 812,704 1522,1455 1941,2413 553,1265 498,2572 2,3842 -159,409 -467,776 -757,1122 -220,263 -420,386 -658,386 -154,0 -325,-52 -527,-151z"/>
   <path class="fil0" d="M79460 150651c44,221 112,440 130,663 135,1716 302,3431 379,5149 183,4094 -104,8135 -1639,12015 -72,183 -108,378 -161,568 41,13 81,26 122,38 67,-142 137,-282 200,-426 1181,-2665 1643,-5480 1708,-8346 48,-2073 -61,-4152 -180,-6225 -67,-1154 -297,-2300 -454,-3450 -34,4 -69,8 -103,12z"/>
   <path class="fil0" d="M63677 158543c265,639 535,1277 796,1918 1018,2504 2391,4824 3914,7067 994,1463 2164,2793 3378,4083 555,590 1231,1064 1973,1437 -99,-140 -230,-243 -353,-354 -595,-535 -1224,-1040 -1775,-1614 -2651,-2761 -4658,-5936 -6328,-9317 -531,-1074 -1004,-2175 -1504,-3263 -33,15 -67,29 -101,43z"/>
   <path class="fil0" d="M48330 174738c1593,649 3176,1325 4785,1933 2034,768 4107,1431 6277,1750 2513,370 5017,491 7257,-320 -633,100 -1472,302 -2321,352 -2506,150 -4967,-140 -7391,-781 -2333,-617 -4545,-1546 -6790,-2392 -665,-250 -1328,-502 -1993,-754 31,122 97,180 175,211z"/>
   <path class="fil0" d="M80679 144254c568,1451 882,2961 1119,4482 312,2000 443,4019 453,6044 4,762 28,1523 43,2285 25,0 50,1 75,2 16,-124 44,-249 46,-374 17,-822 41,-1645 39,-2468 -7,-2176 -157,-4349 -602,-6480 -315,-1505 -812,-2976 -1277,-4448 -189,-597 -508,-1156 -769,-1731 255,913 530,1813 872,2689z"/>
   <path class="fil0" d="M66422 179298c-2289,2627 -2984,5714 -2461,9013 382,2411 1128,4364 1941,5944 -32,-122 -52,-234 -90,-339 -404,-1134 -854,-2255 -1202,-3406 -260,-861 -459,-1751 -561,-2641 -189,-1657 30,-3293 535,-4887 528,-1667 1397,-3137 2797,-4275 169,-137 396,-209 596,-311 57,-42 113,-84 170,-126 -17,-67 -35,-133 -53,-203 -572,198 -1046,513 -1670,1229z"/>
   <path class="fil0" d="M66189 151411c1149,2310 2237,4648 3352,6974 -2037,-4744 -4036,-9507 -7206,-13692 1436,2161 2706,4409 3854,6718z"/>
   <path class="fil0" d="M60330 174642c3054,1124 6207,1512 9453,1066 931,-128 1806,-431 2556,-988 -1095,572 -2275,807 -3481,902 -2509,200 -4972,-71 -7368,-816 -809,-252 -1589,-591 -2387,-879 -602,-217 -1210,-417 -1817,-621 -105,-35 -216,-53 -324,-78 1116,512 2229,994 3367,1413z"/>
   <path class="fil0" d="M68145 178272c-57,42 -113,84 -170,126 -184,185 -377,363 -551,557 -2674,2961 -3298,6356 -2352,10121 -68,-711 -166,-1398 -191,-2087 -52,-1391 26,-2770 487,-4109 461,-1337 1134,-2564 2122,-3598 562,-589 1248,-1067 1868,-1605 139,-120 377,-183 382,-549 -584,419 -1089,781 -1594,1144z"/>
   <path class="fil0" d="M74616 160272c725,1642 1362,3311 1772,5057 255,1086 405,2181 347,3290 -56,1064 -41,2144 -450,3163 -104,257 -215,512 -323,768 36,21 72,42 108,62 300,-298 477,-678 556,-1072 144,-715 251,-1439 323,-2163 132,-1316 61,-2624 -320,-3902 -252,-848 -507,-1695 -793,-2531 -183,-533 -424,-1047 -643,-1568 -218,-519 -440,-1037 -660,-1555 -11,165 23,313 83,450z"/>
   <path class="fil0" d="M50296 169200c239,127 479,252 722,372 3269,1621 6694,2857 10214,3864 511,146 1011,333 1516,500 11,-40 22,-80 33,-120 -2124,-717 -4271,-1380 -6368,-2167 -2106,-790 -4161,-1704 -6287,-2583 83,66 122,108 170,133z"/>
   <path class="fil0" d="M66281 167895c24,-38 47,-76 71,-114 -685,-488 -1385,-957 -2051,-1468 -2401,-1839 -4603,-3876 -6526,-6185 -61,-73 -123,-145 -192,-211 -65,-63 -139,-117 -209,-175 2397,3311 5473,5916 8907,8153z"/>
   <path class="fil0" d="M72054 166898c-2707,-4021 -4818,-8237 -6663,-12592 1087,3408 5242,11231 6663,12592z"/>
   <path class="fil0" d="M62067 190406c498,1820 1271,3534 2154,5206 514,975 1142,1873 1915,2674 132,137 248,318 602,304 -2490,-2546 -3595,-5692 -4826,-8783 52,200 102,400 156,598z"/>
   <path class="fil0" d="M74346 152559c1405,2552 2426,5254 3355,7978 -717,-2847 -1647,-5597 -3270,-8149 -58,115 -94,154 -84,171z"/>
   <path class="fil0" d="M64907 164956c-69,-188 -139,-376 -207,-565 -308,-843 -944,-1481 -1466,-2191 -1002,-1361 -2078,-2664 -3303,-3848 -96,-93 -209,-167 -315,-250 1893,2189 3709,4409 5291,6854z"/>
   <path class="fil0" d="M50818 173166c-257,-89 -459,-151 -655,-228 -991,-386 -1993,-751 -2968,-1171 -1205,-519 -2385,-1089 -3583,-1623 -180,-81 -396,-86 -595,-126 4560,2250 6800,3126 7801,3148z"/>
   <path class="fil0" d="M68609 147625c532,749 1091,1482 1589,2252 503,777 967,1580 1409,2391 441,810 834,1644 1248,2468 -929,-2633 -2243,-5058 -4074,-7208 -57,33 -115,65 -172,98z"/>
   <path class="fil0" d="M79160 157726c118,1721 74,3439 -58,5157 -13,174 7,351 12,526 528,-1987 317,-7025 -140,-8708 62,1011 117,2019 186,3024z"/>
   <path class="fil0" d="M69959 194247c824,1567 1678,3121 2465,4705 381,769 797,1557 627,2470 -6,31 52,73 161,217 43,-341 133,-583 89,-801 -98,-496 -194,-1011 -412,-1464 -604,-1254 -1256,-2488 -1918,-3715 -288,-535 -646,-1036 -1039,-1657 18,174 11,215 26,246z"/>
   <path class="fil0" d="M71862 170451c-25,-46 -41,-98 -75,-136 -1722,-1931 -3054,-4096 -4165,-6397 -299,-620 -632,-1226 -949,-1838 735,2472 3420,6811 5189,8371z"/>
   <path class="fil0" d="M77450 167118c169,1309 163,2613 -281,3884 -33,95 -33,202 -59,376 337,-389 519,-878 576,-1371 121,-1047 87,-2084 -48,-3131 -163,-1270 -394,-2519 -738,-3543 166,1130 378,2455 550,3785z"/>
   <path class="fil0" d="M75277 142643c188,2791 742,5531 1376,8259 -418,-2759 -836,-5517 -1254,-8276 -41,6 -81,12 -122,17z"/>
   <path class="fil0" d="M73283 165873c683,1550 1273,3137 1802,4455 -759,-3037 -2320,-6045 -3970,-8984 726,1508 1494,3000 2168,4529z"/>
   <path class="fil0" d="M49250 154183c1034,2089 2369,3968 4213,5491 -324,-363 -658,-719 -972,-1091 -1106,-1309 -2070,-2709 -2883,-4205 -58,-107 -154,-194 -231,-291 -43,32 -84,64 -126,96z"/>
   <path class="fil0" d="M59113 146554c86,216 147,446 263,645 299,514 633,1010 933,1524 342,585 651,1189 995,1773 244,415 524,810 788,1215 -431,-945 -883,-1873 -1389,-2774 -463,-824 -743,-1754 -1448,-2443 -47,20 -94,40 -141,60z"/>
   <path class="fil0" d="M58147 158402c-841,-1248 -4494,-4774 -5147,-5002 1694,1646 3460,3362 5147,5002z"/>
   <path class="fil0" d="M67909 173943c-27,-9 -54,-25 -81,-28 -115,-12 -231,-22 -347,-30 -1351,-95 -2686,-213 -3993,-636 -1265,-409 -2580,-674 -3873,-1002 2719,787 5369,1875 8294,1695z"/>
   <path class="fil0" d="M79833 144588c-474,-2300 -1368,-4891 -1955,-5434 693,1926 1350,3754 1955,5434z"/>
   <path class="fil0" d="M61433 169367c1885,520 3743,1034 5601,1547 -1091,-607 -4636,-1562 -5469,-1561 -58,0 -103,4 -133,14z"/>
   <path class="fil0" d="M64402 179444c-1133,989 -1773,2259 -2217,3639 -17,54 -42,106 -53,160 -10,50 -7,101 -11,152 672,-1766 1574,-3344 3369,-4452 -553,15 -819,266 -1088,501z"/>
   <path class="fil0" d="M75107 145073c105,1536 284,3062 703,4555 -191,-1527 -382,-3054 -573,-4580 -43,8 -86,17 -130,25z"/>
   <path class="fil0" d="M72774 201678c46,-16 92,-32 138,-48 -294,-1188 -811,-2296 -1442,-3364 435,1137 869,2275 1304,3412z"/>
   <path class="fil0" d="M49379 153451c469,1058 1119,2012 1913,2871 -596,-981 -1191,-1963 -1787,-2944 -42,24 -84,49 -126,73z"/>
   <path class="fil0" d="M71833 151552c-519,-1098 -1041,-2195 -1937,-3068 646,1022 1291,2045 1937,3068z"/>
   <path class="fil0" d="M43773 169707c976,475 1847,854 2759,1146 -804,-563 -2155,-1147 -2719,-1147 -13,0 -27,0 -39,1z"/>
   <path class="fil0" d="M63491 145382c505,754 1010,1509 1515,2263 -281,-874 -740,-1664 -1368,-2351 -49,29 -98,59 -147,88z"/>
   <path class="fil0" d="M62322 181106c30,25 61,51 91,76 194,-247 381,-501 585,-740 209,-244 431,-477 655,-708 200,-207 524,-296 641,-583 -993,356 -1443,1190 -1972,1954z"/>
   <path class="fil0" d="M59533 146101c322,914 910,1696 1480,2487 -443,-854 -887,-1707 -1330,-2561 -50,25 -100,50 -150,74z"/>
   <path class="fil0" d="M76633 155740c-363,-1150 -690,-2183 -1052,-3330 63,854 705,2989 1052,3330z"/>
   <path class="fil0" d="M63148 166293c-869,-684 -1752,-1380 -2635,-2075 676,826 2095,1919 2635,2075z"/>
   <path class="fil0" d="M50376 152374c536,502 1071,1005 1607,1507 25,-24 50,-48 76,-72 -514,-522 -1028,-1044 -1542,-1566 -47,43 -94,87 -141,131z"/>
   <path class="fil0" d="M112227 181912c9,202 5,406 30,607 72,595 173,1187 228,1783 55,589 31,1185 106,1771 306,2402 426,4812 439,7230 13,2472 15,4945 65,7417 35,1729 440,3386 1314,4910 1325,2308 3132,4190 5463,5584 478,285 1001,506 1520,720 309,127 651,180 978,267 8,-28 16,-56 24,-83 -623,-286 -1255,-555 -1866,-861 -1505,-753 -2552,-1874 -2932,-3505 -393,-1687 -491,-3378 -365,-5117 216,-2990 285,-5989 -148,-8978 -283,-1949 -843,-3817 -1673,-5604 -801,-1725 -1664,-3422 -2505,-5130 -176,-357 -376,-702 -565,-1053 -37,14 -75,28 -113,41zm2061 22868c-688,-1543 -939,-3169 -952,-4833 -21,-2642 2,-5285 -49,-7927 -29,-1515 -233,-3029 -233,-4543 0,-976 -154,-1927 -235,-2889 -20,-239 -54,-478 -15,-730 54,171 116,340 161,513 364,1385 785,2760 1069,4160 268,1322 494,2666 554,4008 91,2031 2,4069 28,6103 19,1497 52,2997 166,4490 105,1387 438,2738 1048,4020 -665,-705 -1156,-1506 -1542,-2370zm3272 4264c-1268,-1380 -2070,-2959 -2376,-4799 -260,-1564 -269,-3133 -305,-4703 -37,-1628 -102,-3259 -28,-4883 58,-1274 -11,-2529 -181,-3784 -101,-743 -206,-1488 -378,-2217 -298,-1264 -649,-2516 -978,-3772 -56,-215 -113,-431 -169,-646 35,-11 69,-23 104,-35 365,737 744,1468 1091,2213 477,1024 981,2041 1378,3095 404,1072 757,2157 952,3301 496,2905 524,5822 315,8739 -85,1176 -149,2341 -70,3514 94,1422 244,2836 891,4169 -82,-63 -176,-116 -244,-191z"/>
   <path class="fil0" d="M91361 204489c-759,161 -1536,241 -2303,370 -997,169 -1999,317 -2985,534 -851,188 -1704,404 -2468,842 -1909,1095 -3360,2617 -4385,4499 -801,1472 -1258,3074 -1633,4689 -228,983 -361,1987 -534,2982 -305,1757 -608,3515 -907,5274 -20,118 1,243 3,365l120 39c98,-189 219,-371 289,-569 419,-1169 783,-2358 1246,-3509 711,-1767 1421,-3539 2255,-5252 1023,-2101 2349,-4017 4082,-5666 1739,-1654 3770,-2846 6054,-3605 1169,-389 2413,-595 3638,-799 1850,-308 3689,-166 5474,391 1074,335 2118,756 3176,1136 133,48 272,82 408,122 20,-39 40,-78 60,-116 -156,-88 -304,-194 -469,-259 -829,-328 -1648,-684 -2496,-957 -1746,-563 -3510,-862 -5295,-862 -1103,0 -2213,114 -3332,352zm-13369 13279c486,-1699 935,-3415 1805,-4981 1476,-2657 3370,-4960 6159,-6449 1318,-703 2724,-1192 4231,-1378 402,-50 797,-151 1208,-183 -498,178 -993,362 -1494,531 -3447,1163 -6145,3268 -8181,6154 -775,1098 -1469,2265 -2063,3463 -695,1402 -1241,2873 -1852,4314 -58,137 -125,271 -214,464 -52,-113 -79,-174 -106,-234 -122,391 -244,783 -365,1174 -60,191 -119,383 -266,562 0,-86 -14,-173 0,-257 356,-2163 703,-4330 1276,-6452 220,-817 503,-1620 796,-2415 776,-2102 2190,-3750 3999,-5097 1063,-792 2765,-1395 4324,-1557 -195,131 -298,233 -422,278 -1254,462 -2345,1172 -3327,2039 -2304,2033 -3978,4474 -4950,7335 -423,1246 -729,2529 -1070,3800 -51,191 -5,405 -4,609 173,-574 353,-1145 518,-1721z"/>
   <path class="fil0" d="M75538 176417c1175,1874 2316,3769 3515,5628 1376,2134 2794,4243 4206,6355 2241,3352 4775,6491 7557,9437 1059,1122 2217,2170 3414,3159 3712,3069 7807,5531 12406,7198 2174,788 4347,1570 6607,2085 2976,677 5964,1311 8955,1928 2634,544 5116,1442 7450,2743 1991,1109 3677,2530 4983,4354 497,694 937,1425 1403,2139 76,-18 152,-37 227,-55 -878,-1627 -1946,-3126 -3333,-4387 -2390,-2172 -5238,-3609 -8372,-4445 -2682,-716 -5417,-1259 -8143,-1806 -3848,-772 -7595,-1869 -11189,-3380 -5610,-2358 -10487,-5728 -14580,-10146 -2431,-2625 -4680,-5379 -6686,-8316 -2094,-3067 -4224,-6113 -6065,-9335 -496,-869 -1074,-1695 -1630,-2532 -398,-600 -814,-1188 -1236,-1772 -104,-145 -196,-341 -499,-349 359,531 700,1006 1009,1499z"/>
   <path class="fil0" d="M131101 145626c-781,196 -1260,743 -1660,1343 -885,1329 -1445,2781 -1593,4364 -312,3348 83,6660 550,9969 150,1058 352,2114 424,3178 117,1737 147,3480 211,5220 4,95 -15,191 -31,398 -347,-478 -604,-871 -901,-1234 -1275,-1559 -2958,-2606 -4792,-3433 -1341,-605 -2707,-1164 -4085,-1688 -1798,-685 -3293,-1757 -4556,-3150 -474,-523 -919,-1073 -1413,-1577 -345,-352 -731,-676 -1138,-963 -461,-324 -997,-357 -1493,-87 -486,265 -540,745 -517,1234 43,893 312,1729 650,2556 1086,2655 2674,4986 4751,7019 1591,1558 3440,2815 5181,4198 779,619 1630,1154 2401,1780 1961,1591 3638,3438 5156,5426 727,952 1183,2016 1554,3129 279,838 554,1681 906,2492 609,1401 1526,2619 2665,3660 1471,1344 2404,2930 2597,4894 13,137 81,269 142,463 141,-107 261,-155 303,-239 134,-270 228,-558 357,-831 565,-1189 1474,-1993 2790,-2384 839,-249 1648,-604 2276,-1216 779,-760 1533,-1547 2260,-2354 751,-833 1430,-1728 2188,-2554 2594,-2829 5913,-4596 9510,-5933 1778,-660 3586,-1244 5361,-1910 1232,-462 2419,-1031 3505,-1771 1335,-911 2287,-2137 3046,-3511 550,-995 1092,-1995 1618,-3002 482,-923 956,-1851 1400,-2791 301,-639 442,-1321 394,-2030 -71,-1060 -798,-1666 -1886,-1637 -915,25 -1678,444 -2468,794 -1093,484 -2093,1160 -3280,1450 -85,21 -155,100 -235,148 -450,276 -901,551 -1431,876 61,-280 69,-469 142,-632 553,-1241 686,-2572 907,-3883 146,-867 22,-1721 -252,-2556 -173,-528 -484,-680 -1023,-482 -157,57 -307,133 -574,250 116,-306 208,-508 269,-718 115,-396 264,-792 306,-1196 101,-967 -496,-1446 -1474,-1249 -854,172 -1617,530 -2327,1006 -2350,1577 -4669,3194 -6804,5040 -107,92 -233,163 -454,316 359,-1463 398,-2819 222,-4187 -181,-1408 -491,-2770 -1263,-4005 -291,-465 -549,-949 -823,-1424 -426,-739 -853,-1478 -1502,-2065 -1143,-1035 -2366,-1006 -3422,107 -380,401 -717,843 -1046,1285 -908,1221 -1800,2452 -2701,3678 -21,28 -63,42 -126,82 -150,-214 -298,-430 -452,-641 -680,-933 -1375,-1836 -2278,-2607 -1288,-1100 -2354,-2376 -2971,-3980 -258,-670 -727,-1283 -1188,-1856 -347,-432 -805,-649 -1335,-649 -176,0 -361,24 -552,72zm5361 45022c-358,-20 -735,-109 -1057,-259 -1140,-533 -2078,-1322 -2861,-2277 -1575,-1920 -2425,-4126 -2757,-6537 -252,-1828 -173,-3665 -215,-5500 -51,-2285 -128,-4569 -211,-6854 -59,-1609 -112,-3219 -231,-4825 -79,-1064 -257,-2121 -414,-3178 -455,-3064 -817,-6136 -592,-9237 61,-837 194,-1687 445,-2487 315,-1001 747,-1976 1473,-2791 1073,-1204 2189,-1169 3083,167 385,575 675,1227 902,1879 278,800 443,1635 658,2456l-2 0c171,656 348,1311 513,1969 334,1332 930,2545 1802,3626 669,830 1316,1684 2063,2445 867,884 1514,1885 2037,2975 431,900 609,1858 653,2839 58,1291 135,2584 114,3875 -18,1095 -135,2192 -264,3282 -80,674 -353,1293 -746,1875 -1754,2598 -2893,5441 -3524,8475 -473,2278 -513,4542 206,6790 244,765 -163,1294 -965,1294 -35,0 -72,-1 -108,-3zm5662 -19634c67,-682 196,-1361 222,-2043 56,-1460 72,-2921 85,-4381 17,-1867 -181,-3717 -774,-5495 -331,-993 -839,-1931 -1269,-2893 -76,-170 -158,-337 -261,-555 325,-489 630,-990 978,-1460 736,-993 1490,-1974 2246,-2953 232,-301 465,-611 750,-861 267,-235 580,-455 914,-577 665,-243 1158,-61 1456,553 237,488 452,1009 539,1537 338,2058 865,4036 2126,5780 330,456 563,981 808,1489 380,791 402,1629 281,2477 -66,460 -280,831 -634,1166 -1519,1438 -2879,3010 -4070,4713 -900,1285 -1771,2589 -2671,3874 -225,321 -512,603 -818,958 -115,-504 52,-913 93,-1327zm-190 -7282c-321,-1628 -1166,-3012 -2199,-4296 -544,-676 -1160,-1298 -1736,-1950 -875,-989 -1649,-2042 -2119,-3274 -134,-351 -244,-713 -342,-1075 -268,-995 -524,-1993 -815,-3108 169,123 237,157 284,209 704,751 1351,1561 2119,2245 1829,1630 3002,3651 3911,5839 739,1779 1038,3642 1054,5552 0,32 -26,65 -57,135 -41,-111 -83,-192 -100,-277zm6702 -7516c-518,-973 -911,-1974 -1069,-3070 -104,-722 -333,-1426 -507,-2138 -39,-160 -83,-319 -124,-479 30,-18 59,-37 89,-55 182,205 398,390 541,618 541,865 1046,1750 1587,2614 465,744 880,1517 1021,2372 175,1069 250,2154 361,3232 9,85 -39,175 -100,272 -295,-1281 -1202,-2246 -1799,-3367zm-10484 33670c-625,-1214 -822,-2537 -834,-3883 -20,-2222 480,-4356 1199,-6452 872,-2540 2196,-4848 3818,-7008 761,-1015 1492,-2050 2242,-3071 235,-320 523,-608 729,-943 2549,-4160 6200,-7285 10184,-10098 894,-631 1806,-1241 2714,-1855 597,-403 1257,-670 1972,-813 771,-154 1180,164 1111,924 -31,350 -145,699 -268,1033 -156,424 -368,829 -539,1248 -63,156 -80,329 -118,494 51,21 102,41 154,62 527,-281 836,-919 1629,-920 85,191 208,397 270,619 206,732 257,1480 137,2231 -232,1444 -483,2884 -1050,4255 -454,1096 -1085,2092 -1907,2952 -1358,1422 -2764,2803 -4163,4189 -707,700 -1429,1386 -2167,2054 -2774,2508 -4918,5463 -6765,8650 -995,1716 -2014,3432 -3372,4922 -720,790 -1447,1577 -2423,2093 -119,63 -238,129 -364,175 -387,141 -695,228 -958,228 -487,0 -823,-295 -1230,-1085zm-9350 -9452c-1498,-2119 -3211,-4057 -5247,-5715 -770,-627 -1590,-1196 -2372,-1810 -1643,-1290 -3325,-2540 -4903,-3902 -2326,-2008 -4006,-4473 -5181,-7262 -354,-841 -638,-1696 -661,-2607 -24,-938 620,-1297 1469,-834 202,110 393,248 561,401 284,257 576,513 813,808 1268,1586 2852,2865 4327,4256 1889,1782 3939,3405 5669,5349 1712,1925 3113,4030 4093,6379 689,1652 1282,3341 1624,5132 -64,-65 -139,-122 -191,-195zm19465 861c1369,-2208 3086,-4143 4982,-5943 1887,-1791 3757,-3600 5614,-5419 904,-885 1698,-1859 2364,-2928 427,-685 1127,-1077 1827,-1449 441,-235 917,-409 1362,-637 1191,-613 2410,-1171 3643,-1700 757,-325 1534,-431 2288,42 519,604 568,1311 361,2021 -183,629 -413,1256 -714,1841 -857,1666 -1746,3317 -2653,4958 -282,511 -630,995 -1003,1449 -581,707 -1343,1109 -2306,1149 -1183,50 -2363,148 -3545,209 -3324,170 -6222,1350 -8769,3391 -1261,1011 -2426,2113 -3473,3330 -58,68 -126,128 -251,153 91,-156 177,-314 272,-467zm-19479 -2749c-575,-1953 -1331,-3834 -2337,-5623 -1342,-2386 -3143,-4416 -5170,-6273 -931,-854 -1893,-1678 -2839,-2516 -137,-121 -266,-251 -398,-378 33,-46 66,-93 100,-139 1713,715 3454,1376 5130,2165 1061,499 2051,1152 3026,1801 839,558 1470,1327 2055,2135 533,737 781,1536 798,2422 49,2509 106,5017 154,7526 2,127 -37,254 -121,393 -132,-505 -251,-1014 -398,-1515zm17728 5662c1391,-1689 2737,-3417 4422,-4859 1298,-1113 2663,-2126 4239,-2857 1470,-682 3002,-1130 4634,-1231 1200,-74 2402,-133 3602,-214 501,-34 999,-107 1498,-163 15,46 30,91 45,137 -429,282 -841,593 -1290,842 -1383,769 -2843,1375 -4342,1901 -1715,602 -3448,1165 -5131,1843 -2858,1150 -5460,2700 -7622,4876 -54,54 -112,102 -170,151 -12,9 -35,7 -120,21 88,-170 137,-327 235,-446z"/>
   <path class="fil0" d="M133095 148536c7,4625 -2,9250 -5,13876 0,537 9,1074 14,1611 78,-112 100,-223 102,-334 51,-2059 127,-4117 142,-6176 24,-3090 10,-6180 -1,-9270 -2,-609 -24,-1225 -376,-1765 43,686 123,1372 124,2057z"/>
   <path class="fil0" d="M134740 172822c-533,3894 -741,7787 -53,11689 283,1604 674,3175 1230,4593 -335,-1509 -721,-3118 -1043,-4739 -332,-1677 -402,-3380 -411,-5085 -13,-2270 233,-4522 489,-6774 84,-741 154,-1485 230,-2228 -219,841 -324,1693 -441,2543z"/>
   <path class="fil0" d="M148687 177377c-1110,1914 -2246,3815 -3317,5749 -742,1341 -1368,2741 -2094,4090 -760,1412 -1713,2685 -3113,3590 -41,27 -61,85 -152,218 701,-306 1187,-719 1635,-1176 810,-826 1433,-1778 1965,-2785 953,-1803 1876,-3621 2840,-5419 698,-1301 1441,-2579 2162,-3868 96,-172 185,-348 278,-522 -24,-13 -48,-26 -72,-39 -44,54 -96,102 -131,161z"/>
   <path class="fil0" d="M130915 175067c-79,1176 -193,2352 -226,3530 -79,2843 80,5661 1160,8356 219,547 429,1106 958,1466 -6,-36 -2,-78 -20,-107 -1085,-1771 -1451,-3750 -1724,-5741 -237,-1729 -204,-3473 -130,-5214 36,-853 62,-1706 93,-2559 -80,88 -105,178 -111,270z"/>
   <path class="fil0" d="M158376 156398l-4 0c-52,0 -93,15 -128,39 -948,652 -1973,1224 -2826,1976 -2968,2615 -5339,5705 -7440,8994 -9,15 -8,37 -12,55l30 18c79,-80 172,-152 235,-243 457,-650 890,-1316 1365,-1954 546,-732 1120,-1445 1694,-2158 2004,-2487 4170,-4815 6972,-6510 85,-51 150,-132 224,-199 -42,-13 -78,-19 -111,-19z"/>
   <path class="fil0" d="M139692 160084c523,2281 670,4591 566,6913 -104,2326 -265,4649 -401,6974 62,-196 99,-397 127,-599 288,-2118 435,-4245 504,-6380 60,-1857 6,-3705 -285,-5542 -75,-473 -237,-933 -358,-1399 -51,11 -102,21 -153,32z"/>
   <path class="fil0" d="M140142 181650c-1109,2194 -1880,4487 -2154,6922 -49,437 -26,881 -37,1322 49,6 97,13 146,19 120,-4156 1926,-7787 3801,-11396 -49,-17 -99,-34 -148,-51 -536,1062 -1072,2124 -1608,3185z"/>
   <path class="fil0" d="M146533 164269c-392,1057 -763,2123 -1216,3156 -435,993 -962,1948 -1449,2920 57,24 115,46 172,70 1821,-2850 2710,-6051 3722,-9206 -38,-14 -76,-28 -114,-42 -371,1034 -733,2072 -1115,3102z"/>
   <path class="fil0" d="M130024 154352c127,-1297 217,-2767 428,-4221 211,-1449 544,-2881 844,-4425 -850,1027 -1576,6815 -1272,8646z"/>
   <path class="fil0" d="M144424 177827c2148,-3699 4985,-6900 7805,-10110 -3427,3546 -7534,8884 -7805,10110z"/>
   <path class="fil0" d="M146921 151561c-30,3292 -860,6474 -1438,9691 47,8 95,17 142,25 374,-1819 796,-3630 1107,-5459 211,-1235 273,-2494 389,-3744 16,-173 -41,-353 -65,-529 -46,6 -91,11 -136,17z"/>
   <path class="fil0" d="M135134 153448c108,1623 197,3247 262,4872 41,1014 26,2031 36,3046 345,-1742 207,-8529 -545,-9293 85,458 216,914 246,1376z"/>
   <path class="fil0" d="M124571 170163c825,966 1672,1916 2471,2902 850,1048 1615,2151 1995,3456 40,137 132,261 200,391 53,-23 106,-46 159,-69 -302,-1425 -1093,-2625 -2020,-3744 -917,-1108 -1764,-2283 -2941,-3170 23,96 78,167 135,235z"/>
   <path class="fil0" d="M124306 167202c1155,1074 2269,2190 3400,3287 -2009,-2485 -4222,-4742 -7294,-6030 1378,805 2728,1658 3894,2743z"/>
   <path class="fil0" d="M156931 175249c3269,-2207 6515,-4442 9455,-7140 -3190,2409 -6322,4774 -9455,7140z"/>
   <path class="fil0" d="M156724 170040c165,-81 294,-186 409,-304 1241,-1270 2407,-2584 3377,-4079 709,-1094 1303,-2196 1584,-3450 -1076,3066 -3241,5437 -5370,7834z"/>
   <path class="fil0" d="M150582 179177c2633,-2661 5230,-5362 8349,-7531 -3269,2009 -5826,4750 -8349,7531z"/>
   <path class="fil0" d="M161817 158437l-1 0 -1 0 -1 0 -1 0c-374,0 -607,251 -826,465 -1297,1269 -2578,2552 -3858,3836 -211,212 -391,452 -585,678 21,18 42,35 63,54 1748,-1671 3496,-3342 5263,-5031 -18,-2 -36,-2 -53,-2z"/>
   <path class="fil0" d="M132041 182976c93,1369 297,2720 640,4054 261,1016 703,1944 1368,2771 110,136 248,251 373,375 32,-26 65,-51 97,-77 -77,-117 -147,-238 -232,-349 -691,-900 -1214,-1879 -1439,-2984 -195,-956 -361,-1918 -533,-2878 -78,-434 -141,-870 -232,-1437 -23,265 -51,396 -42,525z"/>
   <path class="fil0" d="M141970 158139c29,-170 48,-276 66,-382 202,-1258 368,-2522 616,-3772 157,-788 425,-1557 669,-2327 58,-183 223,-334 339,-499 11,-25 21,-50 30,-76 -35,-93 -70,-185 -115,-302 -864,1017 -1869,5621 -1605,7358z"/>
   <path class="fil0" d="M137459 182502c459,-644 1268,-6234 1135,-7306 -384,2469 -759,4888 -1135,7306z"/>
   <path class="fil0" d="M169852 162871l0 0 0 0 -1 0c-1106,151 -1975,834 -2957,1260 -654,284 -1213,778 -1806,1188 -733,506 -1457,1023 -2185,1535 21,28 43,56 63,85 685,-446 1369,-894 2056,-1336 930,-597 1844,-1219 2802,-1770 493,-284 1065,-437 1600,-654 170,-69 333,-153 528,-243 -70,-45 -87,-64 -99,-64z"/>
   <path class="fil0" d="M135363 173602c494,-2700 766,-5420 961,-8148 -47,-4 -93,-9 -140,-13 -273,2720 -547,5441 -820,8161z"/>
   <path class="fil0" d="M163929 173548c1676,-926 4812,-3665 5095,-4444 -1696,1479 -3414,2978 -5095,4444z"/>
   <path class="fil0" d="M147167 164847c622,-1199 1080,-2455 1422,-3743 235,-887 373,-1798 541,-2701 40,-218 68,-451 -81,-663 -212,2478 -1100,4779 -1882,7107z"/>
   <path class="fil0" d="M147475 178202c1344,-2387 2962,-4470 4640,-6516 -1658,1565 -4490,5543 -4640,6516z"/>
   <path class="fil0" d="M143690 151083c-9,26 -19,51 -30,76 -40,182 -75,365 -119,545 -230,926 -472,1850 -687,2780 -78,337 -92,688 -135,1033 143,-320 207,-651 298,-975 351,-1244 713,-2485 1065,-3729 53,-188 71,-385 106,-578 -37,-5 -75,-10 -113,-15 -128,288 -257,575 -385,863z"/>
   <path class="fil0" d="M166487 169060c41,12 68,26 74,20 1332,-1207 2665,-2412 3988,-3628 138,-127 211,-320 314,-483 -27,-3 -54,-7 -80,-10 -1430,1364 -2859,2728 -4296,4101z"/>
   <path class="fil0" d="M128305 173496c452,759 804,1574 1256,2478 -43,-1065 -1674,-3785 -2786,-4707 514,740 1071,1457 1530,2228z"/>
   <path class="fil0" d="M157348 158869c1168,-1021 2335,-2043 3504,-3064 -38,-40 -76,-81 -114,-121 -1238,941 -2364,2000 -3389,3185z"/>
   <path class="fil0" d="M131023 149847c329,-1361 658,-2721 987,-4081 -70,-24 -142,-48 -213,-71 -367,1362 -757,2719 -774,4153z"/>
   <path class="fil0" d="M159682 161308c898,-774 1795,-1548 2773,-2391 -606,102 -2152,1459 -2773,2391z"/>
   <path class="fil0" d="M169493 163475c-401,207 -770,472 -1158,705 -535,321 -1075,635 -1613,952 15,23 30,46 45,69 1159,-606 2319,-1213 3478,-1819 -12,-30 -24,-61 -37,-91 -240,58 -504,75 -715,184z"/>
   <path class="fil0" d="M165970 172620c26,32 52,65 79,97 746,-588 1487,-1181 2099,-1903 -37,-37 -73,-74 -110,-111 -689,639 -1378,1278 -2068,1917z"/>
   <path class="fil0" d="M138847 183325c44,11 89,22 133,33 376,-922 751,-1844 1126,-2766 -38,-14 -75,-28 -113,-42 -382,925 -764,1850 -1146,2776z"/>
   <path class="fil0" d="M159551 157511c555,-470 1110,-939 1665,-1409 -33,-35 -66,-69 -98,-104 -617,404 -1129,919 -1566,1513z"/>
   <path class="fil0" d="M142226 177872c163,-240 327,-480 491,-720 -21,-13 -43,-27 -65,-40 -142,253 -284,507 -426,760zm-156 229c7,3 15,6 23,9 44,-80 89,-159 133,-238 -52,76 -104,153 -156,229z"/>
   <path class="fil0" d="M147287 168409c54,31 108,63 162,95 182,-341 363,-683 546,-1024l-30 -18c-226,315 -452,631 -678,946z"/>
   <path class="fil0" d="M136301 193067c-101,554 -241,1109 -266,1667 -66,1512 -342,2977 -916,4387 -98,240 -246,463 -329,707 -457,1342 -827,2706 -896,4123 -138,2853 235,5647 1037,8399 801,2750 1540,5518 2307,8278 50,178 109,352 176,565 424,-115 254,-345 207,-515 -672,-2434 -1306,-4879 -2045,-7294 -487,-1591 -863,-3195 -1114,-4833 -257,-1678 -297,-3363 -152,-5045 103,-1191 424,-2339 871,-3474 444,-1127 915,-2262 992,-3511 67,-1102 294,-2194 441,-3291 22,-167 -2,-341 -6,-511 -50,-9 -101,-19 -151,-28 -54,125 -133,246 -156,377z"/>
   <path class="fil0" d="M66626 89701c-633,240 -1257,503 -1894,730 -1437,512 -2594,1349 -3326,2666 -959,1726 -1352,3588 -1350,5535 0,444 40,889 63,1369 -188,-35 -340,-56 -488,-91 -1139,-269 -2239,-644 -3300,-1129 -402,-185 -825,-347 -1256,-450 -868,-209 -1535,76 -1960,837 -191,343 -361,722 -425,1102 -144,869 -314,1750 -297,2622 31,1628 151,3256 305,4878 101,1065 363,2108 818,3097 869,1886 2102,3547 3460,5120 1289,1491 2762,2806 4398,3944 151,105 294,220 549,410 -331,8 -519,20 -707,15 -1211,-33 -2411,99 -3593,325 -2029,387 -3896,1134 -5559,2355 -989,726 -2057,1352 -3068,2054 -373,259 -732,569 -1006,921 -350,449 -227,915 286,1190 317,170 680,303 1037,350 711,94 1433,171 2148,160 2550,-39 5092,36 7632,274 1653,155 3314,238 4974,298 1328,48 2639,-142 3923,-480 191,-50 389,-78 583,-117 -98,221 -243,341 -369,475 -562,597 -1155,1172 -1667,1806 -498,617 -798,1341 -775,2143 41,1428 569,2273 1796,2673 588,192 1194,346 1802,468 761,153 1531,283 2303,374 692,81 1394,143 2089,126 1150,-29 2243,-285 3112,-1084 844,-777 1696,-1546 2502,-2360 1006,-1016 1794,-2172 2240,-3529 479,-1460 430,-2880 -282,-4265 -40,-78 -48,-172 -70,-257 57,-19 94,-43 127,-39 135,16 270,36 404,63 2255,463 4469,355 6690,-274 2327,-659 4283,-1811 5821,-3619 806,-948 1533,-1953 2070,-3065 1310,-2713 2306,-5544 3283,-8378 191,-556 205,-1181 221,-1776 19,-702 -148,-1374 -571,-1974 -337,-477 -790,-764 -1378,-683 -1341,185 -2512,748 -3334,1793 -572,726 -1016,1551 -1473,2354 -663,1163 -989,2447 -1334,3720 -113,415 -325,750 -654,1040 -1528,1348 -3211,2494 -4953,3566 -102,63 -222,97 -459,199 180,-248 286,-379 377,-519 579,-891 1220,-1750 1719,-2681 1282,-2393 1988,-4959 2370,-7623 346,-2413 465,-4824 3,-7224 -405,-2105 -871,-4203 -1612,-6229 -265,-725 -602,-1426 -1130,-2019 -722,-810 -1596,-1293 -2743,-1270 -555,11 -922,242 -1174,690 -100,177 -189,359 -306,585 -254,-380 -570,-390 -937,-299 -798,197 -1375,677 -1862,1285 -649,811 -1117,1718 -1505,2666 -75,184 -156,366 -249,585 -322,-583 -569,-1110 -890,-1591 -336,-503 -711,-989 -1126,-1433 -1458,-1565 -3228,-2632 -5399,-3021 -191,-35 -384,-71 -577,-80 -140,-6 -279,-10 -418,-10 -1253,0 -2459,263 -3630,707zm8042 21298c-1066,-1833 -2432,-3445 -4014,-4878 -904,-819 -1878,-1569 -2847,-2319 -1982,-1535 -4224,-2615 -6612,-3426 -201,-68 -401,-139 -669,-232 -45,-358 -122,-724 -132,-1091 -59,-2043 340,-3990 1318,-5820 672,-1259 1772,-1998 3101,-2487 617,-227 1229,-469 1840,-711 1202,-477 2452,-774 3750,-714 969,44 1929,235 2808,674 2082,1039 3722,2513 4786,4547 140,267 296,538 364,825 57,241 60,531 -27,759 -471,1233 -950,2465 -1478,3676 -1381,3166 -2045,6450 -1814,9886 50,741 152,1478 230,2217 -38,12 -76,24 -114,35 -162,-313 -312,-633 -489,-939zm8565 -18992c170,-459 307,-932 505,-1380 269,-609 507,-727 1178,-695 1011,47 1798,521 2359,1285 399,544 751,1152 970,1781 427,1226 773,2481 1105,3736 913,3448 1014,6915 359,10429 -460,2463 -1160,4834 -2397,7030 -1743,3097 -4155,5560 -7513,7083 -677,307 -1358,546 -2160,488 -20,-126 -64,-249 -55,-369 140,-1899 -193,-3739 -758,-5548 -359,-1150 -829,-2273 -1099,-3441 -482,-2083 -564,-4196 -93,-6302 170,-761 527,-1450 935,-2117 672,-1101 1386,-2182 1985,-3319 944,-1788 1491,-3704 1767,-5693 147,-1060 308,-2118 745,-3116 280,-641 939,-1016 1719,-942 315,482 -112,1037 71,1531 56,9 113,19 169,28 70,-157 148,-310 208,-470zm-6589 9178c149,-406 329,-802 489,-1206 604,-1524 1189,-3054 1812,-4570 344,-835 745,-1648 1134,-2466 83,-176 222,-328 393,-573 11,163 26,216 17,264 -177,881 -388,1758 -531,2645 -409,2539 -1326,4890 -2729,7069 -480,746 -952,1498 -1428,2247 100,-1207 441,-2317 843,-3411zm-8150 21308c-3160,-523 -5892,-1886 -8311,-3885 -2465,-2038 -4489,-4415 -6019,-7180 -707,-1279 -1090,-2643 -1176,-4086 -96,-1607 -219,-3215 -256,-4824 -16,-686 152,-1376 246,-2063 23,-166 76,-331 134,-489 539,-1481 1240,-1690 2524,-1124 1496,659 3048,1132 4621,1580 3741,1063 6918,3026 9748,5606 1394,1271 2697,2588 3755,4123 842,1221 1451,2559 2047,3905 570,1285 972,2618 1254,3980 255,1233 332,2485 167,3742 -637,420 -1364,514 -2061,650 -1159,225 -2320,334 -3483,334 -1062,0 -2126,-91 -3189,-267zm16530 1732c831,-422 1595,-867 2243,-1474 1106,-1037 1987,-2236 2685,-3563 700,-1329 1231,-2712 1557,-4173 283,-1265 593,-2524 940,-3774 480,-1724 1315,-3272 2439,-4704 719,-914 1638,-1396 2735,-1657 683,-163 1031,9 1427,567 651,917 581,1931 392,2928 -139,733 -415,1446 -680,2150 -652,1729 -1318,3454 -2007,5169 -717,1784 -1729,3404 -3048,4839 -1371,1491 -3054,2498 -5034,3080 -1011,298 -2026,526 -3076,611 -66,6 -132,7 -198,7 -125,0 -250,-6 -375,-7zm-4824 -1101c-429,-375 -903,-702 -1361,-1052 705,-339 1414,-673 2116,-1019 1332,-655 2488,-1538 3515,-2578 352,-356 744,-628 1192,-874 945,-517 1864,-1088 2748,-1697 917,-632 1781,-1336 2667,-2009 89,-67 176,-137 367,-287 -60,321 -97,532 -139,743 -418,2087 -1172,4054 -2359,5847 -459,693 -989,1353 -1562,1963 -828,883 -1835,1549 -3042,1869 -846,224 -1698,114 -2535,-97 -53,-13 -106,-92 -145,-84 -88,19 -170,28 -247,28 -540,0 -842,-428 -1215,-753zm-32026 3580c63,-385 264,-629 583,-764 515,-218 1034,-428 1563,-609 660,-226 1378,-337 1986,-650 730,-374 1381,-896 2045,-1380 356,-259 661,-582 999,-865 1345,-1127 2918,-1692 4693,-1752 311,-10 621,-31 932,-30 922,4 1779,154 2628,592 2798,1443 5825,1969 8976,1809 1102,-56 2196,-249 3376,-389 -99,144 -147,247 -224,322 -876,854 -1789,1672 -2897,2239 -1387,710 -2894,881 -4422,665 -1345,-190 -2672,-502 -4006,-761 -1239,-241 -2472,-516 -3718,-721 -1926,-317 -3748,78 -5502,853 -1713,756 -3404,1571 -5270,1944 -142,28 -279,42 -410,42 -506,0 -939,-202 -1332,-545zm1246 -1490c156,-109 310,-219 466,-326 949,-651 1876,-1336 2857,-1940 748,-461 1559,-830 2354,-1217 324,-157 678,-254 1055,-310 -1130,899 -2233,1830 -3400,2681 -435,317 -1008,475 -1536,656 -581,199 -1184,340 -1777,506 -6,-17 -13,-33 -19,-50zm17937 9067c-969,-450 -1258,-1222 -1266,-2157 -7,-782 327,-1461 790,-2082 781,-1047 1759,-1911 2835,-2660 448,-313 1022,-452 1510,-719 1088,-595 2186,-1177 3128,-1994 736,-638 1528,-1211 2072,-2039 305,-465 1236,-664 1808,-406 1570,707 2779,1796 3201,3444 403,1574 132,3101 -962,4408 -839,1002 -1799,1870 -3065,2364 -162,63 -328,117 -514,182 -637,67 -1292,155 -1950,199 -713,48 -1369,244 -1997,568 -667,344 -1326,718 -2029,979 -573,213 -1148,329 -1723,329 -612,0 -1225,-131 -1837,-416zm-16282 -6893c-55,-3 -109,-19 -163,-28 2,-29 4,-57 5,-86 619,-217 1247,-415 1856,-657 1006,-400 2013,-799 2994,-1250 1470,-675 3015,-915 4600,-662 1726,274 3432,666 5143,1023 1352,282 2700,591 4094,532 656,-28 1309,-124 1981,-191 -93,70 -180,168 -290,214 -757,315 -1503,667 -2283,915 -793,252 -1615,431 -2435,581 -464,85 -936,140 -1434,78 -263,-32 -535,9 -807,51 -231,35 -463,70 -691,61 -1417,-62 -2836,-136 -4246,-280 -2634,-268 -5273,-344 -7918,-291 -20,0 -41,1 -62,1 -115,0 -231,-6 -346,-12zm19000 7591c1167,-333 2162,-789 3111,-1344 724,-424 1544,-523 2356,-553 1371,-52 2589,-443 3646,-1290 38,-30 94,-39 210,16 -563,559 -1122,1121 -1691,1675 -176,172 -395,305 -562,485 -894,961 -2011,1429 -3342,1487 -68,3 -143,4 -223,4 -935,0 -2610,-196 -3505,-480z"/>
   <path class="fil0" d="M57426 112043c203,340 405,681 618,1015 1615,2531 3406,4927 5670,6971 1455,1314 3100,2263 5066,2662 115,23 222,84 433,167 -1758,892 -3644,881 -5395,1361 1965,-257 3984,-307 5757,-1313 -3,-44 -6,-87 -9,-131 -184,-56 -365,-124 -552,-165 -2053,-452 -3772,-1459 -5288,-2853 -2056,-1892 -3722,-4077 -5276,-6351 -338,-494 -668,-994 -1036,-1543 6,108 -5,152 12,180z"/>
   <path class="fil0" d="M57030 106766c1633,3391 3714,6525 5999,9533 1117,1470 2370,2833 3887,3947 689,506 1440,904 2231,1234 -41,-76 -101,-122 -167,-156 -1506,-754 -2809,-1770 -3909,-3000 -975,-1091 -1906,-2226 -2775,-3398 -2409,-3245 -4517,-6661 -6169,-10335 299,726 562,1468 903,2175z"/>
   <path class="fil0" d="M81031 120717c1031,-535 3313,-3835 4547,-6574 1394,-3092 1913,-6335 1765,-9693 37,6193 -2226,11551 -6312,16267z"/>
   <path class="fil0" d="M76378 117756c589,1291 830,2674 1035,4091 1698,-1189 3618,-5772 3809,-7471 -925,2522 -1759,4985 -3614,7087 -376,-2826 -1520,-5256 -3037,-7525 604,1272 1222,2538 1807,3818z"/>
   <path class="fil0" d="M83485 110288c-401,2106 -918,4185 -1763,6170 -813,1909 -1870,3673 -3489,5073 -81,70 -142,161 -218,250 48,20 73,38 83,33 82,-47 176,-85 239,-150 610,-627 1298,-1202 1808,-1898 2189,-2993 3011,-6447 3517,-9994 -94,162 -143,338 -177,517z"/>
   <path class="fil0" d="M73811 119926c-2577,-3922 -5190,-7819 -8326,-11360 2893,3707 5579,7554 8326,11360z"/>
   <path class="fil0" d="M66565 97189c433,1181 854,2369 1344,3529 606,1431 1313,2815 2290,4060 430,547 782,1150 1170,1728 32,-19 64,-37 96,-56 -31,-61 -57,-126 -94,-183 -726,-1141 -1513,-2251 -2168,-3429 -1056,-1899 -1847,-3913 -2521,-5967 -164,-500 -346,-994 -531,-1487 -36,-97 -125,-175 -190,-262 150,714 358,1396 604,2067z"/>
   <path class="fil0" d="M66431 105352c1239,1573 2459,3161 3661,4708 -937,-2121 -6378,-8628 -7691,-9100 1439,1383 2802,2832 4030,4392z"/>
   <path class="fil0" d="M74513 105954c200,893 252,1816 403,2720 73,438 -28,914 261,1376 216,-1655 -690,-6475 -2456,-11699 589,2480 1217,5036 1793,7602z"/>
   <path class="fil0" d="M77140 118207c44,4 89,9 133,13 23,-1818 7,-3638 80,-5454 72,-1812 231,-3621 353,-5431 -613,3606 -844,7228 -565,10872z"/>
   <path class="fil0" d="M76517 114966c122,-1794 180,-3595 384,-5380 205,-1794 556,-3572 843,-5357 -845,3533 -1565,7081 -1227,10737z"/>
   <path class="fil0" d="M79860 110887c635,-4052 1201,-8099 1270,-12193 -423,4064 -846,8128 -1270,12193z"/>
   <path class="fil0" d="M52764 101418c6,101 5,203 20,303 19,128 51,253 78,381 -100,11 -172,19 -243,27 5,983 1493,4630 2287,5597 -741,-1705 -1504,-3385 -1867,-5198 323,669 646,1339 970,2008 20,-9 39,-18 59,-26 -396,-1039 -792,-2077 -1188,-3115 -39,8 -77,15 -115,23z"/>
   <path class="fil0" d="M71847 89444c2103,2488 3136,5469 4224,8328 -148,-568 -269,-1240 -502,-1874 -369,-1004 -802,-1986 -1228,-2969 -466,-1074 -1081,-2071 -1796,-3008 -161,-212 -385,-380 -580,-569 -39,30 -79,61 -118,91z"/>
   <path class="fil0" d="M64529 100137c-297,-667 -587,-1257 -824,-1867 -245,-632 -454,-1278 -651,-1926 -192,-631 -374,-1266 -515,-1909 -140,-640 -223,-1292 -341,-1994 -628,844 1210,6407 2331,7695z"/>
   <path class="fil0" d="M56350 112889c-648,-1240 -1300,-2426 -1891,-3640 -583,-1198 -1104,-2425 -1680,-3702 -11,1154 2295,5852 3572,7342z"/>
   <path class="fil0" d="M59645 105647c-564,-1116 -1124,-2263 -1719,-3393 -589,-1118 -1018,-2310 -1656,-3405 -37,859 2477,5830 3375,6798z"/>
   <path class="fil0" d="M64604 121877l-12 0c-2614,0 -5167,507 -7712,1073 2824,-306 5602,-962 8461,-1059 -246,-9 -492,-14 -737,-14z"/>
   <path class="fil0" d="M82825 98437c283,-1115 380,-6213 77,-6702 -18,2234 -163,4466 -77,6702z"/>
   <path class="fil0" d="M87346 120267c-2072,427 -4149,824 -6288,698 -125,-7 -254,57 -381,87 12,41 24,82 37,122 2563,183 5037,-225 7414,-1137 -260,78 -516,176 -781,230z"/>
   <path class="fil0" d="M85061 103181c110,-3117 -28,-6265 -337,-9409 112,3136 224,6272 337,9409z"/>
   <path class="fil0" d="M75680 128603c106,-276 256,-545 309,-830 287,-1529 473,-3070 442,-4627 -4,-176 -12,-389 -281,-557 91,2072 -152,4040 -470,6014z"/>
   <path class="fil0" d="M88270 104017c34,1547 -93,3082 -348,4610 785,-2454 580,-7330 -352,-9209 443,1504 665,3038 700,4600z"/>
   <path class="fil0" d="M79213 129585c6,572 -131,1146 -204,1720 -12,94 -31,188 -58,346 691,-614 703,-3509 99,-5334 57,1067 151,2167 163,3268z"/>
   <path class="fil0" d="M75285 106955c250,-870 -207,-3771 -824,-5616 252,1719 534,3638 824,5616z"/>
   <path class="fil0" d="M70254 130374c351,-778 679,-1578 1069,-2349 385,-762 833,-1494 1254,-2239 -951,812 -2306,3631 -2323,4587z"/>
   <path class="fil0" d="M66237 90032c-6,0 -12,0 -18,0 -125,659 -164,673 24,1193 296,821 651,1623 981,2433 12,-4 24,-8 35,-12 -312,-1195 -624,-2390 -938,-3585 -3,-12 -28,-22 -44,-27 -9,-2 -18,-3 -27,-3 -4,0 -9,0 -13,0z"/>
   <path class="fil0" d="M65473 125224c1759,-437 3448,-1024 4889,-2136 -1527,931 -3242,1462 -4889,2136z"/>
   <path class="fil0" d="M77336 122105c959,411 1590,1141 2174,1934 613,833 828,1800 1136,2735 -161,-616 -273,-1249 -494,-1844 -385,-1039 -1040,-1913 -1966,-2579 -198,-142 -412,-265 -672,-265 -57,0 -117,6 -179,19z"/>
   <path class="fil0" d="M83461 122328c1269,326 4123,-147 4656,-827 -1549,542 -3076,756 -4656,827z"/>
   <path class="fil0" d="M69426 134555c15,-32 53,-76 42,-94 -375,-675 -331,-1413 -326,-2139 5,-593 67,-1185 111,-1883 -585,1492 -467,3717 173,4115z"/>
   <path class="fil0" d="M87299 118072c1376,-511 2679,-1141 3737,-2212 -1246,737 -2492,1474 -3737,2212z"/>
   <path class="fil0" d="M62516 92124c131,1504 456,2970 1003,4347 -276,-1430 -560,-2904 -844,-4378 -53,10 -106,20 -158,31z"/>
   <path class="fil0" d="M64574 101973c965,1082 1930,2165 2894,3247 -815,-1207 -1683,-2370 -2799,-3326 -31,26 -63,53 -95,79z"/>
   <path class="fil0" d="M69522 126063c1750,-373 3354,-1804 3528,-3227 -725,1654 -1889,2684 -3528,3227z"/>
   <path class="fil0" d="M58802 102845c-480,-1349 -1445,-3304 -1808,-3544 498,1272 1071,2391 1808,3544z"/>
   <path class="fil0" d="M70233 116409c33,-23 66,-46 99,-69 -993,-1271 -1817,-2658 -2974,-3814 958,1294 1917,2588 2876,3882z"/>
   <path class="fil0" d="M81780 120581c6,40 12,80 19,119 1308,1 2581,-233 3830,-589 -1280,156 -2565,313 -3849,470z"/>
   <path class="fil0" d="M79809 130936c461,-1103 330,-2198 -72,-3379 201,1183 236,2280 72,3379z"/>
   <path class="fil0" d="M75417 126258c303,-929 430,-1858 365,-2800 -45,-3 -91,-6 -136,-10 -76,937 -153,1874 -229,2810z"/>
   <path class="fil0" d="M66707 125744c19,40 39,80 58,119 827,-154 1533,-559 2164,-1062 -741,315 -1481,629 -2222,943z"/>
   <path class="fil0" d="M68705 134747c-137,-522 -273,-1045 -435,-1665 -93,674 -50,1217 435,1665z"/>
   <path class="fil0" d="M89117 117693c584,-135 1097,-391 1561,-728 -22,-38 -45,-76 -68,-113l-1493 842z"/>
   <path class="fil0" d="M81571 127702c16,250 -11,512 54,750 241,871 523,1732 772,2602 499,1739 1008,3476 1474,5223 1281,4806 2635,9594 3583,14476 389,2002 921,3981 974,6037 16,615 178,1226 232,1841 191,2184 422,4367 529,6556 141,2892 409,5765 1027,8599 675,3094 1617,6120 2864,9043 976,2287 2071,4528 3147,6774 698,1457 1464,2885 2183,4333 226,456 413,931 594,1407 619,1620 1236,3240 1835,4867 391,1062 750,2134 1120,3203 439,1264 883,2527 1308,3795 473,1413 933,2828 1386,4247 642,2011 1306,4017 1897,6042 580,1991 1074,4004 1616,6005 398,1473 812,2942 1219,4412 76,-18 152,-37 227,-55 -70,-234 -145,-467 -209,-703 -1050,-3854 -2080,-7714 -3157,-11561 -442,-1577 -976,-3131 -1484,-4691 -491,-1505 -1001,-3004 -1506,-4505 -403,-1197 -800,-2395 -1219,-3587 -536,-1529 -1080,-3056 -1641,-4577 -411,-1113 -833,-2224 -1292,-3320 -500,-1193 -1071,-2352 -1676,-3504 -1527,-2911 -3018,-5843 -4193,-8910 -506,-1320 -1045,-2632 -1461,-3979 -667,-2161 -1281,-4339 -1624,-6576 -173,-1131 -384,-2262 -472,-3400 -189,-2448 -315,-4901 -452,-7353 -49,-873 -249,-1732 -175,-2620 37,-437 -113,-890 -186,-1335 -330,-2001 -601,-4013 -1008,-5999 -537,-2617 -1110,-5231 -1797,-7815 -1390,-5225 -2867,-10428 -4310,-15641 -11,-38 -45,-70 -68,-104 -37,8 -75,16 -112,24z"/>
   <path class="fil0" d="M131092 108537c-776,220 -1377,696 -1896,1254 -1943,2083 -3137,4519 -3515,7299 -154,1132 -196,2279 -278,3419 -22,303 -1,608 0,1044 -209,-246 -324,-390 -449,-526 -2013,-2180 -4460,-3555 -7533,-3744 -636,-39 -1282,-57 -1864,151 -360,403 -11,810 -51,1284 -229,-161 -377,-276 -535,-375 -799,-501 -1587,-1022 -2409,-1487 -345,-195 -754,-313 -1150,-389 -655,-126 -1100,190 -1097,824 2,497 81,1019 255,1485 475,1274 1160,2451 1926,3586 2111,3128 4204,6267 6311,9397 1758,2611 3497,5238 5927,7469 -146,5 -186,13 -223,7 -2560,-413 -5004,52 -7365,972 -1444,563 -2799,1296 -3979,2309 -1323,1135 -2691,2223 -4012,3361 -627,540 -1128,1191 -1491,1934 -801,1644 326,2948 1679,3265 392,91 809,97 1216,108 1710,46 3422,50 5131,127 1060,48 2061,-157 3024,-520 1255,-473 2391,-1166 3469,-1948 1509,-1094 3011,-2197 4549,-3253 1463,-1005 3022,-1856 4774,-2311 383,-100 823,-179 1197,-97 1467,322 2723,1009 3614,2217 387,525 743,1071 1200,1731 -10,-343 8,-575 -27,-799 -152,-972 109,-1845 763,-2572 895,-996 1993,-1718 3336,-2071 1337,-351 2593,-903 3840,-1480 2900,-1340 5846,-2541 9049,-3081 1864,-314 3733,-550 5619,-567 2001,-18 4002,94 6004,120 617,8 1244,-33 1851,-135 623,-105 1013,-500 1030,-930 22,-565 -380,-846 -850,-1019 -563,-207 -1141,-389 -1726,-526 -1255,-293 -2459,-709 -3642,-1209 -1538,-651 -3129,-1152 -4813,-1333 -1311,-142 -2558,43 -3751,584 -141,64 -290,112 -449,172 -3,-75 -10,-96 -4,-111 37,-87 74,-173 117,-257 1567,-3026 2262,-6270 2505,-9609 178,-2452 52,-4907 -189,-7353 -67,-683 -158,-1367 -476,-2019 -659,-1348 -2286,-2160 -3769,-1788 -1265,317 -2391,889 -3331,1778 -147,140 -304,270 -523,465 -21,-254 -34,-412 -52,-626 -200,-58 -393,-133 -594,-168 -447,-77 -830,128 -1230,277 -1866,695 -3602,1597 -5103,2890 -124,107 -261,200 -409,315 -151,-764 -274,-1482 -438,-2192 -401,-1737 -1480,-2964 -3153,-3672 -1317,-557 -2669,-1036 -4008,-1543 -198,-75 -411,-117 -619,-165 -217,-50 -432,-76 -647,-76 -245,0 -490,34 -736,104zm3726 30454c-1312,-1629 -2643,-3245 -3926,-4895 -1265,-1626 -2279,-3401 -3040,-5295 -596,-1484 -1170,-2985 -1613,-4516 -446,-1537 -598,-3127 -472,-4736 149,-1914 341,-3814 1132,-5607 607,-1375 1359,-2667 2404,-3777 374,-398 830,-733 1281,-1054 476,-338 1042,-455 1611,-298 652,180 1284,424 1921,652 491,175 981,356 1463,553 732,300 1497,554 2176,943 1076,617 1774,1555 2109,2730 258,907 462,1821 410,2805 -226,224 -472,463 -713,707 -2876,2902 -4505,6383 -5274,10302 -343,1744 -431,3486 -348,5239 51,1081 223,2160 400,3231 172,1035 421,2058 645,3132 -69,-47 -130,-72 -166,-117zm13089 -24938c365,-338 709,-697 1077,-1032 838,-763 1828,-1266 2939,-1545 1337,-335 2744,281 3417,1448 413,717 467,1505 540,2285 217,2334 328,4676 160,7015 -358,5002 -1769,9641 -5209,13546 -1744,1980 -3893,3437 -6330,4515 -1310,580 -2665,1040 -4049,1426 -853,238 -1726,330 -2599,268 -777,-54 -1427,-436 -1751,-1150 -327,-719 -630,-1456 -854,-2209 -913,-3078 -1300,-6219 -911,-9406 494,-4046 1861,-7778 4642,-10924 1576,-1782 3344,-3359 5572,-4380 701,-321 1413,-623 2130,-910 323,-130 671,-188 1041,9 -92,395 -183,784 -274,1172 39,28 77,55 116,82 115,-69 247,-122 343,-211zm-17111 27863c-3570,-970 -6372,-2965 -8544,-5856 -1611,-2144 -3061,-4383 -4526,-6619 -1599,-2441 -3288,-4826 -4943,-7233 -733,-1065 -1388,-2174 -1853,-3370 -181,-464 -274,-981 -289,-1478 -16,-521 287,-722 809,-567 517,154 1043,341 1496,619 853,522 1656,1120 2481,1687 163,112 330,221 495,331 57,-39 115,-77 172,-116 -135,-516 -269,-1031 -402,-1540 483,-263 942,-193 1378,-188 2516,28 4639,1012 6518,2554 355,291 681,618 993,952 541,578 901,1228 1092,2011 356,1460 754,2919 1265,4334 1110,3069 2734,5874 4896,8380 1233,1428 2450,2868 3448,4463 179,285 323,600 428,918 156,478 70,715 -408,908 -405,163 -854,269 -1292,301 -128,9 -255,14 -382,14 -968,0 -1903,-252 -2831,-504zm30529 -7964c-739,-288 -1463,-620 -2165,-985 -825,-430 -1632,-882 -2576,-1030 -54,-9 -105,-26 -142,-74 1254,-150 2454,70 3626,413 894,261 1767,589 2639,914 670,249 1324,538 1984,809 -602,128 -1210,229 -1814,229 -522,0 -1041,-76 -1553,-275zm-12539 4196c1653,-1290 2990,-2839 4131,-4564 632,-956 1543,-1502 2778,-1428 849,50 1650,247 2401,635 755,391 1511,781 2274,1157 1146,565 2362,717 3631,548 1245,-166 2481,-202 3677,269 379,149 771,280 1001,692 -74,452 -354,713 -769,770 -592,81 -1195,141 -1791,131 -1806,-28 -3612,-127 -5418,-135 -1671,-7 -3339,118 -4989,397 -824,139 -1661,223 -2469,420 -1035,253 -2050,587 -3068,902 -552,170 -1093,372 -1691,486 100,-94 193,-196 302,-281zm-38323 12727c-651,-5 -1282,-81 -1837,-454 -841,-565 -1139,-1353 -730,-2257 246,-543 576,-1080 987,-1516 665,-707 1411,-1345 2150,-1983 841,-726 1695,-1440 2573,-2122 1111,-864 2336,-1574 3675,-2044 1112,-391 2260,-717 3419,-946 1442,-284 2906,-228 4338,137 296,75 594,202 846,369 1810,1196 3799,1981 5929,2452 114,25 226,57 337,90 11,3 13,33 33,90 -968,280 -1938,515 -2956,544 -1087,31 -2175,79 -3261,134 -1348,69 -2555,528 -3569,1372 -868,722 -1672,1517 -2496,2288 -866,811 -1700,1654 -2588,2441 -1205,1069 -2637,1536 -4286,1426 -572,-38 -1148,-31 -1723,-25 -218,3 -436,5 -654,5 -63,0 -126,0 -189,-1zm5256 6c200,-107 417,-193 598,-325 710,-521 1455,-1008 2100,-1597 1101,-1006 2109,-2105 3208,-3112 615,-563 1300,-1076 2020,-1508 892,-535 1928,-669 2968,-707 854,-31 1707,-51 2561,-71 72,-2 146,31 267,59 -783,443 -1557,814 -2256,1288 -1620,1100 -3211,2239 -4798,3382 -1155,832 -2335,1622 -3672,2156 -720,287 -1464,493 -2261,493 -239,0 -484,-19 -734,-59z"/>
   <path class="fil0" d="M141124 118464c-94,94 -184,194 -270,294 -1780,2078 -3331,4305 -4671,6669 -65,115 -115,242 -196,346 -687,891 -1051,1926 -1334,2975 -278,1028 -435,2086 -650,3156 -89,-156 -207,-304 -264,-472 -236,-696 -502,-1387 -669,-2099 -296,-1261 -576,-2530 -775,-3809 -204,-1312 -309,-2639 -446,-3960 -74,-723 -124,-1448 -185,-2173 -70,156 -91,313 -81,468 62,1045 126,2090 197,3135 157,2289 541,4544 1184,6753 262,900 572,1783 1005,2631 249,489 301,1069 69,1619l7 -10c95,238 191,475 249,619 4,-4 56,-55 111,-109 -38,-142 -93,-281 -109,-426 -217,-1991 117,-3921 722,-5815 287,-897 720,-1731 1249,-2527 914,-1375 1754,-2796 2678,-4165 720,-1067 1520,-2083 2290,-3129 -44,11 -91,8 -112,29zm-6719 16032c1,4 2,7 3,11l6 -20c-3,3 -6,6 -9,9zm-111 109c0,0 0,0 0,0 0,0 0,0 0,0z"/>
   <path class="fil0" d="M120617 124519c788,1790 1551,3591 2367,5369 950,2073 2019,4088 3365,5955 1078,1494 2272,2895 3622,4174 -163,-198 -319,-402 -489,-594 -2273,-2558 -4263,-5295 -5695,-8383 -800,-1724 -1584,-3454 -2385,-5177 -311,-670 -648,-1329 -974,-1993 2,244 100,445 189,649z"/>
   <path class="fil0" d="M141770 136300c3841,-5059 7207,-10389 9916,-16081 -2963,5563 -6233,10939 -9916,16081z"/>
   <path class="fil0" d="M120558 132441c1546,2624 3448,4987 5768,7020 922,808 1905,1551 3119,1933l28 -47c-1256,-656 -2400,-1456 -3432,-2413 -2719,-2521 -4835,-5457 -6516,-8700 -154,-296 -321,-587 -483,-880 448,1057 934,2098 1516,3086z"/>
   <path class="fil0" d="M129445 141394c21,48 43,96 87,197 -397,-63 -762,-121 -1128,-179l18 6c-174,9 -348,10 -522,27 -886,87 -1783,120 -2655,279 -1652,300 -3177,980 -4698,1640 -819,355 -1594,802 -2390,1207 1037,-377 2025,-846 3040,-1255 1591,-642 3165,-1331 4918,-1513 1443,-150 2865,-169 4267,246 99,29 207,30 310,45 -273,-485 -776,-569 -1219,-748l-28 47z"/>
   <path class="fil0" d="M128602 125386c-340,-1504 -711,-3117 -1067,-4734 -125,-568 -234,-1142 -309,-1718 -222,-1711 -354,-3428 -232,-5154 8,-117 -33,-236 -52,-354 -721,2257 449,9270 1660,11960z"/>
   <path class="fil0" d="M149265 134542c-1765,2560 -3862,4800 -6652,6367 -100,56 -170,159 -255,239 154,31 267,12 362,-40 1174,-637 2257,-1396 3226,-2300 2352,-2194 4051,-4838 5572,-7617 -751,1117 -1491,2242 -2254,3351z"/>
   <path class="fil0" d="M141660 138901c-1035,1245 -2207,2353 -3640,3180 260,116 283,146 477,3 662,-489 1362,-946 1948,-1511 2000,-1930 3499,-4221 4920,-6561 108,-178 207,-362 306,-546 97,-181 188,-365 282,-548 -1371,2042 -2719,4089 -4293,5983z"/>
   <path class="fil0" d="M138001 124426c-693,1191 -1378,2388 -2033,3599 -185,343 -251,744 -378,1116 -500,1463 -949,2936 -1085,4480 -26,296 -64,591 -96,887l6 -20c28,146 60,292 83,439 115,734 228,1469 342,2203 -102,-1140 -297,-2270 -154,-3415 274,-2184 836,-4297 1846,-6278 566,-1111 1193,-2193 1799,-3284 199,-357 420,-702 631,-1053 -364,417 -689,857 -962,1326z"/>
   <path class="fil0" d="M159304 134606c140,-18 279,-36 418,-57 -7,-20 -13,-41 -20,-61 -133,40 -266,79 -398,119zm-1174 191c-848,206 -1678,478 -2522,700 -1503,395 -2973,885 -4368,1546 -1041,493 -2030,1088 -3037,1646 -111,61 -187,179 -280,270 27,29 54,57 80,86 1739,-1180 3640,-2061 5633,-2727 1870,-625 3775,-1152 5668,-1713 -395,51 -791,98 -1174,191z"/>
   <path class="fil0" d="M139598 130252c141,-176 263,-363 370,-558 533,-978 1041,-1969 1596,-2935 1350,-2350 2785,-4650 4383,-6853 162,-223 316,-452 474,-679l-103 -59c-2735,3413 -4817,7198 -6720,11085z"/>
   <path class="fil0" d="M119652 117928c2189,2867 3487,6194 5219,9299 -127,-354 -255,-707 -416,-1046 -574,-1207 -1147,-2414 -1745,-3609 -708,-1416 -1430,-2827 -2393,-4105 -166,-220 -359,-423 -539,-633 -42,31 -85,63 -126,94z"/>
   <path class="fil0" d="M153180 126357c162,-297 350,-584 482,-893 585,-1369 1199,-2729 1715,-4122 365,-985 594,-2018 873,-3032 49,-177 46,-367 67,-550 -56,-10 -112,-20 -168,-30 -559,3018 -1957,5751 -2970,8627z"/>
   <path class="fil0" d="M131005 138628c573,974 1162,1946 1482,3037 77,262 139,528 208,792 61,-9 121,-19 181,-29 80,-426 -85,-833 -251,-1209 -922,-2091 -2197,-3988 -3507,-5865 -59,-85 -153,-147 -326,-308 788,1271 1523,2413 2211,3582z"/>
   <path class="fil0" d="M117882 141208c-1221,428 -2444,856 -3641,1341 -1000,407 -1958,907 -2799,1585 -111,89 -200,204 -300,307 28,33 57,65 85,98 2364,-1794 5207,-2600 7936,-3650 -428,104 -869,173 -1281,318z"/>
   <path class="fil0" d="M141561 140016c-705,778 -1475,1491 -2454,1955 -41,20 -64,76 -95,116 13,26 25,53 38,80 184,-66 393,-98 547,-204 472,-324 989,-618 1369,-1027 1075,-1158 2093,-2366 3126,-3560 151,-175 260,-382 389,-575 -1009,1054 -1952,2145 -2920,3215z"/>
   <path class="fil0" d="M108784 148921c819,-628 1611,-1292 2464,-1873 870,-593 1789,-1124 2710,-1644 875,-494 1780,-939 2672,-1406 -2869,1265 -5665,2643 -7846,4922z"/>
   <path class="fil0" d="M131911 133892c-1906,-2570 -3294,-5394 -4443,-8351 997,3014 2362,5860 4443,8351z"/>
   <path class="fil0" d="M138530 117502c232,-2189 482,-4379 -351,-6524 557,2155 285,4347 351,6524z"/>
   <path class="fil0" d="M145034 117959c1236,-1672 2411,-3261 3584,-4850 9,-13 7,-39 0,-55 -6,-13 -27,-21 -117,-86 -1491,1405 -2471,3141 -3467,4991z"/>
   <path class="fil0" d="M111394 151115c43,0 87,2 131,5 96,6 191,11 278,-14 538,-154 1071,-324 1604,-494 1430,-456 2702,-1198 3926,-2026 108,-73 192,-178 287,-269 -1962,1183 -3987,2174 -6225,2797z"/>
   <path class="fil0" d="M149137 137750c2237,-1520 4795,-2387 7300,-3362 -2589,803 -5158,1648 -7300,3362z"/>
   <path class="fil0" d="M118508 124108c-926,-1888 -1844,-3757 -2781,-5666 -33,795 1843,4589 2781,5666z"/>
   <path class="fil0" d="M126701 137131c-1634,-2128 -3067,-4372 -4197,-6786 919,2543 2409,4751 4197,6786z"/>
   <path class="fil0" d="M131752 135743c228,337 465,668 683,1010 1058,1659 2143,3307 2256,5334 -6,-2525 -1318,-4503 -2811,-6406 -43,20 -85,41 -128,61z"/>
   <path class="fil0" d="M135431 138932c437,-2106 1761,-3823 2643,-5693 -991,841 -2784,4582 -2643,5693z"/>
   <path class="fil0" d="M127960 118939c-122,-2138 -507,-4258 -457,-6409 -260,2163 67,4289 457,6409z"/>
   <path class="fil0" d="M138028 135134c113,-109 234,-180 285,-283 1219,-2472 2615,-4851 4059,-7194 -1644,2379 -3076,4861 -4344,7478z"/>
   <path class="fil0" d="M131304 127789c528,1465 1010,2948 1603,4389 258,628 725,1176 1106,1757 -50,-118 -94,-238 -158,-348 -672,-1143 -1191,-2348 -1608,-3596 -203,-606 -404,-1213 -611,-1817 -52,-152 -127,-296 -191,-444 -46,19 -93,39 -140,58zm2735 6208l7 -10c-11,-17 -22,-34 -33,-52 9,21 17,41 26,61z"/>
   <path class="fil0" d="M134681 109707c230,1748 461,3496 691,5244 10,-1779 -34,-3551 -558,-5268 -44,8 -89,16 -133,24z"/>
   <path class="fil0" d="M152100 116691c1040,-1289 1921,-2669 2644,-4139 75,-153 91,-333 135,-500l-71 -13c-903,1550 -1806,3101 -2709,4652z"/>
   <path class="fil0" d="M114892 149142c1992,-1069 3872,-2296 5669,-3641 -22,-30 -43,-61 -65,-91 -1868,1244 -3736,2488 -5604,3731z"/>
   <path class="fil0" d="M111324 116800c706,1633 1592,3176 2633,4641 -819,-1573 -1639,-3146 -2458,-4719 -58,26 -117,52 -175,78z"/>
   <path class="fil0" d="M133356 142495c-217,-1962 -1258,-3613 -2161,-5317 771,1753 1628,3474 2161,5317z"/>
   <path class="fil0" d="M163856 135625c1555,185 4354,-93 4794,-492 -1627,167 -3199,328 -4794,492z"/>
   <path class="fil0" d="M136460 121568c647,-681 917,-2789 680,-5025 -213,1687 -61,3402 -680,5025z"/>
   <path class="fil0" d="M122878 141736c549,-83 1065,-162 1581,-240 518,-78 1033,-180 1554,-227 802,-72 1610,-142 2391,142 87,-176 -28,-250 -173,-272 -344,-53 -691,-117 -1037,-124 -61,-1 -123,-2 -184,-2 -1409,0 -2764,316 -4132,722zm5526 -324l18 6c-6,-2 -12,-4 -18,-6 0,0 0,0 0,0z"/>
   <path class="fil0" d="M152713 114673c571,-492 1680,-2381 1706,-2951 -606,963 -1174,1947 -1706,2951z"/>
   <path class="fil0" d="M116964 122322c-555,-1130 -1043,-2281 -1672,-3365 3,527 1013,2540 1672,3365z"/>
   <path class="fil0" d="M120971 118568c670,1122 1344,2243 2037,3400 -258,-915 -1531,-3098 -2025,-3492 -5,32 -25,71 -13,93z"/>
   <path class="fil0" d="M132620 111668c31,-949 -71,-1884 -281,-2882 -187,361 -13,1986 281,2882z"/>
   <path class="fil0" d="M135243 110060c122,713 245,1426 368,2139 96,-744 14,-1463 -243,-2158 -41,6 -83,13 -124,19z"/>
   <path class="fil0" d="M155610 211237l2 0c32,0 64,0 96,0 23,-43 62,-85 66,-130 11,-110 3,-222 7,-333 82,-2067 293,-4123 1144,-6043 533,-1203 1162,-2378 1861,-3499 1804,-2891 4465,-4769 7763,-5810 1332,-420 2702,-731 4055,-1089 2311,-609 4619,-1229 6935,-1819 1548,-394 3046,-914 4493,-1570 844,-383 1682,-776 2519,-1174 113,-54 197,-167 294,-252 -139,-60 -251,-76 -354,-76 -52,0 -102,4 -152,9 -1160,118 -2317,293 -3480,342 -2272,95 -4546,128 -6820,170 -2464,45 -4890,280 -7233,1091 -2528,875 -4621,2350 -6262,4360 -1697,2080 -2995,4377 -3611,7006 -463,1976 -880,3957 -1218,5955 -115,681 -133,1380 -170,2071 -14,261 41,526 65,790zm27649 -21287c-138,80 -267,187 -417,234 -1109,347 -2201,732 -3376,870 -1678,196 -3344,478 -5017,709 -1192,165 -2389,298 -3581,462 -2284,316 -4514,828 -6570,1876 -2818,1438 -4874,3577 -6193,6373 -232,492 -446,992 -668,1488 -26,4 -53,7 -80,11 25,-158 25,-324 79,-473 1357,-3776 3495,-6993 7107,-9137 998,-593 2070,-1020 3201,-1338 2381,-670 4818,-825 7278,-819 148,0 295,1 443,1 2591,0 5182,-61 7794,-258zm-25315 11496c1333,-3236 3550,-5717 6798,-7284 726,-350 1504,-617 2283,-845 1887,-553 3824,-863 5782,-1089 1949,-225 3890,-518 5831,-798 806,-116 1606,-276 2409,-416 8,33 17,67 25,101 -844,278 -1688,557 -2531,836 -3657,1210 -7443,1969 -11166,2949 -2277,600 -4368,1574 -6163,3088 -1157,976 -2056,2156 -2878,3393 -280,421 -490,885 -826,1292 144,-409 270,-826 435,-1228z"/>
   <path class="fil0" d="M147716 183921c429,1966 859,3932 1291,5897 150,680 293,1361 466,2036 663,2590 1313,5183 2018,7763 337,1233 761,2446 1189,3653 628,1775 1320,3529 1939,5307 607,1744 1170,3502 1722,5263 259,826 447,1672 667,2509 113,-28 227,-55 341,-83 -68,-195 -143,-388 -202,-585 -349,-1154 -675,-2315 -1045,-3463 -428,-1326 -887,-2643 -1345,-3959 -495,-1423 -1011,-2839 -1507,-4261 -471,-1352 -991,-2691 -1377,-4065 -737,-2629 -1436,-5269 -2073,-7922 -637,-2652 -1178,-5325 -1763,-7989 -34,-156 -80,-310 -120,-464 -301,57 -231,222 -200,363z"/>
   <path class="fil0" d="M140291 155236c-73,-279 -114,-491 -184,-693 -117,-337 -253,-667 -382,-1000 -720,-1863 -1327,-3760 -1824,-5690 -169,-656 -341,-1310 -519,-1963 -35,-130 -104,-251 -157,-376 -11,1215 2228,9182 3067,9722z"/>
   <path class="fil0" d="M103701 41309c-171,530 -292,1104 -283,1656 22,1423 99,2847 208,4267 120,1570 330,3133 447,4704 158,2130 268,4264 391,6397 46,793 73,1587 109,2380 -169,-174 -281,-350 -362,-538 -771,-1778 -1942,-3291 -3343,-4642 -824,-794 -1668,-1574 -2548,-2311 -1709,-1432 -3376,-2898 -4759,-4642 -231,-292 -554,-526 -864,-749 -240,-172 -540,-248 -819,-67 -325,212 -209,533 -171,825 9,72 53,141 90,207 293,527 534,1092 896,1572 662,881 1383,1721 2101,2561 2239,2620 4567,5177 6028,8321 246,529 571,1024 824,1550 802,1665 1608,3329 2373,5010 640,1407 1242,2829 1676,4314 385,1319 904,2593 1574,3807 667,1207 1331,2417 1956,3644 548,1076 1133,2152 1011,3421 -11,120 94,250 161,415 129,-91 194,-128 249,-177 506,-452 1092,-680 1794,-700 1062,-31 2095,140 3124,344 1494,296 2972,266 4456,-66 2234,-499 4278,-1479 6375,-2323 1470,-592 2920,-1230 4396,-1808 1315,-515 2641,-1006 3983,-1453 1582,-527 3169,-1051 4783,-1474 2730,-716 5539,-1033 8337,-1400 749,-98 1491,-289 2218,-498 699,-202 876,-765 516,-1385 -281,-485 -727,-788 -1224,-1009 -761,-338 -1529,-668 -2317,-940 -2216,-765 -3582,-2377 -4689,-4264 863,-1864 1391,-3796 1502,-5827 90,-1655 -96,-3250 -936,-4744 -715,-1272 -1679,-2228 -3118,-2735 -730,-257 -1414,-632 -2120,-953 -582,-265 -1154,-553 -1748,-787 -1798,-708 -3618,-831 -5457,-135 -68,26 -150,19 -263,31 -617,-1310 -1527,-2431 -2439,-3551 -781,-960 -1578,-1909 -2345,-2880 -389,-492 -714,-1029 -1086,-1533 -674,-914 -1608,-1323 -2764,-1305 -965,15 -1887,189 -2781,555 -1254,513 -2384,1194 -3293,2174 -850,917 -1310,2035 -1626,3213 -46,171 -92,341 -143,529 -965,-926 -1850,-1825 -2790,-2669 -1331,-1195 -2571,-2458 -3583,-3924 -268,-388 -587,-754 -936,-1076 -389,-360 -833,-531 -1254,-531 -661,0 -1266,422 -1516,1198zm6992 38345c-556,-398 -1069,-882 -1496,-1407 -1344,-1652 -2362,-3469 -2950,-5511 -245,-850 -569,-1674 -661,-2561 -146,-1416 -368,-2827 -452,-4246 -258,-4339 -440,-8683 -707,-13022 -124,-2019 -404,-4029 -566,-6046 -107,-1326 -166,-2657 -172,-3986 -2,-531 154,-1076 315,-1593 153,-494 513,-871 1085,-895 580,-24 1077,170 1308,750 202,506 469,998 593,1521 455,1913 1363,3599 2735,5025 1509,1569 3060,3104 4660,4586 1370,1269 2468,2707 3227,4371 367,804 589,1669 757,2157 696,2761 731,5187 432,7629 -411,3346 -1254,6572 -2828,9600 -625,1202 -1413,2284 -2340,3289 -494,536 -1080,762 -1643,761 -470,0 -924,-157 -1296,-423zm6500 -24358c-730,-1255 -1652,-2356 -2754,-3328 -1666,-1472 -3254,-3019 -4722,-4680 -1369,-1549 -2207,-3339 -2670,-5308 -12,-53 -6,-110 -14,-283 165,203 254,300 328,407 991,1432 2216,2662 3543,3802 2280,1959 4114,4248 5447,6897 515,1024 935,2093 1399,3142 -36,17 -72,35 -109,52 -150,-233 -309,-462 -449,-701zm-3154 -6582c211,-1385 683,-2672 1578,-3776 794,-979 1865,-1637 3020,-2157 980,-441 2013,-678 3107,-661 1011,16 1858,377 2396,1185 1412,2124 3202,3969 4711,6020 810,1101 1403,2292 1713,3608 204,864 271,1744 207,2627 -132,1814 -530,3561 -1431,5183 -282,508 -648,806 -1252,979 -2663,760 -5198,1806 -7467,3383 -501,348 -964,748 -1515,1180 589,-6499 -1042,-12357 -5069,-17570zm-9847 18856c-1183,-2564 -2395,-5111 -3767,-7594 -1275,-2307 -2950,-4307 -4640,-6313 -859,-1019 -1753,-2012 -2585,-3051 -413,-515 -747,-1095 -1069,-1670 -157,-281 -325,-607 -117,-965 436,-118 698,129 942,404 635,717 1185,1495 1549,2367 849,2033 2269,3574 4100,4856 1506,1055 3041,2091 4336,3407 1106,1124 1691,2435 1764,3989 102,2167 258,4332 396,6581 -322,-713 -610,-1364 -909,-2011zm-4851 -11726c-460,-343 -897,-713 -1362,-1050 -1388,-1006 -2381,-2300 -3067,-3826 -76,-168 -153,-336 -278,-611 177,119 266,166 339,230 1060,940 2145,1855 3170,2830 1464,1392 3128,2599 4290,4272 173,249 348,497 519,747 30,43 42,96 50,117 -1226,-906 -2446,-1803 -3661,-2707zm31084 -4360c484,-389 1056,-448 1606,-524 1489,-207 2906,68 4257,678 1411,638 2821,1278 4224,1931 774,361 1321,944 1796,1637 626,913 1015,1896 1210,2959 181,986 134,1980 33,2969 -156,1523 -573,2986 -1150,4408 -49,120 -119,231 -211,407 -138,-163 -258,-278 -347,-412 -2150,-3253 -5385,-4450 -9212,-4472 -849,-5 -1700,156 -2549,239 -226,22 -453,38 -740,62 1702,-3189 2286,-6423 1082,-9883zm18807 20442c-560,-59 -1119,-156 -1681,-178 -3123,-122 -5695,-1416 -7903,-3459 -729,-675 -1376,-1432 -2073,-2139 -872,-884 -1733,-1780 -2643,-2627 -1036,-965 -2207,-1731 -3669,-1981 -53,-9 -101,-47 -152,-71 3037,-344 5877,70 8367,1888 786,574 1403,1298 1959,2073 587,818 1165,1641 1741,2466 886,1270 2070,2180 3539,2752 615,239 1232,470 1842,720 355,145 697,320 1027,573 -118,-6 -237,-5 -355,-18zm-35082 10134c-565,-239 -997,-651 -1198,-1243 -94,-278 -39,-504 198,-707 1837,-1580 2982,-3599 3889,-5759 904,-2151 1516,-4385 1835,-6684 89,-643 343,-1159 844,-1545 698,-537 1406,-1074 2160,-1533 1269,-772 2624,-1393 4030,-1900 637,-230 1302,-387 2083,-615 599,-102 1321,-280 2053,-335 1163,-88 2229,254 3209,857 1145,705 2083,1637 3011,2575 779,789 1515,1617 2272,2425 1225,1309 2620,2407 4246,3231 1315,666 2714,1019 4188,1140 930,76 1857,178 2783,286 342,40 633,175 734,547 100,365 38,582 -324,740 -352,154 -721,306 -1098,368 -1208,197 -2425,346 -3637,525 -1192,176 -2392,320 -3570,560 -1372,279 -2737,608 -4083,989 -1287,363 -2556,795 -3815,1244 -1513,539 -3014,1109 -4506,1700 -1473,585 -2929,1209 -4389,1823 -1857,780 -3721,1535 -5724,1908 -548,102 -1089,152 -1624,152 -1222,0 -2411,-260 -3567,-748z"/>
   <path class="fil0" d="M125289 74637c-1434,1031 -2859,2076 -4322,3069 -2360,1601 -4876,2873 -7805,3201 -145,16 -285,81 -427,124 6,33 12,66 18,99 53,9 107,30 159,25 1544,-140 3017,-542 4436,-1134 1598,-666 3043,-1582 4439,-2571 1474,-1043 2941,-2095 4384,-3178 829,-622 1603,-1311 2402,-1969 -1118,754 -2194,1552 -3283,2334z"/>
   <path class="fil0" d="M114372 55195c20,970 7,1942 67,2910 159,2588 127,5171 -362,7723 -508,2654 -1118,5290 -1682,7934 -38,178 -66,357 -98,536 111,-93 156,-195 181,-302 585,-2544 1227,-5078 1730,-7637 292,-1485 441,-3008 504,-4519 63,-1528 -52,-3062 -104,-4593 -23,-689 -79,-1376 -120,-2064 -39,4 -77,9 -115,13z"/>
   <path class="fil0" d="M125728 78944l-2 0c-71,0 -128,25 -183,54 -2329,1258 -4757,2280 -7354,2910 -939,228 -1879,430 -2868,318 758,-241 1542,-390 2296,-626 767,-239 1505,-563 2255,-850 -10,-26 -20,-51 -30,-77 -607,193 -1213,392 -1822,578 -630,193 -1257,398 -1896,553 -602,145 -1220,231 -1831,343 4,34 8,69 12,104 157,9 314,19 476,28 -46,81 -86,152 -163,287 618,-16 1159,-7 1694,-52 483,-40 970,-102 1439,-216 1832,-444 3608,-1049 5296,-1870 946,-460 1863,-975 2793,-1465 -41,-13 -78,-19 -111,-19z"/>
   <path class="fil0" d="M106946 61850c-123,1622 -318,3243 -349,4867 -59,3016 248,5998 1418,8831 354,856 868,1651 1309,2474 79,-97 78,-158 49,-202 -1233,-1913 -1868,-4019 -2224,-6228 -287,-1783 -391,-3573 -338,-5370 46,-1548 151,-3094 230,-4640 -14,-1 -28,-1 -41,-2 -18,91 -45,180 -52,271z"/>
   <path class="fil0" d="M129141 50541c-44,1781 -412,3508 -1095,5155 -809,1950 -1701,3868 -2785,5695 -85,144 -168,289 -252,434 29,14 59,28 88,43 117,-172 232,-345 352,-515 1081,-1530 1781,-3246 2573,-4916 801,-1689 1213,-3480 1357,-5329 35,-455 14,-900 -189,-1328 -52,256 -43,508 -50,760z"/>
   <path class="fil0" d="M116804 68635c-415,1794 -810,3593 -1248,5383 -506,2067 -1302,4014 -2685,5701 -69,84 -111,189 -166,284 36,27 71,54 107,81 129,-131 272,-253 386,-396 803,-1002 1464,-2079 1898,-3283 706,-1957 1131,-3980 1543,-6007 152,-748 255,-1505 381,-2258 -135,153 -174,324 -213,495z"/>
   <path class="fil0" d="M147637 71960c-1176,112 -2369,167 -3520,406 -2850,591 -5664,1322 -8369,2393 342,-70 683,-142 1018,-237 1530,-433 3050,-901 4589,-1302 1031,-269 2089,-442 3134,-663 1084,-230 2180,-344 3289,-361 245,-4 490,-21 735,-32 2,-42 5,-84 7,-127 -250,-24 -504,-82 -752,-82 -44,0 -87,2 -131,6z"/>
   <path class="fil0" d="M132226 61260c23,52 46,103 70,155 413,-129 826,-257 1245,-387 253,223 514,226 803,85 294,-143 613,-241 902,-393 775,-404 1563,-793 2315,-1431 -1300,601 -2374,1418 -3708,1685 855,-544 1741,-1033 2592,-1572 874,-553 1715,-1156 2570,-1737 -31,-37 -61,-74 -92,-111 -2119,1421 -4210,2888 -6696,3706z"/>
   <path class="fil0" d="M107820 68413c-74,1539 4,3076 379,4570 306,1217 736,2407 1157,3594 405,1142 1033,2174 1820,3114 83,100 191,181 287,271 -2537,-3503 -3491,-7436 -3563,-11597 -33,-34 -43,-45 -54,-57 -9,35 -23,70 -25,106z"/>
   <path class="fil0" d="M119696 52889c-523,2412 -460,4870 -493,7318 -3,207 22,415 35,622 103,-1384 125,-2767 214,-4146 105,-1618 200,-3236 762,-4796 387,-1075 670,-2184 999,-3279 -697,1370 -1196,2803 -1517,4281z"/>
   <path class="fil0" d="M125484 63973c-1907,989 -3713,2128 -5292,3563 -648,590 -1206,1274 -1795,1922 -73,81 -89,210 -132,317 33,23 65,45 98,68 1951,-2580 4678,-4246 7386,-5952 -89,27 -185,41 -266,82z"/>
   <path class="fil0" d="M140526 69600c-646,199 -1322,344 -1926,629 -1651,780 -3272,1617 -4900,2442 -325,164 -630,367 -939,559 -303,188 -601,385 -900,578 2969,-1498 5822,-3206 9064,-4134 -8,-37 -17,-74 -25,-110 -125,11 -257,1 -374,37z"/>
   <path class="fil0" d="M105607 55809c-123,1247 -291,2490 -418,3737 -123,1204 -218,2410 -325,3616 49,4 98,7 146,11 250,-3669 1006,-7295 903,-11038 -101,1225 -186,2452 -306,3675z"/>
   <path class="fil0" d="M120953 55956c-439,3147 -994,6274 -1719,9373 1013,-3105 1509,-6301 1839,-9532 -61,45 -111,100 -119,159z"/>
   <path class="fil0" d="M101927 62241c672,1594 1307,3202 1959,4803 -1131,-3229 -2172,-6517 -4220,-9381 887,1463 1600,3010 2261,4578z"/>
   <path class="fil0" d="M116655 48319c161,-394 302,-762 460,-1122 168,-380 340,-758 533,-1126 183,-348 393,-683 599,-1019 218,-354 439,-707 672,-1052 222,-330 469,-645 691,-976 220,-328 607,-546 743,-998 -1197,552 -3812,5026 -3698,6293z"/>
   <path class="fil0" d="M125142 59591c-943,1699 -1854,3422 -3341,4769 -23,21 2,92 8,189 662,-325 1086,-856 1451,-1376 1131,-1612 2126,-3302 2654,-5201 -256,541 -482,1096 -772,1619z"/>
   <path class="fil0" d="M111270 56499c21,-80 58,-160 60,-241 70,-2204 70,-4407 -129,-6606 -44,-483 -187,-819 -420,-1060 457,2647 304,5283 489,7907z"/>
   <path class="fil0" d="M105378 47790c-20,-626 -48,-1237 -58,-1848 -11,-636 -13,-1272 -4,-1908 10,-617 50,-1234 58,-1852 8,-609 228,-1209 153,-1943 -558,974 -619,6180 -150,7550z"/>
   <path class="fil0" d="M116772 74801c1597,-2055 3556,-3780 5408,-5600 -2066,1633 -4015,3372 -5408,5600z"/>
   <path class="fil0" d="M110750 70606c148,-3011 308,-6279 468,-9547 -357,3266 -668,6533 -468,9547z"/>
   <path class="fil0" d="M103523 64867c383,1275 761,2551 1142,3826 -695,-2585 -1090,-5255 -2310,-7689 390,1287 781,2574 1168,3863z"/>
   <path class="fil0" d="M114249 78692c31,23 63,46 94,69 113,-110 252,-206 335,-334 206,-319 410,-642 571,-983 691,-1457 1200,-2974 1578,-4533 36,-148 56,-300 83,-451 -754,2138 -1395,4304 -2660,6233z"/>
   <path class="fil0" d="M129082 66715c1723,-1244 3529,-2363 5392,-3398 -2039,778 -3805,1957 -5392,3398z"/>
   <path class="fil0" d="M124290 50065c641,-1201 1302,-4698 1022,-5269 -336,1732 -674,3478 -1022,5269z"/>
   <path class="fil0" d="M140173 72857c1667,-360 3487,-752 5306,-1144 -74,-10 -161,-15 -260,-15 -1166,0 -3918,663 -5046,1159z"/>
   <path class="fil0" d="M121420 46042c-1024,1758 -1421,3737 -2179,5588 48,15 96,29 144,44 354,-1001 684,-2011 1067,-3001 382,-987 817,-1954 1229,-2929 -43,-23 -86,-46 -130,-69 -43,123 -68,256 -132,367z"/>
   <path class="fil0" d="M128978 69283c-2051,1274 -4158,2467 -6085,3920 -156,118 -285,269 -426,406 79,-35 165,-62 230,-114 1590,-1264 3369,-2262 5075,-3363 441,-285 894,-551 1421,-874 -142,15 -187,6 -215,24zm-6538 4339l9 6c6,-6 13,-12 19,-19 -9,4 -19,8 -28,13z"/>
   <path class="fil0" d="M118116 46354c937,-1348 1874,-2695 2809,-4043 20,-29 29,-67 36,-102 4,-16 -6,-37 -17,-52 -9,-14 -27,-23 -107,-87 -1154,1285 -1867,2829 -2721,4285z"/>
   <path class="fil0" d="M104054 62901c-122,-1396 -1020,-3978 -1529,-4472 527,1542 1028,3007 1529,4472z"/>
   <path class="fil0" d="M132276 54677c321,-452 598,-855 891,-1247 295,-396 597,-788 915,-1167 308,-366 640,-713 962,-1069 -761,152 -2473,2366 -2768,3483z"/>
   <path class="fil0" d="M114294 68572c446,-1989 825,-3985 842,-6017 -281,2006 -561,4011 -842,6017z"/>
   <path class="fil0" d="M140761 62167c1169,-316 2872,-1530 3025,-2113 -984,687 -1993,1393 -3025,2113z"/>
   <path class="fil0" d="M136144 55245c1027,-762 2054,-1524 3081,-2285 -35,-42 -69,-84 -104,-126 -1092,683 -2102,1466 -2977,2411z"/>
   <path class="fil0" d="M108708 49625c80,-1260 102,-2512 -344,-3718 115,1239 229,2478 344,3718z"/>
   <path class="fil0" d="M117375 72871c34,28 68,57 102,85 821,-930 1641,-1859 2462,-2789 -991,787 -1867,1672 -2564,2704z"/>
   <path class="fil0" d="M106009 44070c78,-1128 156,-2256 234,-3383 -50,-3 -101,-6 -151,-9 -247,1106 -190,2231 -83,3392z"/>
   <path class="fil0" d="M139763 63166c94,33 173,93 227,76 274,-86 559,-162 808,-296 565,-305 1147,-593 1637,-1112 -908,453 -1757,876 -2672,1331z"/>
   <path class="fil0" d="M131128 73447c1203,-764 2406,-1527 3609,-2291 -1299,621 -2480,1418 -3609,2291z"/>
   <path class="fil0" d="M132146 65320c26,31 53,63 79,94 447,-254 895,-504 1340,-761 420,-243 898,-407 1253,-739 -32,-46 -63,-93 -95,-139 -859,515 -1718,1031 -2577,1546z"/>
   <path class="fil0" d="M111810 50060c94,794 189,1588 283,2382 105,-813 72,-1613 -167,-2393 -38,4 -77,7 -115,11z"/>
   <path class="fil0" d="M134078 52819l1597 -1524c-44,-41 -88,-82 -131,-124 -578,465 -1094,990 -1465,1648z"/>
   <path class="fil0" d="M125479 47717c37,6 74,11 111,17 170,-698 357,-1394 348,-2120 -48,-7 -96,-15 -144,-22 -105,709 -210,1417 -315,2126z"/>
   <path class="fil0" d="M140516 63857c24,50 47,100 70,149 350,-149 700,-298 1050,-448 -19,-52 -38,-105 -56,-157 -355,152 -709,304 -1064,456z"/>
   <path class="fil0" d="M122365 73689c28,-20 56,-41 84,-61l-9 -6c-25,22 -50,45 -75,67zm-1260 923c33,39 66,77 99,115 387,-346 774,-692 1161,-1038 -420,308 -840,616 -1260,923z"/>
   <path class="fil0" d="M129711 68856c16,25 32,50 48,75 324,-200 648,-401 971,-602 -13,-20 -27,-40 -41,-60 -326,196 -652,391 -978,586z"/>
   <path class="fil0" d="M121456 95994c-1858,526 -3535,1359 -4958,2650 -1139,1033 -2183,2147 -3144,3333 -1007,1242 -1913,2548 -2811,3868 -1065,1564 -2350,2990 -3568,4454 -1072,1289 -2182,2549 -3276,3822 -94,109 -191,217 -287,325 49,36 98,72 148,107 154,-154 319,-299 460,-464 1380,-1607 2806,-3181 4419,-4570 2731,-2350 5733,-4363 8835,-6225 2371,-1423 4932,-2479 7601,-3264 1434,-422 2900,-747 4361,-1081 1561,-357 3149,-493 4752,-381 1335,93 2649,280 3957,600 1773,434 3588,705 5375,1086 2624,559 5240,1156 7861,1731 166,37 344,20 585,31 -82,-148 -96,-212 -137,-241 -1242,-878 -2468,-1780 -3956,-2261 -1898,-614 -3776,-1292 -5694,-1840 -1434,-409 -2905,-738 -4383,-959 -3001,-450 -6018,-800 -9027,-1196 -825,-109 -1645,-165 -2462,-165 -1565,0 -3116,206 -4650,640zm19766 2245c-321,-43 -635,-154 -957,-174 -1067,-67 -2135,-135 -3204,-152 -1507,-23 -2997,-181 -4446,-563 -1875,-494 -3730,-1060 -5594,-1594 11,-44 21,-87 32,-131 306,22 613,30 917,69 3300,428 6604,833 9897,1306 1210,174 2400,488 3588,783 515,128 1000,368 1481,647 -571,-63 -1144,-117 -1713,-192zm-32222 10089c85,-118 172,-236 256,-354 670,-941 1350,-1876 2008,-2825 1639,-2367 3446,-4599 5631,-6526 1568,-1381 3462,-2113 5494,-2608 1777,-432 3511,-301 5238,183 1028,289 2044,621 3063,937 125,39 243,97 356,232 -300,22 -599,50 -899,64 -1916,87 -3800,388 -5613,979 -3510,1143 -6713,2856 -9654,5025 -510,376 -1038,734 -1513,1148 -1296,1127 -2570,2279 -3852,3422 -141,126 -281,255 -421,382l-95 -59zm2226 -1567c394,-335 809,-649 1191,-996 1516,-1378 3164,-2591 4909,-3685 1962,-1231 4035,-2245 6224,-3050 2521,-928 5127,-1394 7819,-1403 694,-2 1399,76 2082,200 1210,220 2426,330 3654,363 1217,33 2414,99 3615,406 2449,627 4904,1222 7273,2098 218,81 433,170 647,259 32,14 55,50 82,75 -15,27 -31,55 -46,82 -969,-199 -1937,-397 -2906,-596 -2363,-485 -4739,-917 -7083,-1476 -1459,-348 -2922,-596 -4413,-715 -1422,-113 -2829,-3 -4241,211 -2167,330 -4259,931 -6330,1589 -3027,962 -5833,2387 -8492,4067 -1280,809 -2485,1727 -3724,2595 -154,108 -311,211 -521,261 86,-95 162,-202 260,-285zm31235 -8009c1950,-145 7021,1527 7926,2629 -2565,-1094 -5217,-1943 -7926,-2629z"/>
   <path class="fil0" d="M81190 68643c1113,1631 2016,3372 2936,5106 1133,2135 2312,4247 3712,6236 1729,2457 3924,4510 6105,6574 496,469 1085,846 1585,1311 1389,1289 2803,2559 4120,3915 2895,2979 5165,6337 6403,10283 368,1174 608,2367 456,3605 -22,178 -20,359 -30,538 43,9 85,18 128,26 104,-306 256,-605 304,-919 230,-1508 31,-3003 -320,-4465 -394,-1646 -911,-3264 -1372,-4894 -417,-1470 -1030,-2869 -1679,-4254 -1303,-2781 -3025,-5330 -4830,-7818 -1942,-2677 -4134,-5150 -6686,-7331 -2466,-2108 -4925,-4215 -7602,-6075 -1227,-852 -2443,-1720 -3635,-2561 115,209 238,480 404,724zm23789 28365c-890,-2286 -1990,-4474 -3318,-6557 -1153,-1810 -2461,-3509 -3809,-5188 -1196,-1490 -2514,-2869 -3888,-4198 -1468,-1420 -3002,-2774 -4491,-4173 -2359,-2216 -4583,-4553 -6708,-6979 -61,-69 -115,-144 -172,-217 25,-33 51,-65 76,-98 1050,745 2111,1476 3147,2239 2201,1621 4240,3425 6305,5203 2456,2115 4559,4515 6430,7102 1735,2399 3411,4846 4663,7523 598,1279 1117,2598 1585,3927 470,1332 832,2699 1241,4052 26,85 46,172 -4,280 -351,-972 -682,-1952 -1057,-2916zm-402 916c-1209,-2293 -2798,-4337 -4616,-6202 -1480,-1518 -3012,-2999 -4626,-4383 -2185,-1873 -4276,-3823 -6109,-6019 -1704,-2040 -3017,-4319 -4285,-6625 -873,-1589 -1756,-3172 -2633,-4758 -34,-61 -56,-129 -83,-194 22,-15 44,-30 66,-45 177,186 366,362 529,558 3148,3795 6775,7153 10398,10508 1265,1171 2491,2367 3608,3661 2519,2920 4799,6005 6494,9448 665,1351 1188,2769 1753,4165 219,541 374,1105 552,1661 38,120 48,249 11,391 -351,-723 -682,-1456 -1057,-2167z"/>
   <path class="fil0" d="M110585 81279c-293,2780 -639,5556 -860,8341 -344,4329 -983,8608 -2155,12801 -522,1868 -1109,3722 -1755,5553 -833,2362 -1743,4698 -2861,6956 -613,1237 -1134,2517 -1674,3786 -1086,2556 -2237,5091 -3215,7685 -1362,3615 -2101,7389 -2720,11178 -560,3427 -1002,6861 -986,10352 18,3853 184,7683 768,11499 342,2233 762,4450 1322,6638 809,3158 1808,6267 3141,9256 1536,3444 3170,6849 4781,10262 685,1452 1442,2872 2123,4324 1276,2721 2424,5493 3409,8324 724,2083 1457,4167 2086,6278 1228,4124 1974,8352 2798,12563 426,2178 896,4349 1366,6519 183,846 418,1681 630,2522 76,-19 151,-37 227,-55 -60,-198 -131,-394 -179,-595 -330,-1393 -681,-2781 -976,-4181 -453,-2154 -867,-4316 -1297,-6475 -341,-1716 -638,-3441 -1030,-5146 -939,-4096 -2081,-8138 -3611,-12070 -731,-1880 -1416,-3781 -2244,-5622 -1315,-2924 -2728,-5806 -4106,-8703 -576,-1211 -1164,-2415 -1749,-3622 -1593,-3285 -3001,-6637 -4104,-10110 -1070,-3369 -1866,-6794 -2365,-10279 -282,-1968 -472,-3951 -610,-5933 -131,-1868 -203,-3744 -186,-5615 22,-2498 296,-4983 635,-7460 956,-6986 2631,-13778 5773,-20186 939,-1916 1786,-3874 2664,-5817 281,-620 525,-1255 791,-1881 1444,-3407 2643,-6894 3591,-10459 766,-2878 1336,-5794 1655,-8749 281,-2612 502,-5230 752,-7844 130,-1361 266,-2721 392,-4082 8,-86 -43,-177 -66,-266 -109,110 -147,211 -158,316z"/>
   <path class="fil0" d="M15155 116848c89,142 150,313 272,421 893,796 1791,1587 2699,2366 1558,1336 3231,2520 5016,3565 2670,1563 5319,3161 7975,4748 1556,929 3149,1806 4653,2807 3724,2478 6332,5776 7479,10033 444,1652 780,3344 985,5039 326,2704 -198,5350 -889,7964 -37,141 -90,278 -119,420 -12,57 20,123 33,185 41,12 81,24 122,36 131,-321 302,-632 385,-965 219,-878 465,-1757 582,-2651 344,-2618 582,-5245 761,-7881 238,-3507 -504,-6842 -1828,-10048 -1280,-3099 -3332,-5690 -6157,-7685 -2619,-1850 -5562,-3009 -8626,-3944 -2828,-863 -5659,-1716 -8463,-2644 -1436,-476 -2815,-1108 -4221,-1669 -141,-56 -285,-108 -487,-108 -53,0 -110,4 -171,11zm29499 25335c-87,-700 -163,-1401 -264,-2099 -577,-3967 -2327,-7375 -5299,-10178 -2169,-2045 -4761,-3480 -7496,-4689 -1428,-631 -2873,-1224 -4301,-1855 -2004,-886 -3980,-1832 -6002,-2676 -1417,-591 -2635,-1462 -3888,-2292 -169,-112 -289,-293 -431,-441 3373,1246 6774,2292 10202,3260 3078,869 6065,1931 8786,3618 1291,801 2468,1717 3489,2814 3694,3970 5134,8754 5382,13960 10,205 -54,413 -83,619 -32,-14 -64,-28 -96,-42zm-899 -1048c-552,-1840 -1224,-3635 -2297,-5269 -1664,-2533 -3906,-4498 -6522,-6060 -4280,-2553 -8722,-4852 -12832,-7669 -948,-650 -1896,-1299 -2844,-1948 23,-39 47,-78 70,-117 950,461 1889,946 2852,1379 2321,1043 4635,2101 6987,3077 2361,981 4665,2059 6812,3423 886,563 1757,1173 2531,1870 3460,3118 5281,7011 5707,11533 53,561 50,1126 73,1690 -263,-628 -349,-1283 -537,-1910z"/>
   <path class="fil0" d="M73235 26220c-859,360 -1736,700 -2546,1147 -2376,1311 -4696,2707 -6987,4156 -3049,1927 -5366,4506 -7226,7454 -1798,2850 -2709,5989 -2663,9365 43,3129 854,6093 1923,9015 987,2696 1984,5390 2902,8108 470,1391 776,2834 1157,4254 48,180 105,357 316,565 64,-154 169,-304 185,-463 123,-1166 237,-2333 336,-3502 170,-2004 144,-4004 -65,-6007 -311,-2997 -581,-5998 -865,-8997 -166,-1757 -398,-3511 -474,-5272 -188,-4359 975,-8351 3813,-11796 1101,-1336 2302,-2613 3582,-3791 2043,-1878 4551,-3067 7133,-4107 139,-56 284,-98 419,-161 55,-26 90,-90 134,-137 -15,-39 -29,-77 -44,-115 -344,93 -706,148 -1031,284zm-13538 35882c-533,-2414 -1048,-4833 -1654,-7231 -608,-2409 -1101,-4831 -1263,-7305 -67,-1021 -85,-2059 27,-3074 501,-4541 2631,-8285 6122,-11333 433,-378 903,-717 1356,-1073 -362,581 -854,1041 -1260,1563 -1192,1532 -2275,3129 -2983,4939 -1097,2805 -1377,5714 -1096,8668 460,4831 1229,9636 1367,14495 32,1121 65,2242 98,3363 -46,6 -93,11 -139,16 -189,-1009 -352,-2023 -574,-3026zm-3203 -3701c-1132,-2893 -2050,-5833 -2289,-8943 -113,-1476 -62,-2934 233,-4380 1066,-5233 4163,-9220 8328,-12544 164,-131 374,-207 563,-309 8,33 15,66 23,99 -527,488 -1063,969 -1580,1466 -2940,2831 -4710,6230 -5244,10204 -389,2900 -19,5759 625,8593 336,1479 715,2949 1051,4428 472,2076 877,4167 1394,6231 363,1446 374,2908 441,4372 9,197 -69,398 -106,598 -997,-3346 -2177,-6594 -3438,-9817z"/>
   <path class="fil0" d="M175161 22190c-1081,535 -2159,1078 -3230,1634 -1836,954 -3563,2063 -5193,3322 -2438,1883 -4902,3735 -7358,5597 -1438,1091 -2839,2233 -4330,3253 -3691,2524 -7797,3757 -12339,3337 -1762,-163 -3527,-439 -5248,-834 -2746,-630 -5146,-2011 -7457,-3532 -124,-82 -240,-177 -369,-252 -52,-30 -128,-24 -192,-34 -25,33 -51,65 -76,98 268,228 513,490 808,679 781,499 1554,1023 2384,1435 2434,1208 4912,2324 7420,3389 3337,1417 6841,1887 10419,1786 3459,-98 6687,-1069 9599,-2944 2699,-1738 4838,-4007 6798,-6462 1809,-2266 3611,-4538 5476,-6760 955,-1137 2044,-2170 3072,-3252 130,-137 254,-280 320,-563 -169,32 -356,30 -504,102zm-20420 17105c2735,-1263 5022,-3120 7137,-5183 1104,-1077 2177,-2183 3281,-3260 1550,-1511 3149,-2977 4663,-4520 1061,-1081 2327,-1885 3565,-2736 167,-115 384,-161 578,-240 -2369,2628 -4553,5350 -6671,8124 -1902,2491 -3959,4833 -6536,6719 -1223,895 -2519,1648 -3937,2196 -5134,1986 -10289,1652 -15448,93 -203,-61 -384,-190 -575,-287 25,-24 49,-48 74,-72 712,160 1421,332 2136,480 1344,277 2673,416 3985,416 2654,0 5240,-571 7749,-1730zm-6620 103c3039,-639 5722,-1997 8139,-3832 3954,-3002 7716,-6239 11869,-8996 958,-636 1915,-1273 2872,-1909 30,35 60,69 90,104 -775,702 -1569,1386 -2320,2111 -1811,1745 -3635,3478 -5392,5274 -1765,1803 -3605,3520 -5669,4998 -852,610 -1746,1190 -2690,1652 -4224,2067 -8641,2382 -13194,1219 -565,-144 -1115,-341 -1672,-513 703,-23 1370,124 2046,168 726,48 1451,79 2175,79 1254,0 2504,-93 3746,-355z"/>
  </g>
 </g>
</svg>
