<?xml version="1.0" encoding="UTF-8"?>
<!DOCTYPE svg PUBLIC "-//W3C//DTD SVG 1.1//EN" "http://www.w3.org/Graphics/SVG/1.1/DTD/svg11.dtd">
<!-- Creator: CorelDRAW 2021.5 -->
<svg xmlns="http://www.w3.org/2000/svg" xml:space="preserve" width="2in" height="2.5in" version="1.1" style="shape-rendering:geometricPrecision; text-rendering:geometricPrecision; image-rendering:optimizeQuality; fill-rule:evenodd; clip-rule:evenodd"
viewBox="0 0 200000 250000"
 xmlns:xlink="http://www.w3.org/1999/xlink"
 xmlns:xodm="http://www.corel.com/coreldraw/odm/2003">
 <defs>
  <style type="text/css">
   <![CDATA[
    .fil0 {fill:#D4BB85}
   ]]>
  </style>
 </defs>
 <g id="Layer_x0020_1">
  <metadata id="CorelCorpID_0Corel-Layer"/>
  <g id="_1413104301792">
   <path class="fil0" d="M76829 82103c-133,-280 -300,-548 -393,-840 -244,-773 -512,-1545 -670,-2338 -462,-2323 -834,-4661 -1155,-7009 -427,-3126 3,-6157 943,-9108 909,-2853 2517,-5297 4829,-7256 2143,-1815 4611,-3033 7196,-4056 2386,-944 4776,-1881 7138,-2883 1209,-513 2360,-1163 3537,-1751 149,-74 302,-143 562,-126 -68,132 -110,289 -208,393 -720,767 -1445,1530 -2180,2282 -1261,1292 -2630,2453 -4105,3498 -2206,1562 -4391,3154 -6583,4736 -1284,926 -2604,1809 -3839,2796 -3058,2445 -5100,5557 -5821,9439 -280,1506 -462,3042 -532,4572 -111,2441 508,4778 1270,7076 41,124 95,243 129,369 14,50 -10,111 -17,168 -34,13 -68,26 -103,39zm16214 -30819c-1937,1075 -3868,2164 -5836,3181 -1976,1022 -3897,2128 -5663,3480 -730,558 -1443,1158 -2067,1829 -2790,3002 -4115,6599 -4197,10673 -10,506 28,1012 43,1518 188,-578 220,-1170 343,-1743 360,-1681 826,-3329 1650,-4857 1276,-2369 3087,-4265 5247,-5822 3532,-2546 7222,-4875 10591,-7648 777,-640 1555,-1278 2332,-1917 -23,-33 -45,-67 -68,-100 -791,470 -1570,962 -2375,1408zm-11680 3865c-1064,795 -2022,1688 -2834,2732 -2937,3779 -3878,8150 -3763,12827 5,184 72,367 111,550 27,-15 54,-29 80,-43 31,-632 52,-1265 95,-1896 247,-3587 1543,-6744 3931,-9435 1743,-1963 3889,-3406 6174,-4655 1192,-652 2403,-1270 3595,-1922 1673,-915 3319,-1883 5011,-2761 1185,-615 2181,-1470 3211,-2289 139,-110 231,-280 344,-421 -2832,1320 -5702,2464 -8600,3540 -436,162 -870,328 -1300,502 -2136,859 -4189,1878 -6055,3273z"/>
   <path class="fil0" d="M168346 93019c-810,-22 -1628,-22 -2428,-133 -2346,-324 -4677,-739 -7001,-1205 -3093,-620 -5816,-2019 -8296,-3874 -2398,-1793 -4181,-4113 -5274,-6939 -1013,-2620 -1356,-5350 -1476,-8128 -111,-2564 -213,-5129 -386,-7689 -89,-1311 -326,-2611 -495,-3916 -22,-165 -36,-332 65,-572 103,107 237,199 303,326 489,931 972,1867 1443,2807 807,1614 1456,3288 1960,5024 754,2596 1542,5182 2319,7772 455,1517 856,3052 1385,4543 1309,3691 3580,6639 7011,8592 1331,757 2723,1433 4145,2000 2269,904 4680,1085 7102,1118 130,2 261,-10 391,-1 52,4 102,46 154,71 1,37 2,73 4,110 -308,34 -616,105 -923,96zm-22885 -25510c381,2182 778,4363 1094,6556 318,2202 734,4379 1432,6491 289,872 621,1743 1051,2552 1923,3619 4887,6050 8710,7462 474,175 965,305 1448,456 -485,-367 -1034,-591 -1535,-894 -1470,-891 -2874,-1871 -4049,-3150 -1820,-1982 -3019,-4313 -3783,-6865 -1249,-4172 -2241,-8420 -3757,-12512 -350,-944 -698,-1888 -1047,-2832 -39,11 -78,21 -117,31 185,902 394,1799 552,2705zm-1331 4116c60,2774 307,5519 1157,8186 403,1266 932,2463 1653,3572 2608,4013 6430,6334 10886,7757 176,56 370,52 556,76 -5,-30 -10,-60 -15,-90 -587,-236 -1178,-463 -1759,-711 -3309,-1409 -5868,-3667 -7628,-6805 -1284,-2289 -1944,-4790 -2376,-7358 -226,-1340 -414,-2686 -639,-4026 -317,-1881 -692,-3753 -967,-5639 -193,-1322 -674,-2543 -1111,-3783 -59,-167 -189,-310 -285,-463 320,3108 461,6194 528,9285z"/>
   <path class="fil0" d="M162376 131978c-1896,300 -3809,364 -5722,372 -3668,16 -7336,50 -11001,198 -1556,63 -3112,84 -4666,-53 -1773,-157 -3520,-448 -5211,-1026 -2628,-899 -4491,-2684 -5850,-5049 -289,-503 -631,-956 -1088,-1322 -416,-333 -878,-530 -1411,-564 -756,-48 -1506,-10 -2248,144 -1038,216 -2076,434 -3113,657 -6530,1406 -12937,3236 -19217,5518 -4343,1579 -8609,3341 -12780,5331 -3205,1529 -6290,3281 -9325,5121 -1942,1177 -3841,2420 -5700,3724 -3054,2141 -6016,4402 -8870,6803 -1790,1506 -3533,3064 -5220,4685 -2591,2490 -4999,5145 -7202,7983 -2170,2796 -4207,5689 -6107,8676 -128,200 -265,395 -408,585 -78,104 -176,197 -386,81 26,-110 34,-229 83,-328 105,-213 226,-419 350,-622 991,-1626 2094,-3176 3183,-4737 2363,-3387 4933,-6605 7786,-9593 2886,-3022 5985,-5814 9243,-8426 1755,-1407 3546,-2772 5356,-4109 2960,-2187 6038,-4200 9221,-6048 1380,-801 2763,-1596 4165,-2358 2255,-1227 4571,-2331 6920,-3370 5035,-2226 10176,-4172 15425,-5831 4312,-1363 8683,-2504 13102,-3465 1656,-360 3291,-800 4886,-1374 836,-300 1600,-740 2251,-1355 628,-593 1009,-1344 1307,-2137 381,-1014 848,-1986 1373,-2932 874,-1574 2017,-2907 3478,-3970 1402,-1021 2922,-1830 4491,-2552 2227,-1025 4535,-1837 6865,-2595 2307,-751 4654,-1315 7082,-1489 1209,-87 2402,-275 3580,-561 637,-154 1283,-261 1940,-272 1369,-24 2630,320 3752,1118 709,504 1174,1170 1306,2046 16,107 44,211 63,297 399,161 783,296 1149,467 959,450 1557,1204 1796,2234 182,785 121,1556 -183,2305 -40,98 -76,196 -106,275 265,137 519,231 732,385 549,396 969,908 1210,1546 123,324 244,653 314,991 94,456 350,715 756,945 1463,830 1932,1812 1782,3289 -2,20 -4,39 -7,59 -126,889 -353,1752 -757,2555 -576,1143 -1474,1901 -2746,2169 -552,116 -1110,208 -1665,313 -88,17 -174,40 -322,75 253,131 444,214 619,323 541,335 780,822 708,1459 -44,394 -199,745 -409,1074 -490,767 -1174,1305 -1997,1676 -71,32 -142,62 -214,91 -751,302 -1544,441 -2341,567zm-30431 -3551c161,167 317,338 484,499 1243,1201 2737,1943 4390,2391 2217,601 4480,839 6770,808 1942,-27 3883,-130 5825,-165 2398,-44 4796,-46 7195,-80 1952,-28 3905,-72 5839,-387 764,-125 1524,-262 2241,-571 630,-272 1174,-657 1609,-1189 56,-69 107,-143 156,-217 15,-23 17,-55 30,-100 -78,9 -145,13 -211,26 -5103,1012 -10259,1543 -15457,1691 -3431,98 -6857,14 -10269,-395 -1931,-232 -3844,-562 -5708,-1136 -940,-290 -1852,-646 -2701,-1149 -48,-29 -102,-48 -153,-72 -13,15 -26,31 -39,47zm-1117 -1596c182,452 491,806 884,1093 653,477 1374,824 2124,1114 1290,498 2628,825 3983,1077 2814,524 5658,737 8515,811 6580,170 13100,-422 19575,-1564 233,-41 466,-81 707,-123 193,-309 289,-636 263,-993 -28,-373 -249,-619 -564,-783 -524,-274 -1084,-435 -1675,-478 -974,-70 -1940,28 -2903,161 -4713,656 -9450,1045 -14205,1183 -3670,107 -7331,-104 -10974,-573 -1604,-206 -3193,-496 -4728,-1026 -354,-122 -701,-267 -1051,-401 -25,10 -50,20 -76,30 41,157 64,321 124,470zm31260 -220c94,-6 170,-6 245,-15 780,-93 1561,-123 2345,-80 177,10 359,16 533,-15 887,-156 1775,-317 2659,-493 1186,-236 2000,-949 2526,-2017 210,-427 349,-879 481,-1370 -1391,237 -2737,571 -4121,325 -1,-20 -2,-40 -4,-59 184,4 369,12 553,12 208,0 416,-2 624,-13 198,-11 395,-30 592,-51 197,-21 394,-46 589,-75 196,-28 392,-61 587,-95 205,-35 409,-72 614,-111 194,-37 387,-78 611,-122 105,-356 166,-720 180,-1137 -687,111 -1333,339 -2021,270 666,-144 1332,-287 2016,-434 7,-488 -56,-934 -326,-1322 -328,-470 -738,-853 -1251,-1118 -115,-59 -229,-119 -342,-181 -245,-136 -413,-335 -491,-607 -92,-314 -182,-628 -279,-940 -43,-139 -103,-274 -168,-443 -730,150 -1440,296 -2150,442 311,-200 664,-269 1010,-352 345,-83 696,-143 1044,-213 -132,-641 -1003,-1410 -1663,-1467 -41,52 -93,110 -135,175 -502,785 -1154,1433 -1861,2029 -1418,1195 -2989,2153 -4642,2981 -43,21 -82,49 -123,74 5,19 10,38 15,57 1520,-194 3025,-499 4549,-696 -91,25 -181,55 -273,75 -1499,329 -3006,607 -4527,817 -270,37 -535,133 -794,224 -906,319 -1808,648 -2712,972 -128,45 -257,83 -381,150 3837,-196 7633,-733 11489,-1308 -299,172 -3295,674 -6137,1001 -2051,236 -4110,404 -6202,606 105,13 178,28 251,31 1219,61 2390,343 3534,757 878,317 1672,770 2345,1420 111,108 229,143 374,137 732,-30 1465,-58 2197,-85 153,-6 306,-6 460,25 -878,180 -1769,201 -2716,231 484,624 839,1246 898,2010zm-22772 1237c2055,163 4112,274 6174,298 2836,33 5661,-154 8486,-384 2517,-206 5036,-374 7537,-739 97,-14 194,-30 315,-49 -183,-597 -310,-1180 -689,-1683 -7274,1710 -14635,2654 -22132,2515 103,14 206,33 309,41zm-8515 -1806c117,59 216,116 320,159 929,387 1900,626 2886,809 2063,382 4149,521 6243,552 4540,66 9045,-339 13530,-1016 2350,-355 4681,-813 7004,-1315 75,-16 148,-39 257,-68 -61,-86 -96,-155 -150,-206 -242,-233 -494,-457 -734,-693 -180,-178 -376,-213 -622,-158 -1226,275 -2454,548 -3685,799 -785,160 -1578,283 -2367,420 -84,15 -171,13 -264,-33 1055,-226 2111,-446 3164,-678 1048,-231 2093,-475 3139,-713 5,-22 10,-45 15,-67 -226,-111 -456,-216 -678,-335 -349,-188 -694,-200 -1085,-110 -3021,698 -6071,1241 -9148,1628 -452,57 -907,83 -1361,117 -146,11 -293,0 -440,-17 3691,-429 7336,-1109 10957,-1922 2,-26 5,-51 7,-77 -96,-34 -191,-72 -288,-102 -1128,-346 -2284,-498 -3463,-463 -1070,32 -2132,119 -3193,291 -3356,546 -6716,1068 -10108,1335 -1936,152 -3877,257 -5816,374 -865,52 -1713,197 -2551,403 -226,56 -444,142 -665,214 8,25 17,50 25,75 3645,554 7304,708 11031,327 -120,140 -243,128 -344,136 -888,74 -1776,159 -2665,205 -2194,113 -4378,-19 -6557,-280 -630,-75 -1259,-147 -1874,-219 -259,139 -389,355 -518,626zm8981 -2240c254,-16 476,-25 697,-45 2448,-223 4891,-497 7317,-898 1623,-269 3254,-497 4864,-826 1845,-377 3664,-879 5409,-1599 2154,-889 4164,-2037 5982,-3505 39,-31 77,-63 112,-97 13,-12 16,-34 41,-89 -493,189 -949,378 -1415,540 -1023,357 -2087,553 -3148,753 -1354,255 -2710,494 -4065,744 -2436,450 -4786,1179 -7066,2150 -1759,750 -3546,1433 -5369,2017 -1001,321 -2016,590 -3061,733 -78,11 -156,28 -233,45 -1,0 -2,1 -3,1 -13,6 -24,28 -65,75zm16333 -5541c1680,-290 3358,-585 5033,-901 1113,-210 2193,-539 3212,-1046 263,-131 500,-298 709,-531 -106,-2 -211,-7 -316,-6 -2136,24 -4246,299 -6350,647 -361,60 -724,111 -1087,160 -101,14 -204,7 -306,-8 273,-178 2373,-537 4161,-745 1409,-163 2822,-225 4258,-228 892,-1074 1479,-2233 1129,-3682 -187,-771 -614,-1373 -1319,-1749 -322,-172 -668,-299 -1007,-438 -208,-85 -424,-66 -643,-29 -4218,706 -8409,1537 -12548,2620 -3533,924 -7021,1992 -10424,3325 -1510,592 -2996,1238 -4439,1980 -1207,620 -2389,1287 -3472,2111 -717,546 -1398,1135 -1928,1877 -243,341 -448,701 -560,1107 -27,100 -39,204 -8,325 43,-50 90,-97 126,-151 430,-627 974,-1146 1564,-1615 902,-717 1889,-1302 2913,-1829 2936,-1510 6051,-2537 9226,-3392 4550,-1224 9178,-2042 13856,-2589 1998,-233 3999,-421 6008,-519 127,-6 254,-8 381,-12 2,21 4,43 7,64 -244,22 -487,48 -731,68 -4009,331 -8001,804 -11962,1517 -3891,700 -7732,1601 -11481,2870 -1640,556 -3248,1193 -4804,1955 -1249,612 -2433,1330 -3512,2210 -545,445 -1031,953 -1406,1557 -256,413 -226,739 116,1135 48,-17 109,-26 155,-57 1081,-719 2284,-1171 3500,-1588 3174,-1089 6408,-1966 9685,-2685 105,-23 211,-37 331,-9 -70,22 -139,48 -210,67 -2120,568 -4246,1115 -6358,1708 -1637,459 -3256,979 -4833,1619 -696,283 -1379,595 -2007,1014 -40,27 -78,56 -165,118 138,70 240,159 351,172 223,24 463,52 674,-3 1635,-426 3311,-609 4978,-842 1256,-176 2511,-359 3759,-579 1439,-253 2822,-719 4183,-1240 1564,-598 3119,-1218 4672,-1845 13,-5 25,-10 38,-15 2213,-890 4505,-1488 6852,-1894zm7533 -8779c-106,-580 -164,-1165 -548,-1647 -353,-443 -796,-773 -1302,-1014 -114,-54 -271,-46 -404,-30 -2370,284 -4729,634 -7070,1100 -3197,636 -6344,1455 -9408,2576 -1551,567 -3078,1193 -4544,1954 -745,387 -1476,802 -2210,1209 -928,516 -1806,1113 -2644,1761 -2059,1596 -3849,3436 -5097,5753 -162,301 -290,608 -299,954 -1,37 5,74 12,173 74,-122 119,-194 161,-267 378,-673 880,-1246 1474,-1729 583,-474 1177,-942 1804,-1355 676,-446 1391,-833 2098,-1230 1122,-630 2295,-1155 3479,-1655 2361,-998 4777,-1844 7228,-2592 4682,-1430 9441,-2531 14261,-3381 965,-170 1927,-357 2890,-537 24,-5 48,-15 76,-26 7,-3 14,-6 21,-9 7,-3 15,-6 23,-9zm-23924 1547c-1373,624 -2707,1321 -3961,2164 -1494,1005 -2734,2251 -3650,3810 -604,1028 -1143,2086 -1557,3206 -40,109 -71,221 -61,355 44,-59 94,-115 132,-177 776,-1262 1718,-2387 2776,-3424 1181,-1157 2499,-2141 3883,-3027 2559,-1639 5321,-2869 8187,-3869 3712,-1295 7524,-2187 11402,-2798 1379,-218 2767,-378 4150,-565 95,-13 189,-28 284,-43 0,-22 0,-44 0,-66 -497,-201 -1013,-332 -1547,-390 -595,-64 -1188,-35 -1778,58 -235,37 -470,76 -701,133 -1341,330 -2702,530 -4078,637 -1885,146 -3727,528 -5534,1078 -2008,611 -3996,1278 -5942,2060 -674,271 -1343,556 -2006,857z"/>
   <path class="fil0" d="M151786 116907c-2577,486 -5127,1086 -7644,1821 -3579,1044 -7077,2327 -10576,3606 -201,74 -406,133 -609,200 -11,-24 -23,-48 -35,-72 40,-25 77,-57 120,-76 337,-141 669,-294 1013,-416 2507,-882 5006,-1791 7528,-2627 3223,-1069 6509,-1907 9860,-2472 230,-39 461,-70 692,-104 4,19 8,37 12,56 -121,28 -241,61 -362,83z"/>
   <path class="fil0" d="M55424 203256c-57,-22 -106,-152 -102,-232 4,-99 61,-197 104,-292 661,-1481 1355,-2948 1979,-4444 1329,-3183 2370,-6462 3204,-9809 650,-2611 1268,-5230 1600,-7904 201,-1620 342,-3247 522,-4869 407,-3657 576,-7323 404,-11001 -74,-1591 -225,-3173 -555,-4734 -506,-2396 -1032,-4787 -1771,-7124 -511,-1618 -709,-3267 -563,-4957 52,-605 91,-1211 138,-1816 89,-1158 226,-2315 263,-3474 157,-4935 -92,-9854 -700,-14754 -91,-734 -326,-1428 -681,-2076 -460,-837 -1113,-1435 -2087,-1607 -422,-74 -844,-144 -1268,-210 -351,-54 -706,-87 -1056,-152 -1141,-211 -1141,-214 -2274,96 -10,3 -20,7 -30,10 -1741,477 -3456,443 -5135,-266 -280,-118 -566,-226 -828,-377 -1142,-660 -2382,-1074 -3630,-1470 -1291,-409 -2602,-713 -3958,-813 -2050,-153 -4056,31 -5999,732 -541,195 -1076,411 -1624,583 -326,102 -673,183 -1012,190 -710,14 -1279,-304 -1653,-909 -382,-619 -285,-1241 68,-1842 43,-72 91,-140 141,-208 356,-483 822,-837 1359,-1087 378,-175 779,-302 1173,-441 279,-98 543,-210 746,-441 193,-220 396,-432 610,-631 943,-876 2048,-1391 3335,-1521 1126,-113 2185,120 3207,574 78,35 159,62 288,111 -43,-108 -58,-157 -81,-201 -387,-730 -787,-1453 -1159,-2191 -805,-1600 -1518,-3240 -2008,-4968 -421,-1483 -753,-2983 -801,-4532 -29,-928 75,-1839 396,-2718 276,-757 706,-1401 1395,-1843 167,-107 231,-244 259,-435 204,-1405 784,-2618 1860,-3568 744,-656 1544,-1216 2537,-1443 844,-193 1696,-257 2557,-194 204,15 358,-37 515,-166 257,-213 516,-436 807,-594 623,-341 1261,-655 1904,-958 791,-374 667,-240 999,-1016 466,-1091 1200,-1953 2233,-2552 747,-433 1561,-648 2412,-742 1091,-119 2173,-47 3250,146 1056,190 2023,597 2910,1198 832,563 1521,1274 2143,2056 68,86 144,166 235,270 470,-578 1075,-752 1748,-794 175,-11 353,-114 513,-205 226,-129 424,-311 656,-427 1076,-536 2161,-522 3231,17 952,480 1734,1161 2333,2048 733,1084 1160,2289 1409,3565 20,101 39,202 64,332 604,70 1106,353 1564,775 48,-115 77,-192 112,-265 299,-628 711,-1158 1327,-1505 560,-316 1103,-139 1392,434 250,495 287,1022 263,1560 -48,1050 -250,2075 -483,3097 -615,2694 -1220,5389 -1828,8085 -17,75 -16,155 -25,246 111,2 195,12 277,4 320,-28 620,43 923,141 583,190 1078,508 1479,966 182,208 390,263 646,205 296,-68 592,-132 887,-203 451,-109 907,-152 1370,-125 490,29 846,270 1091,689 172,294 195,615 168,943 -61,741 -292,1429 -650,2081 -859,1561 -2069,2802 -3473,3872 -1425,1087 -2996,1907 -4646,2592 -2361,979 -4812,1632 -7337,2000 -818,119 -1583,380 -2345,668 -292,110 -571,261 -842,417 -731,422 -1150,1081 -1362,1880 -206,778 -217,1561 -115,2364 460,3614 763,7241 823,10887 44,2693 8,5378 -281,8057 -64,593 -84,1190 -139,1784 -160,1713 70,3375 573,5018 388,1270 728,2556 1037,3847 400,1668 806,3337 1024,5043 292,2289 331,4590 310,6894 -29,3124 -396,6222 -686,9327 -293,3144 -845,6239 -1582,9307 -847,3526 -1866,6998 -3215,10366 -587,1466 -1266,2894 -1904,4340 -139,316 -276,633 -422,946 -48,103 -102,218 -186,286 -18,14 -40,26 -64,36 -68,28 -155,36 -212,15zm24624 -92827c-767,1385 -1663,2678 -2768,3815 -537,553 -1085,1098 -1662,1609 -657,580 -1323,1157 -2035,1665 -1106,789 -2284,1466 -3524,2027 -1026,464 -2059,913 -3088,1370 -64,28 -121,70 -182,105 4,13 8,25 12,37 59,-6 120,-6 178,-19 1516,-329 3008,-746 4428,-1374 617,-272 1196,-638 1779,-983 431,-256 851,-533 1259,-825 1181,-846 2305,-1762 3317,-2809 27,-28 63,-46 109,-53 -1295,1540 -2901,2711 -4532,3869 177,-81 355,-158 530,-243 188,-91 374,-187 558,-287 1137,-614 2194,-1346 3169,-2193 1092,-948 2005,-2043 2655,-3346 270,-542 418,-1116 449,-1719 16,-327 -59,-626 -331,-841 -38,-30 -88,-46 -154,-80 -61,100 -117,185 -165,274zm-2994 309c-922,1791 -2038,3450 -3406,4929 -600,650 -1247,1257 -1890,1865 -844,797 -1756,1512 -2710,2174 -51,35 -96,78 -130,133 4798,-2004 8557,-5196 11193,-9765 -175,-19 -298,-52 -417,-41 -363,32 -728,65 -1086,129 -451,81 -896,193 -1396,304 -34,59 -100,164 -157,274zm-2077 -48c-749,1674 -1635,3269 -2757,4726 -139,181 -270,374 -374,577 -759,1482 -1828,2694 -3166,3675 -33,25 -65,52 -109,87 898,-439 3422,-2540 4863,-4116 1299,-1420 3193,-4180 3596,-5241 -199,-189 -390,-381 -592,-561 -647,-577 -1383,-886 -2311,-731 -469,1909 -955,3823 -1685,5663 1031,-1340 1787,-2837 2613,-4298 -26,72 -48,147 -79,217zm-6941 -10537c-146,173 -318,324 -493,500 115,205 217,385 318,565 1104,1972 1630,4113 1839,6343 149,1591 129,3178 -222,4746 -375,1676 -1097,3197 -2039,4625 -665,1006 -1378,1973 -2220,2837 -394,404 -820,775 -1229,1165 -95,90 -179,192 -283,305 180,145 347,111 504,78 485,-103 934,-302 1344,-578 1019,-685 1759,-1624 2383,-2662 864,-1437 1438,-2994 1875,-4605 970,-3580 1232,-7231 1079,-10920 -54,-1293 -171,-2584 -242,-3885 17,89 37,178 51,267 396,2626 492,5265 342,7915 -125,2210 -426,4395 -994,6537 -485,1828 -1148,3584 -2182,5183 -462,715 -1018,1348 -1644,1921 -30,28 -57,57 -122,122 699,-261 1213,-693 1678,-1193 1141,-1225 1938,-2665 2601,-4185 954,-2187 1589,-4473 2070,-6804 687,-3328 1044,-6696 1213,-10087 14,-271 27,-543 42,-844 -522,-102 -808,-593 -1340,-697 139,2084 259,4146 -6,6207 107,-2093 -3,-4180 -167,-6281 -596,-145 -1147,-46 -1675,231 -660,345 -1126,885 -1531,1494 -290,436 -422,858 -285,1403 172,686 233,1401 336,2104 20,140 15,285 21,427 -24,3 -49,6 -73,9 -163,-937 -326,-1873 -498,-2863 -173,242 -297,441 -447,618zm-3885 -2530c843,3826 1259,7694 1113,11614 -89,2381 -381,4734 -1054,7028 -446,1523 -1046,2978 -1943,4298 -479,704 -1049,1324 -1697,1873 -47,40 -93,81 -129,136 613,-211 1163,-506 1622,-987 2113,-2211 3474,-4843 4354,-7741 911,-3000 1217,-6061 856,-9182 -5,-40 -6,-80 44,-131 19,113 39,225 54,337 337,2452 195,4885 -330,7297 -594,2724 -1606,5278 -3211,7573 -334,478 -718,921 -1078,1381 -61,79 -119,161 -220,297 415,-297 788,-528 1121,-807 1217,-1022 2250,-2212 3140,-3527 1864,-2755 2757,-5765 2446,-9111 -185,-1983 -554,-3915 -1412,-5726 -572,-1207 -1307,-2309 -2206,-3301 -504,-556 -1005,-1117 -1546,-1718 31,161 50,280 76,397zm-6950 4877c6,86 11,173 16,259 131,2527 228,5056 403,7580 250,3610 609,7210 1100,10796 72,528 178,1051 270,1576 18,101 46,201 68,295 194,43 292,-74 395,-175 686,-673 1208,-1464 1640,-2317 782,-1544 1252,-3190 1574,-4882 599,-3146 680,-6319 446,-9504 -306,-4160 -1128,-8212 -2566,-12133 -445,-1214 -952,-2402 -1556,-3547 -185,-350 -349,-711 -547,-1054 -79,-137 -202,-280 -341,-344 -631,-294 -1304,-448 -1994,-531 -28,-4 -59,11 -132,25 165,1764 330,3528 494,5292 -12,4 -25,7 -37,11 -28,-102 -69,-202 -83,-306 -93,-673 -192,-1345 -266,-2020 -100,-915 -177,-1832 -265,-2748 -9,-92 -25,-183 -36,-262 -39,-20 -57,-36 -76,-38 -1358,-148 -2700,-116 -3976,441 -1261,550 -2075,1522 -2558,2788 -47,124 -63,265 -65,399 -115,5716 270,11391 1398,17005 500,2492 1147,4943 2061,7320 428,1112 919,2195 1509,3230 572,1002 1241,1936 2136,2683 529,442 1114,778 1806,890 238,39 474,41 732,-80 -100,-226 -189,-432 -282,-637 -831,-1843 -1295,-3790 -1641,-5770 -587,-3359 -1032,-6738 -1393,-10128 -318,-2983 -583,-5973 -880,-8959 -163,-1643 -348,-3285 -512,-4928 -50,-498 -61,-999 -55,-1506 14,55 34,109 40,165 273,2462 587,4920 806,7387 328,3688 717,7368 1185,11040 355,2779 730,5556 1293,8302 294,1436 703,2837 1296,4181 16,36 39,68 58,102 -507,-3304 -779,-6627 -1081,-9946 -301,-3309 -333,-6631 -475,-9947 31,-2 61,-4 92,-6zm17836 -6815c-456,318 -759,770 -1013,1258 -133,256 -190,517 -198,808 -121,4278 -587,8514 -1630,12674 -530,2116 -1215,4177 -2218,6122 -504,977 -1083,1906 -1819,2730 -48,54 -86,117 -128,176 566,-307 1074,-705 1541,-1157 867,-841 1523,-1828 2034,-2917 656,-1398 1150,-2855 1514,-4351 559,-2297 1076,-4604 1610,-6907 300,-1294 596,-2589 903,-3882 215,-907 408,-1818 477,-2749 27,-363 9,-731 -7,-1096 -6,-133 -54,-267 -100,-393 -154,-428 -396,-582 -730,-447 -74,30 -152,73 -235,131zm-16446 -6203c2421,4164 3652,8717 4361,13435 498,3312 621,6641 309,9980 -206,2196 -613,4350 -1410,6417 -416,1078 -942,2096 -1660,3008 -23,30 -42,62 -63,94 17,14 33,29 50,43 439,-316 844,-671 1202,-1079 1080,-1231 1789,-2667 2320,-4199 777,-2241 1158,-4559 1314,-6917 253,-3821 -65,-7605 -772,-11361 -141,-749 -290,-1498 -474,-2237 -519,-2072 -1465,-3932 -2863,-5551 -578,-669 -1249,-1235 -2019,-1677 -98,-56 -200,-106 -348,-185 24,109 24,180 54,231zm-11836 3821c-1065,516 -1896,1289 -2495,2311 -383,652 -681,1343 -917,2061 -48,147 -81,306 -89,460 -206,4335 166,8607 1433,12778 463,1522 1062,2989 1802,4396 605,1151 1323,2234 2154,3232 1741,2089 3848,3674 6471,4497 557,175 1138,273 1709,402 58,13 122,0 257,-2 -105,-75 -151,-121 -206,-145 -1562,-668 -2878,-1675 -4056,-2887 -865,-890 -1618,-1867 -2275,-2911 -1679,-2669 -2789,-5576 -3476,-8646 -835,-3726 -1069,-7488 -648,-11286 36,-322 85,-643 131,-964 8,-56 30,-109 45,-163 15,2 31,5 46,7 -7,98 -11,198 -22,296 -468,4207 -265,8374 738,12494 465,1912 1094,3769 1932,5551 417,888 894,1744 1414,2580 439,705 924,1369 1454,2004 1141,1367 2451,2535 4037,3370 73,39 152,67 251,75 -51,-49 -98,-103 -154,-146 -946,-739 -1643,-1684 -2252,-2706 -1448,-2428 -2330,-5079 -3040,-7793 -1011,-3865 -1577,-7804 -1870,-11785 -194,-2631 -256,-5266 -162,-7903 3,-80 0,-161 -1,-219 -745,350 -1483,687 -2212,1040zm-3823 5864c-240,1065 -392,2143 -399,3234 -25,3713 406,7369 1421,10947 442,1556 1065,3040 1911,4422 1561,2550 3730,4319 6643,5115 879,240 1764,448 2674,535 70,7 142,4 213,5 3,-20 6,-40 8,-60 -118,-39 -235,-78 -354,-115 -1957,-621 -3659,-1673 -5153,-3070 -1027,-961 -1919,-2040 -2677,-3223 -1167,-1820 -2043,-3778 -2687,-5841 -964,-3086 -1408,-6253 -1478,-9478 -18,-815 6,-1631 10,-2447 0,-93 -1,-186 -54,-295 -27,91 -59,180 -80,271zm-6804 3809c-100,837 -62,1672 54,2504 325,2318 1020,4526 1997,6648 770,1674 1601,3318 2593,4872 1302,2039 2894,3815 4908,5181 871,591 1810,1050 2827,1333 762,211 1535,328 2327,197 194,-32 386,-83 586,-176 -49,-19 -96,-47 -147,-54 -2559,-366 -4728,-1541 -6647,-3223 -850,-745 -1603,-1579 -2320,-2454 -613,-748 -1150,-1545 -1649,-2366 -1215,-1995 -2153,-4120 -2886,-6338 -663,-2008 -1141,-4059 -1467,-6148 -16,-102 -35,-204 -52,-305 -41,-5 -83,-10 -124,-15 0,114 13,230 0,343zm5167 -7988c-1594,817 -2713,2047 -3090,3850 -55,262 -76,543 -50,808 418,4269 1394,8401 3054,12363 471,1126 1006,2223 1611,3285 549,964 1119,1915 1794,2795 1169,1524 2467,2918 4117,3942 805,500 1659,888 2591,1086 106,22 213,34 320,51 6,-21 11,-42 17,-63 -121,-51 -241,-106 -363,-152 -2450,-909 -4291,-2548 -5686,-4727 -1223,-1909 -1970,-4009 -2494,-6198 -572,-2389 -871,-4815 -1026,-7262 -34,-541 -99,-1082 -185,-1618 -302,-1869 -559,-3742 -725,-5628 -14,-155 -21,-310 2,-469 135,565 191,1143 274,1715 87,600 165,1201 252,1801 83,583 172,1165 294,1746 209,-2779 731,-5452 2393,-7782 -41,-20 -67,-43 -95,-44 -913,-30 -1825,11 -2670,350 -112,45 -223,95 -332,152zm-4194 5519c-377,423 -611,924 -757,1465 -34,127 -36,272 -16,402 537,3387 1427,6674 2833,9809 470,1047 976,2080 1611,3039 549,828 1080,1672 1693,2450 1530,1942 3339,3565 5604,4620 520,242 1070,420 1608,622 123,46 255,69 382,102 6,-17 13,-34 19,-52 -60,-30 -120,-62 -182,-88 -1235,-530 -2301,-1312 -3279,-2221 -1241,-1154 -2266,-2489 -3172,-3911 -1369,-2148 -2426,-4450 -3261,-6854 -1102,-3172 -1815,-6431 -2125,-9776 -7,-73 -14,-146 -24,-218 -3,-19 -15,-38 -32,-78 -351,167 -647,403 -903,689zm-7919 20969c340,335 687,551 1126,540 269,-7 543,-56 800,-134 420,-126 832,-281 1241,-442 3017,-1187 6098,-1265 9220,-519 711,170 1404,417 2105,628 109,33 217,69 350,111 -274,-338 -2496,-1283 -4039,-1735 -1418,-416 -2861,-601 -4342,-463 -1,-22 -2,-45 -4,-67 114,-16 227,-35 341,-49 1538,-176 3029,67 4481,552 862,288 1701,644 2550,970 96,37 191,78 305,126 -162,-278 -1100,-927 -2417,-1637 -859,-464 -1742,-885 -2615,-1325 1501,497 2885,1237 4241,2048 -357,-431 -713,-861 -1069,-1292 -67,-81 -142,-157 -196,-245 -465,-771 -1233,-1009 -2045,-1110 -1161,-145 -2243,99 -3217,785 -444,313 -922,577 -1380,870 -507,324 -1067,417 -1653,378 -282,-19 -564,-47 -842,-94 -1000,-170 -1906,121 -2784,552 -304,148 -369,438 -397,737 -21,221 18,433 168,663 1169,-679 2419,-1108 3738,-1339 -706,210 -1411,421 -2101,698 -533,215 -1057,469 -1566,794zm10929 -4293c48,15 97,25 214,56 -79,-100 -108,-163 -158,-197 -268,-181 -527,-381 -815,-526 -1396,-701 -2845,-890 -4349,-391 -937,311 -1713,872 -2361,1606 -303,343 -665,558 -1090,703 -395,134 -784,291 -1168,455 -159,69 -299,183 -448,276 13,14 25,28 37,43 251,-73 499,-156 753,-217 496,-119 997,-95 1499,-39 1518,169 1600,142 2885,-678 511,-326 1019,-669 1567,-919 66,-30 133,-59 199,-85 1049,-422 2138,-419 3233,-87zm27162 -17032c298,-209 505,-422 651,-713 268,-531 550,-1057 861,-1564 173,-282 418,-520 654,-806 -42,-498 -87,-1024 -131,-1551 212,437 198,920 303,1415 572,-386 1132,-708 1786,-755 20,-44 38,-64 36,-81 -149,-1292 -674,-2385 -1718,-3193 -925,-717 -2110,-774 -3113,-168 -242,146 -485,290 -734,423 -488,261 -1013,382 -1565,414 -501,28 -613,91 -934,460 30,76 63,162 97,247 238,592 513,1172 704,1779 211,669 560,1232 1053,1718 126,124 244,255 398,373 -56,-697 -341,-1348 -398,-2046 23,32 57,61 67,96 190,683 372,1369 569,2050 44,155 116,312 212,440 277,367 572,720 861,1079 37,47 79,91 152,128 0,-950 -63,-1893 -201,-2828 -138,-937 -303,-1870 -431,-2808 548,1911 823,3861 822,5891zm2485 -7755c77,45 152,93 291,178 -194,-368 -419,-611 -659,-843 -516,-498 -1082,-923 -1756,-1186 -1039,-406 -2017,-274 -2909,381 -369,271 -747,430 -1208,450 -497,22 -942,190 -1223,698 277,482 560,976 838,1461 31,1 46,6 51,1 381,-341 843,-422 1333,-454 579,-38 1083,-299 1570,-593 143,-86 288,-170 433,-254 139,-81 277,-148 415,-204 966,-389 1903,-173 2824,363z"/>
   <path class="fil0" d="M60069 114721c53,-1628 132,-3256 151,-4884 19,-1641 24,-3285 -50,-4925 -73,-1628 -207,-3257 -399,-4875 -192,-1620 -488,-3227 -739,-4839 33,41 54,87 65,135 374,1544 667,3103 864,4681 399,3202 544,6417 479,9642 -32,1590 -49,3180 -239,4762 -13,107 -39,212 -59,317 -24,-5 -49,-9 -73,-14z"/>
   <path class="fil0" d="M61709 187018c83,-117 142,-230 228,-316 330,-329 668,-649 1003,-972 2251,-2168 4354,-4471 6329,-6892 3767,-4619 7083,-9548 10092,-14687 4509,-7699 8298,-15742 11459,-24083 3137,-8278 5631,-16739 7246,-25451 156,-838 135,-1678 93,-2519 -13,-263 -92,-528 -176,-779 -120,-357 -276,-700 -412,-1052 -168,-433 -438,-794 -756,-1128 -355,-374 -780,-585 -1285,-687 -611,-122 -1222,-266 -1816,-453 -1130,-357 -2162,-906 -2976,-1786 -730,-789 -1331,-1678 -1839,-2624 -617,-1148 -991,-2380 -1145,-3670 -172,-1446 -338,-2895 -436,-4348 -193,-2849 -369,-5700 -763,-8528 -337,-2419 -346,-4841 -275,-7270 27,-924 273,-1797 631,-2646 420,-994 1160,-1632 2150,-2011 378,-144 763,-220 1163,-113 235,63 399,-8 528,-213 290,-459 684,-823 1122,-1135 419,-298 853,-574 1307,-878 45,-137 102,-305 158,-474 210,-631 588,-1134 1116,-1539 639,-491 1366,-751 2145,-897 614,-115 1180,21 1716,322 84,47 167,96 277,159 55,-119 93,-219 145,-311 244,-430 453,-887 746,-1281 816,-1094 1927,-1516 3269,-1288 796,135 1513,470 2126,1003 709,615 1207,1386 1602,2228 104,221 202,446 298,659 50,-4 73,2 87,-7 264,-176 523,-358 791,-529 1276,-813 2656,-1289 4182,-1238 1354,45 2599,413 3645,1319 1206,1046 1756,2344 1509,3944 -57,372 -136,741 -203,1111 -17,94 -26,189 -39,283 134,-68 220,-160 303,-253 587,-658 1924,-990 2785,-164 396,381 747,793 1022,1269 138,239 266,484 426,778 165,-103 307,-189 446,-280 364,-236 766,-352 1190,-267 706,141 1383,386 1933,866 650,567 1101,1269 1270,2132 34,175 85,346 125,520 74,319 234,580 484,798 633,553 1091,1227 1334,2037 192,640 187,1270 -117,1881 -33,68 -52,143 -76,207 35,38 51,65 74,81 873,614 1286,1477 1380,2519 60,667 -6,1325 -86,1986 -101,846 -174,1695 -254,2544 -42,444 -63,890 -109,1333 -70,688 -331,1305 -754,1848 -218,281 -448,558 -703,805 -1319,1274 -2649,2534 -3971,3804 -1593,1531 -3180,3069 -4774,4599 -650,624 -1285,1270 -1978,1844 -969,802 -1983,1549 -2981,2315 -973,747 -2076,1229 -3240,1587 -1895,582 -3833,565 -5777,378 -520,-50 -1041,-159 -1544,-304 -563,-163 -1130,-200 -1705,-204 -447,-4 -855,133 -1231,380 -464,304 -782,722 -1006,1221 -345,772 -593,1575 -750,2407 -1327,7058 -3219,13965 -5574,20747 -3778,10880 -8568,21288 -14591,31115 -3227,5265 -6790,10286 -10899,14907 -1436,1615 -2941,3164 -4541,4618 -249,226 -511,440 -771,653 -41,34 -84,67 -134,87 -67,27 -146,31 -249,-19zm45905 -75989c103,-1 206,4 308,-4 1958,-142 3770,-718 5386,-1850 1104,-774 2192,-1573 3194,-2477 758,-683 1489,-1395 2226,-2102 1586,-1524 3165,-3054 4751,-4579 1214,-1167 2440,-2322 3648,-3496 282,-274 526,-593 759,-911 291,-398 470,-853 520,-1345 58,-572 94,-1146 137,-1719 3,-36 -11,-73 -24,-153 -84,104 -146,176 -204,252 -1293,1700 -2656,3342 -4148,4872 -862,884 -1757,1737 -2633,2607 -821,815 -1637,1634 -2457,2450 -987,983 -1975,1967 -2966,2947 -1135,1124 -2353,2153 -3670,3057 -1432,983 -2941,1824 -4620,2323 -19,6 -39,12 -57,19 -52,21 -102,52 -150,109zm-3546 -189c92,20 183,43 275,62 1362,282 2678,96 3970,-375 895,-326 1743,-745 2572,-1211 1138,-639 2182,-1410 3185,-2233 802,-657 1552,-1380 2300,-2100 889,-857 1752,-1743 2625,-2617 622,-622 1238,-1250 1867,-1867 586,-574 1199,-1122 1774,-1707 915,-930 1843,-1851 2703,-2829 1063,-1209 2066,-2471 3088,-3715 82,-100 141,-240 160,-369 91,-628 163,-1258 246,-1887 87,-652 112,-1304 1,-1955 -20,-115 -52,-229 -92,-398 -81,90 -135,139 -177,198 -1540,2157 -3170,4246 -4866,6282 -1360,1633 -2753,3237 -4216,4780 -864,911 -1731,1818 -2615,2710 -584,590 -1193,1156 -1801,1722 -659,613 -1322,1222 -1996,1818 -482,427 -968,851 -1480,1240 -1026,779 -2048,1566 -3113,2289 -1139,772 -2336,1452 -3651,1894 -131,44 -264,84 -397,122 -120,35 -241,65 -361,96 0,17 0,34 0,52zm-2175 -778c212,124 431,235 649,348 468,242 954,291 1470,172 806,-186 1564,-493 2297,-867 1594,-814 3059,-1830 4461,-2933 887,-697 1737,-1441 2591,-2178 643,-556 1280,-1122 1893,-1710 848,-814 1676,-1651 2506,-2483 1438,-1443 2807,-2948 4144,-4483 2195,-2520 4283,-5127 6267,-7816 158,-214 318,-427 493,-661 -226,-634 -646,-1087 -1266,-1412 -1515,2132 -2928,4321 -4763,6184 783,-1022 1582,-2032 2343,-3070 759,-1036 1479,-2100 2214,-3150 -43,-49 -57,-81 -80,-89 -907,-331 -1770,-274 -2570,302 -86,62 -157,150 -220,237 -2022,2834 -4150,5586 -6357,8278 -1705,2078 -3454,4119 -5294,6081 -926,987 -1861,1967 -2812,2930 -597,605 -1223,1181 -1849,1756 -582,536 -1171,1065 -1774,1577 -445,378 -906,742 -1382,1080 -678,481 -1352,973 -2122,1302 -281,120 -576,207 -865,307 -63,22 -127,39 -239,72 107,94 177,178 265,229zm-311 -471c402,-33 775,-167 1130,-342 1091,-536 2072,-1239 3001,-2017 311,-261 628,-515 930,-786 685,-615 1377,-1221 2037,-1861 972,-943 1941,-1891 2868,-2877 1245,-1326 2470,-2672 3665,-4042 3068,-3520 5957,-7184 8712,-10954 57,-78 110,-157 183,-263 -828,-340 -1567,-819 -2430,-1011 -209,-47 -408,-40 -614,22 -731,222 -1383,583 -1973,1067 -1200,987 -2157,2174 -2949,3507 -627,1056 -1288,2092 -1939,3133 -809,1296 -1909,2267 -3289,2920 -1448,685 -2801,1524 -4070,2502 -410,316 -789,661 -1122,1058 -298,357 -600,712 -901,1067 -739,870 -1259,1874 -1729,2902 -541,1184 -1176,2312 -1860,3418 -210,340 -337,736 -474,1116 -85,233 -88,485 -4,769 148,-28 293,-44 431,-84 559,-159 1067,-435 1531,-770 731,-527 1462,-1061 2136,-1656 874,-772 1711,-1587 2530,-2417 3031,-3075 5762,-6408 8346,-9861 1255,-1677 2456,-3395 3681,-5094 61,-84 125,-166 234,-218 -48,81 -92,163 -143,241 -1365,2109 -2836,4144 -4354,6144 -1643,2167 -3349,4284 -5168,6306 -1011,1123 -2067,2207 -3120,3291 -1070,1102 -2220,2118 -3453,3034 -580,430 -1189,824 -1866,1092 -211,83 -430,144 -673,225 146,326 374,467 715,439zm13287 -38338c-1603,3128 -3243,6238 -4797,9390 -2563,5198 -4992,10459 -7277,15786 -1245,2901 -2285,5873 -2990,8956 -106,464 -209,929 -305,1394 -92,446 145,660 630,523 1209,-3542 2486,-7089 4261,-10436 -33,93 -62,187 -101,277 -478,1099 -970,2192 -1433,3297 -874,2085 -1604,4223 -2338,6360 -24,72 -39,147 -76,286 330,-222 532,-477 696,-753 365,-613 739,-1223 1055,-1861 946,-1908 1849,-3838 2802,-5743 646,-1292 1350,-2556 2024,-3834 1230,-2329 2458,-4659 3685,-6989 480,-910 953,-1824 1429,-2737 17,3 33,5 50,7 -74,190 -134,387 -224,569 -476,968 -957,1933 -1442,2897 -1503,2991 -3074,5945 -4702,8870 -149,268 -276,548 -411,824 -12,25 -15,54 3,98 66,-95 134,-187 196,-284 712,-1109 1417,-2222 2261,-3239 957,-1152 1961,-2259 3009,-3328 506,-517 1028,-1021 1494,-1572 524,-617 996,-1279 1486,-1925 1853,-2443 3430,-5059 4903,-7742 101,-184 208,-364 347,-525 -1394,2922 -3074,5672 -5005,8270 15,13 30,26 45,38 76,-56 156,-107 227,-169 673,-584 1337,-1180 2020,-1751 425,-356 882,-673 1322,-1011 1447,-1113 2620,-2441 3270,-4177 443,-1183 287,-2318 -294,-3413 -252,-476 -577,-896 -938,-1296 -790,-877 -1920,-579 -2452,62 -170,206 -320,430 -498,630 -606,680 -972,1509 -1438,2276 -381,626 -754,1256 -1133,1882 -69,113 -151,218 -262,305 152,-492 443,-911 689,-1351 252,-449 516,-891 774,-1336 257,-445 515,-891 727,-1259 8,-278 -9,-475 23,-664 104,-596 236,-1187 337,-1783 57,-341 107,-689 102,-1033 -17,-1217 -587,-2154 -1520,-2895 -30,-24 -69,-35 -119,-59 -41,60 -85,112 -115,170zm-19543 1817c-1107,3998 -1966,8049 -2513,12162 -544,4084 -839,8183 -651,12306 90,1963 294,3911 757,5826 221,916 505,1811 929,2656 317,632 703,1215 1262,1667 185,150 385,232 624,239 535,16 1069,48 1604,60 160,4 321,-35 481,-54 2,-22 5,-43 7,-64 -159,-127 -328,-243 -476,-382 -632,-594 -1070,-1317 -1383,-2119 -468,-1201 -691,-2455 -810,-3731 -179,-1932 -116,-3861 80,-5788 431,-4261 1423,-8398 2813,-12442 377,-1095 811,-2170 1220,-3254 33,-88 74,-173 151,-245 -22,70 -42,141 -68,209 -1361,3519 -2448,7120 -3185,10822 -619,3109 -1012,6242 -896,9421 52,1439 216,2864 638,4248 243,799 568,1561 1090,2226 253,321 553,593 899,811 72,45 154,74 264,75 -113,-213 -235,-422 -339,-640 -383,-804 -572,-1663 -693,-2539 -227,-1638 -211,-3281 -80,-4925 257,-3226 929,-6370 1917,-9449 102,-319 161,-652 225,-981 163,-847 313,-1696 475,-2543 148,-769 316,-1534 456,-2304 295,-1629 339,-3271 222,-4919 -80,-1135 -310,-2238 -785,-3279 -193,-423 -427,-824 -765,-1243 -1113,2975 -1920,5970 -2624,8995 510,-3125 1379,-6152 2493,-9160 -865,-984 -1870,-1726 -3253,-1865 -33,81 -66,140 -83,204zm3590 17653c-989,3382 -1634,6823 -1749,10353 -44,1380 9,2755 272,4115 131,682 317,1349 644,1967 82,155 190,295 304,471 272,-202 389,-425 406,-711 26,-474 51,-949 95,-1422 135,-1454 452,-2878 736,-4307 286,-1436 394,-2886 398,-4346 4,-1363 -290,-2676 -670,-3974 -56,-190 -117,-379 -176,-568 -130,-421 -186,-851 -159,-1292 10,-167 16,-334 -13,-514 -30,76 -67,150 -90,228zm13446 -20461c-2969,6016 -5721,12128 -8112,18398 -1268,3325 -2434,6685 -3397,10112 -611,2177 -1143,4372 -1449,6616 -33,246 -55,493 -81,739 -5,48 -4,96 -6,144 18,5 36,10 54,15 120,-509 238,-1020 361,-1529 728,-3004 1772,-5901 3004,-8731 2854,-6557 5857,-13046 9125,-19409 796,-1550 1628,-3081 2441,-4622 180,-341 350,-685 533,-1046 -709,-521 -1510,-742 -2358,-870 -43,69 -85,122 -115,182zm-21042 7724c-609,3166 -1086,6351 -1374,9563 -316,3521 -416,7044 -64,10569 169,1689 447,3356 954,4981 296,948 669,1865 1210,2700 595,918 1339,1670 2455,1937 111,27 226,43 400,74 -132,-146 -214,-243 -302,-334 -561,-581 -915,-1288 -1217,-2022 -581,-1411 -885,-2893 -1099,-4396 -333,-2341 -413,-4697 -365,-7058 99,-4912 725,-9762 1714,-14569 438,-2127 941,-4238 1573,-6316 20,-66 33,-133 60,-240 -122,-6 -226,-16 -328,-14 -769,9 -1462,272 -2092,684 -446,291 -857,638 -1268,979 -157,130 -285,304 -401,475 -198,293 -428,521 -827,514 -29,113 -59,216 -82,320 -346,1529 -612,3072 -837,4622 -30,210 -80,417 -150,620 159,-1883 477,-3740 885,-5593 -392,-138 -722,-22 -1078,124 -331,1670 -609,3324 -724,4995 -115,1667 -158,3339 -232,4978 -128,-327 -119,-2952 34,-4882 130,-1649 380,-3283 692,-4974 -374,160 -649,354 -871,601 -203,226 -385,482 -524,752 -419,811 -672,1678 -704,2592 -85,2438 -86,4870 251,7300 393,2838 583,5698 777,8557 98,1452 263,2902 441,4347 171,1391 592,2713 1327,3914 553,905 1129,1799 1946,2500 384,330 809,599 1326,843 -44,-89 -53,-133 -80,-160 -967,-983 -1556,-2184 -1992,-3470 -611,-1802 -917,-3666 -1096,-5554 -283,-2989 -231,-5979 -13,-8969 269,-3694 822,-7348 1595,-10969 17,-76 38,-152 102,-225 -6,68 -7,137 -19,204zm24332 9512c-716,596 -1458,1158 -2072,1867 -331,381 -679,748 -1027,1114 -998,1046 -2015,2075 -2997,3136 -1362,1472 -2565,3070 -3600,4791 -163,272 -337,537 -504,807 -15,23 -15,56 -36,139 85,-85 139,-133 186,-186 956,-1075 2081,-1949 3274,-2739 768,-509 1554,-989 2333,-1480 1758,-1107 3099,-2605 4130,-4396 455,-790 911,-1580 1494,-2287 619,-751 1281,-1464 2088,-2017 398,-272 835,-488 1256,-729 58,-33 120,-61 180,-92 -12,-28 -24,-55 -36,-83 -504,140 -1013,264 -1511,423 -225,72 -446,151 -663,239 -903,363 -1733,859 -2494,1493zm-12514 -3200c-574,1299 -974,2659 -1383,4015 -551,1833 -1047,3680 -1396,5564 -78,424 -90,836 -16,1266 215,1261 141,2529 51,3796 -16,224 -38,449 -57,673 13,3 27,6 40,9 30,-89 64,-177 88,-267 1307,-4778 2997,-9422 4856,-14008 2066,-5098 4350,-10096 6832,-15005 39,-78 73,-157 128,-278 -1057,-110 -2035,51 -3015,440 -1234,2664 -2341,5397 -3470,8130 9,-60 9,-123 29,-178 371,-1003 718,-2016 1123,-3006 626,-1531 1291,-3045 1940,-4567 26,-61 48,-124 87,-228 -290,64 -504,202 -719,325 -1155,665 -2152,1520 -2978,2565 -181,229 -337,496 -431,771 -990,2887 -1964,5779 -2943,8670 -130,385 -255,771 -387,1155 -30,85 -81,163 -157,228 925,-3361 2059,-6650 3210,-9944 -869,108 -1617,408 -2250,978 -489,441 -878,948 -1030,1598 -96,414 -180,835 -213,1258 -100,1294 -183,2590 -253,3886 -75,1401 -319,2776 -618,4143 -293,1337 -560,2676 -691,4042 -76,793 -43,1558 237,2312 148,397 237,816 401,1236 21,-87 45,-172 63,-260 588,-2921 1419,-5772 2494,-8551 109,-282 250,-552 387,-850 26,52 44,71 40,81zm22558 994c593,-67 1162,50 1726,250 168,-158 235,-357 278,-556 39,-182 68,-376 51,-559 -100,-1093 -656,-1925 -1527,-2619 -272,374 -515,721 -773,1057 -254,331 -522,651 -784,975 -24,-18 -48,-36 -72,-54 501,-699 1002,-1399 1504,-2100 -82,-169 -155,-318 -246,-507 -74,83 -131,143 -183,207 -633,783 -1263,1570 -1901,2348 -133,163 -302,297 -454,444 -17,-15 -34,-29 -51,-43 59,-82 111,-170 179,-244 799,-879 1497,-1837 2202,-2790 104,-140 124,-268 95,-439 -147,-853 -524,-1578 -1187,-2136 -488,-411 -1078,-623 -1691,-761 -300,-68 -593,3 -849,183 -184,130 -363,266 -555,407 22,102 43,197 63,293 163,750 153,1491 -69,2232 -364,1214 -1041,2239 -1885,3163 -454,497 -903,1001 -1461,1391 -20,14 -31,41 -77,105 445,-150 850,-274 1243,-426 111,-43 199,-159 285,-253 1109,-1214 2095,-2521 2983,-3904 52,-81 113,-156 189,-220 -831,1530 -1860,2919 -3029,4209 11,18 22,35 33,52 93,-12 187,-20 279,-37 884,-160 1739,-60 2560,300 517,226 1023,475 1571,731 281,-209 581,-403 911,-535 202,-81 415,-139 642,-165zm-24912 -13301c-14,63 -28,126 -41,190 -245,1204 -491,2407 -732,3612 -17,85 -23,184 4,263 141,409 294,814 468,1290 126,-392 276,-718 333,-1060 333,-1997 978,-3899 1714,-5775 34,-86 76,-169 139,-244 -604,1878 -1311,3725 -1562,5707 126,-148 236,-317 383,-441 385,-326 776,-648 1186,-941 383,-273 824,-435 1290,-510 283,-45 487,-176 650,-416 437,-642 976,-1196 1543,-1724 57,-54 111,-111 171,-169 -6,-351 -123,-668 -269,-970 -311,-646 -694,-1248 -1207,-1756 -632,-627 -1391,-1020 -2270,-1150 -1075,-159 -1976,179 -2664,1034 -415,516 -724,1088 -867,1741 -174,794 -352,1587 -530,2380 -18,83 -46,163 -96,240 -56,-263 27,-514 65,-766 41,-274 99,-546 156,-818 54,-261 117,-520 183,-814 -273,35 -448,-121 -643,-251 -453,-304 -953,-437 -1498,-338 -895,163 -1721,472 -2358,1159 -280,302 -483,648 -604,1126 2071,-559 3680,176 5067,1624 33,-33 59,-57 82,-83 18,-20 33,-43 76,-100 7,142 13,246 18,344 285,416 568,827 873,1272 272,-1255 403,-2507 872,-3672 22,5 44,11 67,16z"/>
  </g>
 </g>
</svg>
