<?xml version="1.0" encoding="UTF-8"?>
<!DOCTYPE svg PUBLIC "-//W3C//DTD SVG 1.1//EN" "http://www.w3.org/Graphics/SVG/1.1/DTD/svg11.dtd">
<!-- Creator: CorelDRAW 2021.5 -->
<svg xmlns="http://www.w3.org/2000/svg" xml:space="preserve" width="1in" height="1in" version="1.1" style="shape-rendering:geometricPrecision; text-rendering:geometricPrecision; image-rendering:optimizeQuality; fill-rule:evenodd; clip-rule:evenodd"
viewBox="0 0 100000 100000"
 xmlns:xlink="http://www.w3.org/1999/xlink"
 xmlns:xodm="http://www.corel.com/coreldraw/odm/2003">
 <defs>
  <style type="text/css">
   <![CDATA[
    .fil0 {fill:white}
    .fil2 {fill:#80BB37;fill-rule:nonzero}
    .fil3 {fill:#5B9835;fill-rule:nonzero}
    .fil1 {fill:white;fill-rule:nonzero}
    .fil4 {fill:url(#id0)}
    .fil5 {fill:url(#id1)}
   ]]>
  </style>
  <linearGradient id="id0" gradientUnits="userSpaceOnUse" x1="41874" y1="59236" x2="44293" y2="44176">
   <stop offset="0" style="stop-opacity:1; stop-color:#512659"/>
   <stop offset="0.580392" style="stop-opacity:1; stop-color:#91275D"/>
   <stop offset="1" style="stop-opacity:1; stop-color:#D12961"/>
  </linearGradient>
  <linearGradient id="id1" gradientUnits="userSpaceOnUse" x1="33658" y1="61265" x2="36940" y2="44539">
   <stop offset="0" style="stop-opacity:1; stop-color:#50265A"/>
   <stop offset="0.580392" style="stop-opacity:1; stop-color:#8D265C"/>
   <stop offset="1" style="stop-opacity:1; stop-color:#CA275E"/>
  </linearGradient>
 </defs>
 <g id="Layer_x0020_1">
  <metadata id="CorelCorpID_0Corel-Layer"/>
  <g id="_1409604198416">
   <g>
    <path class="fil0" d="M53809 54535c0,-6010 -7,-12062 -7,-18093 0,-571 0,-2533 1266,-2533l9 -225 -5526 0 0 225c1275,0 1258,1962 1258,2533 0,6031 0,12083 0,18093 0,573 9,2524 -1266,2524l0 235 5534 0 0 -235c-1275,0 -1268,-1951 -1268,-2524z"/>
    <path class="fil0" d="M75410 53226c-389,1154 -919,2049 -1604,2681 -685,634 -1483,954 -2394,954 -972,0 -1865,-356 -2681,-1074 -815,-712 -1413,-1665 -1795,-2863l0 -7417c399,-1179 1014,-2125 1831,-2853 823,-719 1699,-1084 2644,-1084 910,0 1709,322 2394,954 685,633 1215,1536 1604,2690 382,1162 574,2498 574,4015 0,1518 -191,2853 -574,3998zm2855 -8421c-573,-1266 -1379,-2255 -2422,-2957 -1041,-711 -2246,-1059 -3615,-1059 -1231,0 -2343,357 -3332,1084 -867,633 -1500,1449 -1933,2429l0 -3279c0,9 -4249,9 -4249,9l0 235c1024,0 1213,1249 1249,2047l0 17155c1009,69 2010,204 2983,425l0 -1058 -9 0 0 -5759c460,1084 1163,1951 2117,2592 944,651 2004,973 3175,973 1370,0 2575,-348 3615,-1041 1043,-694 1848,-1683 2422,-2949 581,-1275 867,-2749 867,-4424 0,-1674 -286,-3148 -867,-4423zm-14303 16504l0 2693c-44,798 -252,2081 -1276,2081l0 234 5525 0 0 -234c-1275,0 -1266,-1960 -1266,-2532l0 -1897c-880,-178 -1788,-286 -2723,-334 -87,-4 -174,-8 -260,-11z"/>
    <path class="fil0" d="M31817 55481c-355,344 -793,615 -1309,811 -522,188 -1056,281 -1598,281 -970,0 -1765,-355 -2364,-1084 -597,-719 -897,-1681 -897,-2878l0 -11831 4620 0 -1148 -1323 -3472 0 0 -5776c0,10 -4587,0 -4587,0l0 261c1374,0 1355,2113 1355,2729l0 2786 -1549 0 481 1323 1097 0 0 11270c0,1587 485,2849 1449,3813 970,952 2250,1429 3840,1429 813,0 1596,-141 2364,-422 774,-279 1410,-662 1906,-1139l-187 -250z"/>
    <path class="fil0" d="M58886 39426c0,-1380 1500,-2872 2870,-2872 -1413,0 -2870,-1457 -2870,-2870 0,1404 -1536,2870 -2880,2870 1319,0 2880,1493 2880,2872zm1472 15109c0,-3596 -7,-7192 -7,-10778 0,-571 9,-2533 1275,-2533l0 -225 -5526 0 0 225c1275,0 1258,1962 1258,2533 0,3580 0,7179 0,10778 0,573 9,2524 -1266,2524l0 235 5534 0 0 -235c-1275,0 -1268,-1951 -1268,-2524z"/>
    <path class="fil1" d="M30387 36393l-526 -904 -389 0 0 904 -513 0 0 -2604 1041 0c241,0 445,84 614,253 169,169 253,372 253,610 0,161 -46,311 -137,448 -92,138 -213,241 -365,311l577 982 -554 0zm-915 -2124l0 770 528 0c97,0 180,-38 250,-113 69,-76 104,-167 104,-274 0,-107 -35,-197 -104,-272 -70,-74 -153,-111 -250,-111l-528 0zm3324 2176c-290,0 -528,-82 -714,-245 -186,-164 -279,-383 -279,-659l0 -1752 509 0 0 1711c0,137 39,244 117,324 78,79 200,119 367,119 166,0 288,-40 367,-119 78,-80 117,-187 117,-324l0 -1711 513 0 0 1752c0,276 -93,495 -279,659 -186,163 -426,245 -718,245zm3633 -1402c228,131 343,330 343,595 0,220 -78,402 -234,543 -156,141 -349,212 -577,212l-1105 0 0 -2604 1026 0c224,0 411,69 564,206 153,138 229,313 229,526 0,216 -82,389 -246,521zm-547 -774l-513 0 0 573 513 0c80,0 146,-28 199,-82 53,-55 80,-123 80,-205 0,-82 -26,-150 -78,-204 -52,-55 -119,-82 -201,-82zm78 1644c87,0 159,-29 216,-87 57,-58 85,-132 85,-221 0,-87 -28,-159 -85,-218 -57,-58 -129,-87 -216,-87l-591 0 0 614 591 0zm3175 480l-526 -904 -389 0 0 904 -513 0 0 -2604 1042 0c241,0 445,84 614,253 169,169 253,372 253,610 0,161 -46,311 -137,448 -92,138 -213,241 -365,311l576 982 -554 0zm-915 -2124l0 770 528 0c97,0 180,-38 249,-113 69,-76 104,-167 104,-274 0,-107 -35,-197 -104,-272 -70,-74 -152,-111 -249,-111l-528 0zm2372 -480l513 0 0 2604 -513 0 0 -2604zm2833 2656c-392,0 -715,-130 -971,-391 -256,-260 -383,-581 -383,-963 0,-385 128,-706 383,-965 256,-259 579,-389 971,-389 236,0 453,56 653,166 200,110 355,260 467,448l-443 256c-65,-117 -156,-207 -275,-273 -119,-66 -253,-98 -402,-98 -253,0 -457,79 -612,238 -155,159 -233,365 -233,618 0,250 78,455 233,614 155,159 359,238 612,238 149,0 283,-33 404,-99 120,-66 212,-156 274,-270l443 257c-112,189 -267,338 -465,448 -198,110 -417,165 -655,165zm4072 -52l-591 0 -930 -1220 0 1220 -513 0 0 -2604 513 0 0 1148 893 -1148 591 0 -963 1265 1001 1339z"/>
   </g>
   <g>
    <path class="fil2" d="M42344 58732c-783,-1774 -2739,-1322 -4800,-56 913,33 4235,498 5087,2069 -322,-1399 -1157,-2109 -2480,-2344 976,-64 1508,56 2182,809 -8,-159 -5,-319 11,-478zm772 -422c488,-1086 1696,-806 2967,-24 -513,19 -2254,257 -2966,1028 -11,-73 -19,-145 -26,-216 260,-561 722,-867 1378,-983 -623,-41 -954,39 -1390,545 5,-120 17,-236 37,-350z"/>
    <path class="fil3" d="M44935 56084c-1834,846 -2476,2215 -1623,4470 1271,3364 6114,1902 8809,1316 6577,-1430 15815,-2878 20991,2488 -5345,-4293 -12021,-3463 -18966,-2141 -2981,568 -9097,2386 -10905,-706 -1456,-2489 -835,-4580 1694,-5428z"/>
    <path class="fil3" d="M42272 40074l0 2547c-208,222 -403,464 -583,725l0 -3702 583 430zm-1798 -1326l0 7033c-246,666 -441,1353 -583,2049l0 -9512 583 430zm898 662l0 4444c-212,372 -406,755 -581,1148l0 -6021 581 428z"/>
    <path class="fil2" d="M37829 39839l0 3574c-103,-117 -209,-232 -319,-344l0 -2995 319 -235zm1469 -1084l0 7151 -1 -4c-92,-260 -198,-514 -317,-760l0 -6153 319 -235zm-735 543l0 5096c-100,-158 -206,-313 -317,-463l0 -4399 317 -234z"/>
    <g>
     <path class="fil4" d="M48440 41026c-2610,3409 162,8303 -1469,12219 -571,1306 -1403,2007 -2447,2269 -1437,391 -2693,-66 -3524,-1176 -1126,-1663 -1371,-6412 913,-10310 1362,-2323 3916,-3132 6526,-3001z"/>
     <path class="fil5" d="M38781 46115c1567,3263 -1566,9528 3785,10180 -782,1175 -3393,1175 -4959,653 -2089,-522 -3916,-2350 -4699,-4307 -1435,-3524 686,-9022 -1566,-11616 3263,0 6396,2088 7439,5090l0 0z"/>
    </g>
   </g>
  </g>
 </g>
</svg>
