<svg xmlns="http://www.w3.org/2000/svg" xmlns:xlink="http://www.w3.org/1999/xlink" xmlns:xodm="http://www.corel.com/coreldraw/odm/2003" xml:space="preserve" version="1.1" style="shape-rendering:geometricPrecision; text-rendering:geometricPrecision; image-rendering:optimizeQuality; fill-rule:evenodd; clip-rule:evenodd" viewBox="27730 9520 144539 80960">
 <defs>
  <style type="text/css">
   <![CDATA[
    .fil0 {fill:#0063A2}
    .fil2 {fill:#80BB37;fill-rule:nonzero}
    .fil3 {fill:#5B9835;fill-rule:nonzero}
    .fil1 {fill:#0063A2;fill-rule:nonzero}
    .fil5 {fill:url(#id0)}
    .fil4 {fill:url(#id1)}
   ]]>
  </style>
  <linearGradient id="id0" gradientUnits="userSpaceOnUse" x1="59460" y1="77944" x2="67602" y2="36452">
   <stop offset="0" style="stop-opacity:1; stop-color:#50265A"/>
   <stop offset="0.580392" style="stop-opacity:1; stop-color:#8D265C"/>
   <stop offset="1" style="stop-opacity:1; stop-color:#CA275E"/>
  </linearGradient>
  <linearGradient id="id1" gradientUnits="userSpaceOnUse" x1="79840" y1="72914" x2="85842" y2="35550">
   <stop offset="0" style="stop-opacity:1; stop-color:#512659"/>
   <stop offset="0.580392" style="stop-opacity:1; stop-color:#91275D"/>
   <stop offset="1" style="stop-opacity:1; stop-color:#D12961"/>
  </linearGradient>
 </defs>
 <g id="Layer_x0020_1">
  <metadata id="CorelCorpID_0Corel-Layer"/>
  <g id="_1428893293072">
   <g>
    <path class="fil0" d="M109449 61250c0,-14909 -19,-29922 -19,-44884 0,-1418 0,-6285 3140,-6285l24 -558 -13710 0 0 558c3163,0 3121,4867 3121,6285 0,14961 0,29975 0,44884 0,1422 24,6261 -3140,6261l0 582 13729 0 0 -582c-3164,0 -3145,-4839 -3145,-6261z"/>
    <path class="fil0" d="M163037 58002c-967,2863 -2280,5083 -3980,6650 -1699,1572 -3680,2366 -5938,2366 -2412,0 -4627,-883 -6650,-2666 -2022,-1765 -3506,-4130 -4454,-7101l0 -18398c990,-2924 2515,-5271 4543,-7078 2041,-1783 4215,-2689 6561,-2689 2258,0 4239,798 5938,2365 1699,1572 3013,3811 3980,6674 948,2882 1422,6196 1422,9959 0,3765 -474,7078 -1422,9917zm7083 -20890c-1422,-3140 -3422,-5595 -6008,-7336 -2581,-1765 -5572,-2628 -8969,-2628 -3055,0 -5811,887 -8265,2689 -2150,1572 -3722,3595 -4797,6026l0 -8133c0,23 -10541,23 -10541,23l0 583c2540,0 3009,3098 3098,5078l0 42557c2504,171 4987,506 7401,1055l0 -2624 -23 0 0 -14287c1141,2689 2886,4839 5252,6430 2341,1615 4970,2413 7875,2413 3398,0 6388,-863 8969,-2582 2586,-1722 4585,-4177 6008,-7317 1441,-3163 2149,-6820 2149,-10974 0,-4154 -709,-7810 -2149,-10973zm-35483 40942l0 6681c-108,1980 -624,5163 -3163,5163l0 582 13705 0 0 -582c-3163,0 -3140,-4863 -3140,-6280l0 -4707c-2183,-441 -4436,-709 -6755,-828 -215,-11 -431,-21 -646,-29z"/>
    <path class="fil0" d="M54892 63598c-880,854 -1967,1527 -3246,2012 -1294,465 -2619,698 -3964,698 -2407,0 -4378,-880 -5865,-2690 -1481,-1785 -2225,-4171 -2225,-7139l0 -29349 11461 0 -2849 -3282 -8612 0 0 -14328c0,25 -11381,0 -11381,0l0 647c3408,0 3362,5243 3362,6770l0 6911 -3843 0 1193 3282 2721 0 0 27959c0,3938 1203,7068 3594,9459 2407,2361 5582,3544 9526,3544 2017,0 3959,-349 5865,-1046 1921,-693 3498,-1643 4727,-2827l-465 -621z"/>
    <path class="fil0" d="M122045 23768c0,-3422 3722,-7124 7120,-7124 -3506,0 -7120,-3614 -7120,-7120 0,3483 -3811,7120 -7143,7120 3272,0 7143,3703 7143,7124zm3652 37482c0,-8920 -19,-17841 -19,-26736 0,-1417 24,-6285 3164,-6285l0 -558 -13710 0 0 558c3163,0 3121,4867 3121,6285 0,8881 0,17809 0,26736 0,1422 24,6261 -3140,6261l0 582 13729 0 0 -582c-3164,0 -3145,-4839 -3145,-6261z"/>
    <path class="fil1" d="M51345 16244l-1306 -2243 -964 0 0 2243 -1274 0 0 -6460 2584 0c597,0 1104,209 1523,628 419,419 628,923 628,1514 0,400 -114,770 -341,1112 -228,342 -529,598 -905,771l1431 2436 -1375 0zm-2270 -5270l0 1910 1310 0c240,0 446,-94 619,-281 172,-188 258,-414 258,-678 0,-265 -86,-489 -258,-674 -172,-184 -378,-277 -619,-277l-1310 0zm8246 5399c-720,0 -1311,-203 -1772,-609 -461,-406 -692,-950 -692,-1633l0 -4347 1264 0 0 4245c0,339 97,606 291,803 194,197 497,295 909,295 412,0 715,-98 909,-295 194,-197 291,-465 291,-803l0 -4245 1274 0 0 4347c0,683 -231,1228 -692,1633 -461,406 -1055,609 -1781,609zm9012 -3479c566,326 849,818 849,1476 0,548 -194,997 -581,1348 -388,351 -865,526 -1430,526l-2741 0 0 -6460 2547 0c554,0 1020,171 1398,512 378,342 567,777 567,1306 0,535 -203,966 -609,1292zm-1357 -1920l-1273 0 0 1421 1273 0c197,0 361,-68 494,-203 132,-135 198,-304 198,-507 0,-203 -65,-372 -194,-507 -129,-135 -295,-203 -498,-203zm194 4079c215,0 394,-72 535,-217 142,-144 212,-328 212,-549 0,-215 -70,-396 -212,-540 -141,-144 -320,-217 -535,-217l-1467 0 0 1523 1467 0zm7877 1191l-1306 -2243 -964 0 0 2243 -1274 0 0 -6460 2584 0c597,0 1104,209 1523,628 419,419 628,923 628,1514 0,400 -114,770 -341,1112 -228,342 -529,598 -905,771l1431 2436 -1375 0zm-2270 -5270l0 1910 1310 0c240,0 446,-94 619,-281 172,-188 258,-414 258,-678 0,-265 -86,-489 -258,-674 -172,-184 -378,-277 -619,-277l-1310 0zm5884 -1191l1274 0 0 6460 -1274 0 0 -6460zm7028 6589c-972,0 -1775,-323 -2409,-969 -634,-646 -950,-1443 -950,-2390 0,-954 317,-1752 950,-2395 634,-643 1437,-965 2409,-965 585,0 1124,137 1620,411 495,274 881,644 1158,1112l-1098 637c-160,-289 -387,-515 -683,-678 -295,-163 -628,-244 -997,-244 -628,0 -1133,197 -1518,591 -385,394 -577,905 -577,1532 0,621 192,1129 577,1522 385,394 891,591 1518,591 369,0 703,-81 1001,-245 298,-163 525,-386 678,-669l1098 637c-277,468 -661,839 -1154,1112 -492,274 -1034,411 -1624,411zm10102 -129l-1467 0 -2307 -3026 0 3026 -1274 0 0 -6460 1274 0 0 2847 2215 -2847 1467 0 -2390 3138 2483 3322z"/>
   </g>
   <g>
    <path class="fil2" d="M81009 71662c-1942,-4399 -6796,-3280 -11907,-138 2265,82 10507,1234 12618,5132 -799,-3471 -2869,-5233 -6150,-5816 2421,-160 3741,137 5413,2007 -19,-395 -11,-791 27,-1185zm1915 -1045c1210,-2694 4206,-2000 7361,-61 -1273,46 -5593,638 -7358,2551 -27,-181 -48,-360 -64,-536 646,-1393 1792,-2149 3418,-2438 -1545,-102 -2366,97 -3448,1352 12,-297 43,-586 91,-868z"/>
    <path class="fil3" d="M87436 65093c-4549,2100 -6142,5495 -4027,11090 3154,8345 15168,4718 21855,3265 16315,-3549 39231,-7141 52073,6171 -13260,-10648 -29820,-8591 -47050,-5310 -7394,1408 -22568,5920 -27053,-1751 -3611,-6175 -2072,-11363 4202,-13465z"/>
    <path class="fil3" d="M80829 25377l0 6318c-517,552 -1000,1151 -1447,1798l0 -9183 1447 1067zm-4462 -3289l0 17447c-612,1652 -1095,3356 -1446,5083l0 -23597 1446 1067zm2227 1642l0 11026c-527,921 -1008,1873 -1442,2849l0 -14937 1442 1062z"/>
    <path class="fil2" d="M69807 24794l0 8866c-256,-291 -519,-576 -791,-852l0 -7431 791 -583zm3644 -2689l0 17741 -4 -8c-228,-646 -491,-1275 -787,-1886l0 -15264 791 -582zm-1825 1346l0 12643c-248,-393 -510,-776 -786,-1149l0 -10913 786 -580z"/>
    <g>
     <path class="fil4" d="M96131 27736c-6476,8457 403,20598 -3643,30312 -1416,3240 -3481,4977 -6070,5628 -3563,972 -6679,-164 -8742,-2917 -2793,-4126 -3402,-15907 2266,-25577 3378,-5763 9713,-7771 16189,-7446z"/>
     <path class="fil5" d="M72170 40363c3886,8094 -3884,23636 9390,25254 -1941,2915 -8416,2915 -12303,1620 -5181,-1294 -9713,-5829 -11657,-10685 -3561,-8743 1701,-22381 -3886,-28816 8095,0 15866,5180 18455,12626l0 0z"/>
    </g>
   </g>
  </g>
 </g>
</svg>