<?xml version="1.0" encoding="UTF-8"?><svg id="a" xmlns="http://www.w3.org/2000/svg" viewBox="0 0 216 216"><defs><style>.b{fill:#00304d;}.c{fill:#895e41;}</style></defs><polygon class="c" points="124.42 44.83 87.45 56.05 87.45 68.48 127.74 56.2 124.42 44.83"/><polygon class="c" points="99.14 104.71 99.27 68.72 87.45 73.75 87.48 104.66 99.14 104.71"/><polygon class="c" points="127.63 104.71 115.41 69.4 105.96 76.23 115.67 104.71 127.63 104.71"/><path class="b" d="M191.5,119.85h-6.75l-10.84,14.19v-14.19h-5.23v28.04h5.23v-5.69l3.51-4.46,6.98,10.07h6.75l-10.49-14.19,10.84-13.77Zm-27.62,7.63c-1.37-4.85-5.8-8.13-11.83-8.13-8.17,0-13.66,5.84-13.66,14.54s5.46,14.38,13.58,14.38c5.53,0,10.42-2.71,12.36-7.59l-4.96-2.14c-.99,2.71-3.85,4.62-7.36,4.62-4.81,0-8.13-3.47-8.13-9.35s3.13-9.39,8.17-9.39c3.24,0,5.88,1.6,6.87,4.77l4.96-1.72Zm-29.95-7.63h-5.23v27.97h5.23v-27.97Zm-20.22,13.05h-5.53v-8.43h5.57c3.32,0,4.73,1.79,4.73,4.2s-1.37,4.24-4.77,4.24m5.38,3.7c3.13-1.26,4.88-4.08,4.88-7.94,0-5.65-3.47-8.81-10.22-8.81h-10.8v27.97h5.23v-10.34h5.65l4.46,10.34h5.88l-5.07-11.22Zm-29.91,6.79h-6.18v-7.55h6.18c2.4,0,4.12,1.49,4.12,3.82s-1.6,3.74-4.12,3.74m-.34-19.08c2.82,0,4.08,1.95,4.12,3.85,0,1.95-1.3,3.78-4.12,3.78h-5.84v-7.63h5.84Zm5.46,9.58c2.1-1.03,3.82-3.13,3.82-6.41,0-4.5-3.28-7.59-8.78-7.59h-11.48v27.93h11.52c5.42,0,9.04-2.63,9.04-7.33,0-3.43-1.91-5.53-4.12-6.6m-45.1,3.7c0,6.98,5.38,10.68,11.37,10.68s11.41-3.7,11.41-10.68v-17.74h-5.19v17.59c0,3.66-2.82,5.88-6.22,5.88s-6.14-1.91-6.14-5.88v-17.59h-5.23v17.74Zm-14.73-4.69h-5.53v-8.43h5.57c3.32,0,4.73,1.79,4.73,4.2s-1.37,4.24-4.77,4.24m5.38,3.7c3.13-1.26,4.88-4.08,4.88-7.94,0-5.65-3.47-8.81-10.22-8.81h-10.8v27.97h5.23v-10.34h5.65l4.46,10.34h5.88l-5.07-11.22Z"/><path class="b" d="M164.98,162.85c.42,.28,1.23,.5,1.98,.5,1.83,0,2.72-1.04,2.72-2.24s-.67-1.77-1.98-2.28c-1.07-.41-1.54-.77-1.54-1.5,0-.53,.4-1.16,1.46-1.16,.7,0,1.22,.23,1.47,.37l.28-.82c-.35-.2-.92-.38-1.72-.38-1.51,0-2.51,.9-2.51,2.11,0,1.09,.78,1.75,2.05,2.2,1.05,.4,1.46,.82,1.46,1.54,0,.78-.6,1.32-1.62,1.32-.69,0-1.35-.23-1.8-.51l-.25,.84Zm-9.7,.38v-3.32c0-1.29-.02-2.22-.08-3.2h.04c.39,.83,.91,1.72,1.45,2.58l2.47,3.94h1.01v-7.76h-.94v3.25c0,1.21,.02,2.15,.12,3.19h-.02c-.37-.78-.82-1.6-1.39-2.51l-2.49-3.93h-1.09v7.76h.94Zm-9.24-7.07c1.67,0,2.48,1.61,2.48,3.16,0,1.76-.9,3.23-2.49,3.23s-2.48-1.49-2.48-3.15,.83-3.24,2.49-3.24m.05-.82c-2.07,0-3.61,1.61-3.61,4.08s1.44,3.94,3.49,3.94,3.61-1.42,3.61-4.09c0-2.3-1.37-3.93-3.49-3.93m-9.35,7.89h1v-7.76h-1v7.76Zm-7.71,0h1.01v-6.91h2.37v-.85h-5.75v.85h2.36v6.91Zm-6.72-1.05c-.4,.2-1.03,.32-1.64,.32-1.89,0-2.98-1.22-2.98-3.12,0-2.04,1.21-3.2,3.03-3.2,.65,0,1.19,.14,1.57,.32l.24-.82c-.27-.14-.88-.35-1.84-.35-2.41,0-4.05,1.65-4.05,4.08s1.65,3.93,3.84,3.93c.94,0,1.68-.18,2.05-.37l-.21-.79Zm-16.14-6.72v4.57c0,2.41,1.2,3.32,2.79,3.32,1.68,0,2.94-.98,2.94-3.36v-4.53h-1.01v4.6c0,1.72-.74,2.48-1.89,2.48-1.04,0-1.81-.74-1.81-2.48v-4.6h-1.01Zm-8.64,.81c.16-.05,.51-.09,.99-.09,1.06,.01,1.79,.45,1.79,1.45,0,.89-.68,1.47-1.75,1.47h-1.03v-2.83Zm-1,6.96h1v-3.36h.94c.91,.03,1.32,.44,1.56,1.51,.22,.97,.39,1.64,.52,1.85h1.04c-.16-.3-.35-1.05-.6-2.13-.18-.81-.54-1.36-1.14-1.57v-.03c.82-.28,1.46-.96,1.46-1.98,0-.6-.22-1.13-.61-1.47-.48-.44-1.18-.63-2.25-.63-.69,0-1.42,.06-1.92,.16v7.66Zm-7.71,0h1.01v-6.91h2.37v-.85h-5.75v.85h2.36v6.91Zm-11-.38c.41,.28,1.23,.5,1.98,.5,1.83,0,2.72-1.04,2.72-2.24s-.67-1.77-1.98-2.28c-1.07-.41-1.54-.77-1.54-1.5,0-.53,.4-1.16,1.46-1.16,.7,0,1.22,.23,1.47,.37l.28-.82c-.35-.2-.92-.38-1.72-.38-1.51,0-2.51,.9-2.51,2.11,0,1.09,.78,1.75,2.05,2.2,1.05,.4,1.46,.82,1.46,1.54,0,.78-.6,1.32-1.62,1.32-.69,0-1.35-.23-1.8-.51l-.25,.84Zm-9.7,.38v-3.32c0-1.29-.02-2.22-.08-3.2h.03c.39,.83,.91,1.72,1.45,2.58l2.47,3.94h1.01v-7.76h-.94v3.25c0,1.21,.02,2.15,.12,3.19h-.02c-.37-.78-.82-1.6-1.39-2.51l-2.49-3.93h-1.09v7.76h.94Zm-9.24-7.07c1.67,0,2.48,1.61,2.48,3.16,0,1.76-.9,3.23-2.49,3.23s-2.48-1.49-2.48-3.15,.83-3.24,2.49-3.24m.05-.82c-2.07,0-3.61,1.61-3.61,4.08s1.44,3.94,3.49,3.94,3.61-1.42,3.61-4.09c0-2.3-1.37-3.93-3.49-3.93m-7.82,6.84c-.4,.2-1.03,.32-1.64,.32-1.89,0-2.98-1.22-2.98-3.12,0-2.04,1.21-3.2,3.03-3.2,.64,0,1.19,.14,1.57,.32l.24-.82c-.26-.14-.88-.35-1.84-.35-2.41,0-4.05,1.65-4.05,4.08s1.65,3.93,3.84,3.93c.94,0,1.68-.18,2.05-.37l-.21-.79Z"/></svg>