<?xml version="1.0" encoding="UTF-8"?>
<!DOCTYPE svg PUBLIC "-//W3C//DTD SVG 1.1//EN" "http://www.w3.org/Graphics/SVG/1.1/DTD/svg11.dtd">
<!-- Creator: CorelDRAW 2021.5 -->
<svg xmlns="http://www.w3.org/2000/svg" xml:space="preserve" width="0.799992in" height="0.733331in" version="1.1" style="shape-rendering:geometricPrecision; text-rendering:geometricPrecision; image-rendering:optimizeQuality; fill-rule:evenodd; clip-rule:evenodd"
viewBox="0 0 79999 73333"
 xmlns:xlink="http://www.w3.org/1999/xlink"
 xmlns:xodm="http://www.corel.com/coreldraw/odm/2003">
 <defs>
  <style type="text/css">
   <![CDATA[
    .fil0 {fill:#FEFEFE}
   ]]>
  </style>
 </defs>
 <g id="Layer_x0020_1">
  <metadata id="CorelCorpID_0Corel-Layer"/>
  <path class="fil0" d="M30573 19894l0 5859c311,-31 823,-220 1156,-330 2401,-691 17230,-5309 17696,-5356 0,-566 -1467,-4870 -1467,-5419 -1023,235 -2245,691 -3246,958l-11917 3628c-778,220 -1467,472 -2223,660zm24747 -10539c-59,117 -151,175 -275,175l-629 0 784 -1420 -890 -3265 711 0c62,0 109,16 140,47 31,31 52,68 63,111l433 1833c14,59 25,118 33,176 7,57 14,115 18,175 25,-59 51,-119 78,-178 26,-58 53,-117 80,-176l870 -1833c23,-46 56,-82 100,-111 43,-29 88,-44 134,-44l681 0 -2331 4510zm-5159 -980l612 -4977 1595 0c276,0 511,28 707,81 196,54 356,130 481,228 125,99 217,219 276,359 60,140 89,296 89,468 0,142 -18,278 -56,408 -37,129 -97,249 -178,359 -80,110 -182,208 -306,296 -124,88 -272,160 -444,218 282,71 492,185 629,346 138,159 206,362 206,607 0,230 -43,443 -127,638 -85,197 -207,367 -368,510 -160,143 -355,256 -585,337 -230,81 -492,122 -782,122l-1750 0zm1158 -2193l-182 1499 842 0c160,0 298,-22 413,-65 115,-44 210,-106 284,-184 74,-80 130,-174 165,-287 35,-111 52,-233 52,-367 0,-181 -57,-325 -172,-434 -115,-107 -302,-161 -564,-161l-839 0zm76 -619l660 0c307,0 544,-72 710,-216 166,-144 248,-366 248,-664 0,-208 -58,-361 -176,-456 -118,-95 -302,-142 -552,-142l-708 0 -182 1478zm-4733 2092c0,-16 0,-34 0,-56 0,-22 2,-54 6,-96 4,-43 9,-99 17,-169 8,-70 19,-159 32,-269l196 -1583 -333 0c-39,0 -70,-13 -94,-37 -24,-24 -36,-60 -36,-108 0,-2 1,-7 2,-14 1,-7 2,-23 5,-47 2,-24 7,-59 13,-107 6,-48 13,-116 22,-203l536 -93 282 -962c14,-46 38,-81 71,-107 33,-25 73,-38 121,-38l454 0 -138 1110 853 0 -72 605 -856 0 -189 1537c-11,94 -19,168 -25,223 -6,55 -10,97 -14,128 -3,31 -6,53 -7,65 -1,13 -2,22 -2,26 0,87 22,156 64,207 43,50 102,76 180,76 48,0 89,-7 124,-20 35,-13 64,-25 90,-39 25,-14 48,-27 67,-40 19,-13 38,-18 56,-18 25,0 46,7 61,19 15,13 28,31 39,56l182 415c-126,103 -266,181 -419,234 -154,53 -309,79 -464,79 -250,0 -447,-67 -593,-203 -145,-135 -222,-326 -229,-572zm-619 95c-117,130 -228,237 -335,324 -106,87 -215,157 -325,211 -110,53 -226,89 -347,111 -122,22 -255,33 -399,33 -204,0 -386,-35 -547,-106 -162,-70 -299,-168 -412,-297 -112,-128 -197,-283 -256,-464 -58,-181 -88,-383 -88,-605 0,-286 46,-560 137,-820 92,-260 220,-489 385,-687 165,-199 361,-357 588,-475 227,-118 475,-176 743,-176 233,0 433,41 597,125 163,82 309,206 438,372l-272 321c-21,20 -44,39 -70,56 -26,18 -56,26 -88,26 -39,0 -74,-13 -107,-36 -32,-24 -69,-50 -111,-77 -43,-28 -96,-54 -159,-78 -63,-24 -145,-35 -246,-35 -131,0 -256,35 -375,107 -119,71 -223,172 -314,301 -91,131 -163,288 -217,471 -54,183 -81,385 -81,607 0,259 57,459 172,599 115,141 269,211 464,211 131,0 239,-19 326,-56 86,-38 158,-79 217,-124 60,-45 114,-86 161,-124 47,-38 98,-57 152,-57 28,0 55,8 81,23 26,15 49,34 70,57l217 261zm-2977 -2081c0,158 -31,302 -94,434 -63,131 -176,249 -339,352 -163,103 -383,192 -662,267 -278,75 -633,134 -1064,178l0 44c0,550 235,825 704,825 101,0 191,-11 269,-30 78,-19 146,-43 205,-70 58,-27 111,-58 158,-93 47,-34 91,-65 130,-93 40,-28 80,-52 118,-71 39,-19 81,-29 128,-29 27,0 55,7 82,20 28,13 50,31 69,56l216 263c-121,122 -241,227 -357,317 -117,90 -236,163 -357,220 -122,58 -250,101 -385,128 -135,28 -283,41 -444,41 -206,0 -393,-35 -560,-106 -167,-70 -311,-168 -430,-296 -119,-127 -211,-280 -276,-460 -65,-180 -98,-382 -98,-604 0,-185 21,-367 61,-547 40,-179 98,-348 173,-509 76,-160 168,-308 278,-443 110,-137 235,-253 374,-352 139,-99 291,-176 457,-230 166,-55 344,-83 534,-83 186,0 348,26 487,79 139,53 254,122 347,206 93,85 161,178 207,282 46,103 69,204 69,304zm-1158 -278c-115,0 -221,24 -320,71 -99,48 -187,116 -266,202 -79,85 -148,189 -206,308 -58,120 -105,251 -139,393 284,-39 513,-83 686,-128 173,-47 307,-99 402,-155 95,-55 158,-115 189,-178 31,-63 46,-131 46,-203 0,-34 -7,-70 -22,-107 -15,-38 -38,-71 -69,-100 -31,-28 -71,-54 -120,-73 -49,-20 -110,-30 -181,-30zm-2221 -550l-447 3653c-18,154 -56,298 -114,433 -59,135 -137,254 -234,356 -97,102 -215,182 -354,241 -139,58 -299,88 -480,88 -89,0 -166,-6 -231,-16 -65,-10 -131,-26 -195,-49l83 -459c14,-47 35,-76 65,-88 30,-13 84,-20 161,-20 78,0 144,-9 198,-26 54,-17 98,-44 135,-82 37,-38 65,-87 86,-149 20,-62 36,-139 48,-231l447 -3650 831 0zm186 -1030c0,74 -15,143 -46,207 -31,64 -71,120 -120,170 -49,48 -107,86 -171,115 -64,29 -131,44 -199,44 -67,0 -131,-15 -194,-44 -63,-29 -119,-66 -167,-115 -48,-49 -86,-106 -115,-170 -29,-64 -44,-133 -44,-207 0,-73 15,-143 45,-209 30,-67 69,-125 117,-174 48,-50 104,-88 167,-117 63,-29 127,-44 194,-44 69,0 135,15 199,44 64,29 121,66 171,115 49,49 88,107 118,173 30,67 44,137 44,213zm-3626 3969c142,0 270,-41 385,-122 115,-81 213,-191 294,-328 82,-136 144,-296 187,-477 43,-182 65,-372 65,-573 0,-286 -48,-498 -146,-633 -97,-135 -245,-204 -442,-204 -142,0 -270,41 -385,121 -115,80 -212,189 -292,327 -80,139 -142,298 -186,479 -44,182 -65,373 -65,576 0,287 48,497 144,632 96,134 243,202 440,202zm-76 650c-195,0 -375,-33 -541,-98 -166,-65 -309,-160 -430,-287 -120,-126 -215,-281 -284,-465 -69,-183 -103,-393 -103,-629 0,-305 49,-590 146,-854 98,-264 230,-492 399,-684 168,-194 364,-345 589,-455 225,-110 464,-165 719,-165 195,0 376,33 542,98 166,65 309,160 431,286 122,126 217,282 285,465 69,183 103,393 103,629 0,302 -49,585 -148,848 -98,263 -231,492 -400,685 -168,193 -365,346 -590,457 -225,111 -464,167 -719,167zm-3689 -55l430 -3533 430 0c83,0 150,18 203,56 53,36 79,96 79,178 0,0 0,4 0,12 0,8 -1,33 -4,74 -2,41 -5,107 -7,196 -2,89 -7,215 -14,375 144,-291 303,-516 475,-674 172,-159 350,-238 536,-238 94,0 189,22 285,64l-155 851c-114,-74 -223,-111 -326,-111 -204,0 -383,98 -536,293 -154,195 -280,500 -378,915l-186 1543 -832 0zm-2781 -1760l-217 1760 -887 0 609 -4970 1512 0c282,0 525,33 728,101 203,67 369,163 500,284 131,122 228,265 291,431 63,166 94,349 94,548 0,266 -41,511 -125,737 -84,226 -210,420 -377,584 -167,164 -376,293 -627,385 -251,93 -544,140 -879,140l-622 0zm312 -2523l-227 1829 626 0c174,0 326,-27 454,-79 128,-53 235,-128 320,-222 84,-95 147,-207 187,-338 41,-130 60,-275 60,-433 0,-112 -16,-215 -48,-309 -32,-94 -81,-174 -148,-240 -66,-65 -149,-116 -249,-152 -99,-37 -219,-55 -356,-55l-619 0zm-3166 4279l-691 0c-78,0 -140,-18 -185,-55 -46,-37 -74,-86 -86,-148l-206 -1038 -1852 0 -461 1038c-25,52 -66,99 -124,141 -57,41 -121,62 -193,62l-701 0 2403 -4974 911 0 1186 4974zm-2743 -1873l1447 0 -337 -1676c-19,-81 -37,-168 -56,-258 -18,-91 -35,-191 -52,-305 -43,114 -86,218 -128,314 -43,95 -83,180 -119,252l-756 1673zm29523 63566l511 0 0 -3676 -511 0 0 3676zm-4713 -3236l1134 0 0 3236 511 0 0 -3236 1134 0c0,-675 -222,-439 -2779,-439l0 439zm-18786 0l1134 0 0 3236 533 0 0 -3236c1022,0 933,94 1134,-172 -67,-189 -22,-267 -267,-267l-2534 0 0 439zm-19209 1398c0,848 600,1838 1400,1838l1001 0c333,-16 378,-110 378,-519 -978,79 -2178,487 -2178,-1492 0,-393 178,-738 378,-943 823,-801 1801,110 1801,-456 0,-691 -2779,-503 -2779,1570zm15274 -1131c0,1822 1578,785 1578,2089 0,833 -1534,267 -1578,267 -44,204 -67,204 -89,440l533 173 756 0c467,-94 912,-377 912,-1131 0,-707 -712,-848 -1245,-1131 -622,-330 -356,-1052 267,-1052 222,0 578,126 801,173 22,-235 44,-235 89,-440 -467,-110 -845,-361 -1557,16 -200,110 -467,361 -467,597zm40707 251c0,487 378,770 733,943 356,172 934,298 934,817 0,880 -1401,408 -1667,345 -22,236 -44,236 -89,440l600 173 422 0c623,-31 1245,-283 1245,-958 0,-1351 -1645,-1021 -1645,-1759 0,-974 1245,-456 1378,-424 67,-204 89,-204 89,-440 -311,-79 -400,-173 -778,-173 -645,0 -1223,393 -1223,1037zm-21321 2718l867 0c600,15 533,-47 533,-519 -933,79 -2178,503 -2178,-1492 0,-1052 1134,-1602 2089,-1131 89,-157 111,-283 178,-440 -267,-63 -533,-173 -867,-173 -2757,0 -2290,3754 -622,3754zm-6269 -3409c0,1100 -222,3409 1045,3409l578 0c578,-47 1156,-299 1156,-1571l0 -2105 -511 0c0,801 156,2748 -378,3126 -333,267 -912,204 -1134,-126 -244,-377 -156,-1807 -156,-2387 22,-472 67,-613 -356,-613 -200,0 -244,63 -244,267zm-3246 1398l-689 0c0,-472 -111,-1304 178,-1304 1623,0 1022,1304 511,1304zm-511 -1665l-712 0 0 3676 534 0 0 -1571c1067,0 978,189 1311,1571l511 0c-22,-314 -133,-660 -222,-1006 -156,-628 -200,-424 -467,-833 778,-204 823,-1319 111,-1696 -445,-235 -801,-141 -1067,-141zm21298 1837c0,-346 133,-754 267,-958 534,-864 2001,-738 2001,1053 0,1791 -2268,1869 -2268,-94zm-511 -172c0,1806 756,2011 2001,2011 1734,0 1867,-3754 -267,-3754 -978,0 -1734,770 -1734,1744zm-40196 345c0,-754 178,-1649 1156,-1649 1690,0 1289,3597 -422,2843 -422,-172 -734,-612 -734,-1194zm711 1665l489 0c467,0 911,-63 1245,-613 1267,-2010 -934,-4194 -2468,-2654 -1178,1194 -333,3267 734,3267zm4269 0l445 0 0 -2891 1756 2891 600 0 0 -3676 -511 0 0 2717 -245 -298c-311,-503 -1356,-2419 -1689,-2419l-356 0 0 3676zm40707 0l534 0 0 -2796 1334 2152c311,518 378,628 622,644l311 0 0 -3676 -534 0 0 1932c0,487 89,518 89,958l-1578 -2607c-200,-314 0,-283 -778,-283l0 3676zm-11961 -7163l2445 0 0 -13210 -2445 0 0 13210zm10560 173c1689,0 2779,-204 4091,-1068 733,-471 1823,-1586 2023,-2513 -734,-393 -1623,-659 -2357,-1052 -489,2089 -4313,3126 -6136,1068 -1667,-1900 -1512,-6707 1756,-7476 1957,-456 4002,628 4113,2120 712,-157 1868,-675 2379,-785 -22,-974 -1156,-2278 -1756,-2702 -1845,-1320 -4869,-1540 -6781,-503 -3180,1713 -4024,5545 -2957,8828 778,2309 2913,4084 5625,4084zm-47777 -13116l0 8137c0,2922 2424,4979 4980,4979 1667,0 3091,-236 4313,-1461 933,-958 1467,-1995 1467,-3519l0 -8137c0,-455 -1000,-267 -2290,-267 -333,0 -267,283 -267,613l22 7869c-22,2576 -3735,3424 -5225,1461 -578,-785 -467,-1822 -467,-3126l0 -6110c22,-879 267,-707 -2268,-707 -200,0 -267,63 -267,267zm55914 12943l2445 0c0,-3298 -311,-2183 1179,-4147 200,-251 311,-298 378,-581 267,189 1001,1319 1267,1712l822 1194c400,613 912,1178 1245,1822l3135 0c-89,-361 -333,-596 -533,-864 -222,-298 -400,-550 -622,-864 -422,-565 -823,-1068 -1245,-1649 -333,-502 -2334,-3094 -2401,-3361l4846 -6157c133,-189 89,94 133,-314l-2713 0c-622,16 -711,377 -1445,1351 -289,393 -511,660 -800,1037l-2379 3126c-222,314 -578,848 -867,1052l0 -6566 -2445 0 0 13210zm-62539 -7084l-2802 0 0 -3848 2980 0c2334,0 2601,3848 -178,3848zm-5247 7084l2445 0 0 -4900c2601,0 2557,-236 2846,487l1867 4414 2801 0c-67,-314 -422,-1006 -578,-1351l-1778 -3989c2913,-676 3424,-6990 -889,-7681 -1845,-283 -4758,-189 -6714,-189l0 13210zm38439 -33567l4535 13367 5669 0c-133,-267 -222,-660 -333,-958l-2868 -8246c-67,-235 -111,-330 -178,-519 -67,-220 -89,-314 -156,-534l-1445 -4147c-156,-424 -645,-1633 -689,-2105 -333,16 -378,141 -622,330l-3913 2811zm3846 26483l-2712 0 0 -3848 2779 0c1201,0 1934,738 1934,1932 0,1193 -800,1916 -2001,1916zm-5247 -5859l0 12943 2268 0c200,0 267,-63 267,-267l0 -4633c2934,0 2423,-346 3023,1083l1601 3817 2802 0c-111,-487 -400,-895 -578,-1351l-1178 -2670c-178,-393 -512,-911 -600,-1319 645,-157 1223,-707 1578,-1210 1045,-1508 1067,-4508 -911,-5827 -1712,-1147 -5558,-833 -8004,-833 -200,0 -267,63 -267,267zm-7248 -21582l0 14326 5491 0c0,-5624 89,-11152 89,-16870 -400,94 -1023,408 -1423,581l-2090 895c-267,110 -467,173 -733,299 -289,141 -445,220 -734,330 -245,94 -600,142 -600,440zm956 32342l-2979 0 0 -3409c1379,0 3491,-236 4224,408 845,770 778,3000 -1245,3000zm-89 -5341l-2890 0 0 -3487 2890 0c934,0 1668,880 1668,1476 0,1084 -400,2011 -1668,2011zm-5335 7524l5069 0c1467,0 3357,-424 4046,-1633 867,-1508 667,-3298 -711,-4508 -222,-219 -445,-267 -622,-502 1134,-267 2134,-2325 1534,-4084 -467,-1429 -1756,-2387 -3624,-2387l-5691 0 0 13116z"/>
 </g>
</svg>
