<?xml version="1.0" encoding="UTF-8"?>
<!DOCTYPE svg PUBLIC "-//W3C//DTD SVG 1.1//EN" "http://www.w3.org/Graphics/SVG/1.1/DTD/svg11.dtd">
<!-- Creator: CorelDRAW 2021.5 -->
<svg xmlns="http://www.w3.org/2000/svg" xml:space="preserve" width="0.817661in" height="0.223031in" version="1.1" style="shape-rendering:geometricPrecision; text-rendering:geometricPrecision; image-rendering:optimizeQuality; fill-rule:evenodd; clip-rule:evenodd"
viewBox="0 0 81766 22303"
 xmlns:xlink="http://www.w3.org/1999/xlink"
 xmlns:xodm="http://www.corel.com/coreldraw/odm/2003">
 <defs>
  <style type="text/css">
   <![CDATA[
    .fil0 {fill:#FEFEFE}
   ]]>
  </style>
 </defs>
 <g id="Layer_x0020_1">
  <metadata id="CorelCorpID_0Corel-Layer"/>
  <g id="_2006168214560">
   <path class="fil0" d="M31099 2484c-149,0 -267,33 -354,99 -87,66 -130,157 -130,273 0,113 54,207 163,283 109,76 261,151 457,225 149,52 276,113 382,180 106,67 194,159 263,275 69,116 104,262 104,438 0,160 -40,305 -120,434 -80,130 -196,233 -347,310 -152,77 -331,116 -537,116 -182,0 -361,-28 -537,-85 -176,-56 -333,-134 -471,-233l215 -376c102,77 222,141 362,192 139,51 268,76 387,76 146,0 274,-35 384,-106 110,-70 165,-178 165,-324 0,-116 -46,-212 -139,-289 -92,-77 -221,-148 -386,-211 -171,-63 -313,-126 -426,-188 -113,-62 -210,-149 -291,-260 -81,-112 -122,-252 -122,-420 0,-245 83,-443 250,-593 167,-150 387,-231 659,-242 198,0 373,22 523,68 150,45 290,109 419,192l-182 368c-259,-135 -489,-203 -690,-203z"/>
   <polygon class="fil0" points="33700,2567 33700,3336 34154,3336 34154,3700 33700,3700 33700,5085 33237,5085 33237,3700 32935,3700 32935,3336 33237,3336 33237,2567 "/>
   <path class="fil0" d="M36292 3257l-20 463c-127,-11 -240,12 -339,68 -99,57 -176,134 -231,232 -55,98 -83,202 -83,312l0 753 -463 0 0 -1749 417 0 33 405 686 -484z"/>
   <path class="fil0" d="M39144 3336l0 1749 -463 0 0 -252c-63,74 -149,143 -256,205 -107,62 -233,93 -376,93 -168,0 -319,-35 -451,-106 -132,-70 -237,-174 -314,-312 -77,-138 -116,-305 -116,-500 0,-190 40,-357 120,-502 80,-144 187,-256 320,-335 134,-78 280,-118 441,-118 284,0 496,105 637,314l33 -235 426 0zm-463 1042l0 -380c-33,-107 -97,-194 -192,-261 -95,-66 -205,-99 -329,-99 -146,0 -270,52 -372,155 -102,104 -153,235 -153,395 0,105 25,200 74,285 50,85 116,153 199,203 83,50 172,74 269,74 127,0 234,-32 320,-97 87,-65 148,-156 184,-275z"/>
   <polygon class="fil0" points="40964,2567 40964,3336 41419,3336 41419,3700 40964,3700 40964,5085 40501,5085 40501,3700 40199,3700 40199,3336 40501,3336 40501,2567 "/>
   <path class="fil0" d="M43655 4597l211 343c-94,58 -194,104 -302,139 -108,34 -211,52 -310,52 -201,0 -376,-40 -523,-120 -147,-80 -260,-191 -339,-331 -79,-140 -118,-302 -118,-483 0,-171 44,-328 132,-471 88,-143 208,-257 360,-341 152,-84 317,-126 496,-126 237,0 434,70 591,209 157,139 262,336 314,589l-1348 455c47,72 109,127 186,165 77,39 163,58 256,58 130,0 260,-45 393,-136zm-926 -426c0,30 2,54 4,70l918 -326c-36,-85 -88,-156 -157,-211 -69,-55 -158,-83 -269,-83 -146,0 -265,51 -357,153 -92,102 -139,234 -139,397z"/>
   <path class="fil0" d="M47062 3336l0 1757c0,163 -43,309 -130,440 -87,131 -208,234 -364,310 -156,76 -331,113 -527,113 -190,0 -349,-30 -476,-89 -127,-59 -255,-146 -384,-259l273 -318c88,83 178,147 269,192 91,46 194,68 310,68 171,0 307,-42 409,-126 102,-84 154,-198 157,-341l0 -294c-61,102 -151,184 -271,246 -120,62 -260,93 -420,93 -160,0 -307,-41 -443,-122 -135,-81 -243,-193 -322,-335 -80,-142 -120,-300 -120,-474 0,-176 42,-337 126,-481 84,-145 196,-258 335,-339 139,-81 287,-122 444,-122 146,0 279,26 399,76 120,51 210,118 271,201l37 -198 426 0zm-463 1046l0 -380c-39,-110 -108,-198 -207,-265 -99,-66 -215,-99 -347,-99 -157,0 -289,52 -394,155 -106,104 -159,235 -159,395 0,105 25,200 74,285 50,85 117,153 201,203 84,50 177,74 279,74 135,0 252,-33 350,-99 98,-66 166,-156 205,-269z"/>
   <path class="fil0" d="M48707 3336l0 1749 -463 0 0 -1749 463 0zm-215 -872c66,0 126,24 180,72 54,48 81,107 81,176 0,69 -27,127 -81,174 -54,47 -114,70 -180,70 -69,0 -131,-23 -186,-70 -55,-47 -83,-105 -83,-174 0,-69 28,-128 83,-176 55,-48 117,-72 186,-72z"/>
   <path class="fil0" d="M50717 5130c-193,0 -363,-37 -511,-111 -147,-74 -261,-181 -341,-320 -80,-139 -120,-303 -120,-490 0,-185 43,-346 128,-486 85,-139 199,-246 341,-320 142,-74 294,-112 457,-112 276,0 503,74 682,223l-231 302c-52,-41 -114,-76 -184,-106 -70,-29 -145,-43 -225,-43 -141,0 -260,52 -358,155 -98,104 -147,232 -147,387 0,155 52,283 155,387 104,104 235,155 395,155 138,0 254,-39 347,-116l231 289c-77,63 -171,114 -283,151 -111,37 -224,56 -337,56z"/>
   <path class="fil0" d="M56265 3042c0,174 -34,335 -103,486 -69,150 -180,273 -333,368 -153,95 -349,143 -589,143l-434 0 0 1046 -484 0 0 -3010 852 0c342,0 609,85 802,256 193,171 289,408 289,711zm-480 8c0,-127 -41,-244 -122,-352 -81,-107 -219,-161 -411,-161l-446 0 0 1038 434 0 546 -525z"/>
   <path class="fil0" d="M59131 3336l0 1749 -463 0 0 -252c-63,74 -149,143 -256,205 -107,62 -233,93 -376,93 -168,0 -319,-35 -451,-106 -132,-70 -237,-174 -314,-312 -77,-138 -116,-305 -116,-500 0,-190 40,-357 120,-502 80,-144 187,-256 320,-335 134,-78 281,-118 441,-118 284,0 496,105 637,314l33 -235 426 0zm-463 1042l0 -380c-33,-107 -97,-194 -192,-261 -95,-66 -205,-99 -329,-99 -146,0 -270,52 -372,155 -102,104 -153,235 -153,395 0,105 25,200 74,285 50,85 116,153 198,203 83,50 172,74 269,74 127,0 234,-32 320,-97 87,-65 148,-156 184,-275z"/>
   <path class="fil0" d="M61454 3257l-20 463c-127,-11 -240,12 -339,68 -99,57 -176,134 -231,232 -55,98 -83,202 -83,312l0 753 -463 0 0 -1749 417 0 33 405 686 -484z"/>
   <polygon class="fil0" points="63108,2567 63108,3336 63563,3336 63563,3700 63108,3700 63108,5085 62645,5085 62645,3700 62343,3700 62343,3336 62645,3336 62645,2567 "/>
   <path class="fil0" d="M66279 3786l0 1298 -463 0 0 -1133c-6,-91 -33,-163 -81,-215 -48,-52 -121,-80 -217,-83 -144,0 -261,61 -354,184 -93,123 -139,279 -139,469l0 778 -463 0 0 -1749 417 0 33 310c63,-121 155,-216 275,-283 120,-68 258,-101 415,-101 163,0 298,49 407,146 109,98 165,224 168,378z"/>
   <path class="fil0" d="M68698 4597l211 343c-94,58 -194,104 -302,139 -107,34 -211,52 -310,52 -201,0 -375,-40 -523,-120 -148,-80 -261,-191 -339,-331 -79,-140 -118,-302 -118,-483 0,-171 44,-328 132,-471 88,-143 208,-257 359,-341 152,-84 317,-126 496,-126 237,0 434,70 591,209 157,139 262,336 314,589l-1348 455c47,72 109,127 186,165 77,39 163,58 257,58 129,0 260,-45 393,-136zm-926 -426c0,30 1,54 4,70l918 -326c-36,-85 -88,-156 -157,-211 -69,-55 -159,-83 -269,-83 -146,0 -265,51 -357,153 -93,102 -139,234 -139,397z"/>
   <path class="fil0" d="M71348 3257l-20 463c-127,-11 -240,12 -339,68 -99,57 -176,134 -231,232 -55,98 -83,202 -83,312l0 753 -463 0 0 -1749 417 0 33 405 686 -484z"/>
   <path class="fil0" d="M72216 4845l194 -261c146,143 295,215 447,215 83,0 151,-16 205,-48 54,-31 80,-79 80,-143 0,-66 -28,-116 -83,-149 -55,-33 -117,-60 -184,-81 -68,-20 -111,-33 -130,-39 -152,-47 -265,-115 -339,-204 -74,-90 -112,-195 -112,-317 0,-96 24,-187 72,-271 48,-84 121,-152 219,-205 98,-52 217,-78 357,-78 132,0 247,15 345,46 98,30 189,78 275,144l-178 277c-50,-47 -109,-84 -180,-112 -70,-28 -134,-41 -192,-41 -72,0 -131,17 -178,50 -47,33 -70,76 -70,128 -3,63 20,111 70,143 50,32 130,65 240,101 47,14 77,24 91,29 138,44 245,106 322,184 77,79 116,181 116,308 0,170 -61,313 -184,428 -122,115 -298,172 -527,172 -135,0 -263,-24 -382,-72 -120,-48 -219,-116 -296,-204z"/>
   <g>
    <polygon class="fil0" points="1706,11848 1639,11848 1639,20747 10554,20747 10554,11767 1706,11767 "/>
    <path class="fil0" d="M12510 12783l7136 0 0 7028 -7136 0 0 -7028zm-845 -935l-89 0 0 8899 8937 0 0 -81 67 0 0 -8818 -67 0 0 -81 -8848 0 0 81z"/>
    <path class="fil0" d="M2484 2713l7047 0 0 7028 -7047 0 0 -7028zm-934 -935l0 8899 8937 0 0 -8899 -8937 0z"/>
    <path class="fil0" d="M12510 2713l7136 0 0 7028 -7136 0 0 -7028zm-934 7963l9004 0 0 -8818 -67 0 0 -81 -8937 0 0 8899z"/>
    <path class="fil0" d="M31251 11456l-89 0 0 156 -67 0 0 81 -89 0 0 75 -67 0 0 81 -89 0 0 75 -156 0 0 81 -311 0 0 75 -311 0 0 -75 -311 0 0 -81 -156 0 0 -75 -89 0 0 -81 -67 0 0 -75 -89 0 0 -156 -67 0 0 -156 -89 0 0 -780 89 0 0 -156 67 0 0 -156 89 0 0 -81 67 0 0 -80 89 0 0 -76 156 0 0 -80 222 0 0 -76 489 0 0 76 222 0 0 80 156 0 0 76 156 0 0 161 89 0 0 76 67 0 0 156 89 0 0 312 67 0 0 237 -67 0 0 387zm-1734 -2807l-311 0 0 75 -156 0 0 81 -156 0 0 75 -67 0 0 81 -178 0 0 75 -67 0 0 81 -89 0 0 75 -67 0 0 81 -89 0 0 75 -67 0 0 156 -89 0 0 81 -67 0 0 156 -89 0 0 156 -67 0 0 156 -89 0 0 312 -67 0 0 468 -89 0 0 312 89 0 0 468 67 0 0 237 89 0 0 231 67 0 0 156 89 0 0 161 67 0 0 75 89 0 0 81 67 0 0 156 89 0 0 75 67 0 0 81 89 0 0 75 156 0 0 81 89 0 0 75 156 0 0 81 67 0 0 76 244 0 0 80 222 0 0 76 867 0 0 -76 311 0 0 -80 156 0 0 -76 156 0 0 -81 89 0 0 -75 156 0 0 -81 67 0 0 2189 1334 0 0 -81 89 0 0 -6323 -89 0 0 -75 -1334 0 0 387 -67 0 0 -75 -89 0 0 -81 -156 0 0 -75 -67 0 0 -81 -244 0 0 -75 -222 0 0 -81 -956 0 0 81z"/>
    <path class="fil0" d="M42211 11456l-67 0 0 156 -89 0 0 81 -67 0 0 75 -89 0 0 81 -67 0 0 75 -156 0 0 81 -333 0 0 75 -311 0 0 -75 -222 0 0 -81 -156 0 0 -75 -156 0 0 -81 -89 0 0 -75 -67 0 0 -156 -89 0 0 -237 -67 0 0 -624 67 0 0 -231 89 0 0 -156 67 0 0 -81 89 0 0 -80 67 0 0 -76 156 0 0 -80 244 0 0 -76 533 0 0 76 244 0 0 80 89 0 0 76 156 0 0 80 67 0 0 156 89 0 0 156 67 0 0 237 89 0 0 468 -89 0 0 231zm-1712 -2807l-244 0 0 75 -222 0 0 81 -178 0 0 75 -67 0 0 81 -89 0 0 75 -156 0 0 81 -67 0 0 75 -89 0 0 81 -67 0 0 156 -89 0 0 75 -67 0 0 81 -89 0 0 156 -67 0 0 156 -89 0 0 231 -67 0 0 237 -89 0 0 1247 89 0 0 237 67 0 0 231 89 0 0 156 67 0 0 81 89 0 0 156 67 0 0 81 89 0 0 75 67 0 0 156 156 0 0 81 89 0 0 75 67 0 0 81 89 0 0 75 156 0 0 81 156 0 0 76 156 0 0 80 311 0 0 76 867 0 0 -76 244 0 0 -80 222 0 0 -76 89 0 0 -81 156 0 0 -75 67 0 0 -81 89 0 0 312 1401 0 0 -4528 -67 0 0 -75 -1334 0 0 387 -89 0 0 -75 -67 0 0 -81 -156 0 0 -75 -89 0 0 -81 -156 0 0 -75 -311 0 0 -81 -934 0 0 81z"/>
    <path class="fil0" d="M49192 10289l67 0 0 -161 89 0 0 -76 67 0 0 -80 178 0 0 -76 222 0 0 -81 556 0 0 81 222 0 0 76 89 0 0 80 156 0 0 156 67 0 0 81 89 0 0 156 -1801 0 0 -156zm311 -1640l-244 0 0 75 -222 0 0 81 -156 0 0 75 -156 0 0 81 -89 0 0 75 -67 0 0 81 -156 0 0 75 -89 0 0 81 -67 0 0 156 -89 0 0 75 -67 0 0 81 -89 0 0 156 -89 0 0 156 -67 0 0 156 -89 0 0 237 -67 0 0 387 -89 0 0 624 89 0 0 393 67 0 0 231 89 0 0 156 67 0 0 156 89 0 0 161 89 0 0 75 67 0 0 81 89 0 0 75 67 0 0 81 89 0 0 75 67 0 0 81 89 0 0 75 67 0 0 81 156 0 0 75 156 0 0 81 156 0 0 76 244 0 0 80 311 0 0 76 1089 0 0 -76 311 0 0 -80 245 0 0 -76 156 0 0 -81 156 0 0 -75 89 0 0 -81 67 0 0 -75 89 0 0 -81 67 0 0 -75 89 0 0 -81 67 0 0 -75 89 0 0 -81 67 0 0 -75 -156 0 0 -81 -156 0 0 -81 -67 0 0 -75 -156 0 0 -81 -156 0 0 -75 -89 0 0 -81 -156 0 0 -75 -156 0 0 -81 -89 0 0 81 -67 0 0 75 -156 0 0 81 -156 0 0 75 -400 0 0 81 -156 0 0 -81 -467 0 0 -75 -156 0 0 -81 -89 0 0 -75 -67 0 0 -81 -89 0 0 -75 -67 0 0 -156 3202 0 0 -237 89 0 0 -624 -89 0 0 -387 -67 0 0 -237 -89 0 0 -237 -67 0 0 -75 -89 0 0 -156 -67 0 0 -81 -89 0 0 -156 -67 0 0 -75 -89 0 0 -81 -67 0 0 -75 -89 0 0 -81 -156 0 0 -75 -67 0 0 -81 -156 0 0 -75 -178 0 0 -81 -156 0 0 -75 -311 0 0 -81 -1089 0 0 81z"/>
    <path class="fil0" d="M68533 10364l89 0 0 -156 67 0 0 -80 89 0 0 -76 89 0 0 -80 67 0 0 -76 244 0 0 -81 533 0 0 81 244 0 0 76 156 0 0 80 67 0 0 76 89 0 0 161 67 0 0 156 -1801 0 0 -80zm400 -1715l-311 0 0 75 -156 0 0 81 -244 0 0 75 -67 0 0 81 -156 0 0 75 -89 0 0 81 -67 0 0 75 -89 0 0 81 -67 0 0 75 -89 0 0 81 -67 0 0 75 -89 0 0 156 -67 0 0 81 -89 0 0 156 -67 0 0 231 -89 0 0 237 -89 0 0 1247 89 0 0 237 89 0 0 231 67 0 0 156 89 0 0 81 67 0 0 156 89 0 0 81 67 0 0 75 89 0 0 81 67 0 0 75 89 0 0 81 67 0 0 75 156 0 0 81 89 0 0 75 156 0 0 81 156 0 0 76 222 0 0 80 400 0 0 76 1022 0 0 -76 311 0 0 -80 244 0 0 -76 156 0 0 -81 156 0 0 -75 67 0 0 -81 156 0 0 -75 89 0 0 -81 67 0 0 -75 89 0 0 -81 67 0 0 -156 89 0 0 -75 -89 0 0 -81 -156 0 0 -81 -156 0 0 -75 -156 0 0 -81 -67 0 0 -75 -156 0 0 -81 -156 0 0 -75 -156 0 0 -81 -89 0 0 81 -89 0 0 75 -67 0 0 81 -156 0 0 75 -400 0 0 81 -222 0 0 -81 -400 0 0 -75 -156 0 0 -81 -156 0 0 -75 -89 0 0 -81 -67 0 0 -156 -89 0 0 -75 3224 0 0 -81 67 0 0 -935 -67 0 0 -312 -89 0 0 -236 -67 0 0 -156 -89 0 0 -156 -67 0 0 -75 -89 0 0 -156 -67 0 0 -81 -89 0 0 -75 -67 0 0 -81 -89 0 0 -75 -67 0 0 -81 -89 0 0 -75 -156 0 0 -81 -67 0 0 -75 -156 0 0 -81 -244 0 0 -75 -244 0 0 -81 -1089 0 0 81z"/>
    <path class="fil0" d="M60864 10364l89 0 0 -156 67 0 0 -80 89 0 0 -76 67 0 0 -80 156 0 0 -76 244 0 0 -81 533 0 0 81 156 0 0 76 178 0 0 80 67 0 0 76 89 0 0 80 67 0 0 156 89 0 0 80 -1890 0 0 -80zm400 -1715l-244 0 0 75 -222 0 0 81 -178 0 0 75 -156 0 0 81 -67 0 0 75 -156 0 0 81 -89 0 0 75 -67 0 0 81 -89 0 0 75 -67 0 0 81 -89 0 0 156 -67 0 0 75 -89 0 0 156 -67 0 0 156 -89 0 0 236 -67 0 0 312 -89 0 0 935 89 0 0 312 67 0 0 237 89 0 0 156 67 0 0 156 89 0 0 81 67 0 0 75 89 0 0 156 67 0 0 81 89 0 0 75 67 0 0 81 156 0 0 75 89 0 0 81 156 0 0 75 67 0 0 81 244 0 0 76 244 0 0 80 311 0 0 76 1022 0 0 -76 311 0 0 -80 222 0 0 -76 156 0 0 -81 156 0 0 -75 156 0 0 -81 89 0 0 -75 67 0 0 -81 89 0 0 -75 67 0 0 -81 89 0 0 -75 67 0 0 -156 -67 0 0 -81 -156 0 0 -81 -156 0 0 -75 -89 0 0 -81 -156 0 0 -75 -156 0 0 -81 -156 0 0 -75 -67 0 0 -81 -89 0 0 81 -67 0 0 75 -156 0 0 81 -156 0 0 75 -400 0 0 81 -156 0 0 -81 -467 0 0 -75 -156 0 0 -81 -156 0 0 -75 -89 0 0 -156 -67 0 0 -156 3201 0 0 -1172 -67 0 0 -237 -89 0 0 -231 -89 0 0 -156 -67 0 0 -156 -89 0 0 -81 -67 0 0 -75 -89 0 0 -81 -67 0 0 -156 -89 0 0 -75 -156 0 0 -81 -67 0 0 -75 -89 0 0 -81 -156 0 0 -75 -156 0 0 -81 -156 0 0 -75 -311 0 0 -81 -1089 0 0 81z"/>
    <polygon class="fil0" points="33675,8724 33608,8724 33608,11923 33675,11923 33675,12235 33763,12235 33763,12472 33830,12472 33830,12628 33919,12628 33919,12708 33986,12708 33986,12783 34075,12783 34075,12939 34141,12939 34141,13020 34297,13020 34297,13095 34386,13095 34386,13176 34542,13176 34542,13252 34697,13252 34697,13332 34920,13332 34920,13407 35787,13407 35787,13332 36031,13332 36031,13252 36254,13252 36254,13176 36343,13176 36343,13095 36409,13095 36409,13020 36565,13020 36565,13252 38054,13252 38054,8724 37987,8724 37987,8649 36654,8649 36654,8724 36565,8724 36565,11611 36498,11611 36498,11767 36409,11767 36409,11848 36343,11848 36343,11923 36254,11923 36254,12004 36098,12004 36098,12079 35475,12079 35475,12004 35320,12004 35320,11923 35253,11923 35253,11848 35164,11848 35164,11692 35075,11692 35075,11456 35009,11456 35009,8649 33675,8649 "/>
    <polygon class="fil0" points="24982,8649 24737,8649 24737,8724 24515,8724 24515,8805 24426,8805 24426,8880 24271,8880 24271,8961 24204,8961 24204,9036 24115,9036 24115,9117 24048,9117 24048,9192 23959,9192 23959,9272 23870,9272 23870,9428 23804,9428 23804,9659 23715,9659 23715,10444 23804,10444 23804,10676 23870,10676 23870,10832 23959,10832 23959,10913 24048,10913 24048,10988 24115,10988 24115,11069 24204,11069 24204,11144 24359,11144 24359,11224 24515,11224 24515,11300 24671,11300 24671,11380 24893,11380 24893,11456 25138,11456 25138,11536 25360,11536 25360,11611 25694,11611 25694,11692 25849,11692 25849,11767 25916,11767 25916,12004 25849,12004 25849,12079 25605,12079 25605,12160 25449,12160 25449,12079 25138,12079 25138,12004 24982,12004 24982,11923 24893,11923 24893,11848 24826,11848 24826,11692 24737,11692 24737,11611 24582,11611 24582,11692 24426,11692 24426,11767 24359,11767 24359,11848 24204,11848 24204,11923 24048,11923 24048,12004 23870,12004 23870,12079 23804,12079 23804,12160 23648,12160 23648,12235 23493,12235 23493,12396 23559,12396 23559,12472 23648,12472 23648,12628 23715,12628 23715,12708 23804,12708 23804,12783 23870,12783 23870,12864 23959,12864 23959,12939 24048,12939 24048,13020 24115,13020 24115,13095 24271,13095 24271,13176 24426,13176 24426,13252 24671,13252 24671,13332 24982,13332 24982,13407 26005,13407 26005,13332 26316,13332 26316,13252 26538,13252 26538,13176 26694,13176 26694,13095 26783,13095 26783,13020 26939,13020 26939,12939 27005,12939 27005,12864 27094,12864 27094,12783 27183,12783 27183,12628 27250,12628 27250,12552 27339,12552 27339,12316 27406,12316 27406,11456 27339,11456 27339,11300 27250,11300 27250,11144 27183,11144 27183,11069 27094,11069 27094,10913 27005,10913 27005,10832 26850,10832 26850,10757 26783,10757 26783,10676 26627,10676 26627,10600 26472,10600 26472,10520 26227,10520 26227,10444 26005,10444 26005,10364 25694,10364 25694,10289 25449,10289 25449,10208 25293,10208 25293,10128 25204,10128 25204,9896 25293,9896 25293,9815 25760,9815 25760,9896 25916,9896 25916,9972 26005,9972 26005,10052 26071,10052 26071,10208 26227,10208 26227,10128 26383,10128 26383,10052 26538,10052 26538,9972 26694,9972 26694,9896 26783,9896 26783,9815 26939,9815 26939,9740 27094,9740 27094,9659 27250,9659 27250,9584 27339,9584 27339,9504 27250,9504 27250,9348 27183,9348 27183,9272 27094,9272 27094,9192 27005,9192 27005,9117 26939,9117 26939,9036 26850,9036 26850,8961 26783,8961 26783,8880 26627,8880 26627,8805 26472,8805 26472,8724 26316,8724 26316,8649 26071,8649 26071,8568 24982,8568 "/>
    <polygon class="fil0" points="56640,8649 56328,8649 56328,8724 56173,8724 56173,8805 56017,8805 56017,8880 55928,8880 55928,8961 55773,8961 55773,9036 55684,9036 55684,9117 55617,9117 55617,9272 55528,9272 55528,9348 55461,9348 55461,9504 55372,9504 55372,9815 55306,9815 55306,10289 55372,10289 55372,10600 55461,10600 55461,10757 55528,10757 55528,10832 55617,10832 55617,10913 55684,10913 55684,10988 55773,10988 55773,11069 55839,11069 55839,11144 55928,11144 55928,11224 56084,11224 56084,11300 56328,11300 56328,11380 56484,11380 56484,11456 56706,11456 56706,11536 57018,11536 57018,11611 57262,11611 57262,11692 57418,11692 57418,11767 57574,11767 57574,12004 57485,12004 57485,12079 57173,12079 57173,12160 57018,12160 57018,12079 56706,12079 56706,12004 56551,12004 56551,11923 56484,11923 56484,11767 56395,11767 56395,11611 56239,11611 56239,11692 56084,11692 56084,11767 55928,11767 55928,11848 55773,11848 55773,11923 55684,11923 55684,12004 55528,12004 55528,12079 55372,12079 55372,12160 55217,12160 55217,12235 55150,12235 55150,12472 55217,12472 55217,12552 55306,12552 55306,12628 55372,12628 55372,12783 55461,12783 55461,12864 55528,12864 55528,12939 55684,12939 55684,13020 55773,13020 55773,13095 55928,13095 55928,13176 56084,13176 56084,13252 56239,13252 56239,13332 56551,13332 56551,13407 57662,13407 57662,13332 57974,13332 57974,13252 58129,13252 58129,13176 58285,13176 58285,13095 58441,13095 58441,13020 58507,13020 58507,12939 58596,12939 58596,12864 58663,12864 58663,12783 58752,12783 58752,12708 58819,12708 58819,12628 58907,12628 58907,12396 58974,12396 58974,12079 59063,12079 59063,11692 58974,11692 58974,11380 58907,11380 58907,11224 58819,11224 58819,11069 58752,11069 58752,10988 58663,10988 58663,10913 58596,10913 58596,10832 58507,10832 58507,10757 58352,10757 58352,10676 58285,10676 58285,10600 58040,10600 58040,10520 57818,10520 57818,10444 57574,10444 57574,10364 57262,10364 57262,10289 57018,10289 57018,10208 56862,10208 56862,10128 56795,10128 56795,9896 56951,9896 56951,9815 57329,9815 57329,9896 57485,9896 57485,9972 57574,9972 57574,10052 57662,10052 57662,10128 57729,10128 57729,10208 57885,10208 57885,10128 57974,10128 57974,10052 58129,10052 58129,9972 58285,9972 58285,9896 58441,9896 58441,9815 58596,9815 58596,9740 58752,9740 58752,9659 58907,9659 58907,9428 58819,9428 58819,9348 58752,9348 58752,9192 58663,9192 58663,9117 58596,9117 58596,9036 58507,9036 58507,8961 58352,8961 58352,8880 58285,8880 58285,8805 58129,8805 58129,8724 57885,8724 57885,8649 57662,8649 57662,8568 56640,8568 "/>
    <polygon class="fil0" points="74180,8649 73869,8649 73869,8724 73713,8724 73713,8805 73469,8805 73469,8880 73402,8880 73402,8961 73246,8961 73246,9036 73158,9036 73158,9117 73091,9117 73091,9192 73002,9192 73002,9272 72935,9272 72935,9348 72846,9348 72846,9428 72780,9428 72780,9504 72691,9504 72691,9659 72624,9659 72624,9740 72535,9740 72535,9896 72469,9896 72469,10128 72380,10128 72380,10364 72313,10364 72313,10832 72224,10832 72224,11144 72313,11144 72313,11611 72380,11611 72380,11848 72469,11848 72469,12079 72535,12079 72535,12235 72624,12235 72624,12316 72691,12316 72691,12472 72780,12472 72780,12552 72846,12552 72846,12628 72935,12628 72935,12708 73002,12708 73002,12783 73091,12783 73091,12864 73158,12864 73158,12939 73313,12939 73313,13020 73402,13020 73402,13095 73558,13095 73558,13176 73713,13176 73713,13252 73958,13252 73958,13332 74269,13332 74269,13407 75203,13407 75203,13332 75448,13332 75448,13252 75670,13252 75670,13176 75826,13176 75826,13095 75981,13095 75981,13020 76137,13020 76137,12939 76226,12939 76226,12864 76293,12864 76293,12783 76381,12783 76381,12708 76448,12708 76448,12628 76537,12628 76537,12552 76604,12552 76604,12472 76693,12472 76693,12316 76759,12316 76759,12160 76693,12160 76693,12079 76537,12079 76537,12004 76381,12004 76381,11923 76293,11923 76293,11848 76137,11848 76137,11767 75981,11767 75981,11692 75826,11692 75826,11611 75759,11611 75759,11536 75514,11536 75514,11611 75448,11611 75448,11767 75292,11767 75292,11848 75203,11848 75203,11923 74958,11923 74958,12004 74425,12004 74425,11923 74180,11923 74180,11848 74114,11848 74114,11767 73958,11767 73958,11611 73869,11611 73869,11536 73802,11536 73802,11380 73713,11380 73713,10600 73802,10600 73802,10444 73869,10444 73869,10289 73958,10289 73958,10208 74025,10208 74025,10128 74180,10128 74180,10052 74336,10052 74336,9972 75047,9972 75047,10052 75203,10052 75203,10128 75359,10128 75359,10208 75448,10208 75448,10364 75514,10364 75514,10444 75670,10444 75670,10364 75826,10364 75826,10289 75981,10289 75981,10208 76137,10208 76137,10128 76226,10128 76226,10052 76381,10052 76381,9972 76537,9972 76537,9896 76604,9896 76604,9815 76759,9815 76759,9584 76693,9584 76693,9504 76604,9504 76604,9428 76537,9428 76537,9348 76448,9348 76448,9272 76381,9272 76381,9192 76293,9192 76293,9117 76226,9117 76226,9036 76137,9036 76137,8961 75981,8961 75981,8880 75915,8880 75915,8805 75759,8805 75759,8724 75514,8724 75514,8649 75203,8649 75203,8568 74180,8568 "/>
    <polygon class="fil0" points="78960,7477 78738,7477 78738,7552 78426,7552 78426,7633 78182,7633 78182,7708 77937,7708 77937,7789 77715,7789 77715,7864 77626,7864 77626,8649 77004,8649 77004,8724 76937,8724 76937,10052 77626,10052 77626,12079 77715,12079 77715,12396 77782,12396 77782,12628 77871,12628 77871,12783 77937,12783 77937,12864 78026,12864 78026,12939 78093,12939 78093,13020 78182,13020 78182,13095 78338,13095 78338,13176 78582,13176 78582,13252 78893,13252 78893,13332 79894,13332 79894,13252 79983,13252 79983,12004 79360,12004 79360,11923 79205,11923 79205,11848 79116,11848 79116,10052 79983,10052 79983,8649 79116,8649 79116,7477 79049,7477 79049,7396 78960,7396 "/>
    <polygon class="fil0" points="64865,13252 66355,13252 66355,6616 64865,6616 "/>
    <polygon class="fil0" points="47147,8649 46836,8649 46836,8724 46680,8724 46680,8805 46524,8805 46524,8880 46458,8880 46458,8961 46369,8961 46369,9036 46280,9036 46280,9117 46213,9117 46213,9192 46124,9192 46124,9272 46057,9272 46057,8649 44724,8649 44724,8724 44635,8724 44635,13252 46057,13252 46057,10988 46124,10988 46124,10757 46213,10757 46213,10600 46280,10600 46280,10520 46369,10520 46369,10444 46458,10444 46458,10364 46524,10364 46524,10289 46769,10289 46769,10208 47458,10208 47458,8568 47147,8568 "/>
   </g>
  </g>
 </g>
</svg>
