<?xml version="1.0" encoding="UTF-8"?>
<!DOCTYPE svg PUBLIC "-//W3C//DTD SVG 1.1//EN" "http://www.w3.org/Graphics/SVG/1.1/DTD/svg11.dtd">
<!-- Creator: CorelDRAW 2021.5 -->
<svg xmlns="http://www.w3.org/2000/svg" xml:space="preserve" width="1in" height="1in" version="1.1" style="shape-rendering:geometricPrecision; text-rendering:geometricPrecision; image-rendering:optimizeQuality; fill-rule:evenodd; clip-rule:evenodd"
viewBox="0 0 100000 100000"
 xmlns:xlink="http://www.w3.org/1999/xlink"
 xmlns:xodm="http://www.corel.com/coreldraw/odm/2003">
 <defs>
  <style type="text/css">
   <![CDATA[
    .fil0 {fill:white;fill-rule:nonzero}
   ]]>
  </style>
 </defs>
 <g id="Layer_x0020_1">
  <metadata id="CorelCorpID_0Corel-Layer"/>
  <g id="_2015382994272">
   <path class="fil0" d="M21709 67926c0,-173 154,-271 406,-271 320,0 512,175 649,427l1235 -668c-406,-685 -1101,-1033 -1885,-1033 -1005,0 -1893,531 -1893,1583 0,1674 2378,1392 2378,1923 0,194 -176,302 -523,302 -425,0 -696,-203 -822,-570l-1254 715c375,781 1109,1148 2076,1148 1044,0 2011,-471 2011,-1583 0,-1789 -2378,-1422 -2378,-1972zm6563 -1411l0 455c-320,-367 -794,-589 -1441,-589 -1265,0 -2309,1109 -2309,2550 0,1441 1044,2550 2309,2550 646,0 1120,-222 1441,-589l0 2389 1449 0 0 -6766 -1449 0zm-1150 3594c-669,0 -1150,-452 -1150,-1178 0,-726 482,-1178 1150,-1178 666,0 1150,452 1150,1178 0,726 -485,1178 -1150,1178zm6785 -3594l0 2638c0,687 -370,997 -901,997 -463,0 -838,-282 -838,-879l0 -2756 -1452 0 0 2967c0,1304 833,2000 1808,2000 638,0 1120,-230 1383,-589l0 455 1449 0 0 -4832 -1449 0zm6021 0l0 455c-320,-367 -794,-589 -1441,-589 -1266,0 -2309,1109 -2309,2550 0,1441 1044,2550 2309,2550 646,0 1120,-222 1441,-589l0 455 1449 0 0 -4832 -1449 0zm-1150 3594c-668,0 -1150,-452 -1150,-1178 0,-726 482,-1178 1150,-1178 666,0 1150,452 1150,1178 0,726 -485,1178 -1150,1178zm5111 -2734l0 -860 -1449 0 0 4832 1449 0 0 -2183c0,-959 852,-1200 1449,-1101l0 -1644c-608,0 -1255,309 -1449,956zm3276 2137l3430 0c38,-183 57,-378 57,-581 0,-1460 -1044,-2550 -2454,-2550 -1526,0 -2570,1109 -2570,2550 0,1441 1024,2550 2676,2550 918,0 1633,-337 2106,-994l-1159 -666c-194,211 -531,367 -928,367 -531,0 -975,-176 -1159,-677zm-30 -1082c137,-493 504,-764 1055,-764 433,0 868,203 1024,764l-2079 0zm8128 -504c0,-173 153,-271 405,-271 320,0 512,175 649,427l1235 -668c-405,-685 -1101,-1033 -1885,-1033 -1005,0 -1893,531 -1893,1583 0,1674 2378,1392 2378,1923 0,194 -175,302 -523,302 -425,0 -696,-203 -822,-570l-1255 715c375,781 1109,1148 2076,1148 1044,0 2011,-471 2011,-1583 0,-1789 -2378,-1422 -2378,-1972zm4349 1586l3430 0c38,-183 57,-378 57,-581 0,-1460 -1044,-2550 -2454,-2550 -1526,0 -2570,1109 -2570,2550 0,1441 1024,2550 2676,2550 918,0 1633,-337 2106,-994l-1159 -666c-194,211 -531,367 -928,367 -531,0 -975,-176 -1159,-677zm-30 -1082c137,-493 504,-764 1055,-764 433,0 868,203 1024,764l-2079 0zm4339 2917l1449 0 0 -7054 -1449 0 0 7054zm3807 -1835l3430 0c39,-183 58,-378 58,-581 0,-1460 -1044,-2550 -2455,-2550 -1526,0 -2569,1109 -2569,2550 0,1441 1024,2550 2676,2550 918,0 1633,-337 2106,-994l-1159 -666c-194,211 -531,367 -928,367 -531,0 -975,-176 -1159,-677zm-30 -1082c137,-493 504,-764 1055,-764 433,0 868,203 1024,764l-2079 0zm6659 3052c945,0 1767,-493 2183,-1246l-1265 -723c-156,337 -512,540 -937,540 -630,0 -1093,-455 -1093,-1120 0,-666 463,-1120 1093,-1120 425,0 773,203 937,540l1265 -734c-416,-742 -1246,-1235 -2183,-1235 -1471,0 -2561,1109 -2561,2550 0,1441 1090,2550 2561,2550zm5643 -3575l0 -1392 -997 0 0 -1353 -1449 436 0 917 -772 0 0 1392 772 0 0 1712c0,1350 550,1923 2446,1728l0 -1315c-638,39 -997,0 -997,-413l0 -1712 997 0z"/>
   <path class="fil0" d="M23779 29582c-258,0 -479,-61 -661,-180 -182,-120 -311,-285 -385,-499l315 -181c105,335 351,501 738,501 187,0 330,-38 431,-115 102,-76 152,-180 152,-311 0,-129 -50,-228 -150,-296 -89,-60 -256,-130 -501,-209l-264 -86c-58,-23 -134,-58 -229,-103 -92,-48 -159,-95 -201,-142 -115,-126 -174,-280 -174,-462 0,-241 84,-430 253,-568 168,-142 372,-212 615,-212 216,0 405,54 568,161 163,108 285,255 367,441l-307 178c-119,-284 -328,-426 -627,-426 -150,0 -271,37 -363,111 -93,74 -139,173 -139,300 0,121 44,213 130,276 89,66 239,131 450,197l161 51c89,35 139,53 146,56 84,31 177,75 276,130 70,39 142,100 213,181 93,93 139,230 139,415 0,241 -89,435 -265,579 -179,142 -409,214 -690,214zm2481 -2024l0 331 -524 0 0 1069c0,97 19,167 58,207 38,41 96,63 175,64 78,1 176,0 291,-6l0 307c-302,39 -522,15 -660,-75 -139,-90 -208,-255 -208,-498l0 -1069 -390 0 0 -331 390 0 0 -450 343 -103 0 552 524 0zm877 0l0 331c113,-245 317,-367 615,-367l0 359c-169,-7 -313,37 -434,134 -121,97 -181,254 -181,470l0 1046 -343 0 0 -1972 343 0zm2591 339l0 -339 343 0 0 1972 -343 0 0 -339c-168,261 -416,391 -745,391 -278,0 -515,-100 -707,-300 -194,-202 -292,-448 -292,-738 0,-286 97,-531 292,-733 194,-203 430,-304 707,-304 329,0 577,130 745,390zm-702 1354c200,0 368,-67 501,-201 134,-140 202,-308 202,-506 0,-200 -67,-367 -202,-501 -133,-136 -301,-204 -501,-204 -197,0 -362,68 -496,204 -134,134 -201,301 -201,501 0,198 67,366 201,506 134,134 300,201 496,201zm2754 -1693l0 331 -524 0 0 1069c0,97 19,167 58,207 38,41 96,63 176,64 78,1 176,0 291,-6l0 307c-302,39 -522,15 -660,-75 -139,-90 -208,-255 -208,-498l0 -1069 -391 0 0 -331 391 0 0 -450 343 -103 0 552 524 0zm2316 1144l-1653 0c35,173 115,310 242,408 126,100 284,149 473,149 261,0 450,-96 568,-289l292 165c-194,298 -484,446 -868,446 -311,0 -566,-98 -766,-292 -194,-200 -292,-448 -292,-746 0,-300 96,-547 288,-741 191,-198 440,-296 745,-296 290,0 524,103 707,307 185,200 276,445 276,735 0,50 -5,101 -13,153zm-970 -871c-181,0 -333,51 -455,153 -122,103 -198,243 -227,418l1317 0c-28,-181 -100,-322 -216,-422 -116,-100 -256,-150 -419,-150zm3129 66l0 -339 339 0 0 1890c0,292 -98,519 -295,679 -200,162 -436,244 -710,244 -221,0 -413,-41 -572,-124 -160,-83 -281,-202 -362,-357l300 -170c107,221 322,332 643,332 205,0 366,-54 483,-162 117,-109 176,-255 176,-442l0 -281c-173,263 -420,394 -741,394 -284,0 -522,-99 -715,-300 -194,-202 -292,-446 -292,-730 0,-284 97,-525 292,-726 192,-200 430,-300 715,-300 323,0 570,130 741,390zm0 635c0,-196 -67,-362 -201,-496 -134,-134 -301,-201 -501,-201 -200,0 -367,67 -501,201 -134,134 -201,300 -201,496 0,200 67,368 201,501 134,134 301,201 501,201 200,0 367,-67 501,-201 134,-133 201,-301 201,-501zm1148 -1333c-66,0 -121,-22 -165,-67 -45,-45 -67,-98 -67,-162 0,-63 22,-118 67,-163 44,-46 99,-69 165,-69 64,0 117,24 162,69 44,46 67,101 67,163 0,64 -22,117 -67,162 -45,44 -98,67 -162,67zm170 2331l-343 0 0 -1972 343 0 0 1972zm1566 52c-298,0 -544,-98 -741,-296 -198,-200 -296,-447 -296,-741 0,-294 98,-540 296,-738 197,-200 444,-300 741,-300 194,0 369,47 524,140 156,94 270,219 348,377l-288 167c-50,-106 -126,-190 -231,-254 -104,-63 -222,-94 -353,-94 -198,0 -363,67 -498,201 -131,137 -197,303 -197,501 0,194 66,360 197,498 134,133 300,200 498,200 131,0 249,-31 354,-93 105,-61 186,-144 242,-249l292 169c-87,157 -209,283 -367,374 -157,93 -332,139 -521,139zm4651 -2813l414 0 0 2761 -362 0 0 -2158 -904 1503 -47 0 -904 -1498 0 2154 -367 0 0 -2761 414 0 880 1459 876 -1459zm2718 1127l0 -339 343 0 0 1972 -343 0 0 -339c-168,261 -416,391 -745,391 -278,0 -514,-100 -707,-300 -194,-202 -292,-448 -292,-738 0,-286 97,-531 292,-733 195,-203 431,-304 707,-304 329,0 577,130 745,390zm-702 1354c200,0 368,-67 501,-201 134,-140 201,-308 201,-506 0,-200 -67,-367 -201,-501 -133,-136 -301,-204 -501,-204 -197,0 -362,68 -496,204 -134,134 -201,301 -201,501 0,198 67,366 201,506 134,134 300,201 496,201zm2024 -1693l0 331c113,-245 318,-367 615,-367l0 359c-169,-7 -313,37 -434,134 -120,97 -181,254 -181,470l0 1046 -343 0 0 -1972 343 0zm1759 955l974 1018 -426 0 -899 -935 0 935 -343 0 0 -2761 343 0 0 1661 852 -872 442 0 -943 955zm3120 189l-1653 0c35,173 115,310 242,408 126,100 284,149 473,149 261,0 450,-96 568,-289l292 165c-194,298 -484,446 -868,446 -311,0 -566,-98 -766,-292 -194,-200 -292,-448 -292,-746 0,-300 96,-547 289,-741 191,-198 439,-296 745,-296 290,0 524,103 707,307 185,200 276,445 276,735 0,50 -4,101 -12,153zm-970 -871c-181,0 -333,51 -455,153 -122,103 -198,243 -227,418l1317 0c-28,-181 -101,-322 -216,-422 -116,-100 -256,-150 -419,-150zm2505 -273l0 331 -524 0 0 1069c0,97 19,167 58,207 38,41 96,63 176,64 78,1 176,0 291,-6l0 307c-302,39 -522,15 -660,-75 -139,-90 -208,-255 -208,-498l0 -1069 -390 0 0 -331 390 0 0 -450 343 -103 0 552 524 0zm695 -359c-66,0 -121,-22 -165,-67 -45,-45 -67,-98 -67,-162 0,-63 22,-118 67,-163 44,-46 99,-69 165,-69 64,0 117,24 162,69 45,46 67,101 67,163 0,64 -22,117 -67,162 -45,44 -98,67 -162,67zm170 2331l-343 0 0 -1972 343 0 0 1972zm1620 -2024c231,0 417,73 557,219 140,146 209,344 209,594l0 1211 -343 0 0 -1191c0,-157 -44,-282 -130,-371 -87,-89 -207,-134 -360,-134 -176,0 -315,55 -417,163 -103,109 -154,272 -154,487l0 1046 -343 0 0 -1972 343 0 0 284c137,-224 349,-335 639,-335zm2995 390l0 -339 339 0 0 1890c0,292 -98,519 -295,679 -200,162 -436,244 -710,244 -221,0 -413,-41 -572,-124 -160,-83 -281,-202 -362,-357l300 -170c107,221 322,332 643,332 205,0 366,-54 483,-162 118,-109 176,-255 176,-442l0 -281c-173,263 -420,394 -741,394 -284,0 -522,-99 -715,-300 -194,-202 -292,-446 -292,-730 0,-284 97,-525 292,-726 193,-200 431,-300 715,-300 323,0 570,130 741,390zm0 635c0,-196 -67,-362 -201,-496 -134,-134 -301,-201 -501,-201 -200,0 -367,67 -501,201 -134,134 -201,300 -201,496 0,200 67,368 201,501 134,134 301,201 501,201 200,0 367,-67 501,-201 134,-133 201,-301 201,-501zm2111 -1762l1002 0c252,0 464,85 635,256 171,171 256,381 256,631 0,249 -85,459 -256,631 -171,171 -383,257 -635,257l-635 0 0 986 -367 0 0 -2761zm367 1431l635 0c155,0 280,-52 378,-153 99,-109 150,-238 150,-391 0,-158 -50,-287 -150,-391 -100,-103 -226,-154 -378,-154l-635 0 0 1089zm3522 -304l0 -339 343 0 0 1972 -343 0 0 -339c-168,261 -416,391 -745,391 -278,0 -514,-100 -707,-300 -194,-202 -292,-448 -292,-738 0,-286 97,-531 292,-733 195,-203 431,-304 707,-304 329,0 577,130 745,390zm-702 1354c200,0 368,-67 501,-201 134,-140 201,-308 201,-506 0,-200 -67,-367 -201,-501 -133,-136 -301,-204 -501,-204 -197,0 -362,68 -496,204 -134,134 -201,301 -201,501 0,198 67,366 201,506 134,134 300,201 496,201zm2024 -1693l0 331c113,-245 318,-367 615,-367l0 359c-169,-7 -313,37 -434,134 -120,97 -181,254 -181,470l0 1046 -343 0 0 -1972 343 0zm2184 0l0 331 -524 0 0 1069c0,97 19,167 58,207 38,41 96,63 176,64 78,1 175,0 291,-6l0 307c-302,39 -522,15 -660,-75 -139,-90 -208,-255 -208,-498l0 -1069 -390 0 0 -331 390 0 0 -450 343 -103 0 552 524 0zm1515 -52c231,0 417,73 557,219 140,146 209,344 209,594l0 1211 -343 0 0 -1191c0,-157 -44,-282 -130,-371 -87,-89 -207,-134 -360,-134 -176,0 -315,55 -417,163 -103,109 -154,272 -154,487l0 1046 -343 0 0 -1972 343 0 0 284c136,-224 349,-335 638,-335zm3251 1195l-1653 0c35,173 115,310 242,408 126,100 284,149 473,149 261,0 450,-96 568,-289l292 165c-194,298 -484,446 -868,446 -311,0 -566,-98 -766,-292 -195,-200 -292,-448 -292,-746 0,-300 96,-547 289,-741 191,-198 439,-296 745,-296 289,0 524,103 707,307 184,200 276,445 276,735 0,50 -4,101 -12,153zm-970 -871c-181,0 -333,51 -455,153 -122,103 -198,243 -227,418l1317 0c-28,-181 -101,-322 -216,-422 -117,-100 -256,-150 -419,-150zm1835 -273l0 331c113,-245 318,-367 615,-367l0 359c-169,-7 -313,37 -434,134 -120,97 -181,254 -181,470l0 1046 -343 0 0 -1972 343 0zm1285 532c0,126 131,226 391,296 97,21 179,43 246,65 67,22 141,56 221,101 80,44 141,104 183,178 41,74 63,161 63,261 0,179 -69,322 -209,430 -140,108 -315,162 -528,162 -189,0 -353,-42 -491,-124 -139,-83 -237,-196 -295,-337l296 -170c31,95 91,170 178,225 86,56 190,84 312,84 117,0 213,-22 284,-67 70,-44 106,-112 106,-201 0,-134 -130,-231 -390,-292 -87,-24 -153,-43 -198,-56 -44,-13 -106,-36 -183,-70 -77,-35 -137,-70 -176,-109 -39,-38 -76,-89 -109,-154 -32,-64 -49,-135 -49,-215 0,-171 66,-312 197,-423 134,-111 301,-165 501,-165 161,0 304,36 430,108 124,73 218,174 281,302l-287 162c-70,-169 -211,-253 -423,-253 -99,0 -183,24 -250,70 -67,48 -100,112 -100,194z"/>
   <g>
    <polygon class="fil0" points="36866,48218 36866,60679 49350,60679 49350,48105 36866,48105 "/>
    <path class="fil0" d="M38049 35425l9869 0 0 9841 -9869 0 0 -9841zm-1307 -1310l0 12461 12515 0 0 -12461 -12515 0z"/>
    <path class="fil0" d="M52089 35426l9993 0 0 9841 -9993 0 0 -9841zm-1308 11151l12608 0 0 -12348 0 -113 -12608 0 0 12461z"/>
    <path class="fil0" d="M52089 49528l9993 0 0 9841 -9993 0 0 -9841zm-1308 11151l12608 0 0 -12348 0 -113 -12608 0 0 12461z"/>
   </g>
  </g>
 </g>
</svg>
