<?xml version="1.0" encoding="UTF-8"?>
<!DOCTYPE svg PUBLIC "-//W3C//DTD SVG 1.1//EN" "http://www.w3.org/Graphics/SVG/1.1/DTD/svg11.dtd">
<!-- Creator: CorelDRAW 2021.5 -->
<svg xmlns="http://www.w3.org/2000/svg" xml:space="preserve" width="1.1333in" height="0.584465in" version="1.1" style="shape-rendering:geometricPrecision; text-rendering:geometricPrecision; image-rendering:optimizeQuality; fill-rule:evenodd; clip-rule:evenodd"
viewBox="0 0 113330 58446"
 xmlns:xlink="http://www.w3.org/1999/xlink"
 xmlns:xodm="http://www.corel.com/coreldraw/odm/2003">
 <defs>
  <style type="text/css">
   <![CDATA[
    .fil0 {fill:#FEFEFE;fill-rule:nonzero}
   ]]>
  </style>
 </defs>
 <g id="Layer_x0020_1">
  <metadata id="CorelCorpID_0Corel-Layer"/>
  <path class="fil0" d="M40608 34296l7698 0 0 2412 -2210 0 0 5782 -3205 0 0 -5782 -2283 0 0 -2412zm11588 3313l-1616 4881 -3078 0 3014 -8194 3351 0 3087 8194 -3114 0 -1644 -4881zm4028 -3313l7689 0 0 2412 -2201 0 0 5782 -3206 0 0 -5782 -2283 0 0 -2412zm11588 3313l-1617 4881 -3077 0 3013 -8194 3343 0 3096 8194 -3114 0 -1643 -4881zm-50652 10494l7024 0 0 2058 -2016 0 0 4933 -2925 0 0 -4933 -2083 0 0 -2058zm10573 2827l-1474 4164 -2808 0 2749 -6991 3058 0 2817 6991 -2842 0 -1500 -4164zm3674 -2827l7017 0 0 2058 -2008 0 0 4933 -2925 0 0 -4933 -2083 0 0 -2058zm10574 2827l-1474 4164 -2808 0 2750 -6991 3050 0 2824 6991 -2841 0 -1500 -4164zm26343 -31118c-291,-582 -685,-1135 -1164,-1661 -1089,-1173 -2619,-2149 -4440,-2825 -1830,-676 -3913,-1042 -6035,-1042 -2121,0 -4205,357 -6035,1042 -1820,676 -3350,1652 -4440,2825 -488,526 -873,1080 -1173,1661 2365,-572 6401,-1323 10156,-1408 366,-9 610,113 779,319 197,253 187,1155 178,1558l-103 10446c216,9 422,9 638,9 216,0 432,0 639,-9l-104 -10446c-9,-404 -19,-1305 178,-1558 169,-207 413,-328 779,-319 3735,85 7781,835 10146,1408zm497 1361c-3463,-779 -5772,-929 -8043,-1051 -1990,-113 -2009,601 -1812,1952 9,84 28,188 47,310 666,3952 1492,7340 1643,7922 4843,-1107 8334,-4177 8334,-7781 0,-460 -57,-910 -169,-1352zm-14426 901c197,-1352 169,-2065 -1811,-1952 -2281,122 -4590,272 -8053,1051 -103,441 -160,892 -160,1343 0,1558 638,3069 1830,4365 1089,1173 2619,2149 4440,2825 657,244 1352,441 2065,601 131,-544 985,-4008 1652,-8025 19,-75 28,-150 37,-207zm-4816 32922l1594 0 0 -2552c148,32 338,43 549,43 950,0 1763,-243 2312,-749 433,-390 655,-991 655,-1687 0,-696 -296,-1286 -761,-1644 -475,-380 -1182,-570 -2175,-570 -982,0 -1679,63 -2174,148l0 7011zm6133 0l1595 0 0 -2804 475 0c665,11 972,243 1172,1142 201,878 380,1450 485,1662l1648 0c-138,-276 -349,-1207 -571,-2022 -180,-656 -454,-1119 -950,-1320l0 -31c613,-222 1256,-842 1256,-1735 0,-650 -233,-1154 -665,-1491 -507,-401 -1246,-559 -2301,-559 -867,0 -1626,63 -2144,148l0 7011zm9355 -7232c-2091,0 -3463,1592 -3463,3721 0,2035 1245,3627 3347,3627 2090,0 3494,-1402 3494,-3743 0,-1971 -1193,-3606 -3378,-3606zm5828 4607c0,1096 -422,1402 -1098,1402 -317,0 -602,-52 -824,-126l-179 1297c317,106 802,169 1182,169 1552,0 2523,-707 2523,-2731l0 -4491 -1604 0 0 4481zm7179 -1687l-2619 0 0 -1476 2777 0 0 -1318 -4381 0 0 7106 4530 0 0 -1318 -2925 0 0 -1687 2619 0 0 -1307zm6387 2857c-327,137 -855,232 -1352,232 -1426,0 -2269,-896 -2269,-2319 0,-1582 992,-2352 2259,-2352 581,0 1035,127 1351,264l338 -1265c-285,-158 -919,-316 -1753,-316 -2154,0 -3885,1339 -3885,3764 0,2024 1267,3563 3727,3563 856,0 1531,-169 1817,-306l-233 -1265zm2830 1455l1604 0 0 -5756 1943 0 0 -1350 -5469 0 0 1350 1922 0 0 5756zm4033 -337c401,221 1204,443 2017,443 1953,0 2861,-1012 2861,-2204 0,-1002 -580,-1655 -1837,-2119 -929,-348 -1320,-548 -1320,-1002 0,-358 338,-685 1035,-685 686,0 1203,200 1478,337l359 -1286c-422,-200 -1003,-359 -1816,-359 -1668,0 -2693,917 -2693,2130 0,1033 782,1687 1964,2108 856,295 1193,548 1193,991 0,464 -391,770 -1130,770 -686,0 -1362,-221 -1784,-443l-328 1318zm16400 -45398c-58,114 -147,171 -268,171l-613 0 763 -1383 -867 -3179 693 0c60,0 106,16 136,46 30,30 50,66 61,108l422 1785c13,58 25,115 33,171 7,56 13,113 18,170 24,-58 50,-116 76,-173 26,-57 51,-114 78,-172l847 -1785c22,-44 55,-80 97,-108 42,-28 86,-43 130,-43l663 0 -2270 4392zm-4643 -950l606 -4978 807 0 -271 2250c161,-234 341,-420 538,-558 198,-137 407,-206 630,-206 143,0 274,27 391,79 117,52 217,131 299,235 83,105 146,238 191,400 44,161 67,349 67,566 0,194 -20,385 -60,573 -40,187 -97,365 -171,532 -74,167 -161,321 -262,462 -102,142 -215,263 -340,366 -125,103 -258,183 -400,241 -142,58 -289,87 -441,87 -176,0 -333,-36 -470,-106 -137,-70 -253,-165 -347,-286l-27 114c-18,80 -48,139 -90,174 -43,36 -109,54 -201,54l-448 0zm1988 -2842c-91,0 -184,31 -278,94 -94,63 -184,148 -272,258 -88,111 -170,239 -244,387 -74,150 -139,308 -193,478l-100 822c76,80 163,138 261,171 98,33 195,50 291,50 147,0 281,-46 402,-137 120,-92 224,-211 310,-358 86,-147 152,-313 199,-498 47,-184 70,-368 70,-554 0,-241 -39,-420 -117,-538 -78,-117 -188,-175 -328,-175zm-3655 47c-24,36 -48,61 -70,76 -22,15 -51,21 -87,21 -38,0 -77,-11 -117,-33 -40,-22 -86,-47 -139,-75 -52,-28 -113,-54 -181,-76 -68,-22 -150,-33 -246,-33 -176,0 -311,40 -405,119 -94,80 -141,178 -141,296 0,69 20,128 59,176 39,48 89,91 152,126 62,35 134,68 214,98 80,30 163,63 248,97 85,35 167,74 248,119 80,43 152,96 214,158 63,63 114,139 153,227 39,88 58,194 58,317 0,165 -32,322 -98,472 -66,150 -161,281 -283,394 -123,113 -271,202 -445,268 -174,66 -368,99 -582,99 -109,0 -215,-10 -316,-31 -102,-21 -198,-50 -287,-87 -89,-38 -170,-81 -242,-133 -72,-50 -135,-105 -186,-164l201 -320c24,-38 55,-68 89,-88 35,-20 75,-30 122,-30 47,0 89,15 127,44 38,29 83,60 134,94 51,35 114,67 186,96 72,29 165,44 279,44 91,0 173,-12 243,-37 70,-24 130,-58 178,-100 48,-43 84,-91 108,-148 24,-56 37,-115 37,-177 0,-76 -19,-140 -57,-190 -38,-50 -88,-94 -152,-131 -64,-37 -136,-69 -217,-97 -80,-28 -162,-58 -246,-89 -83,-31 -165,-67 -244,-107 -80,-40 -151,-92 -215,-153 -63,-61 -115,-136 -153,-224 -38,-89 -57,-196 -57,-325 0,-152 29,-300 87,-444 58,-144 144,-272 257,-383 113,-110 251,-200 415,-267 164,-67 352,-100 563,-100 219,0 413,38 581,113 168,76 310,172 426,289l-214 301zm-2547 157c0,154 -30,294 -92,423 -61,127 -172,242 -330,343 -159,100 -373,187 -644,260 -271,73 -617,131 -1036,173l0 43c0,535 229,804 686,804 98,0 185,-10 261,-29 76,-19 143,-41 200,-68 57,-27 108,-57 154,-90 46,-33 88,-64 127,-91 39,-27 77,-50 115,-69 38,-19 79,-28 124,-28 27,0 54,7 80,19 27,12 49,30 67,54l211 256c-118,119 -234,221 -348,309 -114,87 -230,159 -348,215 -119,57 -243,98 -375,125 -132,27 -276,40 -432,40 -201,0 -383,-35 -546,-103 -163,-68 -302,-164 -419,-288 -116,-124 -205,-273 -269,-448 -63,-175 -96,-372 -96,-588 0,-181 20,-358 59,-533 39,-174 95,-339 169,-496 74,-156 164,-300 271,-431 107,-133 229,-247 364,-343 135,-96 283,-171 445,-224 162,-54 335,-80 520,-80 181,0 339,26 474,77 135,52 248,119 338,200 90,82 157,173 202,274 44,100 67,198 67,296zm-1128 -271c-112,0 -215,24 -311,69 -96,47 -182,113 -259,196 -77,83 -144,184 -201,300 -57,117 -102,244 -136,383 276,-38 500,-80 668,-125 169,-46 299,-96 392,-151 93,-54 154,-111 184,-173 30,-61 44,-127 44,-198 0,-33 -7,-69 -21,-105 -15,-37 -37,-69 -67,-97 -30,-28 -69,-52 -117,-71 -48,-19 -107,-29 -176,-29zm-2055 2297c-114,126 -222,231 -326,316 -104,85 -210,153 -317,206 -107,51 -220,87 -338,108 -119,21 -248,32 -389,32 -198,0 -376,-35 -533,-103 -157,-68 -291,-164 -401,-289 -109,-125 -192,-276 -249,-452 -57,-176 -86,-373 -86,-589 0,-279 44,-546 134,-799 89,-253 214,-476 375,-669 161,-193 352,-347 572,-462 221,-115 462,-172 723,-172 228,0 422,40 581,122 159,80 301,201 426,363l-265 312c-20,20 -43,38 -68,55 -26,17 -55,26 -86,26 -38,0 -72,-12 -104,-35 -31,-24 -67,-48 -108,-75 -41,-27 -93,-52 -154,-76 -61,-23 -141,-35 -240,-35 -127,0 -249,35 -365,104 -116,69 -217,167 -306,293 -88,127 -158,280 -211,459 -52,178 -79,375 -79,591 0,252 56,446 167,583 112,137 262,206 452,206 127,0 233,-18 317,-55 83,-37 154,-77 212,-120 58,-44 111,-84 156,-120 46,-37 95,-56 148,-56 27,0 54,8 79,22 26,14 48,33 68,56l211 254zm-3053 -2826l-411 3434 -817 0 412 -3434 817 0zm208 -1003c0,72 -15,139 -45,202 -30,63 -69,117 -117,165 -48,47 -104,83 -167,111 -62,28 -127,43 -194,43 -65,0 -127,-15 -189,-43 -61,-28 -116,-65 -163,-111 -47,-48 -83,-103 -111,-165 -28,-63 -43,-130 -43,-202 0,-71 15,-139 44,-204 29,-65 67,-122 114,-170 47,-48 102,-86 163,-114 61,-28 124,-43 189,-43 67,0 131,15 194,43 63,28 118,65 166,111 48,48 86,104 115,169 29,65 44,134 44,207zm-4780 1000l676 0c58,0 105,15 139,44 35,29 56,66 65,111l361 1836c22,109 38,218 47,327 9,108 17,215 23,322 31,-107 66,-213 103,-319 37,-107 80,-217 132,-330l820 -1836c20,-45 51,-81 93,-111 41,-29 86,-44 135,-44l653 0 -1694 3438 -696 0 -857 -3438zm-2491 3438l419 -3441 419 0c80,0 146,18 197,55 52,35 77,94 77,173 0,0 0,4 0,12 0,8 -1,32 -4,72 -2,40 -4,104 -7,191 -2,87 -7,209 -13,365 141,-283 294,-502 462,-656 167,-155 341,-232 522,-232 91,0 184,21 278,63l-151 829c-111,-72 -218,-108 -318,-108 -198,0 -372,95 -522,285 -150,190 -272,487 -368,891l-181 1503 -810 0zm-268 -2634c0,154 -30,294 -92,423 -61,127 -172,242 -330,343 -159,100 -373,187 -644,260 -271,73 -617,131 -1036,173l0 43c0,535 229,804 686,804 98,0 185,-10 261,-29 76,-19 143,-41 200,-68 57,-27 108,-57 154,-90 46,-33 88,-64 127,-91 39,-27 77,-50 115,-69 38,-19 79,-28 124,-28 27,0 54,7 80,19 27,12 49,30 67,54l211 256c-118,119 -234,221 -348,309 -114,87 -230,159 -348,215 -119,57 -243,98 -375,125 -132,27 -276,40 -432,40 -201,0 -383,-35 -546,-103 -163,-68 -302,-164 -419,-288 -116,-124 -205,-273 -269,-448 -63,-175 -96,-372 -96,-588 0,-181 20,-358 59,-533 39,-174 95,-339 169,-496 74,-156 164,-300 271,-431 107,-133 229,-247 364,-343 135,-96 283,-171 445,-224 162,-54 335,-80 520,-80 181,0 339,26 474,77 135,52 248,119 338,200 90,82 157,173 202,274 44,100 67,198 67,296zm-1128 -271c-112,0 -215,24 -311,69 -96,47 -182,113 -259,196 -77,83 -144,184 -201,300 -57,117 -102,244 -136,383 276,-38 500,-80 668,-125 169,-46 299,-96 392,-151 93,-54 154,-111 184,-173 30,-61 44,-127 44,-198 0,-33 -7,-69 -21,-105 -15,-37 -37,-69 -67,-97 -30,-28 -69,-52 -117,-71 -48,-19 -107,-29 -176,-29zm-2126 -1064c-31,44 -62,77 -94,98 -31,21 -69,32 -114,32 -44,0 -90,-18 -137,-54 -47,-36 -103,-76 -167,-119 -65,-44 -141,-83 -229,-118 -88,-36 -195,-54 -320,-54 -123,0 -231,18 -324,54 -94,35 -172,85 -235,147 -64,62 -112,136 -144,221 -32,85 -49,176 -49,274 0,103 27,187 79,256 53,68 121,128 206,180 85,52 182,97 291,137 109,40 221,82 333,127 113,44 223,96 333,154 109,58 206,130 291,214 85,85 154,186 206,306 53,119 78,264 78,434 0,237 -40,460 -122,669 -81,210 -198,393 -352,550 -153,157 -338,282 -556,375 -218,93 -463,139 -735,139 -141,0 -279,-16 -415,-46 -136,-30 -265,-72 -385,-128 -120,-56 -232,-123 -335,-201 -103,-78 -192,-165 -268,-261l308 -417c25,-31 56,-57 94,-77 38,-21 76,-31 114,-31 36,0 72,11 106,33 34,22 72,50 114,83 41,32 86,68 134,107 48,39 102,75 165,107 63,32 133,59 211,81 78,22 169,33 271,33 252,0 450,-72 593,-215 143,-143 214,-340 214,-592 0,-112 -26,-203 -77,-275 -52,-71 -119,-131 -204,-181 -85,-49 -181,-93 -288,-129 -107,-37 -217,-76 -329,-117 -113,-41 -223,-89 -330,-144 -107,-54 -203,-125 -288,-211 -85,-86 -153,-191 -204,-316 -51,-125 -77,-279 -77,-462 0,-208 39,-407 116,-599 77,-192 186,-362 329,-508 143,-146 317,-263 521,-352 204,-88 434,-131 691,-131 132,0 259,13 381,40 122,27 234,65 339,115 105,49 202,108 290,176 88,68 164,144 229,228l-258 365zm-6303 3269c0,-15 0,-33 0,-55 0,-21 2,-52 6,-94 3,-42 9,-97 17,-165 8,-68 18,-155 31,-262l191 -1542 -324 0c-38,0 -68,-12 -92,-35 -23,-24 -35,-58 -35,-105 0,-2 1,-7 2,-13 1,-7 2,-22 5,-46 2,-23 7,-58 12,-105 6,-47 12,-113 21,-198l522 -91 274 -937c13,-44 37,-79 69,-104 32,-24 71,-37 118,-37l442 0 -134 1081 830 0 -70 589 -833 0 -184 1496c-11,91 -19,164 -25,217 -6,54 -10,95 -13,125 -3,30 -6,51 -7,63 -1,12 -2,21 -2,26 0,85 21,152 62,201 41,49 100,74 175,74 47,0 87,-7 120,-19 34,-12 63,-24 87,-38 24,-13 47,-27 66,-39 19,-12 37,-18 55,-18 24,0 44,7 59,19 15,12 27,30 38,55l178 405c-123,100 -259,176 -408,228 -150,52 -300,77 -452,77 -243,0 -435,-66 -577,-198 -142,-131 -217,-318 -223,-557zm-3923 701l412 -3441 422 0c87,0 155,22 203,67 48,46 71,117 71,218l-23 472c174,-270 367,-472 579,-605 212,-133 431,-198 656,-198 127,0 243,22 347,68 104,46 192,113 266,201 74,88 130,196 170,325 40,128 60,276 60,444 0,42 -1,85 -4,128 -3,44 -8,89 -12,136l-258 2186 -827 0c45,-377 83,-697 114,-959 31,-262 57,-480 77,-654 20,-174 36,-311 47,-411 11,-99 20,-174 26,-225 6,-52 9,-86 10,-103 1,-17 1,-30 1,-41 0,-147 -27,-254 -80,-320 -54,-66 -137,-98 -251,-98 -92,0 -186,27 -285,80 -98,54 -192,130 -281,228 -89,98 -171,216 -244,355 -74,138 -134,292 -181,462l-187 1687 -827 0zm-268 -2634c0,154 -30,294 -92,423 -61,127 -172,242 -330,343 -159,100 -373,187 -644,260 -271,73 -617,131 -1036,173l0 43c0,535 229,804 686,804 98,0 185,-10 261,-29 76,-19 143,-41 200,-68 57,-27 108,-57 154,-90 46,-33 88,-64 127,-91 39,-27 77,-50 115,-69 38,-19 79,-28 124,-28 27,0 54,7 80,19 27,12 49,30 67,54l211 256c-118,119 -234,221 -348,309 -114,87 -230,159 -348,215 -119,57 -243,98 -375,125 -132,27 -276,40 -432,40 -201,0 -383,-35 -546,-103 -163,-68 -302,-164 -419,-288 -116,-124 -205,-273 -269,-448 -63,-175 -96,-372 -96,-588 0,-181 20,-358 59,-533 39,-174 95,-339 169,-496 74,-156 164,-300 271,-431 107,-133 229,-247 364,-343 135,-96 283,-171 445,-224 162,-54 335,-80 520,-80 181,0 339,26 474,77 135,52 248,119 338,200 90,82 157,173 202,274 44,100 67,198 67,296zm-1128 -271c-112,0 -215,24 -311,69 -96,47 -182,113 -259,196 -77,83 -144,184 -201,300 -57,117 -102,244 -136,383 276,-38 500,-80 668,-125 169,-46 299,-96 392,-151 93,-54 154,-111 184,-173 30,-61 44,-127 44,-198 0,-33 -7,-69 -21,-105 -15,-37 -37,-69 -67,-97 -30,-28 -69,-52 -117,-71 -48,-19 -107,-29 -176,-29zm-7063 2906l419 -3441 419 0c85,0 152,21 201,65 49,43 74,111 74,203 0,4 0,7 0,11 0,5 0,21 -1,48 -1,28 -4,69 -6,126 -2,56 -6,135 -10,237 154,-249 321,-433 502,-554 181,-122 369,-183 565,-183 212,0 380,74 501,221 122,147 192,360 212,638 161,-294 339,-511 535,-650 195,-139 407,-209 637,-209 257,0 455,86 595,259 139,173 209,423 209,749 0,44 -1,91 -4,142 -2,50 -7,102 -13,153l-258 2186 -817 0c44,-380 83,-702 114,-966 31,-265 57,-485 77,-663 20,-177 36,-316 47,-416 11,-100 20,-178 26,-233 6,-55 9,-91 10,-111 1,-19 1,-33 1,-44 0,-134 -22,-231 -67,-290 -44,-59 -117,-88 -218,-88 -85,0 -167,22 -248,67 -80,45 -156,109 -229,194 -72,85 -139,189 -201,311 -61,123 -116,261 -163,415l-214 1824 -813 0 258 -2186c4,-47 9,-91 12,-133 4,-41 4,-79 4,-115 0,-134 -21,-231 -65,-290 -44,-59 -116,-88 -217,-88 -87,0 -172,24 -254,70 -83,47 -159,114 -232,202 -73,88 -140,195 -201,321 -61,126 -116,268 -163,424l-214 1794 -810 0zm-268 -2634c0,154 -30,294 -92,423 -61,127 -172,242 -330,343 -159,100 -373,187 -644,260 -271,73 -617,131 -1036,173l0 43c0,535 229,804 686,804 98,0 185,-10 261,-29 76,-19 143,-41 200,-68 57,-27 108,-57 154,-90 46,-33 88,-64 127,-91 39,-27 77,-50 115,-69 38,-19 79,-28 124,-28 27,0 54,7 80,19 27,12 49,30 67,54l211 256c-118,119 -234,221 -348,309 -114,87 -230,159 -348,215 -119,57 -243,98 -375,125 -132,27 -276,40 -432,40 -201,0 -383,-35 -546,-103 -163,-68 -302,-164 -419,-288 -116,-124 -205,-273 -269,-448 -63,-175 -96,-372 -96,-588 0,-181 20,-358 59,-533 39,-174 95,-339 169,-496 74,-156 164,-300 271,-431 107,-133 229,-247 364,-343 135,-96 283,-171 445,-224 162,-54 335,-80 520,-80 181,0 339,26 474,77 135,52 248,119 338,200 90,82 157,173 202,274 44,100 67,198 67,296zm-1128 -271c-112,0 -215,24 -311,69 -96,47 -182,113 -259,196 -77,83 -144,184 -201,300 -57,117 -102,244 -136,383 276,-38 500,-80 668,-125 169,-46 299,-96 392,-151 93,-54 154,-111 184,-173 30,-61 44,-127 44,-198 0,-33 -7,-69 -21,-105 -15,-37 -37,-69 -67,-97 -30,-28 -69,-52 -117,-71 -48,-19 -107,-29 -176,-29zm-2313 478c0,103 -11,194 -33,276 -22,81 -49,156 -81,226 -32,69 -68,134 -106,195 -38,61 -74,124 -107,187 -33,63 -61,129 -81,200 -21,70 -33,147 -33,232 0,91 19,175 57,252 38,77 79,155 124,235 44,80 86,166 124,258 38,90 57,196 57,317 0,169 -38,330 -114,482 -76,153 -185,287 -328,400 -143,115 -317,206 -522,272 -205,67 -437,100 -696,100 -212,0 -402,-22 -570,-66 -169,-44 -313,-104 -432,-182 -119,-78 -211,-171 -274,-277 -64,-106 -96,-222 -96,-349 0,-190 48,-349 144,-479 96,-130 220,-234 372,-313 152,-80 322,-136 511,-171 189,-35 376,-51 563,-51 92,0 181,4 268,12 87,9 170,20 248,35 -9,-37 -16,-73 -21,-108 -6,-37 -9,-75 -9,-115 0,-131 36,-276 107,-433 -85,58 -181,103 -288,134 -107,31 -237,47 -388,47 -130,0 -252,-21 -369,-63 -117,-43 -221,-107 -310,-194 -89,-87 -159,-196 -212,-327 -52,-130 -79,-282 -79,-456 0,-167 31,-331 94,-491 63,-159 155,-302 278,-428 123,-126 274,-226 455,-302 181,-76 391,-114 630,-114 127,0 249,16 363,46 115,30 220,75 316,133l961 0 -37 274c-9,55 -26,102 -51,141 -26,38 -64,65 -113,78l-351 96c11,44 20,91 26,139 6,49 8,100 8,154zm-1372 815c100,0 189,-23 265,-70 76,-46 141,-107 193,-183 52,-75 91,-161 118,-254 27,-95 40,-191 40,-288 0,-167 -39,-294 -117,-384 -78,-88 -192,-133 -342,-133 -100,0 -188,21 -264,65 -76,43 -139,102 -191,173 -51,72 -89,155 -115,249 -26,93 -39,190 -39,289 0,172 39,304 116,397 77,93 189,139 336,139zm539 1632c0,-31 -1,-61 -5,-91 -3,-30 -7,-58 -12,-85 -120,-20 -231,-34 -332,-43 -102,-9 -198,-13 -287,-13 -152,0 -281,12 -389,37 -108,25 -197,57 -268,97 -70,39 -122,86 -154,139 -32,54 -49,111 -49,170 0,134 54,235 161,304 107,69 272,104 496,104 125,0 239,-15 341,-47 103,-31 191,-75 265,-129 74,-56 131,-122 173,-198 41,-75 61,-156 61,-243zm-2638 -15l-435 0c-100,0 -170,-24 -211,-70 -40,-47 -60,-106 -60,-178l27 -469c-152,237 -322,423 -512,560 -190,137 -398,206 -626,206 -130,0 -250,-26 -363,-77 -113,-51 -211,-128 -294,-230 -84,-102 -150,-229 -198,-383 -48,-153 -72,-333 -72,-538 0,-206 26,-406 77,-600 51,-194 125,-377 220,-549 95,-171 209,-328 343,-471 134,-143 285,-266 451,-369 166,-104 346,-183 539,-240 193,-57 396,-86 610,-86 154,0 309,11 464,35 155,22 307,63 456,123l-415 3334zm-1493 -626c91,0 182,-31 270,-94 88,-63 170,-150 249,-260 78,-110 150,-241 217,-391 67,-149 125,-310 174,-482l131 -1039c-60,-8 -116,-11 -167,-11 -185,0 -357,43 -515,127 -159,85 -296,200 -412,344 -116,144 -206,313 -272,503 -66,191 -99,393 -99,605 0,241 38,419 114,530 76,111 180,167 311,167zm-4810 622l412 -3441 422 0c87,0 155,22 203,67 48,46 71,117 71,218l-23 472c174,-270 367,-472 579,-605 212,-133 431,-198 656,-198 127,0 243,22 347,68 104,46 192,113 266,201 74,88 130,196 170,325 40,128 60,276 60,444 0,42 -1,85 -4,128 -3,44 -8,89 -12,136l-258 2186 -827 0c45,-377 83,-697 114,-959 31,-262 57,-480 77,-654 20,-174 36,-311 47,-411 11,-99 20,-174 26,-225 6,-52 9,-86 10,-103 1,-17 1,-30 1,-41 0,-147 -27,-254 -80,-320 -54,-66 -137,-98 -251,-98 -92,0 -186,27 -285,80 -98,54 -192,130 -281,228 -89,98 -171,216 -244,355 -74,138 -134,292 -181,462l-187 1687 -827 0zm-767 4l-435 0c-100,0 -170,-24 -211,-70 -40,-47 -60,-106 -60,-178l27 -469c-152,237 -322,423 -512,560 -190,137 -398,206 -626,206 -130,0 -250,-26 -363,-77 -113,-51 -211,-128 -294,-230 -84,-102 -150,-229 -198,-383 -48,-153 -72,-333 -72,-538 0,-206 26,-406 77,-600 51,-194 125,-377 220,-549 95,-171 209,-328 343,-471 134,-143 285,-266 451,-369 166,-104 346,-183 539,-240 193,-57 396,-86 610,-86 154,0 309,11 464,35 155,22 307,63 456,123l-415 3334zm-1493 -626c91,0 182,-31 270,-94 88,-63 170,-150 249,-260 78,-110 150,-241 217,-391 67,-149 125,-310 174,-482l131 -1039c-60,-8 -116,-11 -167,-11 -185,0 -357,43 -515,127 -159,85 -296,200 -412,344 -116,144 -206,313 -272,503 -66,191 -99,393 -99,605 0,241 38,419 114,530 76,111 180,167 311,167zm-4358 -1315c20,58 38,117 54,178 16,60 31,122 47,184 27,-62 56,-124 87,-184 31,-60 65,-119 100,-178l1680 -2769c20,-33 41,-59 63,-78 21,-19 44,-33 67,-43 24,-9 49,-15 78,-17 29,-2 63,-4 101,-4l659 0 -596 4847 -763 0 388 -3154c7,-58 17,-122 30,-191 13,-69 28,-140 44,-211l-1664 2765c-38,62 -85,109 -142,141 -57,31 -119,47 -186,47l-120 0c-67,0 -125,-16 -175,-47 -50,-31 -87,-78 -109,-141l-997 -2757c-2,69 -4,136 -8,201 -4,65 -9,124 -16,178l-381 3170 -767 0 596 -4847 653 0c38,0 72,1 100,4 29,2 55,7 77,17 22,9 41,24 57,43 15,19 30,44 43,78l1001 2769zm-7485 1937l412 -3441 422 0c87,0 155,22 203,67 48,46 71,117 71,218l-23 472c174,-270 367,-472 579,-605 212,-133 431,-198 656,-198 127,0 243,22 347,68 104,46 192,113 266,201 74,88 130,196 170,325 40,128 60,276 60,444 0,42 -1,85 -4,128 -3,44 -8,89 -12,136l-258 2186 -827 0c45,-377 83,-697 114,-959 31,-262 57,-480 77,-654 20,-174 36,-311 47,-411 11,-99 20,-174 26,-225 6,-52 9,-86 10,-103 1,-17 1,-30 1,-41 0,-147 -27,-254 -80,-320 -54,-66 -137,-98 -251,-98 -92,0 -186,27 -285,80 -98,54 -192,130 -281,228 -89,98 -171,216 -244,355 -74,138 -134,292 -181,462l-187 1687 -827 0zm-2048 -579c138,0 263,-40 375,-119 112,-79 207,-186 287,-319 80,-133 140,-288 182,-464 43,-177 64,-363 64,-558 0,-279 -47,-485 -142,-617 -95,-131 -239,-198 -431,-198 -138,0 -263,40 -375,118 -112,78 -206,184 -285,318 -78,135 -138,290 -181,467 -43,177 -63,363 -63,561 0,279 47,484 141,616 94,131 236,196 428,196zm-74 633c-190,0 -365,-32 -527,-96 -162,-63 -301,-156 -419,-279 -117,-123 -209,-274 -276,-453 -67,-178 -100,-383 -100,-613 0,-297 48,-574 143,-831 95,-257 224,-479 389,-666 164,-189 355,-336 573,-443 219,-107 452,-161 700,-161 190,0 366,32 528,96 162,63 301,156 419,279 119,123 211,274 278,453 67,178 100,383 100,613 0,294 -48,570 -144,826 -96,257 -225,479 -389,667 -164,188 -356,337 -574,445 -219,108 -452,163 -700,163zm-1714 -3488l-411 3434 -817 0 412 -3434 817 0zm208 -1003c0,72 -15,139 -45,202 -30,63 -69,117 -117,165 -48,47 -104,83 -167,111 -62,28 -127,43 -194,43 -65,0 -127,-15 -189,-43 -61,-28 -116,-65 -163,-111 -47,-48 -83,-103 -111,-165 -28,-63 -43,-130 -43,-202 0,-71 15,-139 44,-204 29,-65 67,-122 114,-170 47,-48 102,-86 163,-114 61,-28 124,-43 189,-43 67,0 131,15 194,43 63,28 118,65 166,111 48,48 86,104 115,169 29,65 44,134 44,207zm-3565 3737c0,-15 0,-33 0,-55 0,-21 2,-52 6,-94 3,-42 9,-97 17,-165 8,-68 18,-155 31,-262l191 -1542 -324 0c-38,0 -68,-12 -92,-35 -23,-24 -35,-58 -35,-105 0,-2 1,-7 2,-13 1,-7 2,-22 5,-46 2,-23 7,-58 12,-105 6,-47 12,-113 21,-198l522 -91 274 -937c13,-44 37,-79 69,-104 32,-24 71,-37 118,-37l442 0 -134 1081 830 0 -70 589 -833 0 -184 1496c-11,91 -19,164 -25,217 -6,54 -10,95 -13,125 -3,30 -6,51 -7,63 -1,12 -2,21 -2,26 0,85 21,152 62,201 41,49 100,74 175,74 47,0 87,-7 120,-19 34,-12 63,-24 87,-38 24,-13 47,-27 66,-39 19,-12 37,-18 55,-18 24,0 44,7 59,19 15,12 27,30 38,55l178 405c-123,100 -259,176 -408,228 -150,52 -300,77 -452,77 -243,0 -435,-66 -577,-198 -142,-131 -217,-318 -223,-557zm-602 93c-114,126 -222,231 -326,316 -104,85 -210,153 -317,206 -107,51 -220,87 -338,108 -119,21 -248,32 -389,32 -198,0 -376,-35 -533,-103 -157,-68 -291,-164 -401,-289 -109,-125 -192,-276 -249,-452 -57,-176 -86,-373 -86,-589 0,-279 44,-546 134,-799 89,-253 214,-476 375,-669 161,-193 352,-347 572,-462 221,-115 462,-172 723,-172 228,0 422,40 581,122 159,80 301,201 426,363l-265 312c-20,20 -43,38 -68,55 -26,17 -55,26 -86,26 -38,0 -72,-12 -104,-35 -31,-24 -67,-48 -108,-75 -41,-27 -93,-52 -154,-76 -61,-23 -141,-35 -240,-35 -127,0 -249,35 -365,104 -116,69 -217,167 -306,293 -88,127 -158,280 -211,459 -52,178 -79,375 -79,591 0,252 56,446 167,583 112,137 262,206 452,206 127,0 233,-18 317,-55 83,-37 154,-77 212,-120 58,-44 111,-84 156,-120 46,-37 95,-56 148,-56 27,0 54,8 79,22 26,14 48,33 68,56l211 254zm-5035 -2826c-44,377 -82,697 -114,958 -31,261 -57,480 -77,654 -20,174 -36,311 -47,412 -11,100 -19,176 -25,228 -6,51 -9,87 -10,105 -1,18 -2,33 -2,44 0,147 28,252 83,316 55,63 137,96 249,96 87,0 177,-25 270,-73 93,-48 182,-116 268,-205 86,-89 165,-198 239,-326 74,-127 136,-269 187,-425l215 -1783 827 0 -415 3434 -418 0c-38,0 -74,-4 -108,-15 -35,-10 -66,-26 -94,-46 -28,-20 -50,-46 -67,-76 -17,-31 -26,-68 -26,-110l0 -13 20 -416c-174,245 -363,428 -570,549 -206,120 -420,181 -641,181 -127,0 -242,-23 -346,-69 -104,-46 -193,-111 -267,-198 -74,-87 -131,-195 -171,-324 -40,-128 -60,-276 -60,-441 0,-45 1,-89 4,-134 2,-45 7,-92 13,-141l257 -2181 827 0zm-3628 3434l419 -3441 419 0c80,0 146,18 197,55 52,35 77,94 77,173 0,0 0,4 0,12 0,8 -1,32 -4,72 -2,40 -4,104 -7,191 -2,87 -7,209 -13,365 141,-283 294,-502 462,-656 167,-155 341,-232 522,-232 91,0 184,21 278,63l-151 829c-111,-72 -218,-108 -318,-108 -198,0 -372,95 -522,285 -150,190 -272,487 -368,891l-181 1503 -810 0zm-2055 -701c0,-15 0,-33 0,-55 0,-21 2,-52 6,-94 3,-42 9,-97 17,-165 8,-68 18,-155 31,-262l191 -1542 -324 0c-38,0 -68,-12 -92,-35 -23,-24 -35,-58 -35,-105 0,-2 1,-7 2,-13 1,-7 2,-22 5,-46 2,-23 7,-58 12,-105 6,-47 12,-113 21,-198l522 -91 274 -937c13,-44 37,-79 69,-104 32,-24 71,-37 118,-37l442 0 -134 1081 830 0 -70 589 -833 0 -184 1496c-11,91 -19,164 -25,217 -6,54 -10,95 -13,125 -3,30 -6,51 -7,63 -1,12 -2,21 -2,26 0,85 21,152 62,201 41,49 100,74 175,74 47,0 87,-7 120,-19 34,-12 63,-24 87,-38 24,-13 47,-27 66,-39 19,-12 37,-18 55,-18 24,0 44,7 59,19 15,12 27,30 38,55l178 405c-123,100 -259,176 -408,228 -150,52 -300,77 -452,77 -243,0 -435,-66 -577,-198 -142,-131 -217,-318 -223,-557zm-666 -2091c-24,36 -48,61 -70,76 -22,15 -51,21 -87,21 -38,0 -77,-11 -117,-33 -40,-22 -86,-47 -139,-75 -52,-28 -113,-54 -181,-76 -68,-22 -150,-33 -246,-33 -176,0 -311,40 -405,119 -94,80 -141,178 -141,296 0,69 20,128 59,176 39,48 89,91 152,126 62,35 134,68 214,98 80,30 163,63 248,97 85,35 167,74 248,119 80,43 152,96 214,158 63,63 114,139 153,227 39,88 58,194 58,317 0,165 -32,322 -98,472 -66,150 -161,281 -283,394 -123,113 -271,202 -445,268 -174,66 -368,99 -582,99 -109,0 -215,-10 -316,-31 -102,-21 -198,-50 -287,-87 -89,-38 -170,-81 -242,-133 -72,-50 -135,-105 -186,-164l201 -320c24,-38 55,-68 89,-88 35,-20 75,-30 122,-30 47,0 89,15 127,44 38,29 83,60 134,94 51,35 114,67 186,96 72,29 165,44 279,44 91,0 173,-12 243,-37 70,-24 130,-58 178,-100 48,-43 84,-91 108,-148 24,-56 37,-115 37,-177 0,-76 -19,-140 -57,-190 -38,-50 -88,-94 -152,-131 -64,-37 -136,-69 -217,-97 -80,-28 -162,-58 -246,-89 -83,-31 -165,-67 -244,-107 -80,-40 -151,-92 -215,-153 -63,-61 -115,-136 -153,-224 -38,-89 -57,-196 -57,-325 0,-152 29,-300 87,-444 58,-144 144,-272 257,-383 113,-110 251,-200 415,-267 164,-67 352,-100 563,-100 219,0 413,38 581,113 168,76 310,172 426,289l-214 301zm-5885 2792l412 -3441 422 0c87,0 155,22 203,67 48,46 71,117 71,218l-23 472c174,-270 367,-472 579,-605 212,-133 431,-198 656,-198 127,0 243,22 347,68 104,46 192,113 266,201 74,88 130,196 170,325 40,128 60,276 60,444 0,42 -1,85 -4,128 -3,44 -8,89 -12,136l-258 2186 -827 0c45,-377 83,-697 114,-959 31,-262 57,-480 77,-654 20,-174 36,-311 47,-411 11,-99 20,-174 26,-225 6,-52 9,-86 10,-103 1,-17 1,-30 1,-41 0,-147 -27,-254 -80,-320 -54,-66 -137,-98 -251,-98 -92,0 -186,27 -285,80 -98,54 -192,130 -281,228 -89,98 -171,216 -244,355 -74,138 -134,292 -181,462l-187 1687 -827 0zm-2048 -579c138,0 263,-40 375,-119 112,-79 207,-186 287,-319 80,-133 140,-288 182,-464 43,-177 64,-363 64,-558 0,-279 -47,-485 -142,-617 -95,-131 -239,-198 -431,-198 -138,0 -263,40 -375,118 -112,78 -206,184 -285,318 -78,135 -138,290 -181,467 -43,177 -63,363 -63,561 0,279 47,484 141,616 94,131 236,196 428,196zm-74 633c-190,0 -365,-32 -527,-96 -162,-63 -301,-156 -419,-279 -117,-123 -209,-274 -276,-453 -67,-178 -100,-383 -100,-613 0,-297 48,-574 143,-831 95,-257 224,-479 389,-666 164,-189 355,-336 573,-443 219,-107 452,-161 700,-161 190,0 366,32 528,96 162,63 301,156 419,279 119,123 211,274 278,453 67,178 100,383 100,613 0,294 -48,570 -144,826 -96,257 -225,479 -389,667 -164,188 -356,337 -574,445 -219,108 -452,163 -700,163zm-3237 -736c136,0 256,-11 357,-33 102,-21 190,-48 265,-81 75,-33 138,-69 192,-106 54,-37 100,-72 141,-106 40,-33 76,-60 107,-81 31,-21 63,-32 94,-32 27,0 49,6 67,17 18,11 32,22 43,33l305 379c-210,241 -456,425 -740,554 -283,128 -609,193 -978,193 -297,0 -561,-54 -793,-159 -232,-106 -428,-252 -589,-441 -161,-187 -282,-409 -366,-667 -83,-257 -126,-537 -126,-841 0,-279 30,-543 91,-792 60,-249 146,-480 257,-691 112,-211 246,-400 402,-568 156,-167 329,-310 519,-430 190,-119 395,-209 615,-271 220,-63 448,-94 687,-94 176,0 337,17 482,49 145,32 277,77 395,135 119,58 224,128 318,209 94,81 178,173 254,274l-301 361c-22,27 -48,50 -78,70 -30,20 -68,30 -113,30 -49,0 -96,-20 -141,-60 -44,-41 -100,-85 -169,-133 -68,-48 -156,-93 -264,-133 -108,-40 -251,-60 -428,-60 -232,0 -447,48 -646,143 -198,95 -371,231 -519,407 -147,176 -262,389 -346,639 -84,249 -126,529 -126,839 0,226 29,428 86,608 57,179 135,330 235,454 100,124 220,219 358,284 138,66 289,100 452,100zm59681 41415c1109,0 1710,1096 1710,2383 0,1381 -622,2415 -1710,2415 -1077,0 -1731,-981 -1731,-2383 0,-1381 633,-2415 1731,-2415zm-7728 51c116,-30 337,-51 728,-51 739,0 1182,336 1182,975 0,619 -475,1017 -1278,1017l-633 0 0 -1942zm-6135 23c117,-31 338,-52 655,-52 813,0 1267,390 1267,1044 0,717 -528,1149 -1383,1149 -243,0 -401,-10 -538,-42l0 -2098z"/>
 </g>
</svg>
