<?xml version="1.0" encoding="UTF-8"?>
<!DOCTYPE svg PUBLIC "-//W3C//DTD SVG 1.1//EN" "http://www.w3.org/Graphics/SVG/1.1/DTD/svg11.dtd">
<!-- Creator: CorelDRAW -->
<svg xmlns="http://www.w3.org/2000/svg" xml:space="preserve" width="0.18in" height="0.18in" version="1.1" style="shape-rendering:geometricPrecision; text-rendering:geometricPrecision; image-rendering:optimizeQuality; fill-rule:evenodd; clip-rule:evenodd"
viewBox="0 0 180 180"
 xmlns:xlink="http://www.w3.org/1999/xlink"
 xmlns:xodm="http://www.corel.com/coreldraw/odm/2003">
 <defs>
  <style type="text/css">
   <![CDATA[
    .fil1 {fill:none}
    .fil0 {fill:#7F4629;fill-rule:nonzero}
   ]]>
  </style>
 </defs>
 <g id="Layer_x0020_1">
  <metadata id="CorelCorpID_0Corel-Layer"/>
  <path class="fil0" d="M100.35 44.86c-14.41,16.82 -20.73,28.07 -23.38,35.33 -2.49,6.82 -1.16,7.98 4.25,11.42 8.81,-0.3 21.5,-6.38 30.15,-9.22 6.45,-2.12 11.84,-5.33 16.91,-8.34 2.94,-1.75 9.9,-3.82 12.81,-5.24 1.55,-1.19 -3.08,-0.56 -7.19,-1.37 -3.47,-0.69 -3.94,-2.7 -5.47,-1.91 -0.83,0.44 -1.1,4.13 -3.57,5.66 -8.8,5.43 -18.83,2.41 -30.83,10.31 -1.27,-0.64 -0.48,-3.15 0.64,-5.25 4.8,-9.03 18.91,-15.32 21.15,-28.13 0.63,-3.62 -0.71,-7.08 -3.27,-9.67 -5.83,-5.89 -14.23,0.08 -14.25,0.1 -9.41,6.28 -30.73,22.06 -39.21,37.52 -3.52,6.37 1.77,12.27 6.96,15.55 6.31,3.98 20.43,12.38 24.28,18.41 1.94,3.06 1.32,24.68 0.61,28.65 -1.14,6.4 -10.76,5 -16.45,7.11 0.89,0.44 14.15,-0.41 17.85,-1.19 1.75,-1.35 1.4,-4.99 1.45,-7.24 0.09,-3.73 0.95,-9.19 1.2,-14.44 0.06,-1.2 0.67,-12 0.8,-12.49 -0.74,-3.7 -15.79,-13.42 -21.31,-17.96 -4.22,-3.78 -3.76,-9.1 -2,-13.91 2.59,-7.1 8.42,-17.71 21.02,-32.97 3.74,-4.54 7.3,-0.78 6.86,-0.72zm-14.01 50.55c2.24,1.74 4.47,3.57 6.47,5.32 2.72,2.37 5.02,4.61 6.35,6.3 1.63,1.63 1.4,4.32 1.09,8.28 -0.78,9.59 -3.52,20.42 -2.93,29.46 0.15,2.34 -2.21,3.19 -4.23,3.53 -8.41,1.43 -13.11,0.51 -20.77,0.44 -12.94,-0.11 0.83,-5.83 5.66,-6.82 2.88,-0.59 5.41,-1.17 8.06,-2.91 2.26,-4.57 0.7,-24.24 -0.04,-26.85 -3.77,-5.16 -16.85,-12.93 -22.5,-16.48 -7.5,-4.73 -13.48,-13.1 -8.61,-21.91 4.64,-10.23 33.83,-37.5 45.95,-41.75 4.11,-1.45 9.93,-2.17 14.67,2.43 4.02,3.89 6.06,9.45 4.93,14.98 -1.74,8.53 -9.55,17.32 -15.69,23.15 2.19,-0.49 4.34,-0.9 6.39,-1.28 7.97,-1.49 11.25,-0.75 13.36,-6.73 0.8,-2.26 1.44,-4.06 4.34,-3.81 2.1,0.15 3.82,2.39 6.79,3.5 1.72,0.65 3.4,1.37 7.36,1.31 8.79,-0.13 9.99,1.96 4.26,4.33 -7.1,2.94 -10.52,3.69 -17.77,8 -13.85,8.24 -27.53,13.57 -43.15,17.51zm-38 -1.52c3.19,-3.02 3.76,-9.37 2.64,-13.41 -1.42,-5.11 -5.29,-8.21 -10.39,-9.18 -6.45,-1.22 -11.77,6.61 -11.33,12.37 0.43,5.6 5.78,8.28 10.54,9.79 3.56,1.12 7.2,1.36 8.54,0.43zm-7.1 -5.01c-2.55,-0.8 -6.96,-2.41 -7.2,-5.57 -0.21,-2.65 2.58,-7.89 5.67,-7.3 3.29,0.62 5.74,2.43 6.66,5.75 0.7,2.53 0.41,5.95 -0.97,8.22 -0.57,-0.05 -2.22,-0.49 -4.16,-1.1z"/>
  <rect class="fil1" width="180" height="180"/>
 </g>
</svg>
