<?xml version="1.0" encoding="UTF-8"?>
<!DOCTYPE svg PUBLIC "-//W3C//DTD SVG 1.1//EN" "http://www.w3.org/Graphics/SVG/1.1/DTD/svg11.dtd">
<!-- Creator: CorelDRAW -->
<svg xmlns="http://www.w3.org/2000/svg" xml:space="preserve" width="0.18in" height="0.18in" version="1.1" style="shape-rendering:geometricPrecision; text-rendering:geometricPrecision; image-rendering:optimizeQuality; fill-rule:evenodd; clip-rule:evenodd"
viewBox="0 0 180 180"
 xmlns:xlink="http://www.w3.org/1999/xlink"
 xmlns:xodm="http://www.corel.com/coreldraw/odm/2003">
 <defs>
  <style type="text/css">
   <![CDATA[
    .fil1 {fill:none}
    .fil0 {fill:#7F4629;fill-rule:nonzero}
   ]]>
  </style>
 </defs>
 <g id="Layer_x0020_1">
  <metadata id="CorelCorpID_0Corel-Layer"/>
  <g id="_2905486764896">
   <path class="fil0" d="M98.39 160.04c-1.27,0 -2.33,-1.01 -2.37,-2.3l-1.47 -42.08c-0.04,-1.31 0.98,-2.41 2.3,-2.45 1.3,-0.08 2.41,0.98 2.46,2.29l1.46 42.08c0.05,1.31 -0.98,2.41 -2.3,2.46 -0.03,0 -0.06,0 -0.08,0z"/>
   <path class="fil0" d="M24.95 160.04c-0.03,0 -0.06,0 -0.08,0 -1.31,-0.05 -2.34,-1.15 -2.29,-2.46l2.96 -85.43c0,-2.62 2.2,-4.81 4.91,-4.81l57.79 0c1.31,0 2.38,1.06 2.38,2.37 0,1.31 -1.07,2.37 -2.38,2.37l-57.79 0 -3.12 85.65c-0.05,1.28 -1.1,2.3 -2.37,2.3z"/>
   <path class="fil0" d="M50.55 129.71c-1.31,0 -2.38,-1.07 -2.38,-2.38l0 -60.98c0,-1.31 1.06,-2.37 2.38,-2.37 1.31,0 2.37,1.06 2.37,2.37l0 60.98c0,1.31 -1.06,2.38 -2.37,2.38z"/>
   <path class="fil0" d="M72.8 129.71c-1.31,0 -2.38,-1.07 -2.38,-2.38l0 -60.98c0,-1.31 1.07,-2.37 2.38,-2.37 1.31,0 2.37,1.06 2.37,2.37l0 60.98c0,1.31 -1.06,2.38 -2.37,2.38z"/>
   <path class="fil0" d="M76.09 137.46l-28.84 0c-3.2,0 -5.81,-2.61 -5.81,-5.81l0 -0.61c0,-3.21 2.61,-5.81 5.81,-5.81l28.84 0c3.2,0 5.81,2.6 5.81,5.81l0 0.61c0,3.2 -2.6,5.81 -5.81,5.81zm-28.84 -7.48c-0.58,0 -1.06,0.47 -1.06,1.06l0 0.61c0,0.58 0.48,1.06 1.06,1.06l28.84 0c0.58,0 1.06,-0.47 1.06,-1.06l0 -0.61c0,-0.59 -0.48,-1.06 -1.06,-1.06l-28.84 0z"/>
   <path class="fil0" d="M120.07 128.63c-20.59,0 -37.35,-20.11 -37.35,-44.82 0,-24.08 34.15,-61.54 35.6,-63.13 0.9,-0.98 2.6,-0.98 3.5,0 1.46,1.59 35.61,39.04 35.61,63.13 0,24.71 -16.76,44.82 -37.35,44.82zm0 -102.76c-7,8.01 -32.6,38.65 -32.6,57.94 0,22.09 14.62,40.06 32.6,40.06 17.98,0 32.61,-17.97 32.61,-40.06 0,-19.29 -25.6,-49.93 -32.61,-57.94z"/>
   <path class="fil0" d="M120.08 160.04c-1.31,0 -2.38,-1.06 -2.38,-2.37l0 -31.46c0,-1.31 1.07,-2.37 2.38,-2.37 1.31,0 2.37,1.06 2.37,2.37l0 31.46c0,1.31 -1.06,2.37 -2.37,2.37z"/>
   <path class="fil0" d="M132.16 116.09c-0.5,0 -1.02,-0.16 -1.44,-0.49 -1.04,-0.8 -1.24,-2.29 -0.44,-3.33 21.46,-28.02 1.72,-51.14 1.52,-51.37 -0.86,-0.98 -0.76,-2.48 0.22,-3.35 0.99,-0.87 2.49,-0.76 3.35,0.22 0.22,0.26 22.49,26.31 -1.32,57.39 -0.47,0.61 -1.17,0.93 -1.89,0.93z"/>
  </g>
  <rect class="fil1" width="180" height="180"/>
 </g>
</svg>
