<?xml version="1.0" encoding="UTF-8"?>
<!DOCTYPE svg PUBLIC "-//W3C//DTD SVG 1.1//EN" "http://www.w3.org/Graphics/SVG/1.1/DTD/svg11.dtd">
<!-- Creator: CorelDRAW -->
<svg xmlns="http://www.w3.org/2000/svg" xml:space="preserve" width="0.18in" height="0.18in" version="1.1" style="shape-rendering:geometricPrecision; text-rendering:geometricPrecision; image-rendering:optimizeQuality; fill-rule:evenodd; clip-rule:evenodd"
viewBox="0 0 180 180"
 xmlns:xlink="http://www.w3.org/1999/xlink"
 xmlns:xodm="http://www.corel.com/coreldraw/odm/2003">
 <defs>
  <style type="text/css">
   <![CDATA[
    .fil1 {fill:none}
    .fil0 {fill:#7F4629}
   ]]>
  </style>
 </defs>
 <g id="Layer_x0020_1">
  <metadata id="CorelCorpID_0Corel-Layer"/>
  <path class="fil0" d="M120.6 62.59c0.65,0.49 1.16,0.89 1.68,1.27 3.52,2.59 3.96,5.55 1.3,9.07 -8.86,11.76 -17.74,23.51 -26.57,35.29 -0.45,0.6 -0.75,1.48 -0.75,2.23 -0.04,13.6 -0.03,27.2 -0.04,40.8 0,2.26 -0.18,2.43 -2.48,2.44 -2.57,0 -5.14,0 -7.71,-0 -1.82,-0.01 -2.06,-0.24 -2.06,-2.03 -0,-8.11 0,-16.22 0,-24.32 0,-0.47 0,-0.94 0,-1.72 -0.48,0.56 -0.78,0.89 -1.05,1.24 -2.43,3.19 -4.83,6.39 -7.3,9.56 -0.61,0.77 -1.46,1.35 -2.11,2.09 -0.29,0.34 -0.5,0.87 -0.5,1.32 -0.04,3.92 -0.02,7.85 -0.03,11.77 -0,1.66 -0.33,2 -1.98,2 -2.74,0.01 -5.49,0.01 -8.24,0 -1.6,-0 -2.01,-0.41 -2.02,-2.01 -0.01,-6.1 -0.04,-12.2 0.02,-18.31 0.01,-1.09 -0.33,-1.74 -1.2,-2.36 -2.13,-1.52 -4.19,-3.13 -6.26,-4.72 -2.32,-1.78 -2.67,-4.17 -0.93,-6.5 2.58,-3.45 5.2,-6.88 7.76,-10.35 0.33,-0.45 0.58,-1.09 0.58,-1.65 0.03,-16.69 0.03,-33.39 0.02,-50.08 0,-0.3 -0.04,-0.59 -0.06,-0.96 -3.57,0 -7.08,0 -10.8,0 0,0.59 0,1.17 0,1.76 0,30.82 0,61.63 0,92.45 0,0.48 0.02,0.96 -0.02,1.44 -0.08,0.85 -0.52,1.37 -1.44,1.37 -3.14,0 -6.28,0 -9.41,-0.01 -0.9,0 -1.36,-0.47 -1.36,-1.39 0,-0.35 -0.01,-0.7 -0.01,-1.04 0,-32.26 0.01,-64.51 -0.01,-96.76 0,-1.98 0.21,-3.75 2.26,-4.72 0.17,-0.08 0.28,-0.41 0.3,-0.63 0.41,-3.65 0.98,-4.19 4.59,-4.31 0.13,0 0.26,-0.03 0.47,-0.06 0.07,-0.31 0.16,-0.63 0.22,-0.96 0.37,-2.18 1.5,-3.13 3.75,-3.13 3.27,0 6.54,0 9.81,0 3.48,0 4.26,0.65 4.87,4.19 1.61,-0.09 3.25,-0.17 4.96,-0.26 0.07,-0.37 0.13,-0.7 0.19,-1.03 0.33,-1.99 1.55,-3.06 3.58,-3.07 3.7,-0.02 7.41,-0.02 11.11,0 2.07,0.01 3.24,1.01 3.62,3.03 0.06,0.34 0.14,0.67 0.23,1.13 0.46,0 0.88,-0 1.31,0 2.18,0.02 3.46,1.08 3.68,3.22 0.09,0.9 0.35,1.44 1.2,1.9 1.48,0.8 2.23,2.15 2.23,3.87 -0.01,2.56 0,5.11 0.27,7.8 0.56,-0.73 1.13,-1.46 1.69,-2.2 1.03,-1.35 2.06,-2.7 3.1,-4.05 2.07,-2.65 5.2,-3.11 7.98,-1.17 0.75,0.53 1.47,1.08 2.31,1.69 0.27,-0.31 0.53,-0.58 0.76,-0.88 6.64,-8.8 13.28,-17.6 19.91,-26.4 1.81,-2.41 4.17,-2.76 6.57,-0.99 0.56,0.42 1.11,0.84 1.67,1.27 2.4,1.86 2.74,4.42 0.89,6.85 -4.48,5.9 -8.97,11.79 -13.46,17.68 -2.34,3.08 -4.69,6.17 -7.11,9.36zm10.12 82.52c-0.19,-0.36 -0.57,-0.73 -0.5,-0.99 0.23,-0.87 0.58,-1.72 0.97,-2.54 0.09,-0.19 0.49,-0.35 0.74,-0.34 0.17,0.01 0.5,0.38 0.47,0.5 -0.31,1.02 -0.67,2.02 -1.05,3.02 -0.05,0.12 -0.28,0.16 -0.63,0.35zm-0.31 -20.72c0.37,0.26 0.65,0.35 0.74,0.54 0.37,0.78 0.72,1.57 0.99,2.38 0.07,0.24 -0.1,0.75 -0.29,0.83 -0.24,0.09 -0.78,-0.03 -0.89,-0.22 -0.43,-0.84 -0.8,-1.72 -1.09,-2.62 -0.06,-0.21 0.31,-0.55 0.53,-0.91zm-3.21 15.19c-0.22,1.02 -0.35,1.89 -0.61,2.7 -0.09,0.27 -0.53,0.42 -0.81,0.63 -0.16,-0.3 -0.48,-0.61 -0.46,-0.9 0.06,-0.81 0.2,-1.64 0.44,-2.42 0.1,-0.31 0.55,-0.51 0.84,-0.76 0.21,0.27 0.43,0.53 0.6,0.74zm-3.49 8.96c-0.11,-0.47 -0.36,-0.92 -0.26,-1.25 0.26,-0.81 0.66,-1.59 1.07,-2.34 0.13,-0.24 0.57,-0.5 0.77,-0.44 0.24,0.08 0.59,0.57 0.53,0.74 -0.43,1.02 -0.95,2 -1.46,2.99 -0.04,0.09 -0.22,0.11 -0.66,0.3zm1.5 -22.47c-0.34,-0.21 -0.6,-0.28 -0.68,-0.43 -0.46,-0.93 -0.91,-1.86 -1.28,-2.82 -0.07,-0.18 0.16,-0.57 0.36,-0.72 0.13,-0.1 0.6,-0.02 0.68,0.12 0.54,0.97 1.06,1.97 1.48,3 0.07,0.17 -0.34,0.54 -0.56,0.86zm2.58 5.24c-0.35,0.09 -0.7,0.28 -1.03,0.25 -0.29,-0.03 -0.74,-0.25 -0.8,-0.48 -0.27,-0.96 -0.46,-1.94 -0.58,-2.92 -0.03,-0.26 0.29,-0.56 0.45,-0.84 0.3,0.18 0.81,0.3 0.88,0.56 0.27,0.95 0.4,1.94 0.59,2.93 0.17,0.17 0.33,0.33 0.5,0.51zm-0.22 3.76c0,0.43 0.09,0.89 -0.03,1.3 -0.09,0.3 -0.44,0.53 -0.67,0.8 -0.24,-0.25 -0.66,-0.48 -0.69,-0.76 -0.09,-0.81 -0.12,-1.66 0,-2.47 0.06,-0.35 0.54,-0.64 0.83,-0.96 0.19,0.35 0.44,0.68 0.55,1.06 0.09,0.32 0.02,0.69 0.02,1.04 -0,0 -0.01,0 -0.01,0zm5.81 0.02c0,0.82 0.08,1.66 -0.04,2.46 -0.05,0.35 -0.51,0.63 -0.79,0.95 -0.21,-0.34 -0.58,-0.66 -0.59,-1.01 -0.09,-1.85 -0.11,-3.7 -0.09,-5.55 0,-0.34 0.31,-0.69 0.47,-1.04 0.28,0.29 0.77,0.54 0.82,0.87 0.18,1.09 0.2,2.2 0.29,3.31 -0.03,0 -0.05,0 -0.08,0zm-10.38 -17.13c9.66,-0.01 17.46,7.71 17.43,17.27 -0.02,9.55 -7.85,17.3 -17.46,17.3 -9.21,0 -17.23,-8.11 -17.18,-17.38 0.05,-9.54 7.7,-17.19 17.2,-17.19zm6.1 3.81l0 0c-0.66,1.29 -1.27,0.85 -1.96,0.04 -0.31,-0.37 -0.8,-0.82 -1.23,-0.83 -1.91,-0.08 -3.87,-0.31 -5.71,0.04 -6.66,1.28 -11.29,6.96 -11.52,13.82 -0.21,6.39 4.16,12.33 10.5,14.11 1.06,0.3 2.3,-0.01 3.37,0.27 2.16,0.56 3.98,0.41 5.42,-1.53 0.81,-1.09 1.25,-0.94 1.76,0.48 5.24,-2.87 8.11,-7.29 8.06,-13.22 -0.06,-6.07 -3.18,-10.41 -8.68,-13.19zm-6.06 -53.1l0 0c-0.66,-0.83 -1.15,-1.78 -1.92,-2.37 -4.38,-3.38 -8.81,-6.69 -13.23,-10.02 -1.85,-1.39 -3.28,-1.18 -4.69,0.68 -16.17,21.35 -32.34,42.71 -48.51,64.07 -1.17,1.54 -1.09,2.17 0.46,3.34 4.96,3.76 9.93,7.52 14.91,11.27 1.31,0.99 2.1,0.87 3.09,-0.42 1.82,-2.39 3.62,-4.8 5.44,-7.19 14.41,-19.03 28.82,-38.05 43.21,-57.09 0.46,-0.6 0.73,-1.33 1.24,-2.28zm-75.91 82.07l0 0c0,-0.58 0,-1.09 0,-1.61 0,-11.55 0,-23.09 0,-34.64 0,-19.04 0,-38.07 -0,-57.11 0,-0.46 0.01,-0.99 -0.19,-1.38 -0.59,-1.15 -1.29,-2.26 -2.01,-3.5 -0.84,-0.16 -1.97,-0.47 -3.12,-0.54 -0.41,-0.02 -1.02,0.43 -1.24,0.82 -0.25,0.45 -0.22,1.09 -0.22,1.65 -0.01,31.63 -0.01,63.26 -0.01,94.89 0,0.47 0,0.93 0,1.43 2.34,0 4.5,0 6.79,0zm16.97 -98.32l0 0c-0.53,1.93 -0.84,50.09 -0.31,52.11 2.13,-2.83 4.23,-5.6 6.28,-8.41 0.25,-0.34 0.28,-0.9 0.28,-1.35 0.02,-12.63 0.01,-25.26 0,-37.89 0,-0.42 -0.06,-0.87 -0.21,-1.25 -0.4,-1.03 -0.87,-2.04 -1.37,-3.2 -1.41,0 -3.04,0 -4.66,0zm8.97 39.81l0 0c3.69,-4.86 7.18,-9.43 10.62,-14.03 0.25,-0.33 0.28,-0.89 0.29,-1.35 0.02,-6.37 0.01,-12.73 0.01,-19.09 0,-0.37 -0.05,-0.75 -0.07,-1.1 -3.67,0 -7.22,0 -10.84,0 0,11.78 0,23.48 0,35.57zm13.63 58.68l0 0c2.34,0 4.49,0 6.62,0 0,-12.61 0,-25.13 0,-37.89 -2.1,2.79 -4.06,5.34 -5.94,7.95 -0.39,0.55 -0.65,1.33 -0.65,2.01 -0.04,8.84 -0.03,17.68 -0.03,26.52 0,0.47 0,0.93 0,1.41zm27.06 -93.66l0 0c1.67,1.28 3.2,2.47 4.77,3.68 0.32,-0.39 0.54,-0.65 0.75,-0.93 6.26,-8.21 12.5,-16.43 18.76,-24.64 2.4,-3.15 2.41,-3.16 -0.86,-5.52 -1.45,-1.04 -1.93,-0.99 -3.02,0.44 -2.53,3.33 -5.05,6.67 -7.57,10 -4.25,5.63 -8.5,11.25 -12.82,16.96zm-35.37 -14.03l0 0c-1.35,0 -2.7,-0.02 -4.06,0 -2.46,0.04 -2.44,-0.5 -2.48,2.31 -0.02,1.38 -0.52,1.83 -1.94,1.85 -0.74,0.01 -1.48,0.04 -2.22,-0.01 -0.84,-0.06 -1.06,0.37 -1.04,1.11 0.02,0.7 0.06,1.32 1.03,1.27 0.87,-0.04 1.74,0 2.61,0 0.96,0 1.43,0.56 1.54,1.44 0.05,0.39 0.06,0.79 0.02,1.18 -0.12,1.19 0.26,1.7 1.59,1.65 2.91,-0.1 5.84,-0.03 8.76,-0.03 2.57,0 2.59,0 2.69,-2.52 0.05,-1.18 0.54,-1.78 1.76,-1.73 0.7,0.04 1.4,-0.05 2.09,0.02 1.21,0.12 1.4,-0.55 1.3,-1.52 -0.13,-1.3 -1.13,-0.83 -1.81,-0.84 -3.06,-0.04 -3.09,-0.02 -3.35,-3.04 -0.07,-0.87 -0.38,-1.2 -1.28,-1.17 -1.74,0.07 -3.49,0.02 -5.23,0.02zm-14.56 4.22l0 0c-0.31,-0.02 -0.53,-0.04 -0.74,-0.05 -1.5,-0.07 -1.84,-0.41 -1.86,-1.87 -0,-0.31 -0.01,-0.61 0,-0.92 0.04,-1.03 -0.36,-1.43 -1.46,-1.41 -3.05,0.07 -6.1,0.03 -9.15,0.03 -2.41,0 -2.44,0 -2.47,2.44 -0.02,1.22 -0.59,1.75 -1.76,1.73 -0.74,-0.01 -1.48,0.05 -2.22,-0.01 -0.92,-0.08 -1.27,0.33 -1.26,1.2 0.01,0.87 0.39,1.26 1.29,1.19 0.65,-0.06 1.31,-0.02 1.96,-0.01 1.68,0.02 1.96,0.3 1.97,1.99 0,0.26 0.02,0.52 0,0.78 -0.06,0.98 0.31,1.41 1.37,1.39 3.05,-0.05 6.1,-0.02 9.15,-0.02 2.5,0 2.53,0 2.57,-2.52 0.02,-1.08 0.45,-1.63 1.56,-1.62 0.33,0 0.67,-0.05 1.06,-0.07 0,-0.75 0,-1.43 0,-2.24zm23.01 26.86l0 0c1.39,-1.83 2.38,-3.48 3.69,-4.83 2.65,-2.72 3.57,-5.85 3.16,-9.58 -0.23,-2.07 -0.01,-4.17 -0.06,-6.26 -0.02,-1.25 -1.01,-2.2 -1.93,-1.95 -1.23,0.33 -2.44,0.7 -4.09,1.19 -0.23,1.72 -0.69,3.83 -0.74,5.95 -0.12,4.61 -0.04,9.23 -0.04,13.84 0,0.41 0,0.82 0,1.64zm-23.19 59.88l0 0c0,5.7 0,11.22 0,16.72 2.3,0 4.49,0 6.71,0 0,-4.09 0,-8.07 0,-11.8 -2.31,-1.7 -4.45,-3.27 -6.71,-4.93z"/>
  <rect class="fil1" width="180" height="180"/>
 </g>
</svg>
