<?xml version="1.0" encoding="UTF-8"?>
<!DOCTYPE svg PUBLIC "-//W3C//DTD SVG 1.1//EN" "http://www.w3.org/Graphics/SVG/1.1/DTD/svg11.dtd">
<!-- Creator: CorelDRAW -->
<svg xmlns="http://www.w3.org/2000/svg" xml:space="preserve" width="0.18in" height="0.18in" version="1.1" style="shape-rendering:geometricPrecision; text-rendering:geometricPrecision; image-rendering:optimizeQuality; fill-rule:evenodd; clip-rule:evenodd"
viewBox="0 0 180 180"
 xmlns:xlink="http://www.w3.org/1999/xlink"
 xmlns:xodm="http://www.corel.com/coreldraw/odm/2003">
 <defs>
  <style type="text/css">
   <![CDATA[
    .fil1 {fill:none}
    .fil0 {fill:#7F4629}
   ]]>
  </style>
 </defs>
 <g id="Layer_x0020_1">
  <metadata id="CorelCorpID_0Corel-Layer"/>
  <path class="fil0" d="M59.57 157.77c-1.02,-0.74 -1.36,-1.73 -1.3,-2.97 0.07,-1.58 0.02,-3.17 0.02,-4.86 -3.46,-0.66 -6.87,-1.33 -10.26,-1.97 -6.14,-1.17 -12.28,-2.31 -18.42,-3.48 -1.55,-0.3 -2.06,-0.93 -2.07,-2.56 -0.02,-1.28 -0.02,-2.56 0,-3.83 0.02,-1.68 0.7,-2.4 2.41,-2.45 1.45,-0.05 2.9,-0.01 4.05,-0.01 -0.3,-2.27 -0.78,-4.47 -0.81,-6.67 -0.04,-3 1.06,-5.78 2.57,-8.35 0.61,-1.04 1.82,-1.36 2.74,-0.78 1.02,0.63 1.16,1.54 0.76,2.64 -0.72,1.97 -1.6,3.92 -2.01,5.96 -0.48,2.41 -0.01,4.76 1.9,6.56 0.3,0.29 0.72,0.55 1.12,0.6 6.2,0.89 10.88,-1.83 13.41,-7.72 1.09,-2.52 1.59,-5.13 0.91,-7.85 -0.15,-0.58 -0.43,-1.13 -0.76,-1.96 -0.41,0.57 -0.67,0.94 -0.93,1.32 -1.94,2.89 -3.86,5.79 -5.81,8.68 -0.3,0.44 -0.59,1.05 -1.01,1.18 -0.72,0.21 -1.63,0.35 -2.29,0.08 -0.83,-0.33 -1.08,-1.26 -0.77,-2.15 0.17,-0.49 0.48,-0.94 0.78,-1.37 2.15,-3.22 4.3,-6.45 6.55,-9.81 -1.93,-0.47 -3.55,0.11 -5.13,0.85 -0.52,0.24 -0.98,0.59 -1.5,0.84 -1.13,0.56 -2.19,0.3 -2.77,-0.64 -0.59,-0.94 -0.35,-2.06 0.7,-2.76 2.87,-1.89 5.97,-3 9.49,-2.33 0.21,0.04 0.43,0.02 0.83,0.05 -0.1,-0.7 -0.22,-1.33 -0.28,-1.96 -0.21,-2.45 -0.56,-4.91 -0.58,-7.37 -0.07,-7.5 -0.04,-15 -0.03,-22.5 0,-3.75 1.75,-5.48 5.53,-5.48 16.23,0 32.47,0 48.7,0.01 0.52,0 1.06,0.03 1.56,0.17 0.98,0.26 1.46,0.97 1.4,1.97 -0.06,1 -0.61,1.64 -1.61,1.8 -0.56,0.08 -1.14,0.1 -1.71,0.1 -15.84,0.01 -31.68,0 -47.52,0.01 -2.36,0 -2.36,0 -2.36,2.36 0,0.47 0,0.95 0,1.49 22.89,0 45.64,0 68.6,0 0,-1.02 0.1,-2.07 -0.06,-3.08 -0.05,-0.32 -0.79,-0.73 -1.23,-0.74 -2.51,-0.07 -5.03,-0.03 -7.54,-0.04 -0.53,0 -1.19,0.11 -1.55,-0.15 -0.61,-0.44 -1.4,-1.11 -1.44,-1.73 -0.04,-0.63 0.64,-1.41 1.2,-1.92 0.31,-0.29 1,-0.23 1.52,-0.24 2.56,-0.02 5.12,0.07 7.68,-0.03 3.07,-0.13 5.57,1.81 5.48,5.04 -0,0.21 0.06,0.43 0.1,0.69 3.71,-0.46 7.31,-0.29 10.83,1.02 8.96,3.32 14.33,11.66 13.82,21.54 -0.44,8.63 -7.16,16.57 -15.97,18.75 -4.03,1 -8.03,0.81 -11.96,-0.54 -0.57,-0.2 -0.98,-0.38 -1.43,0.32 -5,7.69 -5.01,7.69 -12.84,14.05 0.62,0.04 1.01,0.08 1.4,0.08 3.31,0.01 6.62,0 9.93,0.01 0.52,0 1.18,-0.09 1.55,0.18 0.61,0.44 1.29,1.07 1.48,1.75 0.25,0.93 -0.39,1.71 -1.36,1.95 -0.63,0.16 -1.3,0.19 -1.96,0.19 -29.3,0.01 -58.59,0.01 -87.88,0.01 -0.57,0 -1.14,0 -1.74,0 -0.39,0.87 -0.01,1.06 0.74,1.2 5.45,1.01 10.89,2.07 16.34,3.11 3.46,0.66 6.91,1.33 10.38,1.96 0.78,0.14 1.57,0.22 2.36,0.22 18.57,0.01 37.15,0.08 55.72,-0.06 3.08,-0.02 6.17,-0.88 9.24,-1.44 6.36,-1.17 12.71,-2.38 19.06,-3.64 0.61,-0.12 1.9,0.29 1.63,-1.35 -0.48,0 -0.95,0 -1.42,0 -4.85,0 -9.71,0 -14.56,-0.01 -0.57,-0 -1.15,-0.04 -1.69,-0.2 -0.91,-0.26 -1.36,-0.93 -1.34,-1.88 0.02,-0.96 0.5,-1.59 1.42,-1.82 0.5,-0.12 1.04,-0.16 1.57,-0.16 5.69,-0.01 11.39,-0.01 17.07,-0 2.46,0 3.04,0.59 3.04,3.04 0,1.15 -0.01,2.3 0,3.44 0.02,1.38 -0.7,2.12 -2,2.37 -7.09,1.34 -14.18,2.68 -21.27,4.02 -2.46,0.46 -4.92,0.94 -7.52,1.44 0,1.69 -0.06,3.36 0.02,5.02 0.06,1.22 -0.31,2.15 -1.33,2.81 -19.85,0 -39.71,0 -59.56,0zm28.37 -103.93c-0.12,4.67 -2.08,8.42 -5.94,11.15 -1.15,0.82 -2.35,0.73 -3.05,-0.18 -0.73,-0.96 -0.49,-2.25 0.72,-3.07 5.69,-3.84 5.68,-12.19 -0.03,-16 -1.17,-0.78 -1.4,-2.02 -0.74,-2.97 0.73,-1.02 1.87,-1.12 3.13,-0.23 3.86,2.74 5.81,6.5 5.91,11.3zm29.11 -0.02c-0.16,4.72 -2.11,8.47 -5.98,11.19 -1.15,0.81 -2.35,0.71 -3.04,-0.21 -0.74,-0.98 -0.52,-2.22 0.72,-3.06 5.72,-3.87 5.65,-12.18 0,-15.98 -1.21,-0.81 -1.46,-1.98 -0.8,-2.94 0.69,-1.03 1.89,-1.17 3.11,-0.31 3.92,2.75 5.86,6.54 5.98,11.3zm-20.68 -31.58c2.57,1.79 4.74,3.94 5.8,6.97 1.75,5.06 0.98,9.71 -2.49,13.86 -0.22,0.26 -0.46,0.52 -0.75,0.85 1.94,2.04 3.29,4.35 3.86,7.1 1.11,5.34 -1.22,11.06 -5.79,14.06 -1.1,0.73 -2.26,0.62 -2.94,-0.27 -0.7,-0.92 -0.49,-2.2 0.62,-2.99 2.78,-1.96 4.31,-4.6 4.34,-8.02 0.02,-3.21 -1.32,-5.79 -3.86,-7.74 -2.03,-1.56 -2.05,-2.75 -0.05,-4.24 5.24,-3.91 5.26,-11.51 0.04,-15.44 -2.04,-1.54 -2.07,-2.74 -0.12,-4.13 0.44,0 0.88,0 1.32,0zm27.3 64.61l0 0c-22.96,0 -45.74,0 -68.61,0 0,5.39 -0.02,10.67 0.01,15.96 0.02,5.49 1.12,10.74 3.56,15.7 0.35,0.7 0.64,0.93 1.49,0.77 3.66,-0.72 7.25,-0.48 10.76,0.92 4.54,1.81 7.19,5.79 6.63,10.43 -0.18,1.48 -0.86,2.89 -1.37,4.5 0.85,0.17 1.74,0.48 2.63,0.48 7.06,0.04 14.11,0.04 21.17,0.01 0.69,0 1.4,-0.17 2.04,-0.41 5.4,-2.11 9.97,-5.43 13.69,-9.86 3.96,-4.72 6.65,-10.09 7.43,-16.23 0.47,-3.79 0.46,-7.64 0.56,-11.47 0.08,-3.56 0.02,-7.13 0.02,-10.79zm4.04 2.66l0 0c6.58,-1.28 11.67,0.59 14.66,6.55 2.15,4.28 1.69,8.63 -1.24,12.44 -3.73,4.85 -8.72,5.86 -14.48,4.04 -0.48,1.52 -0.95,3.04 -1.43,4.56 3.14,1.31 6.66,1.59 9.81,0.84 9.05,-2.16 14.44,-10.04 13.24,-19.38 -1.18,-9.13 -10.79,-16 -19.78,-14.09 -0.31,0.07 -0.73,0.51 -0.75,0.8 -0.08,1.36 -0.04,2.72 -0.04,4.26zm-11.33 60.89l0 0c-18.04,0 -35.99,0 -53.96,0 0,1.19 0,2.26 0,3.33 18.03,0 35.96,0 53.96,0 0,-1.11 0,-2.15 0,-3.33zm11.33 -49.54l0 0c-0.04,0 -0.08,0 -0.12,0 0,1.8 0.04,3.61 -0.01,5.41 -0.06,2.38 0.3,2.83 2.77,3.06 0.57,0.06 1.15,0.06 1.71,0.01 3.33,-0.31 5.7,-2.03 6.92,-5.11 1.28,-3.25 0.64,-6.28 -1.81,-8.75 -2.34,-2.35 -5.22,-2.89 -8.4,-1.93 -0.8,0.24 -1.11,0.65 -1.08,1.5 0.06,1.94 0.02,3.87 0.02,5.81zm-54.39 29.69l0 0c-4.08,0.8 -8.05,1.59 -12.01,2.35 -1.57,0.3 -2.57,-0.22 -2.8,-1.4 -0.26,-1.3 0.46,-2.22 2.03,-2.54 1.89,-0.38 3.8,-0.73 5.69,-1.11 2.09,-0.42 4.18,-0.85 6.47,-1.32 -0.43,-0.49 -0.69,-0.84 -1.01,-1.12 -3.24,-2.86 -8.7,-3.04 -12.39,-1.76 -0.25,0.09 -0.47,0.58 -0.52,0.91 -0.59,3.8 -2.2,7.11 -4.68,10.02 -0.23,0.27 -0.43,0.57 -0.78,1.05 5.13,0 9.98,0 14.82,0 2.42,0 4.94,-2.43 5.18,-5.08z"/>
  <rect class="fil1" width="180" height="180"/>
 </g>
</svg>
