<?xml version="1.0" encoding="UTF-8"?>
<!DOCTYPE svg PUBLIC "-//W3C//DTD SVG 1.1//EN" "http://www.w3.org/Graphics/SVG/1.1/DTD/svg11.dtd">
<!-- Creator: CorelDRAW -->
<svg xmlns="http://www.w3.org/2000/svg" xml:space="preserve" width="0.18in" height="0.18in" version="1.1" style="shape-rendering:geometricPrecision; text-rendering:geometricPrecision; image-rendering:optimizeQuality; fill-rule:evenodd; clip-rule:evenodd"
viewBox="0 0 180 180"
 xmlns:xlink="http://www.w3.org/1999/xlink"
 xmlns:xodm="http://www.corel.com/coreldraw/odm/2003">
 <defs>
  <style type="text/css">
   <![CDATA[
    .fil1 {fill:none}
    .fil0 {fill:#7F4629;fill-rule:nonzero}
   ]]>
  </style>
 </defs>
 <g id="Layer_x0020_1">
  <metadata id="CorelCorpID_0Corel-Layer"/>
  <path class="fil0" d="M41.76 58.17c-1.29,0 -2.34,1.05 -2.34,2.34 0,1.29 1.05,2.34 2.34,2.34 1.29,0 2.34,-1.05 2.34,-2.34 0,-1.29 -1.05,-2.34 -2.34,-2.34zm87.56 39.54l29.41 15.21 2.33 1.2 -1.79 1.91c-0.01,0.02 -4.82,5.19 -10.41,4.36 -7.52,-1.13 -13.03,-3.09 -18.65,-5.09 -5.34,-1.9 -10.79,-3.84 -18.11,-5.06 -6.9,2.96 -13.85,4.09 -20.58,3.78l-10.46 13.08c4.7,1.99 11.13,4.6 15.32,5.63l5.75 -11.46 3.54 1.77 -5.01 9.98c5.4,-0.76 18.77,-2.52 18.81,-2.53l0.5 3.92c-0.04,0 -14.69,1.94 -19.66,2.65 -4.55,0.65 -17.63,-4.96 -23.76,-7.59 -1.23,-0.52 -2.18,-0.94 -2.57,-1.09 -1.08,-0.43 -3.95,-0.3 -6.97,-0.17 -2.57,0.11 -5.23,0.22 -7.44,-0.02l0.92 12.39c0.19,-0.32 0.39,-0.64 0.59,-0.95 1.38,-2.06 3.23,-3.78 6.05,-5.28 2.35,-1.26 4.82,-1.97 7.2,-2.18 2.52,-0.22 4.95,0.12 7.04,0.98l1.53 0.64 -0.35 1.61c-0.02,0.13 -0.08,0.36 -0.17,0.72l0 0c-0.09,0.34 -0.15,0.58 -0.2,0.72l0 0c-1.46,4.81 -4.74,8.58 -8.85,10.79 -3.63,1.94 -7.91,2.67 -12.16,1.81l0.96 12.89 -3.95 0.28 -2.65 -35.66c-4.6,-1.76 -22.09,-4.55 -22.14,-4.56l0.62 -3.91c0.05,0.01 14.4,2.3 21.21,4.25l-1.23 -16.53 -19.55 -17.8 -15.44 -3.65 0.9 -3.86 11.5 2.72 -2.06 -3.57 3.43 -1.97 4.19 7.26 16.61 15.13 -0.36 -4.81c-3.3,-3.76 -5.87,-7.98 -8.42,-12.17 -2.86,-4.7 -5.7,-9.37 -9.46,-13.07 -1.1,-1.08 -2.33,-2 -3.73,-2.72 -1.42,-0.72 -3.04,-1.26 -4.9,-1.57l-2.53 -0.42 1.03 -2.33c2.7,-6.08 7.13,-10.31 12.15,-12.55 2.72,-1.22 5.63,-1.85 8.52,-1.88 1.38,-0.02 2.76,0.11 4.11,0.37l-0.69 -9.98c-3.44,0.88 -6.94,0.37 -9.87,-1.21 -3.11,-1.66 -5.58,-4.5 -6.67,-8.13l0.01 -0c-0.05,-0.17 -0.11,-0.35 -0.15,-0.54l-0 0c-0.07,-0.26 -0.11,-0.44 -0.13,-0.55l-0.35 -1.62 1.52 -0.63c1.59,-0.66 3.44,-0.92 5.35,-0.75 1.79,0.16 3.65,0.7 5.42,1.64 1.96,1.05 3.3,2.23 4.31,3.63l-0.94 -13.54 3.95 -0.26 0.8 11.49c1.12,-2.35 2.79,-4.48 5.39,-6.6 2.42,-1.96 5.07,-3.32 7.74,-4.08 2.81,-0.8 5.63,-0.94 8.2,-0.41l1.62 0.33 -0.04 1.64c-0.01,0.34 -0.02,0.63 -0.03,0.86 -0.02,0.28 -0.05,0.57 -0.08,0.88l0 0.01c-0.61,5.81 -3.51,10.83 -7.71,14.24 -3.91,3.17 -8.94,4.96 -14.28,4.71l0.7 10.09c0.11,0.05 0.22,0.09 0.33,0.14 4.33,1.92 8.17,5.43 10.74,10.59 14.23,1.38 25.69,4.9 36.07,10.28 10.62,5.5 20.05,12.89 30.16,21.9l1.85 1.65 -2.03 1.44c-0.58,0.41 -1.19,0.81 -1.81,1.18zm-42.51 15.87c-0.7,-0.1 -1.41,-0.22 -2.1,-0.35 -0.79,-0.15 -1.57,-0.32 -2.36,-0.5l-9.59 11.48c1.04,0.07 1.95,0.23 2.66,0.51 0.5,0.2 1.11,0.46 1.86,0.78l9.53 -11.91zm-8.64 -2.03c-7.61,-2.48 -14.66,-6.61 -20.72,-11.7l1.81 24.33c1.78,0.33 4.75,0.2 7.58,0.08l0.73 -0.04 10.6 -12.68zm76.1 3.52l-29.3 -15.16c-7.24,3.09 -16.28,4.33 -25.28,3.74 -6.99,-0.46 -13.98,-2.02 -20.11,-4.7 -6.22,-2.72 -11.56,-6.59 -15.13,-11.64 -3.3,-4.65 -5.07,-10.25 -4.64,-16.79l3.95 0.24c-0.37,5.59 1.13,10.34 3.91,14.27 3.12,4.42 7.89,7.85 13.48,10.3 5.69,2.49 12.22,3.95 18.77,4.37 9.9,0.65 19.76,-1.03 26.77,-5.04 -9.16,-8.03 -17.81,-14.65 -27.37,-19.61 -10.2,-5.28 -21.53,-8.7 -35.74,-9.94l-1.16 -0.1 -0.48 -1.07c-2.13,-4.78 -5.46,-7.97 -9.23,-9.65 -2.19,-0.96 -4.53,-1.43 -6.87,-1.41 -2.35,0.02 -4.71,0.54 -6.94,1.54 -3.56,1.59 -6.76,4.39 -9.04,8.37 1.24,0.36 2.4,0.82 3.47,1.37 1.8,0.92 3.35,2.07 4.71,3.42 4.11,4.06 7.07,8.93 10.06,13.83 3.34,5.5 6.72,11.04 11.67,15.23 7.31,6.19 16.16,10.9 25.64,12.69 8.24,1.55 16.97,0.89 25.6,-2.94l1.11 -0.15c8,1.27 13.74,3.32 19.37,5.32 5.44,1.93 10.77,3.83 17.91,4.9 1.79,0.27 3.54,-0.54 4.85,-1.4zm-91.73 30.59c3.13,0.48 6.24,-0.1 8.9,-1.52 3.04,-1.63 5.5,-4.37 6.72,-7.85 -1.09,-0.24 -2.28,-0.31 -3.5,-0.2 -1.86,0.17 -3.81,0.74 -5.69,1.74 -2.18,1.17 -3.59,2.46 -4.62,3.99 -0.73,1.1 -1.3,2.38 -1.81,3.84zm-8.06 -109.17c3.98,-0.05 7.69,-1.47 10.61,-3.84 3.34,-2.71 5.67,-6.66 6.24,-11.24 -1.48,-0.07 -3.04,0.11 -4.62,0.57 -2.18,0.63 -4.35,1.74 -6.33,3.34 -2.32,1.89 -3.71,3.74 -4.57,5.8 -0.67,1.59 -1.06,3.36 -1.33,5.37zm-13.23 -1.87c1.63,0.87 3.51,1.28 5.42,1.12 -0.29,-0.76 -0.61,-1.43 -1.01,-2.02 -0.69,-1.03 -1.66,-1.91 -3.15,-2.71 -1.29,-0.69 -2.63,-1.08 -3.91,-1.2 -0.6,-0.06 -1.18,-0.05 -1.74,0.03 0.9,2.1 2.46,3.75 4.37,4.78z"/>
  <rect class="fil1" width="180" height="180"/>
 </g>
</svg>
