<?xml version="1.0" encoding="UTF-8"?>
<!DOCTYPE svg PUBLIC "-//W3C//DTD SVG 1.1//EN" "http://www.w3.org/Graphics/SVG/1.1/DTD/svg11.dtd">
<!-- Creator: CorelDRAW -->
<svg xmlns="http://www.w3.org/2000/svg" xml:space="preserve" width="0.18in" height="0.18in" version="1.1" style="shape-rendering:geometricPrecision; text-rendering:geometricPrecision; image-rendering:optimizeQuality; fill-rule:evenodd; clip-rule:evenodd"
viewBox="0 0 180 180"
 xmlns:xlink="http://www.w3.org/1999/xlink"
 xmlns:xodm="http://www.corel.com/coreldraw/odm/2003">
 <defs>
  <style type="text/css">
   <![CDATA[
    .fil1 {fill:none}
    .fil0 {fill:#7F4629}
   ]]>
  </style>
 </defs>
 <g id="Layer_x0020_1">
  <metadata id="CorelCorpID_0Corel-Layer"/>
  <path class="fil0" d="M108.74 32.83c0,32.48 0,64.96 0,97.52 -1.11,0 -2.14,0 -3.29,0 0,-31.32 0,-62.67 0,-94.18 -0.51,0 -0.91,0 -1.3,0 -16.9,0 -33.8,0 -50.69,0 -3.63,0 -5.68,2.04 -5.69,5.66 -0,2.53 0,5.06 0,7.66 -1.11,0 -2.16,0 -3.28,0 0,-3.2 -0.28,-6.41 0.07,-9.56 0.4,-3.57 2.7,-5.84 6.17,-6.86 0.21,-0.06 0.41,-0.16 0.61,-0.24 19.13,0 38.26,0 57.39,0zm-47.61 94.3c0,1.09 0,2.11 0,3.21 -1.07,0 -2.12,0 -3.23,0 0,-1.06 0,-2.11 0,-3.21 1.06,0 2.08,0 3.23,0zm-6.75 3.26c-1.09,0 -2.08,0 -3.17,0 0,-1.07 0,-2.11 0,-3.24 1.03,0 2.08,0 3.17,0 0,1.09 0,2.16 0,3.24zm81.09 -53.84c-1.11,0 -2.11,0 -3.19,0 0,-1.08 0,-2.13 0,-3.27 1.03,0 2.08,0 3.19,0 0,1.07 0,2.12 0,3.27zm-3.21 -28.48c1.11,0 2.11,0 3.19,0 0,1.07 0,2.13 0,3.27 -1.03,0 -2.07,0 -3.19,0 0,-1.06 0,-2.12 0,-3.27zm-30.29 -5.21c-1.1,0 -2.1,0 -3.19,0 0,-1.06 0,-2.11 0,-3.24 1.02,0 2.07,0 3.19,0 0,1.05 0,2.1 0,3.24zm-15.97 31.59c-0.63,0.64 -1.38,1.4 -2.08,2.11 -1.56,-1.57 -3.09,-3.1 -4.69,-4.7 0.72,-0.66 1.5,-1.37 2.2,-2 1.44,1.45 2.98,2.99 4.58,4.59zm-16.82 2.06c-0.62,-0.67 -1.34,-1.46 -2.01,-2.18 1.48,-1.49 3.02,-3.04 4.52,-4.54 0.69,0.69 1.43,1.44 2.11,2.13 -1.48,1.47 -3.02,3.01 -4.61,4.59zm9.06 -14.71c-1.1,0 -2.13,0 -3.26,0 0,-2.16 0,-4.32 0,-6.58 1.05,0 2.13,0 3.26,0 0,2.2 0,4.37 0,6.58zm-13.49 51.01c0,-1.12 0,-2.15 0,-3.26 3.32,0 6.6,0 9.96,0 0,1.08 0,2.14 0,3.26 -3.31,0 -6.57,0 -9.96,0zm0.01 -9.98c3.35,0 6.6,0 9.94,0 0,1.09 0,2.14 0,3.27 -3.31,0 -6.59,0 -9.94,0 0,-1.09 0,-2.11 0,-3.27zm-0.01 -3.42c0,-1.12 0,-2.15 0,-3.26 3.31,0 6.6,0 9.96,0 0,1.08 0,2.13 0,3.26 -3.31,0 -6.57,0 -9.96,0zm34.03 -53.11c1.11,0 2.13,0 3.21,0 0,3.31 0,6.56 0,9.9 -1.03,0 -2.08,0 -3.21,0 0,-3.26 0,-6.54 0,-9.9zm-7.49 56.44c-2.23,4.32 -4.33,8.39 -6.5,12.58 -1,-0.52 -1.94,-1 -2.99,-1.54 1.28,-2.5 2.52,-4.92 3.86,-7.54 -2.35,0 -4.56,0 -7.01,0 2.22,-4.3 4.32,-8.37 6.49,-12.58 1,0.51 1.94,0.98 3.01,1.54 -1.28,2.5 -2.54,4.95 -3.87,7.55 2.36,0 4.54,0 7.02,0zm-43.59 27.64c-1.11,0 -2.13,0 -3.21,0 0,-25.81 0,-51.57 0,-77.38 1.08,0 2.11,0 3.21,0 0,25.77 0,51.53 0,77.38zm43.93 -50.84c-0.85,-0.7 -1.65,-1.37 -2.53,-2.09 3.37,-4.41 4.54,-9.3 3.11,-14.68 -1.02,-3.85 -3.25,-6.9 -6.54,-9.13 -6.7,-4.54 -15.63,-3.46 -21.1,2.53 -5.38,5.88 -5.6,14.96 -0.55,21.17 4.83,5.93 14.58,8.67 22.97,2.28 0.68,0.82 1.37,1.64 2.05,2.46 -6.04,5.56 -17.58,6.91 -25.75,-0.6 -8.01,-7.36 -8.47,-19.74 -1.06,-27.75 7.41,-8 19.83,-8.43 27.82,-0.89 8,7.55 7.84,19.46 1.58,26.72zm46.19 1.48c1.89,-3.61 0.72,-7.35 1.15,-11.05 -4.55,0 -8.95,0 -13.38,0 0,2.77 -0.29,5.54 0.06,8.24 0.62,4.74 5.39,7.06 9.68,4.96 0.17,-0.08 0.33,-0.16 0.58,-0.28 0.59,0.89 1.19,1.78 1.92,2.87 -1.31,0.54 -2.52,1.05 -3.91,1.63 0,0.3 0,0.78 0,1.25 0,15.41 0,30.81 -0,46.22 0,3.37 -1.64,5.91 -4.44,6.93 -4.5,1.64 -9.01,-1.67 -9.04,-6.69 -0.03,-6.77 -0.01,-13.54 -0.01,-20.32 0,-1.79 -0.09,-3.58 0.02,-5.35 0.22,-3.32 -2.24,-4.6 -5,-3.99 0,0.78 0,1.58 0,2.39 0,0.78 0,1.56 0,2.43 -1.08,0 -2.14,0 -3.27,0 0,-4.42 0,-8.86 0,-13.38 1.04,0 2.06,0 3.2,0 0,1.61 0,3.23 0,5.06 0.91,0 1.72,-0.09 2.51,0.02 3.62,0.48 5.96,3.3 5.97,7.16 0.02,8.45 0,16.9 0.01,25.35 0,0.37 -0.01,0.74 0.01,1.11 0.09,1.87 1.48,3.21 3.31,3.2 1.83,-0.01 3.19,-1.35 3.27,-3.24 0.01,-0.3 0.01,-0.6 0.01,-0.89 0,-15.37 0,-30.74 0,-46.11 0,-0.41 0,-0.81 0,-1.27 -2.78,-0.62 -5.01,-1.98 -6.59,-4.3 -1.14,-1.67 -1.74,-3.52 -1.74,-5.55 0,-3.57 0,-7.13 0,-10.79 6.7,0 13.33,0 20.09,0 0,2.09 0.03,4.17 -0.01,6.24 -0.04,2.19 -0.02,4.39 -0.26,6.56 -0.13,1.17 -0.78,2.28 -1.25,3.56 -1.09,-0.73 -1.98,-1.32 -2.9,-1.93zm-3.83 -48.17c-0.02,1.86 -0.02,3.71 -0.07,5.57 -0.02,0.67 0.37,0.77 0.86,0.92 4.19,1.24 6.67,4.06 7.38,8.33 0.23,1.38 0.09,2.82 0.09,4.23 0.01,2.6 0,5.2 0,7.93 -1.13,0 -2.19,0 -3.33,0 0,1.15 0,2.18 0,3.29 -1.14,0 -2.19,0 -3.34,0 0,-1.05 0,-2.08 0,-3.19 -2.26,0 -4.43,0 -6.69,0 0,1.03 0,2.06 0,3.17 -1.14,0 -2.19,0 -3.37,0 0,-1.04 0,-2.1 0,-3.24 -1.15,0 -2.18,0 -3.26,0 -0.04,-0.29 -0.09,-0.5 -0.09,-0.71 -0,-3.54 -0.03,-7.07 0.01,-10.6 0.02,-1.82 0.6,-3.48 1.67,-5.05 0.95,0.63 1.83,1.22 2.71,1.8 -1.1,2.57 -1.48,7.08 -0.96,11.09 4.39,0 8.8,0 13.25,0 0,-2.73 0.24,-5.43 -0.05,-8.06 -0.55,-4.83 -5.34,-7.27 -9.76,-5.16 -0.16,0.08 -0.33,0.15 -0.57,0.26 -0.59,-0.89 -1.17,-1.74 -1.88,-2.82 1.02,-0.44 1.94,-0.96 2.94,-1.22 0.78,-0.21 1,-0.54 0.96,-1.3 -0.07,-1.74 -0.06,-3.49 -0.07,-5.24 1.19,0 2.38,0 3.57,0zm-96.25 114.34c0,-4.42 0,-8.84 0,-13.33 12.42,0 24.75,0 37.15,0 0,1.04 0,2.07 0,3.2 -11.21,0 -22.42,0 -33.72,0 0,2.28 0,4.45 0,6.7 23.59,0 47.19,0 70.86,0 0,-2.16 0,-4.33 0,-6.61 -11.24,0 -22.45,0 -33.74,0 0,-1.13 0,-2.15 0,-3.27 12.34,0 24.67,0 37.16,0 0,4.41 0,8.86 0,13.31 -25.91,0 -51.81,0 -77.71,0z"/>
  <rect class="fil1" width="180" height="180"/>
 </g>
</svg>
