<?xml version="1.0" encoding="UTF-8"?>
<!DOCTYPE svg PUBLIC "-//W3C//DTD SVG 1.1//EN" "http://www.w3.org/Graphics/SVG/1.1/DTD/svg11.dtd">
<!-- Creator: CorelDRAW -->
<svg xmlns="http://www.w3.org/2000/svg" xml:space="preserve" width="0.18in" height="0.18in" version="1.1" style="shape-rendering:geometricPrecision; text-rendering:geometricPrecision; image-rendering:optimizeQuality; fill-rule:evenodd; clip-rule:evenodd"
viewBox="0 0 180 180"
 xmlns:xlink="http://www.w3.org/1999/xlink"
 xmlns:xodm="http://www.corel.com/coreldraw/odm/2003">
 <defs>
  <style type="text/css">
   <![CDATA[
    .fil1 {fill:none}
    .fil0 {fill:#7F4629;fill-rule:nonzero}
   ]]>
  </style>
 </defs>
 <g id="Layer_x0020_1">
  <metadata id="CorelCorpID_0Corel-Layer"/>
  <g id="_2904019727568">
   <path class="fil0" d="M86.33 100.29l-52.58 0c-0.99,0 -1.8,-0.81 -1.8,-1.8l0 -43.15c0,-0.99 0.81,-1.8 1.8,-1.8l52.58 0c0.99,0 1.8,0.81 1.8,1.8l0 43.15c0,0.99 -0.81,1.8 -1.8,1.8zm-50.78 -3.6l48.98 0 0 -39.54 -48.98 0 0 39.54z"/>
   <path class="fil0" d="M61.07 90.87c-7.7,0 -13.96,-6.26 -13.96,-13.96 0,-7.7 6.26,-13.96 13.96,-13.96 7.7,0 13.96,6.26 13.96,13.96 0,7.7 -6.26,13.96 -13.96,13.96zm0 -24.31c-5.71,0 -10.35,4.65 -10.35,10.36 0,5.71 4.65,10.35 10.35,10.35 5.71,0 10.36,-4.65 10.36,-10.35 0,-5.71 -4.65,-10.36 -10.36,-10.36z"/>
   <path class="fil0" d="M86.33 57.14c-0.29,0 -0.59,-0.07 -0.86,-0.22l-25.43 -13.93 -25.43 13.93c-0.87,0.48 -1.97,0.16 -2.44,-0.71 -0.48,-0.87 -0.16,-1.97 0.72,-2.44l26.29 -14.4c0.54,-0.3 1.19,-0.3 1.73,0l26.29 14.4c0.87,0.48 1.19,1.57 0.72,2.44 -0.33,0.6 -0.94,0.94 -1.58,0.94z"/>
   <path class="fil0" d="M140.54 140.87l-5.63 0c-5.97,0 -11.7,-2.83 -15.32,-7.57l-18.15 -26.93c-2.88,-3.77 -7.54,-6.07 -12.4,-6.07l-3.89 0c-1,0 -1.8,-0.81 -1.8,-1.8 0,-0.99 0.8,-1.8 1.8,-1.8l3.89 0c5.97,0 11.7,2.83 15.32,7.58l18.15 26.92c2.89,3.77 7.54,6.07 12.4,6.07l5.63 0c2.16,0 3.92,-1.76 3.92,-3.92 0,-2.16 -1.76,-3.92 -3.92,-3.92l-0.95 0c-5.32,0 -10.43,-2.52 -13.65,-6.76l-17.79 -26.45c-3.5,-4.58 -9.13,-7.37 -15.01,-7.37l-6.42 0c-0.99,0 -1.8,-0.81 -1.8,-1.8 0,-0.99 0.81,-1.8 1.8,-1.8l6.42 0c6.99,0 13.7,3.31 17.94,8.87l17.79 26.45c2.49,3.26 6.52,5.25 10.73,5.25l0.95 0c4.15,0 7.52,3.37 7.52,7.52 0,4.15 -3.37,7.52 -7.52,7.52z"/>
   <path class="fil0" d="M42.01 140.67c-1,0 -1.8,-0.8 -1.8,-1.8l0 -39.43c0,-0.99 0.81,-1.8 1.8,-1.8 1,0 1.8,0.81 1.8,1.8l0 39.43c0,1 -0.8,1.8 -1.8,1.8z"/>
   <path class="fil0" d="M80.13 140.67c-1,0 -1.8,-0.8 -1.8,-1.8l0 -39.43c0,-0.99 0.81,-1.8 1.8,-1.8 0.99,0 1.8,0.81 1.8,1.8l0 39.43c0,1 -0.81,1.8 -1.8,1.8z"/>
   <path class="fil0" d="M80.13 110.71l-37.22 0c-1,0 -1.8,-0.81 -1.8,-1.8 0,-1 0.81,-1.8 1.8,-1.8l37.22 0c0.99,0 1.8,0.8 1.8,1.8 0,1 -0.81,1.8 -1.8,1.8z"/>
   <path class="fil0" d="M80.13 121.13l-37.22 0c-1,0 -1.8,-0.81 -1.8,-1.8 0,-0.99 0.81,-1.8 1.8,-1.8l37.22 0c0.99,0 1.8,0.81 1.8,1.8 0,1 -0.81,1.8 -1.8,1.8z"/>
   <path class="fil0" d="M80.13 131.56l-37.22 0c-1,0 -1.8,-0.8 -1.8,-1.8 0,-1 0.81,-1.8 1.8,-1.8l37.22 0c0.99,0 1.8,0.8 1.8,1.8 0,1 -0.81,1.8 -1.8,1.8z"/>
  </g>
  <rect class="fil1" width="180" height="180"/>
 </g>
</svg>
