<?xml version="1.0" encoding="UTF-8"?>
<!DOCTYPE svg PUBLIC "-//W3C//DTD SVG 1.1//EN" "http://www.w3.org/Graphics/SVG/1.1/DTD/svg11.dtd">
<!-- Creator: CorelDRAW -->
<svg xmlns="http://www.w3.org/2000/svg" xml:space="preserve" width="0.18in" height="0.18in" version="1.1" style="shape-rendering:geometricPrecision; text-rendering:geometricPrecision; image-rendering:optimizeQuality; fill-rule:evenodd; clip-rule:evenodd"
viewBox="0 0 180 180"
 xmlns:xlink="http://www.w3.org/1999/xlink"
 xmlns:xodm="http://www.corel.com/coreldraw/odm/2003">
 <defs>
  <style type="text/css">
   <![CDATA[
    .fil1 {fill:none}
    .fil0 {fill:#7F4629}
   ]]>
  </style>
 </defs>
 <g id="Layer_x0020_1">
  <metadata id="CorelCorpID_0Corel-Layer"/>
  <path class="fil0" d="M48.37 160.57c-1.42,-0.74 -2.99,-1.44 -3.5,-3.06 -0.43,-1.36 -0.52,-2.85 -0.61,-4.3 -0.05,-0.82 -0.2,-1.25 -1.05,-1.61 -3.34,-1.41 -5.22,-3.94 -5.35,-7.63 -0.07,-1.97 -0.05,-3.95 -0.02,-5.93 0.02,-1.43 0.81,-2.26 2.04,-2.28 1.26,-0.01 2.09,0.89 2.12,2.36 0.03,1.79 -0.01,3.59 0.01,5.37 0.02,2.71 1.7,4.46 4.47,4.52 2.85,0.07 5.7,0.02 8.54,0.02 5.79,0 11.57,0 17.36,0 3.63,-0.01 5.22,-1.59 5.22,-5.19 0,-14.88 0,-29.77 0,-44.65 0,-3.43 -1.62,-5.09 -5.04,-5.1 -8.5,-0.02 -17,-0.02 -25.49,0 -3.44,0.01 -5.06,1.65 -5.06,5.07 -0,9.6 0,19.2 -0.01,28.8 0,0.54 -0.01,1.12 -0.18,1.63 -0.33,0.98 -1.1,1.45 -2.14,1.34 -1.03,-0.11 -1.66,-0.72 -1.8,-1.76 -0.06,-0.41 -0.05,-0.82 -0.05,-1.24 0,-9.56 0.13,-19.11 -0.05,-28.67 -0.11,-5.77 4.22,-9.71 9.5,-9.35 0.68,0.05 1.37,0 2.25,0 0,-0.57 0,-1.06 0,-1.54 0,-3.77 -0.01,-7.53 0,-11.3 0.02,-5.61 3.59,-9.23 9.19,-9.27 3.58,-0.03 7.17,0.08 10.75,-0.06 1,-0.04 2.18,-0.47 2.93,-1.12 3.15,-2.68 6.16,-5.51 9.23,-8.28 0.44,-0.4 0.89,-0.8 1.38,-1.14 0.98,-0.68 2.15,-0.53 2.85,0.3 0.77,0.91 0.69,2.06 -0.28,2.94 -1.42,1.3 -2.88,2.57 -4.41,3.92 2.07,2.3 4.08,4.53 6.15,6.83 0.38,-0.36 0.66,-0.8 1.05,-0.94 0.71,-0.27 1.65,-0.7 2.2,-0.44 0.63,0.29 1.2,1.22 1.33,1.95 0.22,1.25 0.06,2.56 0.06,3.84 0,6.2 0,12.41 0,18.61 0,0.5 0,1 0,1.61 8.11,0 16.11,0 24.14,0 -0.43,-1.09 -0.95,-2.11 -1.22,-3.19 -0.61,-2.43 -0.16,-4.74 1.18,-6.85 1.17,-1.86 2.45,-3.67 3.57,-5.56 0.41,-0.7 0.64,-1.59 0.7,-2.41 0.1,-1.56 0,-3.12 0.03,-4.68 0.02,-1.7 0.96,-2.47 2.65,-2.33 0.36,0.03 0.92,-0.15 1.1,-0.42 1.73,-2.59 3.4,-5.22 5.08,-7.83 -2.3,-2.25 -4.83,-3.51 -8.14,-3.46 -8.68,0.15 -17.37,0.05 -26.05,0.05 -2.19,0 -3.24,-0.7 -3.22,-2.12 0.01,-1.41 1.07,-2.09 3.26,-2.09 8.91,0 17.82,0.02 26.73,-0.01 3.01,-0.01 5.67,0.85 8.04,2.71 2.46,1.93 5,3.75 7.44,5.69 5.1,4.07 6.52,11.28 3.13,16.87 -3.17,5.21 -6.58,10.28 -9.94,15.37 -1.32,2.01 -3.31,3.12 -5.7,3.65 0.41,3.4 0.79,6.72 1.19,10.04 0.78,6.46 1.58,12.93 2.36,19.39 0.59,4.92 1.08,9.85 1.8,14.75 0.24,1.59 1.01,3.11 1.62,4.63 0.64,1.57 1.3,3.15 2.08,4.64 1.77,3.39 1.26,7.15 -3.27,8.9 -5.06,0 -10.11,0 -15.16,0 -2.33,-0.93 -4.2,-2.38 -4.61,-4.99 -1.18,-7.52 -2.26,-15.05 -3.37,-22.57 -0.37,-2.53 -0.73,-5.06 -1.09,-7.58 -1.46,8.81 -2.74,17.59 -3.88,26.4 -0.48,3.74 -0.89,7.39 -5.24,8.74 -5.15,0 -10.3,0 -15.44,0 -5.31,-2.4 -4.75,-6.27 -2.28,-10.66 -1.19,0.69 -2.01,1.34 -2.94,1.64 -1.02,0.33 -1.13,0.91 -1.15,1.82 -0.03,1.26 -0.09,2.57 -0.43,3.78 -0.52,1.8 -2.14,2.61 -3.67,3.43 -0.92,0 -1.83,0 -2.76,0 -3.92,-1.41 -4.7,-4.57 -4.35,-8.23 -3,0 -5.77,0 -8.61,0 -0.03,0.43 -0.09,0.79 -0.07,1.14 0.25,3.4 -1.06,5.85 -4.34,7.09 -0.92,0 -1.84,0 -2.76,0zm5.41 -41.36c0,3.26 0,6.51 -0.01,9.76 0,0.5 -0.03,1.01 -0.14,1.5 -0.23,0.96 -0.95,1.63 -1.87,1.44 -0.73,-0.15 -1.43,-0.76 -2,-1.32 -0.26,-0.25 -0.21,-0.87 -0.21,-1.31 -0.01,-6.69 -0.01,-13.39 -0,-20.08 0,-0.37 0,-0.74 0.09,-1.09 0.28,-1.05 0.96,-1.66 2.08,-1.63 1.12,0.03 1.79,0.65 1.98,1.74 0.08,0.45 0.09,0.91 0.09,1.37 0.01,3.21 0,6.42 0,9.63zm16.3 0.04c0,3.25 0.02,6.5 -0.01,9.76 -0,0.58 0.06,1.34 -0.27,1.72 -0.48,0.56 -1.27,1.15 -1.94,1.17 -0.6,0.01 -1.26,-0.69 -1.79,-1.19 -0.22,-0.2 -0.23,-0.69 -0.23,-1.04 -0.01,-6.97 -0.02,-13.94 0.01,-20.91 0.01,-1.43 0.84,-2.25 2.06,-2.28 1.27,-0.03 2.14,0.83 2.16,2.31 0.04,3.49 0.01,6.97 0.01,10.46zm-12.32 -0.18c0,-4.91 -0.01,-9.81 0,-14.72 0,-1.66 0.71,-2.52 2.04,-2.53 1.33,-0.01 2.08,0.87 2.08,2.49 0.01,9.95 0.01,19.9 0,29.85 0,1.61 -0.78,2.48 -2.12,2.46 -1.27,-0.03 -2,-0.89 -2,-2.42 -0.01,-5.04 0,-10.09 0,-15.13zm54.58 -99.64c0.85,0.41 1.76,0.75 2.54,1.26 2.29,1.5 3.32,3.72 3.43,6.4 0.02,0.59 0,1.18 0,1.96 2.3,0 4.49,0 6.68,0 0.55,0 1.1,-0.02 1.65,0.01 1.29,0.07 2.16,0.87 2.2,1.99 0.04,1.19 -0.88,2.12 -2.21,2.14 -2.48,0.04 -4.96,0.01 -7.43,0.02 -0.22,0 -0.45,0.02 -0.89,0.05 0,1.7 0.16,3.4 -0.04,5.05 -0.26,2.06 -0.48,4.24 -1.3,6.1 -2.24,5.06 -7.96,7.76 -13.23,6.58 -5.66,-1.28 -9.55,-6 -9.6,-11.69 -0.02,-1.97 -0,-3.94 -0,-6.1 -2.22,0 -4.36,0 -6.5,0 -0.6,0 -1.19,0.02 -1.79,-0 -1.38,-0.05 -2.26,-0.85 -2.27,-2.06 -0.02,-1.23 0.82,-2.06 2.22,-2.07 2.39,-0.04 4.78,-0.01 7.16,-0.02 0.31,0 0.63,-0.03 1.17,-0.05 0,-0.6 0,-1.17 0,-1.74 0.02,-3.79 1.94,-6.38 5.59,-7.57 0.17,-0.06 0.32,-0.17 0.48,-0.25 4.04,0 8.09,0 12.13,0zm-14.06 13.84l0 0c0,2.19 -0.09,4.25 0.02,6.31 0.2,3.89 3.33,7.13 7.04,7.43 4.13,0.33 7.87,-2.17 8.52,-6.16 0.39,-2.44 0.07,-5 0.07,-7.58 -5.16,0 -10.32,0 -15.64,0zm0.13 -4.3l0 0c5.22,0 10.35,0 15.47,0 0.74,-3.68 -0.67,-5.41 -4.3,-5.41 -2.2,0 -4.41,0 -6.62,0 -3.78,0 -5.11,1.56 -4.55,5.41zm-10.74 47l0 0c-4.63,5.43 -10.15,8.81 -17.5,8.11 0,1.76 0,3.24 0,4.9 1.41,0 2.75,-0.13 4.06,0.02 4.56,0.54 7.61,4.4 7.58,8.96 -0.1,14.84 -0.04,29.67 -0.04,44.51 0,0.47 0,0.93 0,1.39 0.31,-0.22 0.45,-0.46 0.48,-0.72 0.48,-3.96 0.95,-7.93 1.43,-11.89 0.45,-3.78 0.9,-7.56 1.39,-11.33 0.2,-1.55 1.56,-2.37 2.88,-1.79 1.26,0.55 1.34,1.63 1.2,2.78 -0.59,4.87 -1.19,9.74 -1.78,14.62 -0.26,2.15 -0.5,4.31 -0.75,6.46 4.44,0 8.64,0 12.84,0 0.07,-0.26 0.15,-0.43 0.17,-0.61 1.48,-10.48 2.95,-20.97 4.43,-31.45 0.24,-1.7 0.96,-2.54 2.16,-2.53 1.15,0.01 1.93,0.83 2.15,2.42 1.06,7.44 2.08,14.89 3.13,22.33 0.46,3.3 0.93,6.59 1.39,9.84 4.41,0 8.65,0 12.93,0 -1.73,-14.34 -3.46,-28.58 -5.18,-42.84 -9.68,0 -19.25,0 -28.87,0 -0.05,0.35 -0.09,0.62 -0.12,0.89 -0.43,3.5 -0.82,7.02 -1.3,10.51 -0.19,1.38 -1.21,2.15 -2.34,1.98 -1.22,-0.19 -1.94,-1.28 -1.78,-2.67 0.18,-1.55 0.3,-3.11 0.57,-4.64 1.69,-9.67 0.76,-19.41 0.87,-29.27zm44.87 -11.9l0 0c-1.81,2.81 -3.62,5.61 -5.41,8.44 -0.15,0.24 -0.22,0.62 -0.15,0.9 0.31,1.37 -0.17,2.52 -0.89,3.63 -2.11,3.23 -4.22,6.45 -6.3,9.7 -1.57,2.44 -1.09,5.28 1.07,6.69 2.2,1.44 4.89,0.72 6.51,-1.75 2.09,-3.19 4.15,-6.39 6.23,-9.57 0.78,-1.19 1.49,-2.44 2.34,-3.57 3.62,-4.83 2.56,-11.04 -3.39,-14.44zm-54.44 2.13l0 0c-1.06,0.96 -2.01,1.76 -2.89,2.62 -1.53,1.48 -3.31,2.19 -5.46,2.15 -3.76,-0.06 -7.53,-0.03 -11.3,-0.01 -2.69,0.01 -4.61,1.86 -4.65,4.4 -0.03,2.6 1.79,4.48 4.51,4.5 4.78,0.04 9.55,0.02 14.33,-0.01 0.78,-0 1.56,-0.1 2.32,-0.23 4.09,-0.7 6.69,-3.54 9.4,-6.48 -2.09,-2.31 -4.13,-4.58 -6.26,-6.94zm20.84 80.06l0 0c-4.41,0 -8.57,-0.01 -12.74,0.03 -0.3,0 -0.74,0.35 -0.88,0.64 -1.13,2.45 -2.24,4.91 -3.29,7.4 -0.53,1.24 0.03,2.08 1.4,2.09 4.08,0.03 8.16,0.02 12.24,0 1.02,-0 1.85,-0.5 2.02,-1.53 0.46,-2.79 0.81,-5.6 1.24,-8.64zm14.59 0l0 0c0.47,3 0.87,5.8 1.37,8.59 0.18,1.01 0.96,1.56 2,1.57 4.04,0.02 8.07,0.04 12.11,-0 1.39,-0.01 1.89,-0.83 1.33,-2.13 -1.04,-2.44 -2.11,-4.87 -3.22,-7.28 -0.15,-0.33 -0.64,-0.71 -0.97,-0.71 -4.12,-0.05 -8.25,-0.04 -12.61,-0.04zm-59.67 -57.41l0 0c3.99,0 7.91,0 11.9,0 0,-1.57 0,-3.06 0,-4.61 -3.98,-0.46 -8.05,0.68 -11.9,-1.26 0,2.06 0,3.93 0,5.87zm-5.48 63.46l0 0c0,0.97 -0.18,1.88 0.06,2.67 0.17,0.56 0.86,1.3 1.37,1.34 0.43,0.02 1.19,-0.76 1.34,-1.31 0.23,-0.83 0.06,-1.77 0.06,-2.7 -1,0 -1.81,0 -2.82,0zm20.04 0l0 0c0,1 -0.15,1.9 0.06,2.71 0.14,0.53 0.85,1.34 1.21,1.29 0.56,-0.07 1.33,-0.69 1.48,-1.22 0.25,-0.86 0.07,-1.85 0.07,-2.78 -1,0 -1.81,0 -2.81,0z"/>
  <rect class="fil1" width="180" height="180"/>
 </g>
</svg>
