<?xml version="1.0" encoding="UTF-8"?>
<!DOCTYPE svg PUBLIC "-//W3C//DTD SVG 1.1//EN" "http://www.w3.org/Graphics/SVG/1.1/DTD/svg11.dtd">
<!-- Creator: CorelDRAW -->
<svg xmlns="http://www.w3.org/2000/svg" xml:space="preserve" width="0.18in" height="0.18in" version="1.1" style="shape-rendering:geometricPrecision; text-rendering:geometricPrecision; image-rendering:optimizeQuality; fill-rule:evenodd; clip-rule:evenodd"
viewBox="0 0 180 180"
 xmlns:xlink="http://www.w3.org/1999/xlink"
 xmlns:xodm="http://www.corel.com/coreldraw/odm/2003">
 <defs>
  <style type="text/css">
   <![CDATA[
    .fil1 {fill:none}
    .fil0 {fill:#7F4629;fill-rule:nonzero}
   ]]>
  </style>
 </defs>
 <g id="Layer_x0020_1">
  <metadata id="CorelCorpID_0Corel-Layer"/>
  <path class="fil0" d="M145.67 59.26c-0.09,0 -0.18,0 -0.27,0.01l-22.25 2.22c-0.82,0.09 -1.5,0.66 -1.58,1.33 -0.07,0.61 0.2,1.02 0.37,1.22 0.17,0.19 0.55,0.52 1.15,0.52l9.03 0 5.76 0 0.08 0 0.04 0 7.68 0c1.46,0 2.65,-1.19 2.66,-2.66 0,-0.75 -0.31,-1.46 -0.87,-1.96 -0.5,-0.45 -1.11,-0.69 -1.77,-0.69zm-100.53 92.96l8.97 -28.1c-8.42,-8.21 -13.04,-19.69 -12.42,-31.88 0.2,-4.09 2.27,-7.74 5.66,-10.03 1.23,-0.83 2.55,-1.43 3.93,-1.79l-9.14 -40.71c-0.6,-2.66 0.29,-5.34 2.19,-7.11l-3.65 -5.91c-0.66,-1.07 -0.33,-2.47 0.74,-3.13 1.07,-0.66 2.47,-0.33 3.13,0.74l3.98 6.46c1.69,2.74 4.32,4.7 7.43,5.52l7.35 1.95c1.21,0.32 1.94,1.57 1.61,2.78 -0.27,1.02 -1.19,1.69 -2.2,1.69 -0.19,0 -0.39,-0.02 -0.58,-0.07l-4.02 -1.07 11.97 43.16 5.76 2.03c10.57,3.71 16.97,5.92 18.52,6.39 2.18,0.66 4.3,1.4 6.32,2.2l0.07 0.02 0.06 0.02c1.95,0.78 3.82,1.63 5.61,2.53l17.06 -28.81 -0.43 0c-1.74,0 -3.4,-0.76 -4.56,-2.06 -1.15,-1.31 -1.69,-3.06 -1.47,-4.8 0.35,-2.77 2.73,-5 5.65,-5.29l22.25 -2.22c2.02,-0.21 4.05,0.46 5.55,1.82 1.51,1.37 2.37,3.31 2.37,5.35 0,3.97 -3.24,7.2 -7.21,7.2l-6.46 0 -20.82 36.91c3.91,3.58 6.84,7.59 8.62,11.88 2.26,5.43 2.41,10.95 0.45,15.55 -2.52,5.89 -9.02,9.55 -18.37,10.39l0.38 8.38 33.68 0c1.26,0 2.28,1.02 2.28,2.28 0,1.26 -1.02,2.28 -2.28,2.28l-96.28 -0.02 -0.04 0 -0.01 0 -0.01 0 -0.01 0 -0.01 0 -17.35 0c-1.26,0 -2.28,-1.03 -2.28,-2.28 0,-1.26 1.02,-2.28 2.28,-2.28l15.73 0zm12.89 -30.67c0.16,0.11 0.31,0.25 0.43,0.4 2.02,1.81 4.26,3.41 6.69,4.77 5.25,2.94 9.43,5.16 12.42,6.61 10.02,4.29 20.32,6.46 29.03,6.12l0.06 -0 0.71 -0.04c8.19,-0.48 13.97,-3.3 15.87,-7.74 1.48,-3.47 1.32,-7.73 -0.46,-12.02 -3.35,-8.06 -11.97,-15.37 -23.65,-20.03l-0.02 -0.01 -0.01 -0 -0.01 -0 -0.02 -0c-1.92,-0.76 -3.94,-1.47 -6.02,-2.1 -1.64,-0.5 -7.93,-2.67 -18.71,-6.45l-6.78 -2.39 -0.02 -0 -0.01 0 -0.08 -0.03 -4.92 -1.74 0 0 -0.84 -0.3 -0.03 -0.01 -0.57 -0.2 -0.19 -0.07 -0.05 -0.02 -0.14 -0.05 -0.36 -0.13 0 0 -0.34 -0.12 -0.13 -0.05 -0.04 -0.01 -0.32 -0.11 -0.07 -0.03 -0.07 -0.02 -0.13 -0.05 -0.02 -0 -0.14 -0.05 -0.04 -0.02 -0.11 -0.04 -0.08 -0.03 -0.05 -0.02 -0.13 -0.05 0 0 -0.12 -0.04 -0.05 -0.02 -0.19 -0.06 -0.11 -0.04 -0.01 -0 -0.09 -0.04 -0.05 -0.02 -0.05 -0.02 -0.08 -0.03 -0.01 0 -0.09 -0.03 -0.02 -0.01 -0.06 -0.02 -0.05 -0.02 -0.03 -0 -0.07 -0.03 -0.06 -0.02 -0.02 -0.01 -0.04 -0.01 -0.04 -0.02 -0.01 -0 -0.05 -0.02 -0.01 0 -0.03 -0.01 -0.02 -0.01 -0.02 0 -0.03 -0.01 -0 0 -0.02 -0.01 -0.01 -0 -0.01 -0 -0.01 0 -0 -0 -0 0 -0.04 -0.02 -0.05 -0.02 -0.03 -0.01 -0.02 -0.01 -0.05 -0.02 -0.05 -0.01 0 -0 -0.05 -0.01 -0.05 -0.02 -0.02 -0.01 -0.02 -0.01 -0.05 -0.01 -0.09 -0.03 -0.05 -0.01 -0.02 -0.01 -0.02 -0 -0.21 -0.06 -0.03 -0.01 -0.05 -0.01c-0.72,-0.16 -1.47,-0.23 -2.22,-0.19 -0.08,0 -0.16,0 -0.24,0 -1.41,0.1 -2.78,0.58 -4,1.4 -2.2,1.48 -3.53,3.84 -3.67,6.49 -0.56,11.2 3.83,21.74 11.8,29.08zm-0.17 5.81l-7.93 24.85 54.96 0.01 -0.37 -8.2c-8.86,-0.04 -18.97,-2.33 -28.85,-6.56 -3.16,-1.53 -7.42,-3.79 -12.75,-6.78 -1.79,-1 -3.48,-2.11 -5.07,-3.33zm17.24 -22.87c-0.26,0 -0.53,-0.05 -0.79,-0.14l-19.6 -7.24c-1.18,-0.44 -1.79,-1.74 -1.35,-2.93 0.44,-1.18 1.75,-1.78 2.93,-1.35l19.6 7.24c1.18,0.43 1.78,1.75 1.35,2.93 -0.34,0.92 -1.21,1.49 -2.13,1.49zm-22.1 -64.39c-2.21,-0.85 -4.21,-2.16 -5.87,-3.83 -0.53,0.67 -0.75,1.56 -0.56,2.44l9.3 41.36c0.76,0.08 1.53,0.23 2.28,0.46l0.05 0.02 0.09 0.02 0.05 0.01 0.18 0.06 0.05 0.01 0.04 0.02 0 0 0.05 0.02 0.04 0.02 0.04 0.01 0.05 0.02 0 0 0.01 0 0.01 0 0 0 0.02 0.01 0.01 0 0.01 0 0.02 0.01 0.01 0 0.02 0.01 0.03 0.01 0.01 0 0.03 0.01 0.04 0.01 0 0 0.04 0.01 0.04 0.02 0 0 0.05 0.02 0.04 0.02 0.01 0 0.05 0.02 0.04 0.01 0.02 0.01 0.06 0.02 0.03 0.01 0.03 0.01 0.06 0.02 0.03 0.01 0.11 0.04 0.02 0.01 0.06 0.02 0.08 0.03 0 0 0.07 0.03 0.07 0.03 0.01 0 0.15 0.05 0.02 0.01 0.09 0.04 0.06 0.02 0.18 0.06 0.06 0.02 0.2 0.07 0.11 0.04 0.02 0 0.32 0.11 0.1 0.04 0.02 0.01 0.12 0.04 0.09 0.03 0.04 0.01 0.12 0.05 0.39 0.13 0.13 0.05 0.04 0.01 0.1 0.03 0.28 0.1 0.13 0.04 0.01 0 0.15 0.05 0.11 0.04 0.03 0.01 0.15 0.06 0.1 0.03 0.06 0.02 0.15 0.05 0.08 0.03 0.08 0.03 0.15 0.06 0.06 0.02 0.1 0.04 0.16 0.06 0.03 0.01 0.13 0.04 0.17 0.06 0 0 0.16 0.06 0.15 0.05 0.02 0.01 0.17 0.06 -11.86 -42.78zm44.31 69.38c-5.3,0 -9.61,4.31 -9.61,9.61 0,5.3 4.31,9.62 9.61,9.62 5.3,0 9.61,-4.31 9.61,-9.61 0,-5.3 -4.31,-9.61 -9.61,-9.61zm0 23.78c-7.82,0 -14.17,-6.36 -14.17,-14.17 0,-7.81 6.35,-14.16 14.17,-14.16 7.81,0 14.17,6.36 14.17,14.17 0,7.81 -6.36,14.17 -14.17,14.17zm17.5 -30.18l19.16 -33.96 -5.17 0 -18.37 31.01c1.55,0.94 3.01,1.92 4.39,2.95z"/>
  <rect class="fil1" width="180" height="180"/>
 </g>
</svg>
