<?xml version="1.0" encoding="UTF-8"?>
<!DOCTYPE svg PUBLIC "-//W3C//DTD SVG 1.1//EN" "http://www.w3.org/Graphics/SVG/1.1/DTD/svg11.dtd">
<!-- Creator: CorelDRAW -->
<svg xmlns="http://www.w3.org/2000/svg" xml:space="preserve" width="0.18in" height="0.18in" version="1.1" style="shape-rendering:geometricPrecision; text-rendering:geometricPrecision; image-rendering:optimizeQuality; fill-rule:evenodd; clip-rule:evenodd"
viewBox="0 0 180 180"
 xmlns:xlink="http://www.w3.org/1999/xlink"
 xmlns:xodm="http://www.corel.com/coreldraw/odm/2003">
 <defs>
  <style type="text/css">
   <![CDATA[
    .fil1 {fill:none}
    .fil0 {fill:#7F4629}
   ]]>
  </style>
 </defs>
 <g id="Layer_x0020_1">
  <metadata id="CorelCorpID_0Corel-Layer"/>
  <path class="fil0" d="M24.02 43.09c0.19,-0.52 0.37,-1.03 0.58,-1.54 1.41,-3.49 5.2,-5.67 8.81,-5.08 3.96,0.65 6.83,3.78 7.07,7.72 0.03,0.47 0.02,0.94 0.02,1.42 0,21.31 0,42.61 0,63.92 0,2.61 -0.55,3.16 -3.17,3.16 -0.94,0 -1.88,0 -2.92,0 0,8.93 0,17.79 0,26.73 4.02,0 8.04,0 12.28,0 0,-0.42 0,-0.86 0,-1.31 0,-5.41 0,-10.83 0,-16.24 0,-2.44 0.56,-2.99 3.05,-2.99 3.52,0 7.05,0 10.57,0 2.25,0 2.87,0.64 2.87,2.94 0,5.37 0,10.74 0,16.11 0,0.47 0,0.94 0,1.49 17.87,0 35.67,0 53.62,0 0,-0.48 0,-0.94 0,-1.4 0,-5.5 -0,-11 0,-16.5 0,-1.95 0.69,-2.63 2.63,-2.64 3.74,-0.01 7.47,-0.01 11.21,0 1.93,0 2.65,0.71 2.65,2.63 0.01,5.93 0,11.85 0,17.88 4.1,0 8.16,0 12.3,0 0,-8.83 0,-17.69 0,-26.7 -1.11,0 -2.21,0 -3.31,0 -2.1,-0.01 -2.78,-0.68 -2.78,-2.78 -0,-11.04 -0,-22.08 -0,-33.12 0,-10.65 -0.02,-21.3 0.01,-31.96 0.02,-4.93 3.83,-8.62 8.63,-8.43 3.44,0.13 6.43,2.47 7.53,5.87 0.09,0.28 0.21,0.54 0.32,0.81 0,22.77 0,45.54 0,68.31 -0.68,1.03 -1.64,1.39 -2.86,1.3 -1.09,-0.07 -2.19,-0.02 -3.25,-0.02 0,9.04 0,17.87 0,26.81 1.13,0 2.2,0.06 3.25,-0.02 1.22,-0.09 2.18,0.26 2.85,1.31 0,0.51 0,1.03 0,1.54 -0.69,1.03 -1.65,1.31 -2.86,1.31 -42.08,-0.02 -84.17,-0.02 -126.25,0 -1.21,0 -2.18,-0.27 -2.86,-1.31 0,-0.52 0,-1.03 0,-1.54 0.67,-1.04 1.63,-1.39 2.85,-1.31 1.09,0.07 2.19,0.02 3.25,0.02 0,-9.04 0,-17.86 0,-26.81 -1.13,0 -2.19,-0.06 -3.25,0.02 -1.22,0.08 -2.18,-0.27 -2.86,-1.3 0,-22.77 0,-45.54 0,-68.31zm101.09 90.22c1.13,0.02 2.02,0.91 2.02,2.04 0.01,1.18 -0.96,2.12 -2.12,2.06 -1.1,-0.05 -2.01,-1.02 -1.98,-2.11 0.03,-1.1 0.98,-2.01 2.08,-1.99zm-0.06 -8.25c1.13,-0.02 2.04,0.85 2.07,1.98 0.04,1.18 -0.9,2.14 -2.07,2.12 -1.1,-0.02 -2.04,-0.96 -2.04,-2.06 0,-1.1 0.93,-2.03 2.03,-2.05zm-70.07 8.25c1.13,0.01 2.02,0.9 2.03,2.03 0.01,1.18 -0.94,2.12 -2.11,2.07 -1.1,-0.04 -2.02,-1.01 -1.99,-2.09 0.02,-1.1 0.97,-2.02 2.07,-2.01zm2.03 -6.19c0,1.13 -0.89,2.04 -2.01,2.05 -1.15,0.02 -2.13,-0.99 -2.09,-2.13 0.04,-1.11 0.99,-2 2.1,-1.98 1.13,0.02 2,0.93 2,2.06zm-24.69 -28.86c1.12,0.02 2.01,0.92 2.01,2.05 0,1.13 -0.89,2.04 -2.01,2.05 -1.15,0.02 -2.14,-0.98 -2.09,-2.12 0.04,-1.11 0.98,-2 2.09,-1.98zm-0.01 -12.37c1.13,0.01 2.02,0.91 2.02,2.04 0,1.13 -0.88,2.04 -2,2.06 -1.15,0.02 -2.14,-0.98 -2.1,-2.11 0.03,-1.1 0.98,-2.01 2.08,-1.99zm2.02 -10.28c-0.03,1.13 -0.94,2.02 -2.06,2 -1.09,-0.01 -2.04,-0.95 -2.04,-2.04 -0.01,-1.15 0.99,-2.11 2.14,-2.06 1.13,0.05 1.98,0.96 1.96,2.1zm0 -12.45c0.01,1.13 -0.86,2.05 -1.98,2.08 -1.15,0.03 -2.15,-0.95 -2.12,-2.09 0.02,-1.11 0.96,-2.02 2.07,-2.02 1.13,0 2.02,0.89 2.04,2.02zm0 -12.33c-0,1.13 -0.9,2.04 -2.02,2.04 -1.1,0.01 -2.06,-0.91 -2.09,-2 -0.04,-1.15 0.95,-2.13 2.1,-2.11 1.13,0.02 2,0.93 2,2.06zm113.43 47.43c1.14,-0.02 2.05,0.86 2.07,2.01 0.02,1.15 -0.86,2.08 -1.99,2.1 -1.1,0.02 -2.08,-0.92 -2.11,-2.02 -0.03,-1.1 0.91,-2.07 2.02,-2.09zm0 -8.27c-1.11,-0.03 -2.05,-1.01 -2.02,-2.1 0.03,-1.11 1,-2.03 2.11,-2.01 1.13,0.02 2,0.95 1.98,2.09 -0.02,1.15 -0.94,2.04 -2.07,2.01zm0.01 -16.48c1.14,-0.02 2.05,0.87 2.06,2.02 0.02,1.15 -0.87,2.07 -1.99,2.09 -1.1,0.02 -2.08,-0.93 -2.1,-2.02 -0.02,-1.1 0.92,-2.07 2.03,-2.08zm-0.01 -12.37c1.14,-0.02 2.05,0.86 2.07,2.01 0.02,1.15 -0.86,2.07 -1.99,2.09 -1.1,0.02 -2.08,-0.92 -2.11,-2.02 -0.03,-1.1 0.91,-2.07 2.02,-2.09zm2.07 -10.3c-0.01,1.15 -0.92,2.04 -2.05,2.03 -1.11,-0.02 -2.06,-0.98 -2.04,-2.08 0.02,-1.11 0.98,-2.04 2.09,-2.03 1.14,0.02 2.02,0.93 2.01,2.08zm-59.96 74.21c-6.53,0 -13.06,0 -19.59,0 -2.39,0 -2.79,-0.6 -3.04,-2.92 -0.44,-4.17 0.54,-7.79 3.33,-10.92 0.37,-0.41 0.63,-0.92 0.93,-1.39 0.56,-0.87 1.33,-1.28 2.37,-1.28 10.74,0.01 21.48,-0.02 32.22,0.06 0.76,0.01 1.75,0.57 2.23,1.19 1.37,1.76 2.54,3.67 3.75,5.54 0.29,0.46 0.53,1.03 0.55,1.55 0.07,2.02 0.07,4.04 0.01,6.06 -0.04,1.41 -0.92,2.09 -2.54,2.1 -6.74,0.01 -13.48,0 -20.23,0zm-18.41 -4.21l0 0c12.42,0 24.71,0 37,0 0,-0.68 0,-1.27 0,-1.9 -12.36,0 -24.65,0 -37,0 0,0.66 0,1.24 0,1.9zm1.93 -6.2l0 0c11.12,0 22.11,0 33.14,0 -0.54,-1.5 -1.42,-2.02 -3.01,-2 -9.1,0.09 -18.2,0.09 -27.3,-0 -1.6,-0.02 -2.3,0.67 -2.83,2.01zm16.73 -72.07c12.8,0 25.59,0 38.39,0 4.28,0 6.81,2.52 6.81,6.8 0,16.11 0,32.21 0,48.31 -0,4.19 -2.56,6.74 -6.74,6.74 -25.76,0.01 -51.53,0.01 -77.3,0 -4.11,0 -6.67,-2.56 -6.67,-6.67 -0.01,-16.19 -0.01,-32.38 0,-48.57 0,-4.03 2.58,-6.61 6.59,-6.61 12.97,-0 25.94,0 38.91,0zm-41.38 51.44l0 0c27.58,0 55,0 82.47,0 0,-0.49 0,-0.87 0,-1.26 0,-14.39 0,-28.78 -0,-43.17 0,-2.26 -0.64,-2.89 -2.92,-2.89 -25.56,0 -51.12,0 -76.68,0 -2.27,0 -2.87,0.61 -2.87,2.93 0,14.35 0,28.7 0,43.04 0,0.43 0,0.85 0,1.35zm38.96 4.31l0 0c-12.91,0 -25.89,0 -38.89,0 0.36,1.61 0.86,1.98 2.67,1.98 12.15,0 24.3,0 36.46,0 0.33,0 0.66,0 1.03,0 -0.45,-0.71 -0.85,-1.33 -1.26,-1.98zm43.46 -0.04l0 0c-13.05,0 -26,0 -38.91,0 -0.42,0.67 -0.81,1.31 -1.25,2.02 1.59,0 3.09,0 4.6,0 10.99,0 21.97,0 32.96,0 1.69,0 2.18,-0.37 2.6,-2.02zm20.7 10.21l0 0c0,-0.52 0,-0.94 0,-1.36 0,-20.57 0,-41.14 0,-61.71 0,-0.34 0.01,-0.69 -0.01,-1.03 -0.11,-1.85 -1.47,-3.41 -3.3,-3.8 -1.74,-0.37 -3.65,0.48 -4.41,2.15 -0.36,0.79 -0.51,1.73 -0.52,2.6 -0.03,20.61 -0.02,41.23 -0.02,61.84 0,0.42 0,0.83 0,1.31 2.78,0 5.42,0 8.25,0zm-115.5 0l0 0c0,-0.49 0,-0.87 0,-1.25 0,-20.66 0,-41.31 -0,-61.97 0,-0.34 0.01,-0.69 -0.02,-1.03 -0.22,-2.01 -1.85,-3.59 -3.82,-3.73 -1.95,-0.13 -3.74,1.12 -4.24,3.04 -0.16,0.61 -0.15,1.28 -0.15,1.91 -0.01,20.53 -0,41.06 -0,61.58 0,0.46 0,0.92 0,1.44 2.78,0 5.42,0 8.25,0zm14.52 14.56l0 0c0,5.52 0,10.94 0,16.33 2.76,0 5.43,0 8.09,0 0,-5.5 0,-10.88 0,-16.33 -2.71,0 -5.35,0 -8.09,0zm70.08 16.34l0 0c2.78,0 5.45,0 8.09,0 0,-5.52 0,-10.93 0,-16.33 -2.75,0 -5.39,0 -8.09,0 0,5.46 0,10.85 0,16.33z"/>
  <rect class="fil1" width="180" height="180"/>
 </g>
</svg>
