<?xml version="1.0" encoding="UTF-8"?>
<!DOCTYPE svg PUBLIC "-//W3C//DTD SVG 1.1//EN" "http://www.w3.org/Graphics/SVG/1.1/DTD/svg11.dtd">
<!-- Creator: CorelDRAW -->
<svg xmlns="http://www.w3.org/2000/svg" xml:space="preserve" width="0.18in" height="0.18in" version="1.1" style="shape-rendering:geometricPrecision; text-rendering:geometricPrecision; image-rendering:optimizeQuality; fill-rule:evenodd; clip-rule:evenodd"
viewBox="0 0 180 180"
 xmlns:xlink="http://www.w3.org/1999/xlink"
 xmlns:xodm="http://www.corel.com/coreldraw/odm/2003">
 <defs>
  <style type="text/css">
   <![CDATA[
    .fil1 {fill:none}
    .fil0 {fill:#7F4629;fill-rule:nonzero}
   ]]>
  </style>
 </defs>
 <g id="Layer_x0020_1">
  <metadata id="CorelCorpID_0Corel-Layer"/>
  <g id="_2905075068432">
   <path class="fil0" d="M127.15 116.99c0,0 -2.14,-2.14 -2.14,-2.14 -10.55,-10.55 -11.7,-23.46 -12.72,-34.85l-0.13 -1.52c-0.06,-1.11 -0.18,-2.26 -0.33,-3.34 -0,-0.04 -0.01,-0.08 -0.01,-0.11 -0,-0.05 -0.01,-0.09 -0.02,-0.14 -1.5,-10.5 -6.87,-20.83 -15.13,-29.1 -8.54,-8.54 -19.2,-13.96 -30.01,-15.27 -10.94,-1.32 -20.73,1.72 -27.57,8.57 -14.03,14.03 -11.02,39.86 6.7,57.59 8.28,8.28 18.64,13.66 29.16,15.15 1.19,0.17 2.38,0.28 3.49,0.34l1.56 0.14c11.39,1.02 24.3,2.17 34.85,12.72l2.15 2.14c0,0 21.98,21.98 21.98,21.98 0.42,0.41 0.97,0.63 1.52,0.63 0.55,0 1.1,-0.22 1.52,-0.63l7.14 -7.14c0.84,-0.84 0.84,-2.2 0,-3.04l-21.98 -21.98zm-12.85 3.75c-10.8,-9.14 -23.61,-10.3 -34.07,-11.23l-1.6 -0.15c-1.09,-0.06 -2.19,-0.17 -3.29,-0.32 -9.94,-1.4 -19.72,-6.5 -27.58,-14.35 -16.63,-16.63 -19.63,-40.68 -6.7,-53.61 6.22,-6.22 15.19,-8.98 25.26,-7.76 10.19,1.23 20.26,6.37 28.36,14.46 7.85,7.86 12.95,17.65 14.35,27.56 0.16,1.13 0.26,2.23 0.33,3.35l0.14 1.55c0.93,10.45 2.09,23.28 11.23,34.07l-6.42 6.43zm2.09 1.87l6.2 -6.2 1.57 1.57 -6.2 6.2 -1.57 -1.57zm24.08 24.07l-20.52 -20.52 6.2 -6.2 20.52 20.52 -6.2 6.2z"/>
   <path class="fil0" d="M92.66 49.8c-14.91,-14.91 -36.66,-17.43 -48.48,-5.61 -5.77,5.77 -8.34,14.03 -7.22,23.24 1.09,9.09 5.65,18.06 12.83,25.23 7.18,7.18 16.14,11.74 25.23,12.83 1.41,0.17 2.79,0.26 4.15,0.26 7.53,0 14.21,-2.59 19.1,-7.48 11.82,-11.82 9.31,-33.57 -5.6,-48.48zm9.06 37.39l-7.95 -7.95 5.78 -5.78 3.26 3.26c0.28,3.66 -0.06,7.21 -1.09,10.47zm-35.18 -19.65l5.5 5.5 -5.78 5.78 -5.49 -5.5 5.78 -5.78zm-6.77 4.79l-5.5 -5.49 5.78 -5.78 5.5 5.49 -5.78 5.78zm7.76 -5.78l5.78 -5.78 5.5 5.5 -5.78 5.78 -5.49 -5.49zm5.49 7.48l5.5 5.5 -5.78 5.78 -5.49 -5.5 5.78 -5.78zm1 -0.99l5.78 -5.78 5.5 5.5 -5.78 5.78 -5.49 -5.49zm6.77 -6.78l5.78 -5.78 5.5 5.5 -5.78 5.78 -5.5 -5.5zm-0.99 -0.99l-5.5 -5.5 5.78 -5.78 5.49 5.49 -5.78 5.78zm-6.49 -6.49l-5.5 -5.5 5.78 -5.78 5.5 5.49 -5.78 5.78zm-0.99 0.99l-5.78 5.78 -5.49 -5.49 5.78 -5.78 5.5 5.5zm-12.27 -0.7l-5.5 -5.5 5.78 -5.78 5.5 5.49 -5.78 5.78zm-0.99 0.99l-5.78 5.78 -5.5 -5.49 5.78 -5.78 5.5 5.5zm-6.78 6.77l-5.78 5.78 -5.49 -5.49 5.78 -5.78 5.49 5.5zm1 0.99l5.49 5.49 -5.78 5.78 -5.5 -5.5 5.78 -5.78zm6.49 6.48l5.5 5.49 -5.78 5.78 -5.5 -5.5 5.78 -5.78zm6.48 6.49l5.5 5.5 -5.78 5.78 -5.49 -5.5 5.78 -5.78zm6.49 6.49l5.5 5.49 -5.78 5.78 -5.5 -5.5 5.78 -5.78zm0.99 -1l5.78 -5.78 5.5 5.49 -5.78 5.78 -5.5 -5.5zm6.78 -6.77l5.78 -5.78 5.5 5.5 -5.78 5.78 -5.49 -5.49zm6.77 -6.77l5.78 -5.78 5.49 5.5 -5.78 5.78 -5.5 -5.49zm15.28 1.74l-2.02 -2.02 1.35 -1.35c0.28,1.12 0.51,2.25 0.68,3.37zm-1.09 -4.93l-1.92 1.92 -5.5 -5.5 4.15 -4.15c1.39,2.53 2.49,5.12 3.26,7.73zm-8.58 -15.39c1.77,2.04 3.3,4.18 4.61,6.38l-4.44 4.44 -5.5 -5.5 5.32 -5.32zm-2.2 -2.39c0.44,0.44 0.84,0.91 1.25,1.35l-5.36 5.36 -5.5 -5.5 5.13 -5.13c1.54,1.19 3.04,2.48 4.47,3.91zm-5.61 -4.76l-4.98 4.98 -5.5 -5.5 3.55 -3.55c2.37,1.1 4.69,2.45 6.93,4.06zm-16.86 -7.11c2.84,0.44 5.72,1.26 8.55,2.44l-3.16 3.16 -5.5 -5.49 0.11 -0.11zm4.39 6.6l-5.78 5.78 -5.49 -5.5 5.78 -5.78 5.5 5.49zm-9.27 -6.99c0.79,0 1.58,0.05 2.39,0.11l0.4 0.4 -5.78 5.78 -5.06 -5.06c2.54,-0.8 5.25,-1.22 8.06,-1.22zm-9.54 1.72l5.56 5.55 -5.78 5.78 -6.87 -6.87c2.08,-1.95 4.47,-3.44 7.09,-4.46zm-8.08 5.46l6.86 6.87 -5.78 5.78 -5.54 -5.54c1.04,-2.66 2.52,-5.05 4.45,-7.11zm-4.99 8.56l5.08 5.08 -5.78 5.78 -0.37 -0.37c-0.3,-3.74 0.06,-7.29 1.07,-10.49zm-0.79 12.94l0.09 -0.09 5.5 5.49 -3.17 3.17c-1.17,-2.8 -1.97,-5.67 -2.42,-8.57zm3.04 9.94l3.54 -3.54 5.5 5.5 -4.99 4.99c-1.59,-2.22 -2.94,-4.55 -4.04,-6.94zm8.8 12.55c-1.42,-1.42 -2.7,-2.93 -3.9,-4.48l5.13 -5.12 5.49 5.49 -5.36 5.36c-0.45,-0.42 -0.92,-0.81 -1.36,-1.26zm2.39 2.21l5.33 -5.32 5.49 5.5 -4.44 4.44c-2.22,-1.32 -4.36,-2.85 -6.38,-4.61zm7.65 5.33l4.16 -4.16 5.5 5.5 -1.93 1.93c-2.64,-0.78 -5.23,-1.89 -7.73,-3.26zm9.3 3.68l1.35 -1.35 2.02 2.02c-1.13,-0.17 -2.26,-0.39 -3.37,-0.67zm5.6 0.91l-3.26 -3.26 5.78 -5.78 7.97 7.97c-3.2,1.01 -6.75,1.36 -10.49,1.07zm11.93 -1.61l-8.42 -8.42 5.78 -5.78 9.76 9.75c-2.06,1.93 -4.46,3.42 -7.11,4.45zm-1.65 -15.2l5.78 -5.78 8.42 8.42c-1.02,2.63 -2.5,5.03 -4.45,7.11l-9.75 -9.76z"/>
   <path class="fil0" d="M115.52 113.61c-3.72,-6.02 -6.08,-12.82 -7.44,-21.43 -0.1,-0.62 -0.59,-1.1 -1.22,-1.17 -0.62,-0.07 -1.22,0.27 -1.46,0.85 -1.3,3.09 -3.12,5.83 -5.43,8.13 -2.31,2.31 -5.04,4.13 -8.13,5.43 -0.58,0.24 -0.93,0.84 -0.85,1.46 0.07,0.63 0.56,1.12 1.17,1.22 8.61,1.35 15.41,3.72 21.42,7.43 0.23,0.15 0.48,0.21 0.74,0.21 0.37,0 0.72,-0.14 1,-0.41 0.46,-0.46 0.54,-1.18 0.2,-1.73zm-18.79 -7.53c1.91,-1.16 3.66,-2.52 5.23,-4.1 1.57,-1.57 2.94,-3.33 4.1,-5.24 1.1,5.24 2.63,9.82 4.68,14.02 -4.19,-2.05 -8.77,-3.58 -14.01,-4.68z"/>
   <path class="fil0" d="M64.35 114.04c-1.27,-0.29 -2.56,-0.44 -3.86,-0.44 -8.01,0 -14.87,5.46 -16.67,13.28 -1.03,4.46 -0.26,9.05 2.17,12.93 2.43,3.88 6.22,6.58 10.67,7.61 1.27,0.29 2.57,0.44 3.86,0.44 8.02,0 14.87,-5.46 16.67,-13.28 1.03,-4.46 0.26,-9.05 -2.17,-12.93 -2.43,-3.88 -6.22,-6.58 -10.67,-7.6zm-14.58 26.57c-0.93,-1.01 -1.71,-2.14 -2.32,-3.37 -0.46,-0.91 -0.81,-1.88 -1.07,-2.88 -0.2,-0.78 -0.34,-1.57 -0.41,-2.39 -0,-0.07 -0.02,-0.13 -0.02,-0.19 -0.09,-1.2 -0.01,-2.42 0.21,-3.64 3.19,1.67 6.87,-0.74 8.54,-2.46 1.46,-1.7 3.58,-2.67 5.81,-2.67 2.78,0 5.22,1.48 6.57,3.7 0.52,0.87 0.85,1.8 1.02,2.75 0.02,0.09 0.03,0.18 0.04,0.27 0.41,2.92 -0.86,5.94 -3.51,7.61 -1.89,1.19 -4.2,1.48 -6.4,0.81 -2.26,-0.56 -6.63,-0.64 -8.46,2.43zm25.34 -9.55c-0.01,0.49 -0.05,0.98 -0.11,1.46 -0.06,0.49 -0.15,0.98 -0.26,1.47 -0.1,0.46 -0.24,0.91 -0.38,1.35 -0.05,0.15 -0.11,0.28 -0.16,0.42 -0.11,0.29 -0.22,0.58 -0.35,0.87 -0.07,0.16 -0.15,0.31 -0.22,0.46 -0.13,0.26 -0.25,0.51 -0.39,0.75 -0.09,0.16 -0.18,0.31 -0.27,0.46 -0.15,0.24 -0.3,0.47 -0.45,0.7 -0.1,0.14 -0.19,0.28 -0.3,0.41 -0.17,0.24 -0.36,0.47 -0.56,0.7 -0.09,0.11 -0.19,0.23 -0.28,0.33 -0.27,0.3 -0.54,0.58 -0.83,0.86 -0.03,0.03 -0.06,0.06 -0.09,0.09 -0.32,0.3 -0.66,0.57 -1,0.85 -0.11,0.08 -0.22,0.16 -0.33,0.24 -0.24,0.18 -0.49,0.35 -0.74,0.52 -0.14,0.09 -0.28,0.17 -0.42,0.26 -0.24,0.14 -0.48,0.28 -0.72,0.4 -0.15,0.08 -0.31,0.16 -0.46,0.23 -0.24,0.11 -0.5,0.22 -0.75,0.33 -0.16,0.06 -0.31,0.13 -0.47,0.19 -0.27,0.1 -0.55,0.19 -0.83,0.28 -0.15,0.04 -0.29,0.09 -0.43,0.13 -0.36,0.1 -0.72,0.18 -1.09,0.25 -0.07,0.01 -0.14,0.03 -0.21,0.04 -0.44,0.07 -0.88,0.13 -1.33,0.17 -0.13,0.01 -0.26,0.01 -0.39,0.02 -0.26,0.02 -0.51,0.04 -0.77,0.04 -0.06,0 -0.11,-0.01 -0.16,-0.01 -0.35,-0 -0.69,-0.04 -1.04,-0.06 -0.17,-0.01 -0.35,-0.01 -0.52,-0.04 -0.52,-0.06 -1.05,-0.15 -1.57,-0.27 -0.49,-0.11 -0.97,-0.25 -1.44,-0.41 -0.94,-0.32 -1.82,-0.72 -2.65,-1.21 -0.41,-0.24 -0.81,-0.5 -1.2,-0.78 -0.08,-0.06 -0.16,-0.13 -0.24,-0.19 1.07,-2.85 5.84,-1.76 5.85,-1.76 2.84,0.87 5.91,0.46 8.41,-1.11 3.12,-1.96 4.79,-5.33 4.75,-8.77 0.01,-0.33 -0.01,-0.67 -0.04,-0.99 -0,-0.04 -0.01,-0.09 -0.01,-0.12 -0.02,-0.24 -0.07,-0.47 -0.11,-0.71 -0.04,-0.18 -0.07,-0.37 -0.12,-0.56 -0.02,-0.07 -0.04,-0.16 -0.06,-0.23 -0.13,-0.47 -0.3,-0.94 -0.5,-1.4 -1.56,-3.65 -5.17,-6.22 -9.38,-6.22 -2.96,0 -5.77,1.29 -7.67,3.48 -0.04,0.04 -3.54,3.59 -6,1.63 0.1,-0.27 0.2,-0.54 0.31,-0.8 0.07,-0.16 0.15,-0.31 0.22,-0.47 0.12,-0.25 0.25,-0.5 0.39,-0.75 0.08,-0.16 0.17,-0.31 0.27,-0.46 0.14,-0.24 0.3,-0.47 0.45,-0.7 0.1,-0.14 0.2,-0.28 0.3,-0.42 0.17,-0.24 0.36,-0.46 0.55,-0.69 0.1,-0.11 0.19,-0.23 0.29,-0.34 0.02,-0.03 0.05,-0.06 0.07,-0.09 0.24,-0.26 0.49,-0.51 0.74,-0.75 0.03,-0.03 0.06,-0.07 0.1,-0.1 0.16,-0.15 0.33,-0.29 0.5,-0.43 0.17,-0.14 0.33,-0.29 0.5,-0.42 0.11,-0.08 0.22,-0.16 0.33,-0.24 0.06,-0.04 0.11,-0.07 0.17,-0.11 0.19,-0.13 0.38,-0.28 0.58,-0.41 0.07,-0.04 0.14,-0.08 0.21,-0.13 0.07,-0.04 0.14,-0.09 0.21,-0.13 0.15,-0.09 0.29,-0.19 0.43,-0.26 0.09,-0.06 0.19,-0.09 0.29,-0.15 0.15,-0.08 0.31,-0.15 0.46,-0.23 0.25,-0.12 0.5,-0.23 0.75,-0.33 0.16,-0.07 0.31,-0.13 0.47,-0.19 0.27,-0.1 0.54,-0.19 0.82,-0.28 0.15,-0.04 0.29,-0.09 0.44,-0.13 0.04,-0.01 0.09,-0.03 0.13,-0.04 0.31,-0.08 0.63,-0.15 0.96,-0.21 0.07,-0.01 0.13,-0.03 0.21,-0.04 0.41,-0.07 0.83,-0.13 1.24,-0.16 0.03,-0 0.06,-0 0.08,-0 0.13,-0.01 0.26,-0.01 0.4,-0.02 0.25,-0.02 0.5,-0.04 0.76,-0.04 0.06,0 0.11,0.01 0.17,0.01 0.35,0.01 0.69,0.03 1.04,0.06 0.17,0.02 0.35,0.02 0.52,0.04 0.52,0.06 1.04,0.15 1.57,0.27 1.47,0.34 2.84,0.89 4.08,1.62 0.83,0.48 1.59,1.04 2.3,1.67 0.35,0.31 0.69,0.64 1.01,0.98 1.28,1.37 2.28,2.98 2.96,4.73 0.17,0.44 0.31,0.88 0.44,1.34 0.25,0.91 0.42,1.84 0.49,2.8 0.04,0.48 0.05,0.96 0.04,1.44z"/>
  </g>
  <rect class="fil1" width="180" height="180"/>
 </g>
</svg>
