<?xml version="1.0" encoding="UTF-8"?>
<!DOCTYPE svg PUBLIC "-//W3C//DTD SVG 1.1//EN" "http://www.w3.org/Graphics/SVG/1.1/DTD/svg11.dtd">
<!-- Creator: CorelDRAW -->
<svg xmlns="http://www.w3.org/2000/svg" xml:space="preserve" width="0.18in" height="0.18in" version="1.1" style="shape-rendering:geometricPrecision; text-rendering:geometricPrecision; image-rendering:optimizeQuality; fill-rule:evenodd; clip-rule:evenodd"
viewBox="0 0 180 180"
 xmlns:xlink="http://www.w3.org/1999/xlink"
 xmlns:xodm="http://www.corel.com/coreldraw/odm/2003">
 <defs>
  <style type="text/css">
   <![CDATA[
    .fil0 {fill:none}
    .fil1 {fill:#7F4629;fill-rule:nonzero}
   ]]>
  </style>
 </defs>
 <g id="Layer_x0020_1">
  <metadata id="CorelCorpID_0Corel-Layer"/>
  <rect class="fil0" width="180" height="180"/>
  <path class="fil1" d="M93.5 115.43l-42.39 0c-0.45,0 -0.87,-0.23 -1.11,-0.61 -0.24,-0.38 -0.28,-0.87 -0.09,-1.28 0.11,-0.24 0.24,-0.84 0.37,-1.49 0.66,-3.12 3.03,-9.19 11.59,-14.75 4.6,-2.99 8.02,-8.33 9.56,-10.75 -2.33,1.13 -4.93,1.14 -7.75,0.04 -0.14,-0.06 -0.27,-0.12 -0.43,-0.21 -1.56,-0.84 -3.22,-1.3 -4.79,0.95 -1.57,2.25 -4.52,3.67 -7.69,3.71 -3.25,0.04 -6.21,-1.42 -8.08,-3.98 -1.43,-1.94 -1.98,-4.07 -1.7,-6.48 0.07,-0.55 0.13,-1.35 -0.01,-1.96 -0.53,-2.34 0.07,-4.45 1.77,-6.28 0.36,-0.38 0.98,-0.87 1.85,-1.54 3.22,-2.5 9.91,-7.7 10.42,-14.15 0.09,-1.14 0.6,-2.34 1.3,-3.06 2.29,-2.36 5.11,-4.91 8.7,-5.85 0.76,-0.2 1.53,-0.29 2.26,-0.37 0,-0.71 0.01,-1.42 0.01,-2.13 0.01,-1.91 0.02,-3.88 -0.03,-5.81 -0.05,-1.98 0.56,-3.38 1.85,-4.29 0.22,-0.15 0.5,-0.24 0.76,-0.24 0.4,0 2.97,0.38 5.66,2.09 2.36,1.5 5.32,4.39 6.14,9.65 5.21,0.59 9.82,3.48 13.69,8.59 3.56,4.7 5.69,10.53 6.51,17.84 1.15,10.32 -0.24,20.31 -4.15,29.69 -1.15,2.76 -2.34,5.61 -2.74,8.69 -0.09,0.71 -0.13,1.46 -0.16,2.25l-0.02 0.44c-0.03,0.71 -0.61,1.27 -1.32,1.27zm-40.66 -2.67l39.41 0c0.03,-0.55 0.07,-1.09 0.14,-1.65 0.44,-3.43 1.7,-6.45 2.92,-9.37 3.72,-8.95 5.06,-18.49 3.96,-28.35 -0.76,-6.81 -2.72,-12.22 -5.98,-16.52 -3.54,-4.67 -7.53,-7.15 -12.18,-7.59 -0.93,-0.09 -1.86,-1 -1.99,-1.95 -1.02,-7.45 -7.08,-9.29 -8.82,-9.66 -0.24,0.31 -0.4,0.8 -0.38,1.71 0.06,1.97 0.04,3.96 0.03,5.89 0,0.73 -0,1.46 -0.01,2.19 0,0.31 -0.01,0.6 -0.03,0.86l-0 0.13c-0.04,0.75 -0.6,1.37 -1.34,1.47 -0.31,0.04 -0.62,0.08 -0.92,0.11 -0.7,0.08 -1.35,0.16 -1.95,0.31 -2.97,0.78 -5.45,3.04 -7.49,5.14 -0.23,0.24 -0.51,0.87 -0.55,1.41 -0.6,7.63 -7.93,13.31 -11.44,16.05 -0.68,0.53 -1.33,1.02 -1.54,1.26 -1.11,1.19 -1.45,2.37 -1.12,3.85 0.23,1.02 0.15,2.13 0.06,2.87 -0.2,1.73 0.18,3.19 1.2,4.58 1.87,2.56 4.52,2.9 5.93,2.9 2.3,-0.03 4.49,-1.04 5.57,-2.58 1.43,-2.05 4.01,-4.02 8.19,-1.77 0.06,0.04 0.12,0.06 0.16,0.08 3.14,1.21 5.67,0.67 7.96,-1.7 0.23,-0.23 0.46,-0.41 0.66,-0.57l0.09 -0.07c0.6,-0.48 1.46,-0.43 2.01,0.09 0,0.01 0.01,0.01 0.02,0.02 0.45,0.44 0.59,1.11 0.36,1.7 -0.12,0.29 -0.22,0.59 -0.34,0.91 -0.31,0.88 -0.64,1.79 -1.17,2.6 -0.13,0.19 -0.29,0.44 -0.48,0.75 -1.57,2.5 -5.26,8.34 -10.45,11.71 -5.66,3.68 -9.46,8.44 -10.43,13.06 -0.01,0.05 -0.02,0.11 -0.03,0.16zm22.15 -28.9l-0.01 0.01c0,-0 0,-0 0.01,-0.01z"/>
  <path class="fil1" d="M95.78 122.85l-48.31 0c-0.73,0 -1.32,-0.6 -1.32,-1.33l0 -7.42c0,-0.74 0.59,-1.33 1.32,-1.33l48.31 0c0.73,0 1.32,0.59 1.32,1.33l0 7.42c0,0.74 -0.59,1.33 -1.32,1.33zm-46.99 -2.67l45.67 0 0 -4.76 -45.67 0 0 4.76z"/>
  <path class="fil1" d="M104.48 145.69l-65.72 0c-0.73,0 -1.32,-0.59 -1.32,-1.33l0 -16.75c0,-4.1 3.3,-7.43 7.35,-7.43l53.65 0c4.06,0 7.35,3.33 7.35,7.43l0 16.75c0,0.74 -0.59,1.33 -1.32,1.33zm-64.39 -2.67l63.07 0 0 -15.41c0,-2.62 -2.11,-4.76 -4.71,-4.76l-53.65 0c-2.6,0 -4.71,2.14 -4.71,4.76l0 15.41z"/>
  <path class="fil1" d="M128.84 110.95l-34.86 0c-0.73,0 -1.32,-0.6 -1.32,-1.33 0,-0.74 0.59,-1.33 1.32,-1.33l33.54 0 0 -4.75 -30.98 0c-0.73,0 -1.31,-0.6 -1.31,-1.33 0,-0.74 0.59,-1.33 1.31,-1.33l32.3 0c0.73,0 1.32,0.59 1.32,1.33l0 7.42c0,0.74 -0.59,1.33 -1.32,1.33z"/>
  <path class="fil1" d="M124.16 103.53l-27.62 0c-0.73,0 -1.31,-0.59 -1.31,-1.33 0,-0.74 0.59,-1.34 1.31,-1.34l26.3 0 0 -49.2 -30.59 0 0 0.69c0,0.74 -0.59,1.33 -1.32,1.33 -0.73,0 -1.32,-0.59 -1.32,-1.33l0 -2.02c0,-0.74 0.59,-1.33 1.32,-1.33l33.24 0c0.73,0 1.32,0.59 1.32,1.33l0 51.87c0,0.74 -0.59,1.33 -1.32,1.33z"/>
  <path class="fil1" d="M127.57 51.65l-40.06 0c-0.73,0 -1.32,-0.6 -1.32,-1.33l0 -5.07c0,-0.74 0.59,-1.33 1.32,-1.33l40.06 0c0.73,0 1.32,0.59 1.32,1.33l0 5.07c0,0.73 -0.59,1.33 -1.32,1.33zm-38.74 -2.67l37.42 0 0 -2.4 -37.42 0 0 2.4z"/>
  <path class="fil1" d="M136.52 133.79l-32.04 0c-0.73,0 -1.32,-0.6 -1.32,-1.33 0,-0.74 0.59,-1.33 1.32,-1.33l30.71 0 0 -15.89c0,-2.37 -1.9,-4.29 -4.24,-4.29l-36.97 0c-0.73,0 -1.32,-0.59 -1.32,-1.33 0,-0.74 0.59,-1.33 1.32,-1.33l36.97 0c3.8,0 6.88,3.11 6.88,6.95l0 17.22c0,0.74 -0.59,1.33 -1.32,1.33z"/>
  <path class="fil1" d="M129.49 46.59l-43.89 0c-0.67,0 -1.24,-0.51 -1.31,-1.19l-2.21 -19.51c-0.04,-0.38 0.07,-0.76 0.33,-1.04 0.25,-0.28 0.61,-0.44 0.98,-0.44l7.54 0c0.73,0 1.32,0.6 1.32,1.33l0 8.42 3.35 0 0 -8.42c0,-0.74 0.59,-1.33 1.32,-1.33l7.63 0c0.73,0 1.32,0.6 1.32,1.33l0 8.42 3.35 0 0 -8.42c0,-0.74 0.59,-1.33 1.32,-1.33l7.63 0c0.73,0 1.32,0.6 1.32,1.33l0 8.42 3.35 0 0 -8.42c0,-0.74 0.59,-1.33 1.32,-1.33l7.54 0c0.38,0 0.74,0.16 0.99,0.44 0.25,0.28 0.37,0.66 0.32,1.04l-2.21 19.51c-0.08,0.68 -0.64,1.19 -1.31,1.19zm-42.71 -2.67l41.54 0 1.91 -16.84 -4.74 0 0 8.42c0,0.74 -0.59,1.33 -1.32,1.33l-5.99 0c-0.73,0 -1.32,-0.59 -1.32,-1.33l0 -8.42 -4.99 0 0 8.42c0,0.74 -0.59,1.33 -1.32,1.33l-5.99 0c-0.73,0 -1.32,-0.59 -1.32,-1.33l0 -8.42 -4.99 0 0 8.42c0,0.74 -0.59,1.33 -1.32,1.33l-5.99 0c-0.73,0 -1.32,-0.59 -1.32,-1.33l0 -8.42 -4.74 0 1.91 16.84z"/>
 </g>
</svg>
