<?xml version="1.0" encoding="UTF-8"?>
<!DOCTYPE svg PUBLIC "-//W3C//DTD SVG 1.1//EN" "http://www.w3.org/Graphics/SVG/1.1/DTD/svg11.dtd">
<!-- Creator: CorelDRAW -->
<svg xmlns="http://www.w3.org/2000/svg" xml:space="preserve" width="0.18in" height="0.18in" version="1.1" style="shape-rendering:geometricPrecision; text-rendering:geometricPrecision; image-rendering:optimizeQuality; fill-rule:evenodd; clip-rule:evenodd"
viewBox="0 0 180 180"
 xmlns:xlink="http://www.w3.org/1999/xlink"
 xmlns:xodm="http://www.corel.com/coreldraw/odm/2003">
 <defs>
  <style type="text/css">
   <![CDATA[
    .fil1 {fill:none}
    .fil0 {fill:#7F4629;fill-rule:nonzero}
   ]]>
  </style>
 </defs>
 <g id="Layer_x0020_1">
  <metadata id="CorelCorpID_0Corel-Layer"/>
  <g id="_2863605416432">
   <path class="fil0" d="M166.66 137.53l-153.32 0 0 -16.6 153.32 0 0 16.6zm-151.37 -1.96l149.42 0 0 -12.69 -149.42 0 0 12.69z"/>
   <path class="fil0" d="M25.06 121.9c0,0.54 -0.44,0.98 -0.98,0.98 -0.54,0 -0.98,-0.43 -0.98,-0.98l1.95 0z"/>
   <path class="fil0" d="M23.1 113.09l0 -3.36c0,-0.54 0.44,-0.98 0.98,-0.98 0.54,0 0.98,0.44 0.98,0.98l0 3.36 -1.95 0zm49.81 2.43c-0.54,0 -0.98,-0.44 -0.98,-0.98l0 -4.87c0,-0.54 0.44,-0.98 0.98,-0.98 0.54,0 0.98,0.44 0.98,0.98l0 4.87c0,0.54 -0.44,0.98 -0.98,0.98zm-48.83 -9.68c-0.54,0 -0.98,-0.44 -0.98,-0.98l0 -4.86c0,-0.54 0.44,-0.98 0.98,-0.98 0.54,0 0.98,0.44 0.98,0.98l0 4.86c0,0.54 -0.44,0.98 -0.98,0.98zm48.83 -0.05c-0.54,0 -0.98,-0.44 -0.98,-0.98l0 -4.87c0,-0.54 0.44,-0.97 0.98,-0.97 0.54,0 0.98,0.43 0.98,0.97l0 4.87c0,0.54 -0.44,0.98 -0.98,0.98zm-48.83 -9.68c-0.54,0 -0.98,-0.44 -0.98,-0.98l0 -4.86c0,-0.54 0.44,-0.98 0.98,-0.98 0.54,0 0.98,0.44 0.98,0.98l0 4.86c0,0.54 -0.44,0.98 -0.98,0.98zm48.83 -0.05c-0.54,0 -0.98,-0.44 -0.98,-0.98l0 -4.86c0,-0.54 0.44,-0.98 0.98,-0.98 0.54,0 0.98,0.44 0.98,0.98l0 4.86c0,0.54 -0.44,0.98 -0.98,0.98zm-48.83 -9.69c-0.54,0 -0.98,-0.43 -0.98,-0.97l0 -4.87c0,-0.54 0.44,-0.98 0.98,-0.98 0.54,0 0.98,0.44 0.98,0.98l0 4.87c0,0.54 -0.44,0.97 -0.98,0.97zm48.83 -0.04c-0.54,0 -0.98,-0.44 -0.98,-0.98l0 -4.86c0,-0.54 0.44,-0.98 0.98,-0.98 0.54,0 0.98,0.44 0.98,0.98l0 4.86c0,0.54 -0.44,0.98 -0.98,0.98zm-48.82 -9.69l-0.03 0c-0.54,-0.01 -0.96,-0.46 -0.95,-1 0.05,-1.7 0.29,-3.39 0.71,-5.02 0.14,-0.52 0.67,-0.83 1.19,-0.7 0.52,0.14 0.83,0.67 0.7,1.19 -0.39,1.5 -0.61,3.04 -0.65,4.59 -0.01,0.53 -0.45,0.94 -0.98,0.94zm48.81 -0.04c-0.52,0 -0.96,-0.42 -0.97,-0.95 -0.05,-1.55 -0.27,-3.09 -0.66,-4.58 -0.14,-0.52 0.18,-1.06 0.7,-1.19 0.53,-0.13 1.06,0.18 1.19,0.7 0.43,1.64 0.67,3.33 0.72,5.02 0.02,0.54 -0.41,0.99 -0.94,1.01l-0.03 0zm-46.39 -9.29c-0.15,0 -0.3,-0.04 -0.45,-0.11 -0.48,-0.25 -0.67,-0.84 -0.42,-1.32 0.77,-1.49 1.71,-2.91 2.8,-4.22 0.35,-0.41 0.96,-0.47 1.37,-0.13 0.41,0.34 0.47,0.96 0.13,1.37 -1,1.2 -1.86,2.5 -2.57,3.87 -0.18,0.33 -0.52,0.53 -0.87,0.53zm43.96 -0.04c-0.35,0 -0.69,-0.19 -0.87,-0.52 -0.71,-1.37 -1.57,-2.67 -2.57,-3.87 -0.35,-0.42 -0.29,-1.03 0.13,-1.37 0.41,-0.35 1.03,-0.29 1.37,0.12 1.09,1.31 2.03,2.72 2.81,4.22 0.25,0.48 0.06,1.07 -0.41,1.31 -0.15,0.07 -0.3,0.11 -0.45,0.11zm-37.8 -7.4c-0.29,0 -0.57,-0.13 -0.76,-0.37 -0.33,-0.42 -0.27,-1.04 0.16,-1.37 1.31,-1.05 2.74,-1.96 4.25,-2.73 0.48,-0.24 1.07,-0.05 1.31,0.43 0.24,0.48 0.06,1.07 -0.43,1.31 -1.39,0.71 -2.71,1.56 -3.92,2.52 -0.18,0.14 -0.4,0.21 -0.61,0.21zm31.63 -0.03c-0.21,0 -0.43,-0.07 -0.6,-0.21 -1.22,-0.96 -2.54,-1.81 -3.93,-2.51 -0.48,-0.25 -0.67,-0.83 -0.43,-1.31 0.24,-0.48 0.83,-0.67 1.31,-0.43 1.51,0.76 2.94,1.69 4.26,2.72 0.42,0.34 0.49,0.95 0.16,1.37 -0.19,0.24 -0.48,0.37 -0.76,0.37zm-23.03 -4.37c-0.43,0 -0.82,-0.28 -0.94,-0.71 -0.15,-0.52 0.15,-1.06 0.67,-1.2 1.61,-0.46 3.28,-0.76 4.96,-0.91 0.54,-0.05 1.01,0.35 1.06,0.89 0.04,0.54 -0.35,1.01 -0.89,1.06 -1.56,0.13 -3.1,0.41 -4.59,0.83 -0.09,0.02 -0.18,0.04 -0.27,0.04zm14.41 -0.01c-0.09,0 -0.18,-0.01 -0.27,-0.04 -1.49,-0.42 -3.03,-0.7 -4.59,-0.83 -0.54,-0.04 -0.94,-0.52 -0.89,-1.06 0.04,-0.54 0.51,-0.93 1.06,-0.89 1.68,0.14 3.35,0.44 4.96,0.9 0.52,0.15 0.82,0.69 0.68,1.2 -0.12,0.43 -0.52,0.71 -0.94,0.71z"/>
   <path class="fil0" d="M72.91 122.88c-0.54,0 -0.98,-0.43 -0.98,-0.98l0 -2.44c0,-0.54 0.44,-0.97 0.98,-0.97 0.54,0 0.98,0.44 0.98,0.97l0 2.44c0,0.54 -0.44,0.98 -0.98,0.98z"/>
   <path class="fil0" d="M107.09 122.88c-0.54,0 -0.98,-0.43 -0.98,-0.98l0 -2.44c0,-0.54 0.44,-0.97 0.98,-0.97 0.54,0 0.98,0.44 0.98,0.97l0 2.44c0,0.54 -0.44,0.98 -0.98,0.98z"/>
   <path class="fil0" d="M107.09 115.57c-0.54,0 -0.98,-0.43 -0.98,-0.98l0 -4.86c0,-0.54 0.44,-0.98 0.98,-0.98 0.54,0 0.98,0.44 0.98,0.98l0 4.86c0,0.54 -0.44,0.98 -0.98,0.98zm47.85 -2.53l0 -3.36c0,-0.54 0.44,-0.98 0.98,-0.98 0.54,0 0.98,0.44 0.98,0.98l0 3.36 -1.95 0zm-47.85 -7.2c-0.54,0 -0.98,-0.44 -0.98,-0.98l0 -4.86c0,-0.54 0.44,-0.98 0.98,-0.98 0.54,0 0.98,0.44 0.98,0.98l0 4.86c0,0.54 -0.44,0.98 -0.98,0.98zm48.83 -0.05c-0.54,0 -0.98,-0.44 -0.98,-0.98l0 -4.87c0,-0.54 0.44,-0.97 0.98,-0.97 0.54,0 0.98,0.43 0.98,0.97l0 4.87c0,0.54 -0.44,0.98 -0.98,0.98zm-48.83 -9.68c-0.54,0 -0.98,-0.44 -0.98,-0.98l0 -4.86c0,-0.54 0.44,-0.98 0.98,-0.98 0.54,0 0.98,0.44 0.98,0.98l0 4.86c0,0.54 -0.44,0.98 -0.98,0.98zm48.83 -0.05c-0.54,0 -0.98,-0.44 -0.98,-0.98l0 -4.86c0,-0.54 0.44,-0.98 0.98,-0.98 0.54,0 0.98,0.44 0.98,0.98l0 4.86c0,0.54 -0.44,0.98 -0.98,0.98zm-48.83 -9.69c-0.54,0 -0.98,-0.43 -0.98,-0.97l0 -4.87c0,-0.54 0.44,-0.98 0.98,-0.98 0.54,0 0.98,0.44 0.98,0.98l0 4.87c0,0.54 -0.44,0.97 -0.98,0.97zm48.83 -0.04c-0.54,0 -0.98,-0.44 -0.98,-0.98l0 -4.86c0,-0.54 0.44,-0.98 0.98,-0.98 0.54,0 0.98,0.44 0.98,0.98l0 4.86c0,0.54 -0.44,0.98 -0.98,0.98zm-48.82 -9.69l-0.03 0c-0.54,-0.01 -0.96,-0.46 -0.94,-1 0.04,-1.7 0.28,-3.39 0.71,-5.02 0.14,-0.52 0.67,-0.83 1.19,-0.7 0.53,0.14 0.84,0.67 0.7,1.19 -0.39,1.5 -0.61,3.04 -0.65,4.59 -0.02,0.53 -0.45,0.94 -0.98,0.94zm48.81 -0.04c-0.52,0 -0.96,-0.42 -0.97,-0.95 -0.05,-1.55 -0.27,-3.09 -0.66,-4.58 -0.13,-0.52 0.18,-1.06 0.7,-1.19 0.52,-0.13 1.06,0.18 1.19,0.7 0.43,1.64 0.67,3.33 0.72,5.02 0.02,0.54 -0.41,0.99 -0.95,1.01l-0.03 0zm-46.39 -9.29c-0.15,0 -0.3,-0.04 -0.44,-0.11 -0.48,-0.25 -0.67,-0.84 -0.42,-1.32 0.77,-1.49 1.72,-2.91 2.8,-4.22 0.35,-0.41 0.96,-0.47 1.38,-0.13 0.41,0.34 0.47,0.96 0.13,1.37 -1,1.2 -1.86,2.5 -2.57,3.87 -0.17,0.33 -0.52,0.53 -0.87,0.53zm43.96 -0.04c-0.35,0 -0.69,-0.19 -0.87,-0.52 -0.71,-1.37 -1.58,-2.67 -2.57,-3.87 -0.35,-0.42 -0.3,-1.03 0.12,-1.37 0.41,-0.35 1.03,-0.29 1.38,0.12 1.09,1.31 2.03,2.72 2.81,4.22 0.25,0.48 0.06,1.07 -0.42,1.31 -0.14,0.07 -0.3,0.11 -0.45,0.11zm-37.8 -7.4c-0.29,0 -0.57,-0.13 -0.77,-0.37 -0.33,-0.42 -0.26,-1.04 0.16,-1.37 1.31,-1.05 2.74,-1.96 4.25,-2.73 0.48,-0.24 1.07,-0.05 1.31,0.43 0.24,0.48 0.06,1.07 -0.43,1.31 -1.39,0.71 -2.71,1.56 -3.92,2.52 -0.18,0.14 -0.39,0.21 -0.61,0.21zm31.63 -0.03c-0.22,0 -0.43,-0.07 -0.61,-0.21 -1.21,-0.96 -2.54,-1.81 -3.93,-2.51 -0.48,-0.25 -0.68,-0.83 -0.43,-1.31 0.24,-0.48 0.83,-0.67 1.31,-0.43 1.51,0.76 2.94,1.69 4.25,2.72 0.43,0.34 0.5,0.95 0.16,1.37 -0.19,0.24 -0.48,0.37 -0.76,0.37zm-23.03 -4.37c-0.43,0 -0.82,-0.28 -0.94,-0.71 -0.15,-0.52 0.15,-1.06 0.67,-1.2 1.61,-0.46 3.28,-0.76 4.96,-0.91 0.54,-0.05 1.01,0.35 1.06,0.89 0.05,0.54 -0.35,1.01 -0.89,1.06 -1.56,0.13 -3.1,0.41 -4.59,0.83 -0.09,0.02 -0.18,0.04 -0.27,0.04zm14.41 -0.01c-0.09,0 -0.18,-0.01 -0.26,-0.04 -1.49,-0.42 -3.04,-0.7 -4.59,-0.83 -0.54,-0.04 -0.94,-0.52 -0.89,-1.06 0.05,-0.54 0.52,-0.93 1.06,-0.89 1.68,0.14 3.35,0.44 4.96,0.9 0.52,0.15 0.82,0.69 0.68,1.2 -0.12,0.43 -0.51,0.71 -0.94,0.71z"/>
   <path class="fil0" d="M156.89 121.9c0,0.54 -0.44,0.98 -0.98,0.98 -0.54,0 -0.98,-0.43 -0.98,-0.98l1.95 0z"/>
   <path class="fil0" d="M64.12 121.9c0,0.54 -0.44,0.98 -0.98,0.98 -0.54,0 -0.98,-0.43 -0.98,-0.98l1.95 0z"/>
   <path class="fil0" d="M62.17 113.15l0 -3.31c0,-0.54 0.44,-0.98 0.98,-0.98 0.54,0 0.98,0.44 0.98,0.98l0 3.31 -1.96 0zm-28.32 2.45c-0.54,0 -0.98,-0.43 -0.98,-0.98l0 -4.81c0,-0.54 0.44,-0.98 0.98,-0.98 0.54,0 0.98,0.44 0.98,0.98l0 4.81c0,0.54 -0.44,0.98 -0.98,0.98zm29.3 -9.59c-0.54,0 -0.98,-0.44 -0.98,-0.98l0 -4.81c0,-0.54 0.44,-0.98 0.98,-0.98 0.54,0 0.98,0.44 0.98,0.98l0 4.81c0,0.54 -0.44,0.98 -0.98,0.98zm-29.3 -0.02c-0.54,0 -0.98,-0.44 -0.98,-0.98l0 -4.81c0,-0.54 0.44,-0.98 0.98,-0.98 0.54,0 0.98,0.44 0.98,0.98l0 4.81c0,0.54 -0.44,0.98 -0.98,0.98zm29.3 -9.59c-0.54,0 -0.98,-0.44 -0.98,-0.98l0 -4.81c0,-0.54 0.44,-0.98 0.98,-0.98 0.54,0 0.98,0.44 0.98,0.98l0 4.81c0,0.54 -0.44,0.98 -0.98,0.98zm-29.3 -0.03c-0.54,0 -0.98,-0.44 -0.98,-0.98l0 -4.81c0,-0.54 0.44,-0.98 0.98,-0.98 0.54,0 0.98,0.44 0.98,0.98l0 4.81c0,0.54 -0.44,0.98 -0.98,0.98zm29.3 -9.59c-0.54,0 -0.98,-0.44 -0.98,-0.98l0 -4.81c0,-0.54 0.44,-0.98 0.98,-0.98 0.54,0 0.98,0.44 0.98,0.98l0 4.81c0,0.54 -0.44,0.98 -0.98,0.98zm-29.3 -0.03c-0.54,0 -0.98,-0.44 -0.98,-0.97l0 -4.81c0,-0.54 0.44,-0.98 0.98,-0.98 0.54,0 0.98,0.43 0.98,0.98l0 4.81c0,0.54 -0.44,0.97 -0.98,0.97zm29.3 -9.59c-0.54,0 -0.97,-0.43 -0.98,-0.96 -0.02,-1.48 -0.33,-2.92 -0.93,-4.28 -0.22,-0.49 0.01,-1.07 0.5,-1.29 0.5,-0.22 1.07,0 1.29,0.5 0.71,1.61 1.08,3.31 1.09,5.05 0.01,0.54 -0.43,0.98 -0.97,0.98l-0.01 0zm-29.3 -0.03l-0.01 0c-0.54,-0 -0.97,-0.45 -0.97,-0.98 0.02,-1.75 0.39,-3.44 1.11,-5.06 0.22,-0.49 0.8,-0.71 1.29,-0.49 0.49,0.22 0.72,0.8 0.5,1.29 -0.61,1.37 -0.92,2.8 -0.94,4.28 -0.01,0.54 -0.44,0.96 -0.98,0.96zm25.57 -8.57c-0.25,0 -0.5,-0.09 -0.69,-0.28 -1.05,-1.04 -2.28,-1.9 -3.65,-2.56 -0.48,-0.24 -0.69,-0.82 -0.46,-1.31 0.23,-0.48 0.82,-0.69 1.3,-0.45 1.57,0.75 2.98,1.74 4.18,2.94 0.38,0.38 0.39,1 0,1.38 -0.19,0.19 -0.44,0.28 -0.69,0.28zm-21.82 -0.01c-0.25,0 -0.5,-0.1 -0.69,-0.29 -0.38,-0.39 -0.37,-1 0.01,-1.39 1.2,-1.19 2.61,-2.18 4.19,-2.93 0.48,-0.23 1.07,-0.03 1.3,0.46 0.24,0.49 0.03,1.07 -0.46,1.3 -1.38,0.66 -2.61,1.52 -3.66,2.56 -0.19,0.19 -0.44,0.29 -0.69,0.29zm13.31 -4.11c-0.05,0 -0.09,-0 -0.13,-0.01 -0.67,-0.09 -1.35,-0.14 -2.04,-0.14l-0.49 0c-0.67,0 -1.35,0.04 -2,0.13 -0.54,0.07 -1.03,-0.3 -1.1,-0.84 -0.07,-0.53 0.3,-1.02 0.84,-1.1 0.74,-0.1 1.51,-0.15 2.27,-0.15l0.49 0c0.78,0 1.55,0.05 2.3,0.15 0.53,0.07 0.91,0.57 0.83,1.1 -0.07,0.49 -0.49,0.85 -0.96,0.85z"/>
   <path class="fil0" d="M33.85 122.88c-0.54,0 -0.98,-0.43 -0.98,-0.98l0 -2.44c0,-0.54 0.44,-0.97 0.98,-0.97 0.54,0 0.98,0.44 0.98,0.97l0 2.44c0,0.54 -0.44,0.98 -0.98,0.98z"/>
   <path class="fil0" d="M146.15 122.88c-0.54,0 -0.98,-0.43 -0.98,-0.98l0 -2.44c0,-0.54 0.44,-0.97 0.98,-0.97 0.54,0 0.98,0.44 0.98,0.97l0 2.44c0,0.54 -0.44,0.98 -0.98,0.98z"/>
   <path class="fil0" d="M146.15 115.63c-0.54,0 -0.98,-0.43 -0.98,-0.98l0 -4.81c0,-0.54 0.44,-0.98 0.98,-0.98 0.54,0 0.98,0.44 0.98,0.98l0 4.81c0,0.54 -0.44,0.98 -0.98,0.98zm-30.27 -2.5l0 -3.31c0,-0.54 0.44,-0.98 0.98,-0.98 0.54,0 0.98,0.43 0.98,0.98l0 3.31 -1.95 0zm30.27 -7.11c-0.54,0 -0.98,-0.44 -0.98,-0.98l0 -4.81c0,-0.54 0.44,-0.98 0.98,-0.98 0.54,0 0.98,0.44 0.98,0.98l0 4.81c0,0.54 -0.44,0.98 -0.98,0.98zm-29.3 -0.03c-0.54,0 -0.98,-0.44 -0.98,-0.98l0 -4.81c0,-0.54 0.44,-0.98 0.98,-0.98 0.54,0 0.98,0.44 0.98,0.98l0 4.81c0,0.54 -0.44,0.98 -0.98,0.98zm29.3 -9.59c-0.54,0 -0.98,-0.43 -0.98,-0.97l0 -4.81c0,-0.54 0.44,-0.98 0.98,-0.98 0.54,0 0.98,0.44 0.98,0.98l0 4.81c0,0.54 -0.44,0.97 -0.98,0.97zm-29.3 -0.02c-0.54,0 -0.98,-0.44 -0.98,-0.98l0 -4.81c0,-0.54 0.44,-0.98 0.98,-0.98 0.54,0 0.98,0.44 0.98,0.98l0 4.81c0,0.54 -0.44,0.98 -0.98,0.98zm29.3 -9.59c-0.54,0 -0.98,-0.44 -0.98,-0.97l0 -4.81c0,-0.54 0.44,-0.98 0.98,-0.98 0.54,0 0.98,0.43 0.98,0.98l0 4.81c0,0.54 -0.44,0.97 -0.98,0.97zm-29.3 -0.02c-0.54,0 -0.98,-0.44 -0.98,-0.98l0 -4.81c0,-0.54 0.44,-0.98 0.98,-0.98 0.54,0 0.98,0.44 0.98,0.98l0 4.81c0,0.54 -0.44,0.98 -0.98,0.98zm29.3 -9.59c-0.53,0 -0.97,-0.43 -0.98,-0.97 -0.01,-1.47 -0.33,-2.92 -0.93,-4.28 -0.22,-0.49 0,-1.07 0.5,-1.29 0.5,-0.22 1.07,0.01 1.29,0.5 0.71,1.61 1.07,3.31 1.09,5.05 0.01,0.54 -0.43,0.98 -0.96,0.98l-0.01 0zm-29.3 -0.03l-0.01 0c-0.54,-0.01 -0.98,-0.44 -0.96,-0.99 0.02,-1.74 0.39,-3.44 1.1,-5.05 0.22,-0.49 0.8,-0.72 1.29,-0.5 0.49,0.22 0.72,0.8 0.5,1.29 -0.61,1.36 -0.93,2.8 -0.94,4.28 -0,0.54 -0.44,0.96 -0.98,0.96zm25.57 -8.57c-0.25,0 -0.5,-0.09 -0.69,-0.28 -1.05,-1.04 -2.28,-1.91 -3.65,-2.56 -0.48,-0.24 -0.69,-0.82 -0.45,-1.31 0.23,-0.48 0.82,-0.69 1.3,-0.46 1.57,0.76 2.98,1.74 4.19,2.94 0.38,0.38 0.38,1 0,1.38 -0.19,0.19 -0.44,0.29 -0.69,0.29zm-21.81 -0.02c-0.25,0 -0.5,-0.1 -0.69,-0.29 -0.38,-0.38 -0.38,-1 0.01,-1.38 1.2,-1.2 2.61,-2.18 4.19,-2.93 0.48,-0.23 1.07,-0.03 1.3,0.46 0.23,0.49 0.03,1.07 -0.46,1.3 -1.37,0.66 -2.61,1.52 -3.66,2.56 -0.19,0.19 -0.44,0.28 -0.69,0.28zm13.31 -4.11c-0.04,0 -0.09,0 -0.13,-0.01 -0.67,-0.09 -1.35,-0.14 -2.04,-0.14l-0.49 0c-0.67,0 -1.35,0.05 -2.01,0.13 -0.54,0.08 -1.03,-0.3 -1.1,-0.83 -0.07,-0.54 0.3,-1.03 0.84,-1.1 0.74,-0.1 1.5,-0.15 2.27,-0.15l0.49 0c0.77,0 1.55,0.06 2.3,0.16 0.54,0.07 0.91,0.56 0.84,1.1 -0.07,0.49 -0.49,0.84 -0.97,0.84z"/>
   <path class="fil0" d="M117.83 121.9c0,0.54 -0.44,0.98 -0.98,0.98 -0.54,0 -0.98,-0.43 -0.98,-0.98l1.95 0z"/>
   <path class="fil0" d="M53.37 122.88c-0.54,0 -0.98,-0.43 -0.98,-0.98l0 -2.44c0,-0.54 0.44,-0.97 0.98,-0.97 0.54,0 0.98,0.44 0.98,0.97l0 2.44c0,0.54 -0.44,0.98 -0.98,0.98z"/>
   <path class="fil0" d="M53.37 115.71c-0.54,0 -0.98,-0.43 -0.98,-0.97l0 -4.72c0,-0.54 0.44,-0.98 0.98,-0.98 0.54,0 0.98,0.44 0.98,0.98l0 4.72c0,0.54 -0.44,0.97 -0.98,0.97zm-10.74 -2.5l0 -3.22c0,-0.54 0.44,-0.98 0.98,-0.98 0.54,0 0.98,0.44 0.98,0.98l0 3.22 -1.95 0zm10.74 -6.94c-0.54,0 -0.98,-0.44 -0.98,-0.98l0 -4.72c0,-0.54 0.44,-0.97 0.98,-0.97 0.54,0 0.98,0.43 0.98,0.97l0 4.72c0,0.54 -0.44,0.98 -0.98,0.98zm-9.76 -0.02c-0.54,0 -0.98,-0.44 -0.98,-0.98l0 -4.72c0,-0.54 0.44,-0.98 0.98,-0.98 0.54,0 0.98,0.44 0.98,0.98l0 4.72c0,0.54 -0.44,0.98 -0.98,0.98zm9.76 -9.43c-0.54,0 -0.98,-0.43 -0.98,-0.97l0 -4.72c0,-0.54 0.44,-0.98 0.98,-0.98 0.54,0 0.98,0.44 0.98,0.98l0 4.72c0,0.54 -0.44,0.97 -0.98,0.97zm-9.76 -0.02c-0.54,0 -0.98,-0.44 -0.98,-0.98l0 -4.72c0,-0.54 0.44,-0.98 0.98,-0.98 0.54,0 0.98,0.44 0.98,0.98l0 4.72c0,0.54 -0.44,0.98 -0.98,0.98zm9.76 -9.43c-0.54,0 -0.98,-0.43 -0.98,-0.98l0 -4.72c0,-0.54 0.44,-0.98 0.98,-0.98 0.54,0 0.98,0.44 0.98,0.98l0 4.72c0,0.54 -0.44,0.98 -0.98,0.98zm-9.76 -0.02c-0.54,0 -0.98,-0.44 -0.98,-0.98l0 -4.72c0,-0.54 0.44,-0.98 0.98,-0.98 0.54,0 0.98,0.44 0.98,0.98l0 4.72c0,0.54 -0.44,0.98 -0.98,0.98zm9.76 -9.42c-0.54,0 -0.98,-0.44 -0.98,-0.98l0 -0.68c0,-0.58 -0.67,-1.45 -1.92,-1.93 -0.5,-0.19 -0.76,-0.75 -0.57,-1.26 0.19,-0.5 0.76,-0.76 1.26,-0.57 1.91,0.72 3.19,2.23 3.19,3.75l0 0.68c0,0.54 -0.44,0.98 -0.98,0.98zm-9.76 -0.02c-0.54,0 -0.98,-0.44 -0.98,-0.98l0 -0.66c0,-1.53 1.29,-3.04 3.21,-3.76 0.5,-0.19 1.07,0.07 1.26,0.57 0.19,0.51 -0.07,1.07 -0.57,1.26 -1.26,0.47 -1.94,1.35 -1.94,1.93l0 0.66c0,0.54 -0.44,0.98 -0.98,0.98z"/>
   <path class="fil0" d="M44.59 121.9c0,0.54 -0.44,0.98 -0.98,0.98 -0.54,0 -0.98,-0.43 -0.98,-0.98l1.95 0z"/>
   <path class="fil0" d="M137.36 121.9c0,0.54 -0.44,0.98 -0.98,0.98 -0.54,0 -0.98,-0.43 -0.98,-0.98l1.95 0z"/>
   <path class="fil0" d="M135.44 113.25l-0.06 -3.22c-0,-0.54 0.43,-0.98 0.97,-0.99 0.54,-0.01 0.98,0.43 0.98,0.96l0.06 3.22 -1.95 0.02zm-8.83 2.44c-0.54,0 -0.98,-0.44 -0.98,-0.98l0 -4.72c0,-0.54 0.44,-0.98 0.98,-0.98 0.54,0 0.98,0.44 0.98,0.98l0 4.72c0,0.54 -0.44,0.98 -0.98,0.98zm9.77 -9.42c-0.54,0 -0.98,-0.44 -0.98,-0.98l0 -4.72c0,-0.54 0.44,-0.97 0.98,-0.97 0.54,0 0.98,0.44 0.98,0.97l0 4.72c0,0.54 -0.44,0.98 -0.98,0.98zm-9.77 -0.02c-0.54,0 -0.98,-0.43 -0.98,-0.98l0 -4.72c0,-0.54 0.44,-0.97 0.98,-0.97 0.54,0 0.98,0.43 0.98,0.97l0 4.72c0,0.54 -0.44,0.98 -0.98,0.98zm9.77 -9.42c-0.54,0 -0.98,-0.44 -0.98,-0.98l0 -4.72c0,-0.54 0.44,-0.97 0.98,-0.97 0.54,0 0.98,0.44 0.98,0.97l0 4.72c0,0.54 -0.44,0.98 -0.98,0.98zm-9.77 -0.02c-0.54,0 -0.98,-0.43 -0.98,-0.97l0 -4.72c0,-0.54 0.44,-0.98 0.98,-0.98 0.54,0 0.98,0.43 0.98,0.98l0 4.72c0,0.54 -0.44,0.97 -0.98,0.97zm9.77 -9.42c-0.54,0 -0.98,-0.44 -0.98,-0.98l0 -4.72c0,-0.54 0.44,-0.98 0.98,-0.98 0.54,0 0.98,0.44 0.98,0.98l0 4.72c0,0.54 -0.44,0.98 -0.98,0.98zm-9.77 -0.02c-0.54,0 -0.98,-0.43 -0.98,-0.98l0 -4.72c0,-0.54 0.44,-0.98 0.98,-0.98 0.54,0 0.98,0.44 0.98,0.98l0 4.72c0,0.54 -0.44,0.98 -0.98,0.98zm9.77 -9.42c-0.54,0 -0.98,-0.44 -0.98,-0.97l0 -0.68c0,-0.58 -0.67,-1.46 -1.93,-1.93 -0.5,-0.19 -0.76,-0.75 -0.57,-1.26 0.19,-0.5 0.76,-0.76 1.26,-0.57 1.91,0.72 3.19,2.23 3.19,3.76l0 0.68c0,0.54 -0.44,0.97 -0.98,0.97zm-9.77 -0.02c-0.54,0 -0.98,-0.43 -0.98,-0.97l0 -0.66c0,-1.54 1.29,-3.05 3.21,-3.77 0.5,-0.19 1.07,0.07 1.26,0.57 0.19,0.51 -0.07,1.07 -0.57,1.26 -1.26,0.47 -1.94,1.35 -1.94,1.93l0 0.66c0,0.54 -0.44,0.97 -0.98,0.97z"/>
   <path class="fil0" d="M126.62 122.88c-0.54,0 -0.98,-0.43 -0.98,-0.98l0 -2.44c0,-0.54 0.44,-0.97 0.98,-0.97 0.54,0 0.98,0.44 0.98,0.97l0 2.44c0,0.54 -0.44,0.98 -0.98,0.98z"/>
   <path class="fil0" d="M90.98 121.9c0,0.54 -0.44,0.98 -0.98,0.98 -0.54,0 -0.98,-0.43 -0.98,-0.98l1.95 0zm-9.44 0.34c-0.54,0 -0.98,-0.44 -0.98,-0.98l0 -4.88c0,-0.54 0.44,-0.98 0.98,-0.98 0.54,0 0.98,0.44 0.98,0.98l0 4.88c0,0.54 -0.44,0.98 -0.98,0.98zm8.46 -9.13c-0.54,0 -0.98,-0.44 -0.98,-0.97l0 -4.89c0,-0.54 0.44,-0.98 0.98,-0.98 0.54,0 0.98,0.44 0.98,0.98l0 4.89c0,0.54 -0.44,0.97 -0.98,0.97zm-8.46 -0.64c-0.54,0 -0.98,-0.44 -0.98,-0.98l0 -4.89c0,-0.54 0.44,-0.97 0.98,-0.97 0.54,0 0.98,0.44 0.98,0.97l0 4.89c0,0.54 -0.44,0.98 -0.98,0.98zm8.46 -9.13c-0.54,0 -0.98,-0.44 -0.98,-0.98l0 -4.88c0,-0.54 0.44,-0.98 0.98,-0.98 0.54,0 0.98,0.43 0.98,0.98l0 4.88c0,0.54 -0.44,0.98 -0.98,0.98zm-8.46 -0.64c-0.54,0 -0.98,-0.44 -0.98,-0.98l0 -4.88c0,-0.54 0.44,-0.98 0.98,-0.98 0.54,0 0.98,0.44 0.98,0.98l0 4.88c0,0.54 -0.44,0.98 -0.98,0.98zm8.46 -9.12c-0.54,0 -0.98,-0.44 -0.98,-0.98l0 -4.88c0,-0.54 0.44,-0.98 0.98,-0.98 0.54,0 0.98,0.44 0.98,0.98l0 4.88c0,0.54 -0.44,0.98 -0.98,0.98zm-8.46 -0.64c-0.54,0 -0.98,-0.44 -0.98,-0.98l0 -4.89c0,-0.54 0.44,-0.97 0.98,-0.97 0.54,0 0.98,0.44 0.98,0.97l0 4.89c0,0.54 -0.44,0.98 -0.98,0.98zm8.46 -9.13c-0.54,0 -0.98,-0.44 -0.98,-0.97l0 -4.89c0,-0.54 0.44,-0.97 0.98,-0.97 0.54,0 0.98,0.43 0.98,0.97l0 4.89c0,0.54 -0.44,0.97 -0.98,0.97zm-8.46 -0.64c-0.54,0 -0.98,-0.43 -0.98,-0.98l0 -4.88c0,-0.54 0.44,-0.98 0.98,-0.98 0.54,0 0.98,0.44 0.98,0.98l0 4.88c0,0.54 -0.44,0.98 -0.98,0.98zm8.46 -9.12c-0.54,0 -0.98,-0.44 -0.98,-0.98l0 -4.88c0,-0.54 0.44,-0.98 0.98,-0.98 0.54,0 0.98,0.44 0.98,0.98l0 4.88c0,0.54 -0.44,0.98 -0.98,0.98zm-8.46 -0.65c-0.54,0 -0.98,-0.43 -0.98,-0.97l0 -4.89c0,-0.54 0.44,-0.98 0.98,-0.98 0.54,0 0.98,0.44 0.98,0.98l0 4.89c0,0.54 -0.44,0.97 -0.98,0.97zm8.46 -9.12c-0.54,0 -0.98,-0.44 -0.98,-0.98l0 -4.89c0,-0.54 0.44,-0.98 0.98,-0.98 0.54,0 0.98,0.44 0.98,0.98l0 4.89c0,0.54 -0.44,0.98 -0.98,0.98zm-8.46 -0.64c-0.54,0 -0.98,-0.44 -0.98,-0.98l0 -4.88c0,-0.54 0.44,-0.98 0.98,-0.98 0.54,0 0.98,0.44 0.98,0.98l0 4.88c0,0.54 -0.44,0.98 -0.98,0.98zm8.46 -9.13c-0.54,0 -0.98,-0.44 -0.98,-0.98l0 -4.88c0,-0.54 0.44,-0.98 0.98,-0.98 0.54,0 0.98,0.44 0.98,0.98l0 4.88c0,0.54 -0.44,0.98 -0.98,0.98zm-8.46 -0.64c-0.54,0 -0.98,-0.44 -0.98,-0.98l0 -4.88c0,-0.54 0.44,-0.98 0.98,-0.98 0.54,0 0.98,0.44 0.98,0.98l0 4.88c0,0.54 -0.44,0.98 -0.98,0.98zm6.8 -8.6c-0.2,0 -0.41,-0.06 -0.59,-0.2 -0.56,-0.43 -1.23,-0.65 -1.94,-0.65l0 0c-0.62,0 -1.15,0.13 -1.61,0.38 -0.47,0.26 -1.07,0.08 -1.33,-0.39 -0.26,-0.48 -0.08,-1.07 0.39,-1.33 0.75,-0.41 1.6,-0.62 2.46,-0.62l0 0c1.22,0 2.3,0.36 3.2,1.05 0.43,0.32 0.52,0.94 0.19,1.37 -0.19,0.25 -0.48,0.39 -0.78,0.39z"/>
   <path class="fil0" d="M98.46 122.88c-0.54,0 -0.98,-0.43 -0.98,-0.98l0 -4.89c0,-0.54 0.44,-0.97 0.98,-0.97 0.54,0 0.98,0.44 0.98,0.97l0 4.89c0,0.54 -0.44,0.98 -0.98,0.98zm-7.48 -1.62c0,0.54 -0.44,0.98 -0.98,0.98 -0.54,0 -0.98,-0.44 -0.98,-0.98l1.95 0zm7.48 -8.15c-0.54,0 -0.98,-0.44 -0.98,-0.97l0 -4.88c0,-0.54 0.44,-0.98 0.98,-0.98 0.54,0 0.98,0.44 0.98,0.98l0 4.88c0,0.54 -0.44,0.97 -0.98,0.97zm-8.46 -0.64c-0.54,0 -0.98,-0.43 -0.98,-0.97l0 -4.88c0,-0.54 0.44,-0.98 0.98,-0.98 0.54,0 0.98,0.44 0.98,0.98l0 4.88c0,0.54 -0.44,0.97 -0.98,0.97zm8.46 -9.12c-0.54,0 -0.98,-0.44 -0.98,-0.98l0 -4.88c0,-0.54 0.44,-0.98 0.98,-0.98 0.54,0 0.98,0.44 0.98,0.98l0 4.88c0,0.54 -0.44,0.98 -0.98,0.98zm-8.46 -0.64c-0.54,0 -0.98,-0.44 -0.98,-0.98l0 -4.88c0,-0.54 0.44,-0.98 0.98,-0.98 0.54,0 0.98,0.44 0.98,0.98l0 4.88c0,0.54 -0.44,0.98 -0.98,0.98zm8.46 -9.13c-0.54,0 -0.98,-0.44 -0.98,-0.98l0 -4.88c0,-0.54 0.44,-0.98 0.98,-0.98 0.54,0 0.98,0.44 0.98,0.98l0 4.88c0,0.54 -0.44,0.98 -0.98,0.98zm-8.46 -0.64c-0.54,0 -0.98,-0.44 -0.98,-0.98l0 -4.89c0,-0.54 0.44,-0.98 0.98,-0.98 0.54,0 0.98,0.44 0.98,0.98l0 4.89c0,0.54 -0.44,0.98 -0.98,0.98zm8.46 -9.13c-0.54,0 -0.98,-0.44 -0.98,-0.98l0 -4.88c0,-0.54 0.44,-0.98 0.98,-0.98 0.54,0 0.98,0.43 0.98,0.98l0 4.88c0,0.54 -0.44,0.98 -0.98,0.98zm-8.46 -0.64c-0.54,0 -0.98,-0.44 -0.98,-0.98l0 -4.88c0,-0.54 0.44,-0.98 0.98,-0.98 0.54,0 0.98,0.44 0.98,0.98l0 4.88c0,0.54 -0.44,0.98 -0.98,0.98zm8.46 -9.12c-0.54,0 -0.98,-0.44 -0.98,-0.98l0 -4.88c0,-0.54 0.44,-0.98 0.98,-0.98 0.54,0 0.98,0.44 0.98,0.98l0 4.88c0,0.54 -0.44,0.98 -0.98,0.98zm-8.46 -0.64c-0.54,0 -0.98,-0.44 -0.98,-0.98l0 -4.88c0,-0.54 0.44,-0.98 0.98,-0.98 0.54,0 0.98,0.44 0.98,0.98l0 4.88c0,0.54 -0.44,0.98 -0.98,0.98zm8.46 -9.13c-0.54,0 -0.98,-0.44 -0.98,-0.98l0 -4.89c0,-0.54 0.44,-0.97 0.98,-0.97 0.54,0 0.98,0.44 0.98,0.97l0 4.89c0,0.54 -0.44,0.98 -0.98,0.98zm-8.46 -0.64c-0.54,0 -0.98,-0.43 -0.98,-0.98l0 -4.88c0,-0.54 0.44,-0.98 0.98,-0.98 0.54,0 0.98,0.44 0.98,0.98l0 4.88c0,0.54 -0.44,0.98 -0.98,0.98zm8.46 -9.13c-0.54,0 -0.98,-0.44 -0.98,-0.98l0 -4.88c0,-0.54 0.44,-0.98 0.98,-0.98 0.54,0 0.98,0.44 0.98,0.98l0 4.88c0,0.54 -0.44,0.98 -0.98,0.98zm-8.46 -0.64c-0.54,0 -0.98,-0.43 -0.98,-0.97l0 -4.88c0,-0.54 0.44,-0.98 0.98,-0.98 0.54,0 0.98,0.44 0.98,0.98l0 4.88c0,0.54 -0.44,0.97 -0.98,0.97zm6.8 -8.59c-0.2,0 -0.41,-0.07 -0.59,-0.2 -0.57,-0.43 -1.23,-0.65 -1.94,-0.65l-0 0c-0.62,0 -1.15,0.13 -1.61,0.38 -0.47,0.26 -1.07,0.08 -1.33,-0.39 -0.26,-0.48 -0.08,-1.07 0.39,-1.33 0.75,-0.41 1.6,-0.62 2.46,-0.62l0 0c1.22,0 2.3,0.36 3.2,1.05 0.43,0.32 0.52,0.94 0.19,1.37 -0.19,0.25 -0.48,0.39 -0.78,0.39z"/>
   <path class="fil0" d="M95.37 122.88l-10.74 0 0 -10.74 10.74 0 0 10.74zm-8.79 -1.95l6.83 0 0 -6.83 -6.83 0 0 6.83z"/>
   <path class="fil0" d="M161.29 122.88l-10.74 0 0 -10.74 10.74 0 0 10.74zm-8.79 -1.95l6.83 0 0 -6.83 -6.83 0 0 6.83z"/>
   <path class="fil0" d="M141.76 122.88l-10.74 0 0 -10.74 10.74 0 0 10.74zm-8.79 -1.95l6.84 0 0 -6.83 -6.84 0 0 6.83z"/>
   <path class="fil0" d="M122.22 122.88l-10.74 0 0 -10.74 10.74 0 0 10.74zm-8.79 -1.95l6.83 0 0 -6.83 -6.83 0 0 6.83z"/>
   <path class="fil0" d="M29.45 122.88l-10.74 0 0 -10.74 10.74 0 0 10.74zm-8.79 -1.95l6.83 0 0 -6.83 -6.83 0 0 6.83z"/>
   <path class="fil0" d="M48.98 122.88l-10.74 0 0 -10.74 10.74 0 0 10.74zm-8.79 -1.95l6.83 0 0 -6.83 -6.83 0 0 6.83z"/>
   <path class="fil0" d="M68.51 122.88l-10.74 0 0 -10.74 10.74 0 0 10.74zm-8.79 -1.95l6.83 0 0 -6.83 -6.83 0 0 6.83z"/>
   <polygon class="fil0" points="51.91,130.2 165.68,130.2 165.68,128.25 51.91,128.25 "/>
  </g>
  <rect class="fil1" width="180" height="180"/>
 </g>
</svg>
