<?xml version="1.0" encoding="UTF-8"?>
<!DOCTYPE svg PUBLIC "-//W3C//DTD SVG 1.1//EN" "http://www.w3.org/Graphics/SVG/1.1/DTD/svg11.dtd">
<!-- Creator: CorelDRAW -->
<svg xmlns="http://www.w3.org/2000/svg" xml:space="preserve" width="0.18in" height="0.18in" version="1.1" style="shape-rendering:geometricPrecision; text-rendering:geometricPrecision; image-rendering:optimizeQuality; fill-rule:evenodd; clip-rule:evenodd"
viewBox="0 0 180 180"
 xmlns:xlink="http://www.w3.org/1999/xlink"
 xmlns:xodm="http://www.corel.com/coreldraw/odm/2003">
 <defs>
  <style type="text/css">
   <![CDATA[
    .fil1 {fill:none}
    .fil0 {fill:#7F4629;fill-rule:nonzero}
   ]]>
  </style>
 </defs>
 <g id="Layer_x0020_1">
  <metadata id="CorelCorpID_0Corel-Layer"/>
  <path class="fil0" d="M127.9 131.04c-1.26,0 -2.29,-1.02 -2.29,-2.29 0,-1.26 1.03,-2.29 2.29,-2.29l33.34 0c1.26,0 2.29,1.03 2.29,2.29 0,1.27 -1.03,2.29 -2.29,2.29l-33.34 0zm-18.84 13.04c-1.26,0 -2.29,-1.03 -2.29,-2.29 0,-1.26 1.03,-2.29 2.29,-2.29l33.34 0c1.27,0 2.29,1.03 2.29,2.29 0,1.26 -1.02,2.29 -2.29,2.29l-33.34 0zm-50.07 -71.17c-1.18,-0.44 -1.78,-1.75 -1.34,-2.93 0.44,-1.18 1.75,-1.78 2.94,-1.35l3.22 1.21 3.83 -6.89 0 -22.61 0 0c0,-0.99 0.65,-1.9 1.64,-2.19 0.07,-0.02 24.95,-7.78 26.08,27.22 3.67,-0.76 7.38,-2.32 10.82,-5.07 13.25,-10.59 7.96,-26.46 7.94,-26.51 -0.36,-1.11 0.18,-2.3 1.21,-2.77 1.31,-0.66 9.71,-4.15 18.81,9.5 8.15,12.21 16.23,23.08 17.22,24.41 0.73,0.75 4.93,5.19 10.32,13.29 6.96,10.46 -0.81,17.98 -1.77,18.86 -0.09,0.09 -0.2,0.18 -0.32,0.25 -0.09,0.06 -30.52,20.35 -59.58,36.33 -29.51,16.23 -51.59,16.23 -67.78,16.23 -17.58,0 -16.89,-18 -16.78,-19.71l0 -4.32c0,-0.24 0.04,-0.47 0.1,-0.68 0.5,-2.01 5.88,-21.26 31.2,-24.64l3.48 -6.26 -2.84 -1.07c-1.19,-0.44 -1.78,-1.75 -1.34,-2.93 0.44,-1.18 1.75,-1.78 2.93,-1.34l3.49 1.31 3.43 -6.17 -2.71 -1.01c-1.18,-0.44 -1.78,-1.76 -1.34,-2.94 0.44,-1.18 1.76,-1.78 2.94,-1.34l3.36 1.26 3.43 -6.16 -2.58 -0.97zm9.14 -1.44l4.04 1.52c1.18,0.44 1.78,1.76 1.34,2.94 -0.44,1.18 -1.76,1.78 -2.93,1.34l-4.69 -1.76 -3.43 6.16 3.91 1.47c1.18,0.44 1.78,1.75 1.34,2.93 -0.44,1.18 -1.76,1.78 -2.93,1.34l-4.56 -1.71 -3.42 6.17 3.78 1.41c1.18,0.44 1.78,1.76 1.34,2.94 -0.44,1.18 -1.75,1.78 -2.93,1.34l-4.43 -1.66 -4.31 7.77c-0.33,0.68 -1,1.18 -1.8,1.27 -22.81,2.54 -27.81,18.93 -28.4,21.17l0 2.3c25.47,5.73 51.72,-9.52 53.02,-10.29l1.41 -0.96 -11.31 -9.81c-0.95,-0.83 -1.06,-2.27 -0.23,-3.22 0.83,-0.95 2.27,-1.06 3.22,-0.23l12.23 10.6c2.45,-1.66 5.62,-3.8 9.24,-6.24l-15.24 -13.21c-0.95,-0.82 -1.06,-2.27 -0.23,-3.22 0.83,-0.96 2.27,-1.06 3.22,-0.23l16.18 14.02c2.93,-1.96 6.06,-4.06 9.29,-6.2l-19.35 -16.77c-0.95,-0.83 -1.06,-2.27 -0.23,-3.22 0.83,-0.96 2.27,-1.06 3.22,-0.23l20.31 17.6c16,-10.59 33.06,-21.59 38.17,-23.78 6.36,-2.73 5.36,-4.6 5.1,-4.95l-0.03 -0.02c-0.1,-0.11 -0.19,-0.21 -0.27,-0.33 -0.76,-1.03 -9.09,-12.2 -17.4,-24.67 -5.06,-7.59 -9.16,-8.58 -11.3,-8.42 1.11,5.37 2.45,19.25 -10.02,29.22 -14.3,11.44 -32.2,5.23 -38.15,2.65l-2.76 4.96zm11.71 47.57c-0.2,0.2 -0.43,0.35 -0.68,0.46l-3.59 2.45 -0.13 0.08c-0.08,0.05 -27.81,16.69 -55.36,11.06 0.36,4.31 2.37,12.22 12.17,12.22 15.7,0 37.11,0 65.57,-15.66 27.87,-15.33 56.99,-34.63 59.13,-36.04 0.76,-0.7 5.72,-5.69 0.94,-12.85l-0.01 -0.02c-2.35,-3.53 -4.45,-6.31 -6.11,-8.37 -1.16,1.59 -3.31,3.27 -7.04,4.87 -4.95,2.12 -22.15,13.24 -38.16,23.85l-0.14 0.17c-0.33,0.39 -0.77,0.63 -1.23,0.74 -4.23,2.81 -8.36,5.57 -12.11,8.09 -0.25,0.27 -0.55,0.47 -0.88,0.59 -5.06,3.4 -9.39,6.33 -12.37,8.36zm10.96 -53.09c-0.67,-24.25 -13.87,-24.46 -18.58,-23.76l0 19.92c2.84,1.3 10.28,4.24 18.58,3.84z"/>
  <rect class="fil1" width="180" height="180"/>
 </g>
</svg>
