<?xml version="1.0" encoding="UTF-8"?>
<!DOCTYPE svg PUBLIC "-//W3C//DTD SVG 1.1//EN" "http://www.w3.org/Graphics/SVG/1.1/DTD/svg11.dtd">
<!-- Creator: CorelDRAW -->
<svg xmlns="http://www.w3.org/2000/svg" xml:space="preserve" width="0.18in" height="0.18in" version="1.1" style="shape-rendering:geometricPrecision; text-rendering:geometricPrecision; image-rendering:optimizeQuality; fill-rule:evenodd; clip-rule:evenodd"
viewBox="0 0 180 180"
 xmlns:xlink="http://www.w3.org/1999/xlink"
 xmlns:xodm="http://www.corel.com/coreldraw/odm/2003">
 <defs>
  <style type="text/css">
   <![CDATA[
    .fil1 {fill:none}
    .fil0 {fill:#7F4629;fill-rule:nonzero}
   ]]>
  </style>
 </defs>
 <g id="Layer_x0020_1">
  <metadata id="CorelCorpID_0Corel-Layer"/>
  <path class="fil0" d="M134.09 138.87c-15.35,0 -27.85,-12.5 -27.85,-27.85 0,-12.12 7.78,-22.45 18.61,-26.27l-2.86 -10.94c-0.03,-0.12 -0.06,-0.24 -0.06,-0.37l-2.17 -21.23 -11.16 -0.44c-0.54,-0.02 -1.05,-0.22 -1.46,-0.57l-6.85 -5.8c-1.02,-0.86 -1.15,-2.38 -0.28,-3.41 0.86,-1.02 2.39,-1.14 3.4,-0.28l6.22 5.26 12.41 0.5c1.2,0.05 2.19,0.97 2.31,2.17l2.37 23.13 2.81 10.78c1.49,-0.25 3.01,-0.38 4.57,-0.38 15.35,0 27.84,12.49 27.84,27.85 0,15.35 -12.49,27.85 -27.84,27.85zm-48.86 -21.22c-3.15,0 -5.92,-1.69 -7.43,-4.22l-4.15 0c-1.23,14.23 -13.2,25.44 -27.74,25.44 -15.35,0 -27.85,-12.5 -27.85,-27.85 0,-15.35 12.49,-27.85 27.85,-27.85 4.37,0 8.51,1.01 12.19,2.81l7.67 -13.95 0.08 -0.14 -7.31 -15 -10.04 0c-1.33,0 -2.41,-1.08 -2.41,-2.41 0,-1.33 1.08,-2.41 2.41,-2.41l25.94 0c1.33,0 2.42,1.08 2.42,2.41 0,1.33 -1.08,2.41 -2.42,2.41l-10.52 0 6.78 13.89 47.66 0c0.96,0 1.82,0.56 2.2,1.43 0.39,0.87 0.23,1.89 -0.41,2.6l-27.2 30.25c0.6,1.18 0.94,2.51 0.94,3.93 0,4.78 -3.89,8.66 -8.66,8.66zm-8.65 -9.04c0.13,-2.84 1.63,-5.33 3.85,-6.82l-11.99 -24.59 -6.2 11.28c6.36,4.62 10.7,11.86 11.41,20.13l2.93 0zm8.52 -8.27l0.13 -0c1.61,0 3.11,0.44 4.4,1.2l23.31 -25.93 -39.9 0 12.06 24.72zm-1.99 5.46c-1.03,0.69 -1.71,1.86 -1.71,3.19 0,0.36 0.05,0.71 0.15,1.04 0.06,0.13 0.11,0.28 0.14,0.42 0.57,1.39 1.95,2.37 3.55,2.37 2.11,0 3.83,-1.72 3.83,-3.83 0,-1.94 -1.44,-3.55 -3.31,-3.8 -0.2,0.21 -0.44,0.4 -0.71,0.53 -0.34,0.17 -0.7,0.24 -1.06,0.24 -0.3,0 -0.59,-0.06 -0.87,-0.16zm-14.31 7.63l-21.72 0c-0.85,0 -1.64,-0.45 -2.08,-1.19 -0.43,-0.73 -0.45,-1.64 -0.04,-2.39l10.8 -19.63c-2.99,-1.43 -6.33,-2.22 -9.86,-2.22 -12.69,0 -23.02,10.33 -23.02,23.02 0,12.69 10.33,23.02 23.02,23.02 11.88,0 21.68,-9.05 22.89,-20.61zm-8.91 -20.69l-8.72 15.86 17.63 0c-0.68,-6.45 -4.02,-12.11 -8.91,-15.86zm74.32 20.69c-1.07,0 -2.05,-0.72 -2.33,-1.8l-5.8 -22.19c-8.75,3.26 -15,11.7 -15,21.58 0,12.69 10.33,23.02 23.02,23.02 12.69,0 23.02,-10.33 23.02,-23.02 0,-12.69 -10.33,-23.02 -23.02,-23.02 -1.13,0 -2.25,0.08 -3.34,0.24l5.8 22.17c0.33,1.29 -0.44,2.61 -1.73,2.94 -0.2,0.06 -0.41,0.08 -0.61,0.08z"/>
  <rect class="fil1" width="180" height="180"/>
 </g>
</svg>
