<?xml version="1.0" encoding="UTF-8"?>
<!DOCTYPE svg PUBLIC "-//W3C//DTD SVG 1.1//EN" "http://www.w3.org/Graphics/SVG/1.1/DTD/svg11.dtd">
<!-- Creator: CorelDRAW -->
<svg xmlns="http://www.w3.org/2000/svg" xml:space="preserve" width="0.18in" height="0.18in" version="1.1" style="shape-rendering:geometricPrecision; text-rendering:geometricPrecision; image-rendering:optimizeQuality; fill-rule:evenodd; clip-rule:evenodd"
viewBox="0 0 180 180"
 xmlns:xlink="http://www.w3.org/1999/xlink"
 xmlns:xodm="http://www.corel.com/coreldraw/odm/2003">
 <defs>
  <style type="text/css">
   <![CDATA[
    .fil1 {fill:none}
    .fil0 {fill:#7F4629;fill-rule:nonzero}
   ]]>
  </style>
 </defs>
 <g id="Layer_x0020_1">
  <metadata id="CorelCorpID_0Corel-Layer"/>
  <path class="fil0" d="M99.83 123.37l-2.88 0 0 -45.01 21.74 0c4.86,0 8.63,-5.46 8.63,-10.16 0,-0.78 -0.63,-1.41 -1.4,-1.41l-71.83 0c-0.77,0 -1.4,0.63 -1.4,1.41 0,4.7 3.76,10.16 8.62,10.16l21.74 0 0 45.01 -2.88 0c-4.17,0 -7.18,5.54 -7.18,9.26 0,0.77 0.63,1.41 1.4,1.41l31.22 0c0.77,0 1.4,-0.63 1.4,-1.41 0,-3.73 -3.01,-9.26 -7.18,-9.26zm59.63 -21.07c0,-0.1 -0.03,-0.2 -0.05,-0.3 0.35,-0.53 0.6,-1.13 0.6,-1.79l3.47 -52.75c0.02,-0.39 -0.15,-0.77 -0.42,-1.05 -0.26,-0.29 -0.68,-0.44 -1.06,-0.44 -5.45,0 -10.12,4.1 -10.86,9.53l-4.74 34.98 -30.54 0c-3.78,0 -6.85,3.07 -6.85,6.85l0 2.8c0,1.28 0.72,2.34 1.73,2.96 0.9,11.32 -0.74,29.24 -0.76,29.43 -0.03,0.4 0.09,0.79 0.36,1.08 0.27,0.29 0.65,0.46 1.04,0.46l6.78 0c0.68,0 1.27,-0.5 1.38,-1.17 2.12,-12.41 2.98,-25.17 3.22,-29.22l23.7 0c0.7,4.65 3.43,21.28 7.25,29.57 0.23,0.5 0.73,0.82 1.28,0.82l7.09 0c0.45,0 0.87,-0.22 1.13,-0.58 0.26,-0.36 0.34,-0.83 0.2,-1.26 -0.05,-0.14 -4.53,-14.4 -3.96,-29.91zm-47.64 -4.98c0,-2.23 1.81,-4.04 4.04,-4.04l31.77 0c0.7,0 1.3,-0.52 1.39,-1.22l4.9 -36.19c0.48,-3.54 3.2,-6.32 6.64,-6.96l-3.36 51.2c0,0.4 -0.33,0.72 -0.72,0.72l-8.81 0 -26.24 0 -8.89 0c-0.4,0 -0.72,-0.32 -0.72,-0.72l0 -2.8zm5.16 33.91l-4.06 0c0.37,-4.52 1.35,-17.91 0.69,-27.58l6.35 0c-0.24,4.05 -1.05,15.87 -2.98,27.58zm38.93 0c-3.33,-7.88 -5.83,-22.7 -6.6,-27.58l7.17 0 0.13 0c-0.22,12.31 2.43,23.33 3.6,27.58l-4.3 0zm-91.79 -40.76l-30.54 0 -4.74 -34.98c-0.74,-5.43 -5.41,-9.53 -10.94,-9.53 -0.39,0 -0.76,0.16 -1.03,0.44 -0.26,0.28 -0.4,0.66 -0.37,1.05l3.46 52.66c0,0.7 0.26,1.31 0.61,1.86 -0.02,0.11 -0.06,0.21 -0.05,0.31 0.57,15.52 -3.91,29.77 -3.96,29.92 -0.14,0.43 -0.06,0.89 0.2,1.25 0.26,0.37 0.69,0.57 1.14,0.57l7.08 0c0.55,0 1.05,-0.32 1.28,-0.81 3.82,-8.29 6.54,-24.93 7.25,-29.57l23.7 0c0.24,4.05 1.1,16.81 3.22,29.22 0.11,0.67 0.7,1.17 1.38,1.17l6.78 0c0.39,0 0.77,-0.17 1.04,-0.46 0.26,-0.29 0.39,-0.68 0.35,-1.07 -0.01,-0.19 -1.65,-18.11 -0.75,-29.43 1.01,-0.62 1.73,-1.69 1.73,-2.96l0 -2.8c0,-3.78 -3.07,-6.85 -6.85,-6.85zm-44.71 -41.57c3.42,0.62 6.17,3.41 6.65,6.97l4.9 36.19c0.09,0.7 0.69,1.22 1.39,1.22l31.77 0c2.23,0 4.04,1.81 4.04,4.04l0 2.8c0,0.4 -0.33,0.72 -0.73,0.72l-8.89 0 -26.24 0 -8.8 0c-0.4,0 -0.73,-0.33 -0.73,-0.81l-3.36 -51.13zm4.66 82.33l-4.3 0c1.17,-4.24 3.81,-15.28 3.6,-27.58l0.13 0 7.17 0c-0.76,4.88 -3.27,19.7 -6.6,27.58zm38.94 0c-1.93,-11.72 -2.74,-23.53 -2.98,-27.58l6.35 0c-0.66,9.67 0.32,23.07 0.69,27.58l-4.06 0zm-7.37 -61.62l68.72 0c-0.6,2.94 -2.96,5.94 -5.67,5.94l-23.15 0 -11.09 0 -23.15 0c-2.7,0 -5.06,-3 -5.67,-5.94zm30.22 8.75l8.29 0 0 45.01 -8.29 0 0 -45.01zm-9.89 52.87c0.55,-2.43 2.39,-5.05 4.2,-5.05l4.28 0 11.09 0 4.29 0c1.81,0 3.65,2.61 4.2,5.05l-28.06 0z"/>
  <rect class="fil1" width="180" height="180"/>
 </g>
</svg>
