<?xml version="1.0" encoding="UTF-8"?>
<!DOCTYPE svg PUBLIC "-//W3C//DTD SVG 1.1//EN" "http://www.w3.org/Graphics/SVG/1.1/DTD/svg11.dtd">
<!-- Creator: CorelDRAW -->
<svg xmlns="http://www.w3.org/2000/svg" xml:space="preserve" width="0.18in" height="0.18in" version="1.1" style="shape-rendering:geometricPrecision; text-rendering:geometricPrecision; image-rendering:optimizeQuality; fill-rule:evenodd; clip-rule:evenodd"
viewBox="0 0 180 180"
 xmlns:xlink="http://www.w3.org/1999/xlink"
 xmlns:xodm="http://www.corel.com/coreldraw/odm/2003">
 <defs>
  <style type="text/css">
   <![CDATA[
    .fil1 {fill:none}
    .fil0 {fill:#7F4629;fill-rule:nonzero}
   ]]>
  </style>
 </defs>
 <g id="Layer_x0020_1">
  <metadata id="CorelCorpID_0Corel-Layer"/>
  <path class="fil0" d="M76.52 102.61c-6.87,0 -12.46,5.59 -12.46,12.46 0,6.87 5.59,12.47 12.46,12.47 6.87,0 12.46,-5.59 12.46,-12.47 0,-6.87 -5.59,-12.46 -12.46,-12.46zm-21.5 -55.29c-0.89,0 -1.61,0.72 -1.61,1.61 0,0.89 0.72,1.61 1.61,1.61l17.86 0 7.28 0 19.67 0 7.29 0 17.86 0c0.89,0 1.61,-0.72 1.61,-1.61 0,-0.89 -0.73,-1.61 -1.61,-1.61l-69.96 0zm69.96 6.16l-16.39 0 0 41.71c8.86,2.28 15.43,10.33 15.43,19.89 0,11.32 -9.21,20.53 -20.53,20.53 -3.89,0 -7.68,-1.1 -10.97,-3.19 -0.68,-0.44 -0.89,-1.34 -0.45,-2.02 0.43,-0.69 1.34,-0.89 2.02,-0.45 2.82,1.79 6.06,2.74 9.4,2.74 9.7,0 17.59,-7.89 17.59,-17.6 0,-8.5 -6.06,-15.62 -14.09,-17.25l-0.01 0 -0.01 0 -0.12 -0.02c-2.26,-0.44 -4.46,-0.44 -6.73,0 -0.06,0.01 -0.13,0.02 -0.19,0.02 -2.07,0.42 -4.05,1.21 -5.84,2.34 -0.69,0.43 -1.59,0.22 -2.02,-0.46 -0.43,-0.69 -0.23,-1.59 0.46,-2.02 1.81,-1.14 3.78,-1.98 5.85,-2.51l0 -41.7 -16.74 0 0 41.71c8.86,2.28 15.42,10.33 15.42,19.89 0,11.32 -9.2,20.53 -20.53,20.53 -11.32,0 -20.53,-9.21 -20.53,-20.53 0,-9.56 6.57,-17.61 15.42,-19.89l0 -41.71 -16.39 0c-2.5,0 -4.54,-2.04 -4.54,-4.55 0,-2.5 2.04,-4.54 4.54,-4.54l69.96 0c2.51,0 4.55,2.04 4.55,4.54 0,2.51 -2.04,4.55 -4.55,4.55zm-19.33 41.18l0 -41.18 -4.35 0 0 41.18c0.51,-0.06 1.02,-0.09 1.53,-0.1l0.04 -0 0.03 0 0.03 0 0.01 0 0.03 -0 0.04 0 0.04 0 0.03 0 0.04 0 0.01 0 0.03 0 0.03 0 0.04 -0 0.04 0 0.03 0 0.02 0 0.02 0 0.03 0 0.04 0 0.03 0 0.04 0 0.04 0 0.03 0 0.04 0 0.3 0 0.04 0 0.04 0 0.03 0 0.04 0 0.02 0 0.01 0 0.04 0 0.03 0 0.04 0 0.04 0 0.03 0 0.04 0 0.04 0 0.03 0 0.04 0 0.04 0 0.03 0c0.43,0.02 0.85,0.05 1.26,0.09zm-2.17 35.81c-3.09,0 -6.07,-0.91 -8.61,-2.63 -0.67,-0.45 -0.85,-1.37 -0.39,-2.04 0.45,-0.67 1.36,-0.85 2.04,-0.39 2.06,1.39 4.47,2.13 6.97,2.13 6.87,0 12.46,-5.59 12.46,-12.47 0,-6.87 -5.59,-12.46 -12.46,-12.46 -2.54,0 -4.98,0.76 -7.06,2.19 -0.67,0.46 -1.58,0.29 -2.04,-0.37 -0.46,-0.67 -0.29,-1.58 0.37,-2.04 2.57,-1.77 5.59,-2.71 8.72,-2.71 8.49,0 15.4,6.91 15.4,15.4 0,8.49 -6.91,15.4 -15.4,15.4zm-24.78 -35.81l0 -41.18 -4.35 0 0 41.18c0.42,-0.04 0.84,-0.07 1.26,-0.09l0.04 0 0.03 0 0.04 -0 0.04 0 0.03 -0 0.04 0 0.04 0 0.03 0 0.04 -0 0.04 0 0.03 0 0.01 -0 0.02 0 0.03 0 0.04 0 0.03 0 0.04 0 0.3 -0 0.03 0 0.04 0 0 0 0.03 0 0.04 0 0.3 0 0.03 0 0.04 0 0.04 0 0.03 0 0.02 0 0.01 0 0.03 0 0.04 0 0.04 0 0.03 0 0.04 0 0.04 0 0.03 0 0.04 0 0.03 0 0.04 0 0.03 0c0.43,0.02 0.85,0.05 1.26,0.09zm1.31 3.17l-0.12 -0.02c-2.26,-0.44 -4.46,-0.44 -6.72,0l-0.15 0.02c-8.03,1.63 -14.09,8.75 -14.09,17.25 0,9.71 7.89,17.6 17.6,17.6 9.7,0 17.6,-7.89 17.6,-17.6 0,-8.51 -6.07,-15.62 -14.11,-17.25l0 0 -0.01 0zm-3.48 32.65c-8.49,0 -15.4,-6.91 -15.4,-15.4 0,-8.49 6.91,-15.4 15.4,-15.4 8.49,0 15.4,6.91 15.4,15.4 0,8.49 -6.91,15.4 -15.4,15.4z"/>
  <rect class="fil1" width="180" height="180"/>
 </g>
</svg>
