<?xml version="1.0" encoding="UTF-8"?>
<!DOCTYPE svg PUBLIC "-//W3C//DTD SVG 1.1//EN" "http://www.w3.org/Graphics/SVG/1.1/DTD/svg11.dtd">
<!-- Creator: CorelDRAW -->
<svg xmlns="http://www.w3.org/2000/svg" xml:space="preserve" width="0.18in" height="0.18in" version="1.1" style="shape-rendering:geometricPrecision; text-rendering:geometricPrecision; image-rendering:optimizeQuality; fill-rule:evenodd; clip-rule:evenodd"
viewBox="0 0 180 180"
 xmlns:xlink="http://www.w3.org/1999/xlink"
 xmlns:xodm="http://www.corel.com/coreldraw/odm/2003">
 <defs>
  <style type="text/css">
   <![CDATA[
    .fil1 {fill:none}
    .fil0 {fill:#7F4629;fill-rule:nonzero}
   ]]>
  </style>
 </defs>
 <g id="Layer_x0020_1">
  <metadata id="CorelCorpID_0Corel-Layer"/>
  <g id="_2905075040304">
   <path class="fil0" d="M115.39 152.51l-50.79 0c-1,0 -1.84,-0.76 -1.94,-1.76 -0.1,-1 0.57,-1.91 1.56,-2.11 0.19,-0.04 18.67,-3.87 24.03,-14.59 0.36,-0.71 1.1,-1.13 1.89,-1.07 0.79,0.05 1.47,0.57 1.72,1.33 3.5,10.48 23.69,14.28 23.89,14.33 1,0.18 1.69,1.09 1.6,2.09 -0.09,1.01 -0.94,1.78 -1.95,1.78zm-38.74 -3.91l25.96 0c-4.86,-2.13 -9.94,-5.26 -12.82,-9.68 -3.37,4.43 -8.45,7.56 -13.14,9.68z"/>
   <path class="fil0" d="M90 101.72l-0.03 0c-0.58,-0.01 -1.13,-0.28 -1.5,-0.73 -15.64,-19.55 -39.43,-49.16 -40.88,-50.63 -0.76,-0.76 -0.76,-2 0.01,-2.76 0.77,-0.76 2,-0.76 2.75,0 1.82,1.81 31.85,39.31 39.69,49.09l41.44 -48.98c0.7,-0.82 1.93,-0.93 2.76,-0.23 0.82,0.69 0.93,1.93 0.23,2.75l-42.98 50.79c-0.37,0.44 -0.92,0.69 -1.49,0.69z"/>
   <path class="fil0" d="M48.98 70.47c-11.85,0 -21.48,-9.64 -21.48,-21.49 0,-11.85 9.63,-21.48 21.48,-21.48 11.85,0 21.49,9.63 21.49,21.48 0,1.08 -0.87,1.95 -1.95,1.95 -1.08,0 -1.95,-0.87 -1.95,-1.95 0,-9.69 -7.89,-17.58 -17.58,-17.58 -9.69,0 -17.58,7.89 -17.58,17.58 0,9.69 7.89,17.58 17.58,17.58 1.08,0 1.95,0.87 1.95,1.95 0,1.08 -0.87,1.95 -1.95,1.95z"/>
   <path class="fil0" d="M91.95 78.28c-0.46,0 -0.93,-0.16 -1.3,-0.5 -0.8,-0.72 -0.87,-1.96 -0.15,-2.76l33.21 -37.11c0.21,-0.23 0.47,-0.41 0.76,-0.52l25.39 -9.77c1.01,-0.38 2.13,0.12 2.52,1.13 0.39,1 -0.11,2.13 -1.12,2.52l-24.95 9.59 -32.89 36.77c-0.39,0.43 -0.92,0.65 -1.46,0.65z"/>
   <path class="fil0" d="M123.2 60.7l-48.83 0c-1.08,0 -1.95,-0.87 -1.95,-1.95 0,-1.08 0.87,-1.95 1.95,-1.95l48.83 0c1.08,0 1.95,0.87 1.95,1.95 0,1.08 -0.87,1.95 -1.95,1.95z"/>
   <path class="fil0" d="M90 136.88c-1.08,0 -1.95,-0.87 -1.95,-1.95l0 -35.16c0,-1.08 0.87,-1.95 1.95,-1.95 1.08,0 1.95,0.87 1.95,1.95l0 35.16c0,1.08 -0.87,1.95 -1.95,1.95z"/>
  </g>
  <path class="fil0" d="M269.8 647.36c0,9.3 -3.77,17.71 -9.86,23.8 -5.67,5.66 -13.34,9.32 -21.86,9.8l0 18.85 73.18 0 0 -18.85c-8.52,-0.48 -16.2,-4.14 -21.87,-9.8 -6.09,-6.09 -9.85,-14.5 -9.85,-23.8 0,-9.29 3.77,-17.7 9.85,-23.79 6.09,-6.09 14.5,-9.86 23.8,-9.86 9.29,0 17.7,3.77 23.8,9.86 6.09,6.09 9.85,14.5 9.85,23.79 0,9.3 -3.76,17.71 -9.85,23.8 -5.67,5.66 -13.34,9.32 -21.87,9.8l0 18.85 25.26 0c1.07,0 1.93,0.86 1.93,1.93 0,1.07 -0.86,1.93 -1.93,1.93l-27.19 0 -77.04 0 -31.72 0c-1.06,0 -1.93,-0.86 -1.93,-1.93 0,-1.07 0.87,-1.93 1.93,-1.93l29.79 0 0 -18.85c-8.52,-0.48 -16.2,-4.14 -21.86,-9.8 -6.09,-6.09 -9.86,-14.5 -9.86,-23.8 0,-3.32 0.5,-7.96 1.43,-13.31l0.03 -0.15c2.01,-11.53 6,-26.32 11.25,-38.33 5.61,-12.83 12.81,-22.64 20.94,-22.64 6.76,0 12.87,6.78 17.97,16.43 0.06,0.09 0.11,0.19 0.15,0.28 0.98,1.88 1.93,3.87 2.83,5.93 3.6,8.24 6.61,17.78 8.8,26.68 0.04,0.11 0.06,0.22 0.08,0.33 2.44,10.05 3.83,19.24 3.83,24.78zm39.27 9.33l-15.02 -32.17c-0.67,0.56 -1.31,1.16 -1.94,1.78 -4.56,4.56 -7.65,10.6 -8.49,17.34l25.44 13.05zm-11.85 -34.48l15.67 33.57 11.94 -35.84c-3.57,-1.52 -7.51,-2.36 -11.65,-2.36 -5.87,0 -11.35,1.7 -15.96,4.63zm31.08 -0.52l-11.94 35.81 26.59 -11.39c-0.32,-7.73 -3.59,-14.7 -8.7,-19.81 -1.78,-1.78 -3.78,-3.33 -5.95,-4.61zm14.53 28.66l-27.71 11.88 0 14.87c7.46,-0.48 14.17,-3.7 19.14,-8.66 4.73,-4.73 7.87,-11.05 8.57,-18.08zm-31.57 11.78l-27.85 -14.29c0.12,8.04 3.43,15.31 8.72,20.59 4.96,4.96 11.68,8.19 19.14,8.66l0 -14.96zm-77.04 -44.03l-18.64 -13.05c-3.44,9.52 -6.09,19.84 -7.65,28.42l26.29 19.17 0 -34.54zm-17.24 -16.76l17.24 12.07 0 -11.36c0,-0.7 0.38,-1.32 0.94,-1.66l14.85 -10.59c-4.24,-7.73 -8.99,-13.01 -13.86,-13.01 -6.28,0 -12.37,8.8 -17.41,20.32 -0.6,1.37 -1.19,2.79 -1.75,4.23zm21.1 34.43l23.77 -13.83c-2.1,-8.32 -4.93,-17.15 -8.29,-24.83 -0.58,-1.32 -1.17,-2.61 -1.78,-3.85l-13.71 9.78 0 32.74zm24.71 -9.93l-24.71 14.38 0 36.87c7.46,-0.48 14.17,-3.7 19.13,-8.66 5.39,-5.39 8.72,-12.84 8.72,-21.07 0,-4.89 -1.13,-12.75 -3.15,-21.52zm-28.57 31.56l-26.99 -19.69c-0.57,3.82 -0.87,7.13 -0.87,9.65 0,8.23 3.33,15.68 8.72,21.07 4.96,4.96 11.68,8.19 19.13,8.66l0 -19.7z"/>
  <rect class="fil1" width="180" height="180"/>
 </g>
</svg>
