<?xml version="1.0" encoding="UTF-8"?>
<!DOCTYPE svg PUBLIC "-//W3C//DTD SVG 1.1//EN" "http://www.w3.org/Graphics/SVG/1.1/DTD/svg11.dtd">
<!-- Creator: CorelDRAW -->
<svg xmlns="http://www.w3.org/2000/svg" xml:space="preserve" width="0.18in" height="0.18in" version="1.1" style="shape-rendering:geometricPrecision; text-rendering:geometricPrecision; image-rendering:optimizeQuality; fill-rule:evenodd; clip-rule:evenodd"
viewBox="0 0 180 180"
 xmlns:xlink="http://www.w3.org/1999/xlink"
 xmlns:xodm="http://www.corel.com/coreldraw/odm/2003">
 <defs>
  <style type="text/css">
   <![CDATA[
    .fil1 {fill:none}
    .fil0 {fill:#7F4629;fill-rule:nonzero}
   ]]>
  </style>
 </defs>
 <g id="Layer_x0020_1">
  <metadata id="CorelCorpID_0Corel-Layer"/>
  <g id="_2905071377936">
   <path class="fil0" d="M58.1 107.47c4.85,0 8.8,-3.94 8.8,-8.8 0,-4.85 -3.95,-8.8 -8.8,-8.8 -4.86,0 -8.8,3.95 -8.8,8.8 0,4.85 3.94,8.8 8.8,8.8zm0 -14.59c3.19,0 5.8,2.6 5.8,5.8 0,3.2 -2.6,5.8 -5.8,5.8 -3.2,0 -5.8,-2.6 -5.8,-5.8 0,-3.2 2.6,-5.8 5.8,-5.8z"/>
   <path class="fil0" d="M35.82 107.9c-1.35,3.67 -0.49,7.86 2.35,10.7 2.84,2.83 7.03,3.7 10.7,2.35 1.43,3.1 4.34,5.29 7.73,5.8l0 14.62c-1.85,-1.2 -2.77,-2.25 -3.16,-2.78 0.33,-1.66 0.87,-5.96 -1.62,-9.27 -1.98,-2.63 -5.32,-3.96 -9.92,-3.96 -0.69,0 -1.28,0.47 -1.45,1.13 -0.06,0.25 -1.56,6.17 1.7,10.26 1.88,2.36 4.86,3.58 8.87,3.62 0.74,1.01 2.37,2.72 5.58,4.49l0 3.75c0,0.83 0.67,1.5 1.5,1.5 0.83,0 1.51,-0.67 1.51,-1.5l0 -3.75c3.2,-1.77 4.83,-3.48 5.58,-4.49 4.01,-0.04 6.99,-1.26 8.87,-3.62 3.26,-4.1 1.77,-10.02 1.7,-10.26 -0.17,-0.66 -0.77,-1.13 -1.46,-1.13 -4.6,0 -7.94,1.33 -9.93,3.96 -2.49,3.31 -1.95,7.61 -1.62,9.26 -0.4,0.54 -1.32,1.58 -3.15,2.78l0 -14.62c3.38,-0.51 6.29,-2.7 7.72,-5.8 3.67,1.35 7.87,0.48 10.7,-2.35 2.83,-2.84 3.7,-7.03 2.35,-10.7 3.55,-1.64 5.91,-5.22 5.91,-9.23 0,-4.01 -2.36,-7.59 -5.91,-9.23 1.31,-3.54 0.53,-7.55 -2.07,-10.38 0.94,-0.05 1.89,-0.23 2.8,-0.57 1.38,2.96 4.17,5.04 7.4,5.54l0 64.53c0,0.83 0.67,1.5 1.5,1.5 0.83,0 1.5,-0.67 1.5,-1.5l0 -64.54c3.23,-0.5 6.01,-2.58 7.39,-5.54 0.91,0.33 1.86,0.52 2.8,0.57 -2.6,2.83 -3.37,6.84 -2.07,10.38 -3.55,1.64 -5.91,5.22 -5.91,9.23 0,4.01 2.35,7.59 5.91,9.23 -1.35,3.67 -0.49,7.86 2.35,10.7 2.83,2.83 7.03,3.7 10.7,2.35 1.43,3.1 4.34,5.29 7.73,5.8l0 14.62c-1.85,-1.2 -2.77,-2.25 -3.16,-2.78 0.33,-1.66 0.88,-5.96 -1.62,-9.27 -1.98,-2.63 -5.32,-3.96 -9.93,-3.96 -0.69,0 -1.28,0.47 -1.45,1.13 -0.06,0.25 -1.56,6.17 1.7,10.26 1.87,2.36 4.86,3.58 8.87,3.62 0.74,1.01 2.37,2.72 5.58,4.49l0 3.75c0,0.83 0.67,1.5 1.5,1.5 0.83,0 1.5,-0.67 1.5,-1.5l0 -3.75c3.21,-1.77 4.83,-3.48 5.58,-4.49 4.01,-0.04 7,-1.26 8.87,-3.62 3.26,-4.1 1.76,-10.02 1.7,-10.26 -0.17,-0.66 -0.77,-1.13 -1.45,-1.13 -4.61,0 -7.94,1.33 -9.93,3.96 -2.5,3.31 -1.96,7.61 -1.62,9.26 -0.39,0.54 -1.32,1.58 -3.15,2.78l0 -14.62c3.38,-0.51 6.3,-2.7 7.72,-5.8 3.67,1.35 7.87,0.48 10.7,-2.35 2.83,-2.84 3.7,-7.03 2.35,-10.7 3.55,-1.64 5.91,-5.22 5.91,-9.23 0,-4.01 -2.36,-7.59 -5.91,-9.23 1.35,-3.67 0.48,-7.87 -2.35,-10.7 -2.83,-2.83 -7.03,-3.7 -10.7,-2.34 -1.64,-3.56 -5.22,-5.91 -9.23,-5.91 -4.01,0 -7.59,2.35 -9.23,5.91 -1.02,-0.38 -2.07,-0.57 -3.13,-0.61 2.42,-2.71 3.15,-6.51 1.93,-9.87 3.41,-1.59 5.66,-5.04 5.66,-8.89 0,-3.85 -2.26,-7.3 -5.66,-8.9 1.28,-3.53 0.44,-7.56 -2.29,-10.29 -2.72,-2.72 -6.76,-3.56 -10.29,-2.29 -1.59,-3.4 -5.04,-5.66 -8.89,-5.66 -3.86,0 -7.3,2.26 -8.9,5.66 -3.53,-1.28 -7.57,-0.43 -10.29,2.29 -2.72,2.73 -3.57,6.76 -2.29,10.29 -3.41,1.59 -5.66,5.04 -5.66,8.9 0,3.86 2.26,7.3 5.66,8.89 -1.22,3.37 -0.5,7.17 1.93,9.87 -1.06,0.04 -2.11,0.23 -3.13,0.61 -1.64,-3.56 -5.22,-5.91 -9.23,-5.91 -4.01,0 -7.59,2.35 -9.23,5.91 -3.67,-1.35 -7.86,-0.49 -10.7,2.34 -2.83,2.84 -3.7,7.04 -2.35,10.7 -3.55,1.64 -5.91,5.22 -5.91,9.23 0,4.01 2.36,7.59 5.91,9.23zm14.78 29.45c-2.82,-0.11 -4.87,-0.93 -6.1,-2.46 -1.62,-2.02 -1.55,-4.9 -1.35,-6.48 2.94,0.2 5.04,1.11 6.26,2.71 1.52,2 1.41,4.74 1.19,6.24zm16.19 -6.24c1.22,-1.61 3.32,-2.52 6.26,-2.71 0.19,1.59 0.26,4.46 -1.35,6.48 -1.22,1.53 -3.27,2.36 -6.1,2.46 -0.22,-1.5 -0.33,-4.23 1.19,-6.24zm47.63 6.24c-2.83,-0.11 -4.87,-0.93 -6.1,-2.46 -1.62,-2.02 -1.55,-4.9 -1.35,-6.48 2.94,0.2 5.04,1.11 6.26,2.71 1.52,2 1.41,4.74 1.19,6.24zm16.19 -6.24c1.22,-1.61 3.32,-2.52 6.26,-2.71 0.2,1.59 0.26,4.46 -1.35,6.48 -1.22,1.53 -3.28,2.36 -6.1,2.46 -0.22,-1.5 -0.33,-4.23 1.19,-6.24zm-47.19 -55.05c-0.12,-0.45 -0.44,-0.83 -0.88,-1.01 -0.18,-0.07 -0.38,-0.11 -0.57,-0.11 -0.26,0 -0.52,0.07 -0.75,0.2 -2.23,1.3 -4.95,1.19 -7.06,-0.14l4.83 -4.83c0.67,1.8 2.06,3.31 3.92,4.08 0.87,0.36 1.79,0.54 2.69,0.54 1.02,0 2.01,-0.24 2.93,-0.66l0 6.83c-2.44,-0.56 -4.44,-2.4 -5.09,-4.9zm-6.56 -17.83c0.37,-0.28 0.59,-0.73 0.59,-1.2 0,-0.47 -0.22,-0.91 -0.59,-1.19 -1.47,-1.12 -2.01,-3.09 -1.3,-4.79 0.7,-1.7 2.47,-2.72 4.3,-2.48 0.47,0.06 0.94,-0.1 1.26,-0.43 0.33,-0.33 0.49,-0.8 0.43,-1.26 -0.25,-1.83 0.76,-3.6 2.47,-4.31 1.7,-0.71 3.67,-0.18 4.79,1.29 0.28,0.37 0.73,0.59 1.19,0.59l0 0c0.47,-0 0.91,-0.22 1.2,-0.59 1.11,-1.47 3.09,-2.01 4.79,-1.31 1.7,0.7 2.72,2.47 2.48,4.3 -0.06,0.46 0.09,0.93 0.43,1.26 0.33,0.33 0.8,0.49 1.26,0.42 1.83,-0.25 3.6,0.77 4.31,2.47l0 0c0.71,1.7 0.17,3.67 -1.3,4.8 -0.37,0.28 -0.59,0.72 -0.58,1.19 0,0.47 0.22,0.91 0.59,1.2 1.47,1.11 2.01,3.08 1.3,4.79 -0.7,1.7 -2.47,2.71 -4.3,2.48 -0.47,-0.06 -0.93,0.09 -1.26,0.43 -0.33,0.33 -0.49,0.8 -0.43,1.27 0.25,1.83 -0.76,3.6 -2.46,4.31 -1.7,0.71 -3.67,0.18 -4.79,-1.29 -0.29,-0.37 -0.73,-0.59 -1.2,-0.59l-0 0c-0.46,0 -0.91,0.22 -1.19,0.59 -1.11,1.47 -3.08,2 -4.79,1.3 -1.7,-0.7 -2.72,-2.47 -2.48,-4.3 0.06,-0.46 -0.09,-0.93 -0.43,-1.26 -0.28,-0.28 -0.66,-0.43 -1.06,-0.43 -0.07,0 -0.13,0 -0.2,0.01 -1.83,0.25 -3.6,-0.76 -4.31,-2.47 -0.7,-1.7 -0.17,-3.67 1.29,-4.79zm21.96 16.91c-0.4,-0.24 -0.89,-0.27 -1.33,-0.09 -0.44,0.18 -0.76,0.56 -0.88,1.01 -0.66,2.49 -2.66,4.34 -5.09,4.9l0 -6.84c1.75,0.8 3.8,0.89 5.66,0.11 1.85,-0.77 3.22,-2.26 3.9,-4.04l4.81 4.81c-2.12,1.33 -4.84,1.44 -7.07,0.14zm3.27 16.59c0.45,-0.12 0.82,-0.44 1,-0.88 0.18,-0.43 0.15,-0.92 -0.09,-1.33 -1.37,-2.37 -1.25,-5.26 0.19,-7.49l5.16 5.16c-1.9,0.68 -3.5,2.12 -4.3,4.08 -0.8,1.94 -0.7,4.07 0.15,5.88l-7.26 0c0.56,-2.59 2.52,-4.73 5.17,-5.43zm13.56 -8.17c1.8,-0.75 3.88,-0.19 5.06,1.36 0.28,0.37 0.72,0.59 1.19,0.59l0 0c0.47,0 0.91,-0.22 1.19,-0.59 1.18,-1.56 3.26,-2.12 5.06,-1.38 1.8,0.74 2.87,2.61 2.62,4.54 -0.06,0.47 0.09,0.93 0.43,1.27 0.33,0.33 0.8,0.48 1.27,0.42 1.93,-0.27 3.8,0.81 4.55,2.6 0.75,1.8 0.19,3.88 -1.36,5.07 -0.37,0.28 -0.59,0.72 -0.59,1.19 0,0.47 0.22,0.91 0.59,1.2 1.55,1.17 2.12,3.26 1.38,5.06 -0.74,1.8 -2.61,2.87 -4.54,2.61 -0.46,-0.06 -0.93,0.09 -1.26,0.43 -0.33,0.33 -0.49,0.8 -0.43,1.26 0.26,1.93 -0.8,3.8 -2.6,4.55 -1.8,0.75 -3.88,0.19 -5.06,-1.37 -0.28,-0.37 -0.72,-0.59 -1.19,-0.59l-0 0c-0.47,0 -0.91,0.22 -1.19,0.59 -1.18,1.56 -3.26,2.12 -5.06,1.38 -1.8,-0.74 -2.87,-2.61 -2.61,-4.54 0.06,-0.46 -0.1,-0.93 -0.43,-1.26 -0.28,-0.28 -0.67,-0.44 -1.06,-0.44 -0.07,0 -0.13,0.01 -0.2,0.02 -1.94,0.26 -3.8,-0.81 -4.55,-2.61 -0.75,-1.8 -0.19,-3.88 1.36,-5.06 0.37,-0.28 0.59,-0.73 0.59,-1.2 0,-0.47 -0.22,-0.91 -0.59,-1.19 -1.55,-1.18 -2.12,-3.26 -1.38,-5.06 0.74,-1.8 2.62,-2.87 4.54,-2.62 0.47,0.06 0.93,-0.09 1.26,-0.43 0.33,-0.33 0.49,-0.8 0.43,-1.27 -0.26,-1.93 0.81,-3.8 2.6,-4.55zm-18.72 16.59l7.3 0c-0.87,1.83 -0.98,3.98 -0.16,5.93 0.81,1.94 2.39,3.37 4.26,4.05l-5.13 5.13c-1.44,-2.22 -1.56,-5.12 -0.19,-7.48 0.24,-0.41 0.27,-0.9 0.09,-1.33 -0.18,-0.43 -0.55,-0.76 -1,-0.88 -2.65,-0.7 -4.6,-2.83 -5.17,-5.42zm18.08 18.34c-0.12,-0.46 -0.44,-0.83 -0.88,-1.01 -0.19,-0.07 -0.38,-0.11 -0.57,-0.11 -0.26,0 -0.53,0.07 -0.76,0.2 -2.37,1.37 -5.25,1.25 -7.48,-0.19l5.15 -5.16c0.68,1.9 2.12,3.5 4.08,4.3 0.91,0.37 1.85,0.55 2.78,0.55 1.07,0 2.13,-0.26 3.1,-0.72l0 7.28c-2.59,-0.56 -4.73,-2.52 -5.42,-5.16zm16.06 -0.91c-0.41,-0.24 -0.9,-0.27 -1.33,-0.09 -0.43,0.18 -0.76,0.55 -0.88,1.01 -0.7,2.64 -2.83,4.6 -5.42,5.16l0 -7.3c1.83,0.87 3.97,0.97 5.93,0.16 1.94,-0.81 3.37,-2.39 4.06,-4.26l5.13 5.13c-2.22,1.44 -5.12,1.56 -7.48,0.19zm10.71 -12c-0.45,0.12 -0.83,0.44 -1.01,0.88 -0.18,0.43 -0.15,0.93 0.09,1.33 1.38,2.37 1.26,5.26 -0.19,7.48l-5.16 -5.15c1.9,-0.68 3.5,-2.12 4.31,-4.08 0.8,-1.94 0.7,-4.07 -0.15,-5.87l7.26 0c-0.56,2.59 -2.52,4.72 -5.16,5.42zm5.16 -8.43l-7.29 0c0.87,-1.83 0.97,-3.97 0.16,-5.93 -0.8,-1.94 -2.38,-3.37 -4.26,-4.06l5.13 -5.13c1.44,2.23 1.56,5.12 0.19,7.49 -0.24,0.41 -0.27,0.89 -0.09,1.33 0.18,0.43 0.56,0.76 1.01,0.88 2.64,0.7 4.6,2.83 5.16,5.43zm-18.07 -18.34c0.12,0.46 0.44,0.82 0.88,1 0.43,0.18 0.93,0.15 1.33,-0.09 2.36,-1.37 5.25,-1.25 7.48,0.19l-5.15 5.16c-0.68,-1.9 -2.13,-3.5 -4.08,-4.31 -1.94,-0.8 -4.07,-0.7 -5.88,0.15l0 -7.26c2.59,0.56 4.72,2.52 5.43,5.16zm-16.06 0.91c0.41,0.24 0.89,0.27 1.33,0.09 0.43,-0.18 0.76,-0.55 0.88,-1 0.69,-2.65 2.83,-4.6 5.41,-5.16l0 7.29c-1.82,-0.87 -3.97,-0.97 -5.93,-0.16 -1.94,0.81 -3.37,2.38 -4.05,4.26l-5.13 -5.13c2.22,-1.43 5.12,-1.56 7.48,-0.19zm-3.73 -16.13c-0.45,0.12 -0.82,0.44 -1,0.88 -0.18,0.43 -0.15,0.92 0.09,1.33 1.3,2.23 1.19,4.95 -0.14,7.06l-4.83 -4.83c1.8,-0.67 3.31,-2.06 4.08,-3.92 0.76,-1.85 0.68,-3.88 -0.1,-5.61l6.8 0c-0.55,2.43 -2.4,4.44 -4.9,5.09zm4.9 -8.09l-6.83 0c0.8,-1.75 0.89,-3.8 0.11,-5.67 -0.77,-1.85 -2.26,-3.22 -4.04,-3.89l4.81 -4.81c1.33,2.11 1.44,4.83 0.14,7.06 -0.24,0.41 -0.27,0.9 -0.09,1.33 0.18,0.44 0.55,0.76 1,0.88 2.49,0.65 4.34,2.65 4.9,5.09zm-17.35 -17.54c0.12,0.45 0.44,0.82 0.88,1.01 0.43,0.18 0.93,0.14 1.33,-0.09 2.23,-1.3 4.95,-1.19 7.07,0.14l-4.83 4.83c-0.67,-1.8 -2.06,-3.31 -3.93,-4.08 -1.85,-0.76 -3.87,-0.68 -5.61,0.1l0 -6.8c2.43,0.56 4.43,2.4 5.09,4.9zm-15.4 0.91c0.4,0.24 0.89,0.27 1.33,0.09 0.44,-0.19 0.76,-0.56 0.88,-1.01 0.66,-2.5 2.65,-4.34 5.09,-4.9l0 6.83c-1.75,-0.8 -3.8,-0.89 -5.66,-0.11 -1.85,0.77 -3.22,2.26 -3.9,4.04l-4.81 -4.81c2.11,-1.33 4.83,-1.43 7.07,-0.14zm-10.24 11.54c0.45,-0.13 0.82,-0.44 1,-0.88 0.18,-0.43 0.15,-0.93 -0.09,-1.33 -1.3,-2.23 -1.19,-4.95 0.14,-7.06l4.83 4.83c-1.8,0.67 -3.31,2.06 -4.08,3.92 -0.76,1.85 -0.69,3.87 0.1,5.61l-6.8 0c0.56,-2.44 2.41,-4.44 4.9,-5.09zm-4.9 8.1l6.83 0c-0.8,1.74 -0.89,3.79 -0.11,5.65 0.77,1.85 2.26,3.22 4.04,3.9l-4.81 4.81c-1.33,-2.11 -1.44,-4.84 -0.14,-7.07 0.24,-0.41 0.27,-0.9 0.09,-1.33 -0.18,-0.44 -0.55,-0.76 -1,-0.88 -2.5,-0.66 -4.35,-2.65 -4.9,-5.09zm-27.8 33.22c0.45,-0.12 0.82,-0.44 1,-0.88 0.18,-0.43 0.14,-0.92 -0.09,-1.33 -1.63,-2.81 -1.17,-6.38 1.12,-8.68 2.3,-2.3 5.86,-2.75 8.67,-1.12 0.41,0.24 0.9,0.27 1.33,0.09 0.43,-0.18 0.76,-0.55 0.88,-1 0.83,-3.15 3.67,-5.34 6.92,-5.34 3.25,0 6.1,2.2 6.93,5.34 0.12,0.46 0.44,0.82 0.87,1 0.43,0.18 0.93,0.15 1.33,-0.09 2.81,-1.63 6.38,-1.18 8.67,1.12 2.3,2.3 2.76,5.86 1.12,8.68 -0.24,0.41 -0.27,0.89 -0.09,1.33 0.18,0.43 0.55,0.76 1,0.88 3.15,0.83 5.34,3.68 5.34,6.93 0,3.25 -2.2,6.1 -5.34,6.93 -0.45,0.12 -0.83,0.44 -1,0.88 -0.18,0.43 -0.15,0.93 0.09,1.33 1.64,2.81 1.17,6.37 -1.12,8.67 -2.3,2.3 -5.86,2.76 -8.67,1.12 -0.4,-0.24 -0.9,-0.27 -1.33,-0.09 -0.43,0.18 -0.76,0.55 -0.87,1.01 -0.83,3.14 -3.68,5.33 -6.93,5.33 -3.25,0 -6.09,-2.19 -6.92,-5.33 -0.12,-0.46 -0.44,-0.83 -0.88,-1.01 -0.19,-0.07 -0.38,-0.11 -0.58,-0.11 -0.26,0 -0.52,0.07 -0.75,0.2 -2.81,1.63 -6.37,1.17 -8.67,-1.12 -2.3,-2.3 -2.76,-5.87 -1.12,-8.67 0.24,-0.41 0.27,-0.9 0.09,-1.33 -0.18,-0.43 -0.56,-0.76 -1,-0.88 -3.15,-0.83 -5.34,-3.68 -5.34,-6.93 0,-3.25 2.19,-6.09 5.34,-6.93z"/>
   <path class="fil0" d="M42.58 105.1c-0.76,2.52 -0.09,5.33 1.83,7.25 1.93,1.93 4.73,2.59 7.26,1.83 1.25,2.32 3.7,3.83 6.43,3.83 2.72,0 5.17,-1.52 6.43,-3.83 2.53,0.75 5.33,0.1 7.26,-1.83 1.93,-1.92 2.59,-4.73 1.83,-7.25 2.33,-1.25 3.84,-3.7 3.84,-6.43 0,-2.72 -1.52,-5.17 -3.84,-6.42 0.76,-2.53 0.1,-5.33 -1.83,-7.26 -1.93,-1.93 -4.73,-2.59 -7.26,-1.83 -1.26,-2.33 -3.7,-3.84 -6.43,-3.84 -2.72,0 -5.18,1.51 -6.43,3.84 -2.53,-0.76 -5.33,-0.1 -7.26,1.83 -1.93,1.93 -2.59,4.73 -1.83,7.26 -2.32,1.25 -3.84,3.7 -3.84,6.42 0,2.73 1.52,5.18 3.84,6.43zm2.37 -10.58c0.45,-0.11 0.82,-0.44 1,-0.87 0.18,-0.43 0.15,-0.93 -0.09,-1.33 -0.98,-1.69 -0.71,-3.82 0.67,-5.2 1.37,-1.37 3.51,-1.65 5.2,-0.67 0.41,0.23 0.9,0.27 1.33,0.09 0.43,-0.18 0.76,-0.55 0.88,-1 0.5,-1.89 2.2,-3.2 4.15,-3.2 1.95,0 3.65,1.31 4.15,3.2 0.12,0.45 0.44,0.83 0.88,1 0.43,0.18 0.93,0.15 1.33,-0.09 1.69,-0.98 3.82,-0.71 5.2,0.67 1.38,1.38 1.66,3.52 0.67,5.2 -0.24,0.41 -0.27,0.9 -0.09,1.33 0.17,0.43 0.55,0.76 1,0.87 1.89,0.5 3.2,2.21 3.2,4.15 0,1.95 -1.31,3.65 -3.2,4.15 -0.45,0.12 -0.83,0.44 -1,0.88 -0.18,0.43 -0.15,0.93 0.09,1.33 0.98,1.69 0.7,3.83 -0.67,5.2 -1.37,1.37 -3.51,1.65 -5.2,0.67 -0.41,-0.24 -0.9,-0.27 -1.33,-0.09 -0.43,0.18 -0.76,0.55 -0.88,1 -0.5,1.89 -2.2,3.2 -4.15,3.2 -1.95,0 -3.65,-1.31 -4.15,-3.2 -0.12,-0.45 -0.44,-0.83 -0.88,-1 -0.19,-0.07 -0.38,-0.11 -0.57,-0.11 -0.26,0 -0.52,0.07 -0.76,0.2 -1.69,0.98 -3.82,0.7 -5.2,-0.67 -1.38,-1.37 -1.66,-3.52 -0.67,-5.2 0.24,-0.4 0.27,-0.89 0.09,-1.33 -0.18,-0.43 -0.55,-0.76 -1,-0.88 -1.89,-0.5 -3.2,-2.2 -3.2,-4.15 0,-1.94 1.32,-3.65 3.2,-4.15z"/>
   <path class="fil0" d="M118.56 106.81c1.08,0.44 2.22,0.67 3.35,0.67 1.15,0 2.29,-0.23 3.38,-0.68 4.48,-1.86 6.61,-7.02 4.74,-11.51l0 0c-0.91,-2.17 -2.6,-3.86 -4.77,-4.75 -2.17,-0.9 -4.57,-0.89 -6.74,0.01 -4.48,1.87 -6.61,7.03 -4.74,11.51 0.9,2.17 2.6,3.86 4.77,4.76zm-2 -10.35c0.59,-1.43 1.7,-2.55 3.13,-3.14 0.71,-0.3 1.47,-0.45 2.22,-0.45 0.75,0 1.5,0.15 2.21,0.44 1.43,0.59 2.55,1.7 3.14,3.13 1.23,2.95 -0.17,6.35 -3.12,7.58 -1.43,0.59 -3.01,0.6 -4.44,0.01 -1.43,-0.59 -2.55,-1.7 -3.14,-3.13 -0.6,-1.43 -0.6,-3 -0.01,-4.43z"/>
   <path class="fil0" d="M90.02 65.54c1.09,0 2.19,-0.21 3.26,-0.65 4.34,-1.8 6.39,-6.8 4.59,-11.13l0 0c-1.81,-4.33 -6.8,-6.4 -11.13,-4.59 -4.33,1.81 -6.39,6.8 -4.59,11.13 1.36,3.28 4.54,5.25 7.87,5.25zm-2.13 -13.6c0.69,-0.29 1.41,-0.43 2.11,-0.43 2.16,0 4.21,1.28 5.09,3.39l0 0c1.17,2.8 -0.16,6.04 -2.96,7.2 -2.81,1.17 -6.04,-0.17 -7.2,-2.97 -1.17,-2.81 0.17,-6.04 2.97,-7.2z"/>
  </g>
  <rect class="fil1" width="180" height="180"/>
 </g>
</svg>
