<?xml version="1.0" encoding="UTF-8"?>
<!DOCTYPE svg PUBLIC "-//W3C//DTD SVG 1.1//EN" "http://www.w3.org/Graphics/SVG/1.1/DTD/svg11.dtd">
<!-- Creator: CorelDRAW -->
<svg xmlns="http://www.w3.org/2000/svg" xml:space="preserve" width="0.18in" height="0.18in" version="1.1" style="shape-rendering:geometricPrecision; text-rendering:geometricPrecision; image-rendering:optimizeQuality; fill-rule:evenodd; clip-rule:evenodd"
viewBox="0 0 180 180"
 xmlns:xlink="http://www.w3.org/1999/xlink"
 xmlns:xodm="http://www.corel.com/coreldraw/odm/2003">
 <defs>
  <style type="text/css">
   <![CDATA[
    .fil1 {fill:none}
    .fil0 {fill:#7F4629}
   ]]>
  </style>
 </defs>
 <g id="Layer_x0020_1">
  <metadata id="CorelCorpID_0Corel-Layer"/>
  <path class="fil0" d="M95.26 58.66l0 -17.32c0,-3.88 5.34,-5.57 7.81,-2.54 2.6,3.19 -1.05,12.41 2.71,12.41 3.44,0 0.85,-7.19 1.96,-9.44 0.48,-0.98 3.35,-2.37 3.3,1.76 -0.01,1.24 -0,2.49 -0,3.73 0,3.39 -0.66,5.7 2.19,5.7 2.52,0 0.65,-7.67 1.52,-9.44 0.48,-0.98 3.35,-2.37 3.31,1.76 -0.01,1.24 -0.01,2.49 -0.01,3.73 0,3.29 -0.61,5.7 2.19,5.7 2.7,0 0.18,-6.83 2.02,-8.29 0.72,-0.57 1.76,-0.48 2.39,0.14 1.07,1.07 0.58,7.15 0.61,9.69 0.04,2.81 2.48,2.1 3.04,1.26 0.75,-1.11 -0.21,-3.47 0.4,-5.08 0.65,-1.7 3.59,-1.67 3.59,1.39l0 35.95c0,2.17 -6.06,5.48 -9.86,5.48 -4.74,0 -7.72,-1.04 -10.91,-4.22 -5.27,-5.25 -5.31,-14.27 -0.22,-19.4 4.39,-4.43 9,-5.31 14.86,-3.76 1.14,0.3 2.41,-0.11 2.41,-1.56 0,-2.51 -5.48,-2.63 -7.45,-2.63 -6.66,0 -12.71,4.43 -15.49,10.37 -7,14.95 9.89,30.66 24.33,22.58 0.82,-0.46 1.46,-1.15 2.33,-1.39 0,10.08 0,20.17 0,30.25 0,6.91 -0.85,12.39 -7.08,15.71 -7.84,4.19 -17.22,-0.63 -19,-8.26 3.85,2.04 4.35,2.63 9.2,2.63 6.48,0 13.15,-6.32 13.15,-13.59 0,-6.05 -3.15,-10.59 -7.45,-12.72 -2.19,-1.08 -4.91,-2.03 -7.55,-1.63 -1.35,0.2 -3.09,0.27 -3.77,1.06 -0.93,1.07 -0.22,2.76 1.02,2.76 2.41,0 5.46,-1.74 10.15,1.69 5.65,4.13 5.52,12.77 0.07,16.86 -4.52,3.39 -11.19,2.78 -14.71,-1.78 -0.87,-1.13 -0.55,-1.54 -0.55,-3.83 0,-13.31 1.06,-25.88 -3.82,-38.48 -3.24,-8.37 -6.7,-18.19 -6.7,-27.27zm17.54 63.13c0,-2.41 3.51,-2.89 3.51,0 0,2.27 -3.51,1.92 -3.51,0zm1.54 5.04c8.2,0 6.5,-11.81 -0.85,-10.29 -0.78,0.16 -2.08,0.86 -2.59,1.37 -0.48,0.48 -1.15,1.76 -1.33,2.4 -0.33,1.19 -0.19,2.12 0.19,3.21 0.55,1.57 2.46,3.31 4.58,3.31zm-46.69 -33.32c-5.6,0 -4.85,-7.01 -0.66,-7.01 5.3,0 4.3,7.01 0.66,7.01zm-7.45 -3.72c0,8.33 10.61,9.4 13.29,3.2 1.24,-2.87 0.76,-5.71 -1.39,-7.87 -4.8,-4.8 -11.9,-0.75 -11.9,4.67zm61.81 -3.29c-2.02,0 -2.81,-0.26 -4.01,-1.47 -3.87,-3.89 -0.45,-9.05 3.13,-9.05 2.04,0 2.86,0.06 4.45,1.69 3.08,3.16 0.59,8.83 -3.57,8.83zm-0.44 3.51c4.78,0 8.77,-3.75 8.77,-9.21 0,-4.38 -4.13,-8.33 -8.55,-8.33 -5.06,0 -8.68,3.89 -8.92,8.59 -0.24,4.67 4.17,8.94 8.7,8.94zm-48.22 -51.95c-2.47,-1.31 -5.72,-0.7 -7.02,1.76 -3.19,-1.69 -6.95,-0.04 -7.67,3.07 -1.33,-0.03 -5,-1.25 -6.87,3 -0.34,0.78 -0.36,1.21 -0.36,2.27 -0.96,-0.08 -0.54,-0.22 -2.19,-0.22 -2.41,0 -4.82,2.41 -4.82,4.82l0 77.82c0,7.62 7.55,15.56 15.78,15.56 5.24,0 8.14,-0.99 11.99,-4.23 6.76,-5.68 5.54,-14.77 5.54,-23.17 0,-9.27 -0.66,-17.9 1.94,-26.77 2.08,-7.08 5.56,-14.96 7.13,-21.81 0.91,-3.96 1.45,-8.56 1.45,-13.24 0,-1.06 -0.63,-1.97 -1.76,-1.97 -2.63,0 -1.48,3.64 -1.81,6.07 -1.04,7.7 -0.91,8.96 -3.64,16.53 -0.31,0.87 -0.76,2.29 -1.12,3.04 -1,-0.67 -0.78,-1.72 -5.08,-4.35 -10,-6.12 -23.42,2.28 -23.42,12.89 0,5.19 1.2,8.52 4.77,12.11 1.35,1.36 2.65,2.3 4.51,3.16 1.74,0.81 8.26,2.39 9.63,0.55 0.56,-0.74 0.22,-2.06 -0.48,-2.46 -1.01,-0.58 -3.39,0.28 -6.49,-0.74 -8.28,-2.74 -10.73,-12.44 -6.49,-18.57 1.93,-2.78 5.69,-5.44 9.24,-5.44 4.38,0 7.79,0.94 10.56,4.35 2.93,3.61 1.35,2.55 -0.52,9.85 -2.38,9.26 -1.93,16.65 -1.93,26.35 0,5.24 0.61,13.51 -1.46,17.39 -3.3,6.17 -10.46,8.76 -17.24,5.91 -4.66,-1.95 -7.82,-7.04 -7.82,-13.22l0 -74.53c0,-2.92 2.74,-3.15 3.52,-1.55 0.93,1.89 -1.13,5.93 1.96,5.93 3.45,0 0.09,-9.58 2.16,-11.65 0.45,-0.45 3.14,-1.72 3.1,2.44 -0.03,3.21 -0.66,5.71 1.75,5.71 2.28,0 1.76,-3.23 1.76,-5.48 0,-2.58 -0.47,-5.87 0.93,-6.54 0.88,-0.43 1.82,-0.07 2.29,0.69 1.37,2.23 -1.6,9.58 2.04,9.58 2.3,0 1.75,-3.2 1.75,-5.48 0,-2.59 -0.47,-5.87 0.93,-6.54 0.88,-0.43 1.82,-0.06 2.29,0.69 1.37,2.23 -1.59,9.58 2.04,9.58 3.76,0 0.11,-9.22 2.71,-12.41 2.07,-2.54 7.86,-2.44 7.81,3.86l0.04 7.19c0.41,2.02 3.46,1.82 3.46,-0.4 0,-5.05 0.79,-10.09 -2.13,-12.99 -2.35,-2.33 -3.31,-2.57 -6.63,-2.57 -2.76,0 -4.82,2.2 -6.14,4.17zm18.41 3.94c0,17.8 -1.09,22.56 4.85,38.99 2.48,6.87 5.71,15.67 5.68,23.04 -0.02,5.08 -0.3,24.95 0.3,28.41 1.31,7.45 8.3,13.68 15.26,13.68 5.65,0 9.06,-1.04 12.77,-4.77 0.8,-0.8 1.16,-1.15 1.86,-2.09 1.67,-2.24 3.13,-5.7 3.13,-8.7l0 -77.82c0,-2.51 -2.22,-4.82 -5.48,-4.82 -0.76,0 -0.85,0.16 -1.54,0.22 0,-3.2 -2.02,-5.48 -5.26,-5.48 -1.1,0 -0.98,0.2 -1.97,0.22 -0.72,-3.1 -4.49,-4.75 -7.67,-3.07 -0.46,-0.88 -0.61,-1.04 -1.48,-1.59 -1.75,-1.09 -3.73,-1.12 -5.53,-0.17 -2.03,-3.03 -3.69,-4.17 -7.45,-4.17 -2.5,0 -3.91,1.18 -5.21,2.46 -1.33,1.32 -2.24,3.09 -2.24,5.65z"/>
  <rect class="fil1" width="180" height="180"/>
 </g>
</svg>
