<?xml version="1.0" encoding="UTF-8"?>
<!DOCTYPE svg PUBLIC "-//W3C//DTD SVG 1.1//EN" "http://www.w3.org/Graphics/SVG/1.1/DTD/svg11.dtd">
<!-- Creator: CorelDRAW -->
<svg xmlns="http://www.w3.org/2000/svg" xml:space="preserve" width="0.18in" height="0.18in" version="1.1" style="shape-rendering:geometricPrecision; text-rendering:geometricPrecision; image-rendering:optimizeQuality; fill-rule:evenodd; clip-rule:evenodd"
viewBox="0 0 180 180"
 xmlns:xlink="http://www.w3.org/1999/xlink"
 xmlns:xodm="http://www.corel.com/coreldraw/odm/2003">
 <defs>
  <style type="text/css">
   <![CDATA[
    .fil1 {fill:none}
    .fil0 {fill:#7F4629}
   ]]>
  </style>
 </defs>
 <g id="Layer_x0020_1">
  <metadata id="CorelCorpID_0Corel-Layer"/>
  <path class="fil0" d="M86.83 31.1c0,7.64 6.8,6.58 2.57,17.36 -1.12,2.85 -0.78,1.79 -3.97,3.16 -3.17,1.37 -6.64,3.32 -9.24,5.28 -0.69,0.52 -1.3,0.93 -1.95,1.48l-4.71 4.27c-0.33,0.35 -0.46,0.6 -0.85,1 -1.23,1.3 -2.24,2.33 -3.43,3.71l-3.25 4.15c-0.33,-1.43 -1.6,-3.11 -2.41,-4.19 -1.02,-1.36 -2.13,-2.33 -3.33,-3.54 -1.65,-1.65 -5.33,-5.73 -6.93,-6.8 1.66,-3.13 4.66,-5.01 7.43,-7.09 0.88,-0.66 7.89,-5.5 7.89,-6.64 0,-1.79 -0.59,-2.37 -2.38,-2.37 -0.66,0 -8.67,6.28 -10.42,7.58 -1.41,1.06 -1.2,0.44 -1.2,-2.04 0,-9.77 8.72,-13.75 16.55,-17.52 6.97,-3.36 12.76,-2.95 20.17,-1.23 -0.26,1.12 -0.53,2.02 -0.53,3.43zm-3.96 72.89c0,3.13 6.35,3.09 8.44,2.91 1.34,-0.11 3.74,-0.64 4.43,-1.39 1.12,-1.22 0.45,-3.36 -1.52,-3.36 -2.04,0 -3.14,1.38 -6.85,0.51 -0.39,-0.09 -4.5,-1.58 -4.5,1.33zm14.79 -12.67c0,3.49 9.31,3.31 12.52,2.22 4.03,-1.37 1.92,-4.33 0.42,-4.33 -1.86,0 -3.38,1.8 -8.35,0.69 -0.76,-0.18 -4.59,-1.95 -4.59,1.43zm-30.11 -0.53c0,1.74 0.29,2.11 2.07,2.68 3.59,1.16 12.72,1.37 12.72,-2.15 0,-3.8 -4.38,-1.06 -7.39,-1.06 -2.67,0 -4.47,-1.06 -5.55,-1.06 -0.75,0 -1.85,0.84 -1.85,1.58zm-45.16 -55.99c0,1.56 4.39,5.31 5.61,6.54 0.97,0.98 2.02,2.19 3.03,3.05 1.41,1.2 3.51,0.68 3.51,-1.4 0,-1.44 -1.72,-2.65 -2.57,-3.5l-6.07 -6.09c-1.41,-1.2 -3.51,-0.68 -3.51,1.4zm46.22 47.28c1.15,0 2.66,-0.65 3.81,-0.94 2.61,-0.67 4.97,-0.9 7.52,-0.09 0.09,0.03 5.3,2.63 5.3,-0.81 0,-3.3 -7.12,-3.7 -9.77,-3.7 -1.33,0 -8.78,0.84 -8.91,3.46 -0.06,1.19 0.72,2.08 2.05,2.08zm26.15 -2.11c0,3.74 4.63,1.3 5.11,1.14 5.12,-1.74 9.35,0.97 11.53,0.97 2.35,0 3.09,-3.13 0.15,-4.11 -3.72,-1.24 -5.44,-1.43 -9.13,-1.43 -2.39,0 -7.66,1.39 -7.66,3.43zm-15.58 34.86c0,2.48 4.59,3.32 8.08,2.53 3.36,-0.76 1.08,-0.76 4.44,0 6.69,1.52 9.91,-2.53 6.95,-4.31 -1.72,-1.03 -1.15,0.45 -4.68,0.45 -2.19,0 -2.14,-0.79 -4.76,-0.79 -1.83,0 -1.7,0.79 -5.02,0.79 -0.83,0 -5.02,-2.19 -5.02,1.32zm-56.78 -45.69c0,1.44 1.92,2.85 2.97,3.9 3.12,3.12 7.03,6.42 9.75,9.79 1.68,2.07 1.98,7.78 2.31,10.63 0.41,3.63 0.75,8.2 1.65,11.56 0.95,3.54 3.12,5.19 5.43,7.5l13.07 13.07c3.12,3.12 4.28,5.61 9.18,5.61 2.78,0 5.27,-2.44 5.81,-4.76 0.93,0.49 0.79,0.49 1.55,1.09 2.11,1.64 1.35,1.87 1.35,8.15 0,5.01 -3.68,5.54 -7.77,6.23 -4.08,0.68 -8.11,1.41 -12.05,1.95 -4.73,0.63 -7.14,1.35 -10.4,3.6 -1.03,0.71 -2.7,2.39 -3.51,3.35 -0.94,1.11 -2.45,3.65 -2.45,5.21 0,0.67 0.66,1.43 1.54,1.58l0.62 0c0.72,-0.12 1.5,-0.69 2.16,-2.02 0.51,-1.03 0.84,-1.61 1.56,-2.41 4.8,-5.33 10.87,-5.18 17.71,-6.33 6.37,-1.07 13.82,-0.74 16.21,-7.82 0.7,-2.06 0.35,-5.31 0.35,-7.84 8.77,4.64 12.37,4.64 21.13,0 0,2.43 -0.35,5.67 0.28,7.64 0.66,2.07 1.69,3.39 3.22,4.7 1.68,1.42 3.28,1.74 5.78,2.15 4.6,0.76 16.81,2.11 20.39,3.91 2.29,1.15 2.8,1.74 4.47,3.46 0.72,0.74 1.11,1.36 1.6,2.36 0.67,1.37 1.45,2.02 2.17,2.2l0.81 0c0.82,-0.22 1.42,-1.09 1.42,-2.11 0,-1.13 -1.73,-3.77 -2.33,-4.53 -3.59,-4.52 -7.66,-6.26 -13.8,-7.07l-11.83 -1.9c-3.61,-0.61 -8.22,-0.95 -8.22,-5.78l0 -7.13c0,-0.92 2.15,-2.24 2.91,-2.64 0.85,3.67 3.91,4.76 7.39,4.76 2.88,0 5.79,-3.81 7.46,-5.48l12.94 -12.94c2.26,-2.26 4.62,-4.04 5.64,-7.56 0.89,-3.04 1.17,-8 1.64,-11.3 0.47,-3.25 0.43,-8.54 2.26,-10.94 0.99,-1.29 12.84,-12.23 12.84,-13.31 0,-2.31 -1.79,-3.31 -3.63,-1.79 -2.38,1.96 -7.51,7.51 -9.9,9.91 -2.54,2.54 -4.22,3.91 -4.71,8.5 -0.28,2.6 -1.77,15.34 -2.4,17.67 -0.44,1.65 -1.42,2.81 -2.54,4.07 -3.41,3.86 -12.15,12.16 -16.5,16.51 -1,1 -2.35,2.71 -4.16,2.71 -1.16,0 -2.64,-1.48 -2.64,-2.64 0,-2.41 5.83,-7.28 7.59,-9.04 2.83,-2.83 5.52,-5.46 8.33,-8.31 2.78,-2.83 1.56,-10.6 2.15,-14.49 0.32,-2.14 0.39,-5.54 0.41,-7.78 0.02,-1.43 1.04,-4.3 -0.35,-5.44 -1.22,-1.01 -2.85,-0.58 -3.4,0.91l-0.48 6.65c0.01,4.13 -0.96,13.08 -1.05,17.17 -9.14,0 -2.13,-12.41 -6.87,-12.41 -3.12,0 -2.38,5.75 -2.38,7.92 0,1.87 0.87,3.73 1.7,4.91 1.03,1.48 2.3,2.2 3.85,3.02 -1.45,2.17 -3.65,4.05 -5.52,5.84l-0.26 0.27c-0.04,0.04 -0.09,0.09 -0.13,0.13 -5.35,5.35 -16.65,16.74 -24.73,16.74 -5.42,0 -12.5,-5.45 -16.31,-8.78 -1.02,-0.89 -3.43,-3.64 -4.81,-3.64 -1.13,0 -2.11,0.81 -2.11,1.85 0,1.86 2.11,2.14 2.11,4.49 0,2.09 -2.74,4.12 -5.85,0.82l-1.98 -1.98c-0.04,-0.04 -0.09,-0.09 -0.13,-0.13l-1.46 -1.45c-2.74,-2.53 -5.17,-5.41 -7.99,-8.12l-0.26 -0.26c-0.01,-0.01 -0.3,-0.34 -0.37,-0.42l-4.52 -4.46c-0.3,-0.3 -0.22,-0.22 -0.54,-0.53 -0.36,-0.34 -0.47,-0.42 -0.8,-0.78 -0.89,-0.97 -1.5,-1.77 -1.89,-3.13 -0.69,-2.39 -2.09,-14.82 -2.43,-17.65 -0.56,-4.72 -1.98,-5.98 -4.6,-8.6 -3.29,-3.29 -6.44,-6.81 -9.9,-9.91 -1.39,-1.25 -3.77,-1.1 -3.77,1.13zm53.98 -46.74l3.44 0c1.52,0.08 3.13,0.27 4.87,0.56 1.65,0.28 3.69,1.02 5.32,1.02 1.46,0 5.41,-1.26 10.21,-1.58l4.28 0c1.83,0.14 3.7,0.46 5.55,1.09 1.63,0.55 4,0.76 4,2.87 0,2.7 -2.68,1.89 -4.26,1.35 -4.41,-1.5 -7.72,-1.47 -12.43,-0.87 -5.38,0.68 -6.29,0.35 -6.29,3.74 0,6.28 5.98,7.07 3.2,16.41 -0.38,1.29 -1.09,2.77 -1.36,3.93 4.03,0.94 11.78,5.79 14.33,8.38 0.68,0.69 0.84,0.78 1.56,1.35 1.57,1.25 2.77,2.87 4.13,4.33l2.59 3.22c0.65,0.87 1.76,2.57 2.49,3.06 0.92,-1.74 1.49,-2.73 2.64,-4.23 1.41,-1.86 8.74,-9.17 10.04,-10.04 -1.66,-3.13 -4.66,-5.01 -7.43,-7.09 -1.43,-1.07 -2.83,-2.06 -4.22,-3.17 -0.74,-0.59 -1.35,-1.07 -2.08,-1.62 -2.59,-1.93 -1.9,-4.23 0.8,-4.23 0.93,0 7.56,5.4 9.06,6.52 0.55,0.41 2.57,2.59 2.57,0.87 0,-4.86 -0.98,-8.21 -3.78,-11.55 -0.9,-1.07 -2.49,-2.05 -3.72,-2.87 -0.93,-0.62 -3.59,-1.91 -3.59,-3.01 0,-1.01 0.56,-2.38 1.59,-2.38 2,0 4.08,1.69 5.63,2.83 4.77,3.51 8.11,8.5 8.11,15.4 0,5.36 -1.91,4.29 0,7.13 2.72,-1.82 18.54,-19.13 20.83,-20.65 1.38,-0.92 3.21,-0.19 3.21,1.64 0,1.62 -4.13,5.06 -5.35,6.28 -2,2 -3.81,3.81 -5.81,5.81 -3.89,3.89 -7.59,7.59 -11.49,11.49 -3,3 -9.11,8.54 -11.39,11.59 -4.69,6.27 -2.98,14.75 -4.19,16.15 -0.83,0.97 -3.5,0.98 -3.5,-0.86l0.35 -8.13c0.08,-1.04 0.43,-0.13 -0.22,-1.23 -1.93,-3.28 -5.81,-8.09 -8.52,-10.78l-3.72 -3.4c-2.63,-2.12 -5.57,-4.24 -8.72,-5.55 -0.94,-0.39 -3.93,-1.81 -5.06,-1.81 -1.91,0 -7.58,3.34 -9.46,4.54 -3.71,2.37 -6.66,5.4 -9.76,8.47 -2.31,2.28 -4.26,4.94 -6.09,7.65 -1.29,1.9 -0.95,0.89 -0.85,3.37 0.07,1.62 0.29,2.53 0.27,4.23 -0.02,1.93 0.28,2.64 0.27,4.49 -0.07,9.22 3.34,16.18 -5.02,20.6 0.99,1.48 5.02,4.28 5.02,6.08 0,1.09 -1.02,2.11 -2.11,2.11 -1.21,0 -5.72,-5.06 -6.8,-6.14 -5.69,-5.69 -3.67,-3.98 -4.3,-11.81l-0.48 -5.86c-0.12,-1.03 0.03,-2.08 -0.06,-3.12 -0.14,-1.76 -0.98,-7.33 -0.35,-8.83 0.83,-1.95 3.41,-1.25 3.92,0.51l0.67 10.16c0.13,2.5 0.13,4.37 0.26,6.87l0.53 6.6c2.02,0 2.91,-0.58 3.91,-1.63 0.81,-0.86 1.49,-2.46 1.31,-4.09 -0.52,-4.61 -0.73,-17.87 -1.25,-20.95 -0.59,-3.41 -1.48,-5.31 -3.21,-7.62 -2.15,-2.87 -13.07,-13.28 -16.41,-16.61 -1.29,-1.29 -3.71,-2.76 -2.77,-4.72 1.95,-4.02 7.34,3.96 9.17,5.18 1.91,-2.85 0,-1.83 0,-7.13 0,-9.85 6.78,-15.26 14.52,-19.28 5.75,-2.99 10.2,-4.71 15.42,-5.01z"/>
  <rect class="fil1" width="180" height="180"/>
 </g>
</svg>
