<?xml version="1.0" encoding="UTF-8"?>
<!DOCTYPE svg PUBLIC "-//W3C//DTD SVG 1.1//EN" "http://www.w3.org/Graphics/SVG/1.1/DTD/svg11.dtd">
<!-- Creator: CorelDRAW -->
<svg xmlns="http://www.w3.org/2000/svg" xml:space="preserve" width="0.18in" height="0.18in" version="1.1" style="shape-rendering:geometricPrecision; text-rendering:geometricPrecision; image-rendering:optimizeQuality; fill-rule:evenodd; clip-rule:evenodd"
viewBox="0 0 180 180"
 xmlns:xlink="http://www.w3.org/1999/xlink"
 xmlns:xodm="http://www.corel.com/coreldraw/odm/2003">
 <defs>
  <style type="text/css">
   <![CDATA[
    .fil1 {fill:none}
    .fil0 {fill:#7F4629}
   ]]>
  </style>
 </defs>
 <g id="Layer_x0020_1">
  <metadata id="CorelCorpID_0Corel-Layer"/>
  <g id="_2863608696032">
   <path class="fil0" d="M133.04 111.2l9.95 0 0 24.74 -9.95 0 0 -24.74zm-97.87 0l9.68 0 0 24.74 -9.68 0 0 -24.74zm-9.68 -7.26c0,-2.75 1.86,-4.84 4.57,-4.84l119.92 0c6,0 5.94,8.87 0.27,8.87l-120.46 0c-2.71,0 -4.3,-2.57 -4.3,-4.03zm100.56 -23.39l7.53 0 0 15.33 -7.53 0 0 -15.33zm-72.06 0l68.83 0 0 15.33 -68.83 0 0 -15.33zm-10.48 0l7.26 0 0 15.33 -7.26 0 0 -15.33zm-13.18 -5.65l0 -16.94c0,-1.33 1.09,-2.42 2.42,-2.42l109.43 0c1.33,0 2.42,1.09 2.42,2.42l0 16.94c0,1.33 -1.09,2.42 -2.42,2.42l-109.43 0c-1.33,0 -2.42,-1.09 -2.42,-2.42zm13.18 -27.69c0,-4.28 7.26,-4.28 7.26,0l0 5.11 -7.26 0 0 -5.11zm89.26 5.11l-6.72 0c0,-4 -0.84,-8.33 4.04,-8.33 1.08,0 2.27,0.87 2.75,1.55 0.91,1.28 0.74,4.23 0.74,5.98 0,0.62 -0.19,0.8 -0.81,0.8zm-92.49 -4.84l0 4.84 -7.8 0c-2.76,0 -5.38,2.67 -5.38,5.38l0 17.48c0,2.7 2.68,5.38 5.38,5.38l7.8 0 0 15.33 -10.22 0c-2.44,0 -4.05,0.96 -5.32,2.21 -5.68,5.58 -0.43,13.12 4.51,13.12l2.69 0 0 26.08c0,0.91 0.48,1.89 1.34,1.89l13.44 0c0.63,0 1.34,-0.72 1.34,-1.35l0 -26.62 81.74 0 0 25.54c0,0.98 0.22,1.5 0.54,2.15 2.16,0.5 13.17,0.5 15.33,0 0.31,-0.65 0.54,-1.17 0.54,-2.15l0 -25.54c3.78,0 8.68,0.59 10.85,-4.48 2.4,-5.59 -2,-10.85 -7.08,-10.85l-13.18 0 0 -15.33 5.65 0c2.7,0 5.38,-2.68 5.38,-5.38l0 -17.48c0,-2.78 -2.59,-5.38 -5.38,-5.38l-5.65 0c0,-3.23 0.26,-6.24 -1.45,-8.76 -3.53,-5.19 -12.53,-2.87 -12.53,4.19l0 4.57 -68.83 0c0,-3.89 0.62,-7.27 -2.08,-9.76 -4.13,-3.81 -11.63,-1.39 -11.63,4.92z"/>
   <path class="fil0" d="M59.36 66.02c0,0.91 0.47,1.88 1.34,1.88l53.51 0c1.81,0 1.98,-3.23 -0.81,-3.23l-51.89 0c-0.88,0 -2.15,0.82 -2.15,1.35z"/>
  </g>
  <rect class="fil1" width="180" height="180"/>
 </g>
</svg>
