<?xml version="1.0" encoding="UTF-8"?>
<!DOCTYPE svg PUBLIC "-//W3C//DTD SVG 1.1//EN" "http://www.w3.org/Graphics/SVG/1.1/DTD/svg11.dtd">
<!-- Creator: CorelDRAW -->
<svg xmlns="http://www.w3.org/2000/svg" xml:space="preserve" width="0.18in" height="0.18in" version="1.1" style="shape-rendering:geometricPrecision; text-rendering:geometricPrecision; image-rendering:optimizeQuality; fill-rule:evenodd; clip-rule:evenodd"
viewBox="0 0 180 180"
 xmlns:xlink="http://www.w3.org/1999/xlink"
 xmlns:xodm="http://www.corel.com/coreldraw/odm/2003">
 <defs>
  <style type="text/css">
   <![CDATA[
    .fil1 {fill:none}
    .fil0 {fill:#7F4629}
   ]]>
  </style>
 </defs>
 <g id="Layer_x0020_1">
  <metadata id="CorelCorpID_0Corel-Layer"/>
  <path class="fil0" d="M21.72 36.93c0,2.29 0.22,4.68 2.55,6.25 2.91,1.97 11.06,2.24 11.06,-0.39 0,-3.78 -2.13,-2.76 -6.41,-2.93 -3.89,-0.15 -2.56,-4.28 -1.06,-4.28 8.24,0 9.09,-1.07 11.48,3.73 1.31,2.65 7.42,41.17 8.15,45.19l4.41 25.99c0.34,2.04 0.74,4.12 1.11,6.36 0.43,2.62 0.41,3.9 2.11,5.61 2.76,2.77 5.74,4.06 11.15,4.06l68.81 0c6.31,0 10.75,-4.19 12.22,-10.19 0.4,-1.64 0.77,-2.86 1.09,-4.51 2.23,-11.17 4.54,-21.23 6.5,-32.71 0.44,-2.56 3.39,-16.9 3.39,-19.01 0,-1.35 -1.44,-2.13 -2.93,-2.13l-101.09 0c-3.72,0 -3.67,3.76 -1.43,4.63 0.81,0.31 2.06,0.18 3.03,0.17l97.35 0c-1.16,4.99 -2.03,10.87 -3.09,16.11 -1.11,5.5 -1.98,10.74 -3.07,16.14 -0.78,3.92 -3.67,20.34 -5.52,23.29 -1.16,1.85 -3.28,3.41 -6.2,3.41l-70.94 0c-2.22,0 -4.2,-0.91 -5.42,-2.05 -1.34,-1.26 -1.15,-2.55 -1.71,-5.76 -0.76,-4.38 -1.46,-8.54 -2.17,-12.77l-8.77 -50.98c-0.61,-3.52 -1.3,-9.84 -2.47,-12.46 -3.69,-8.25 -8.26,-6.93 -15.74,-6.93 -3.18,0 -6.4,2.91 -6.4,6.13zm9.07 64.55c0,0.97 0.74,2.13 2.13,2.13l8.27 0c3.17,0 2.46,-4.54 0.27,-4.54l-8.27 0c-1.45,0 -2.4,0.95 -2.4,2.41zm-9.07 -13.87c0,1.31 0.7,2.4 2.13,2.4l13.87 0c2.96,0 2.96,-4.54 0,-4.54l-13.87 0c-1.29,0 -2.13,0.85 -2.13,2.13zm4.54 27.47c0,1.91 1.55,2.4 3.46,2.4l13.87 0c4.6,0 3.69,-4.8 0.8,-4.8l-15.73 0c-1.32,0 -2.4,1.08 -2.4,2.4zm112.29 -70.41l10.67 0c0,4.54 -0.95,9.16 2.37,9 3.06,-0.15 2.16,-4.87 2.16,-9.26 0,-2.44 -2.09,-4.54 -4.53,-4.54l-11.2 0c-3.32,0 -3.63,4.8 0.53,4.8zm-12 104.55c0,-5.61 8.8,-6.66 8.8,0.53 0,4.92 -8.8,5.5 -8.8,-0.53zm4.96 9.07l-1.49 0c-4.23,0 -9.82,-5.3 -7.72,-11.98 0.24,-0.79 0.67,-1.59 1.16,-2.3 6.33,-9.13 20.26,-1.13 15.89,8.96l-4.17 4.36c-1.65,0.8 -2.44,0.94 -3.68,0.96zm-73.24 -9.07c0,-5.61 8.8,-6.66 8.8,0.53 0,0.98 -0.82,2.34 -1.43,2.84 -0.77,0.64 -1.95,1.12 -3.08,1.07 -2.2,-0.09 -4.3,-1.93 -4.3,-4.44zm4.96 9.07l-1.49 0c-1.73,0 -3.89,-1.19 -4.87,-2.06 -1.37,-1.22 -2.2,-2.28 -2.84,-4.09 -0.66,-1.86 -0.59,-3.96 -0.01,-5.83 0.24,-0.79 0.67,-1.59 1.16,-2.3 5.06,-7.31 16.69,-3.93 16.69,5.49 0,3.05 -2.21,6.5 -4.97,7.83 -1.66,0.8 -2.44,0.94 -3.68,0.96zm6.24 -18.13c2.76,0 2.7,-4.17 5.08,-4.52l58.13 -0.01c1.54,0 3.3,0.08 4.81,0.02 3.63,-0.16 3.72,-4.82 -0.55,-4.82l-61.88 0c-4.78,0 -7.74,5.45 -7.88,6.75 -0.13,1.25 0.98,2.59 2.28,2.59zm-13.6 -116.56c0,2.4 0.83,1.98 1.95,3.38 0.69,0.86 0.63,2.67 0.72,4.08 0.37,5.47 1.04,12.28 -0.07,17.81 -0.35,1.72 -0.8,4.87 1.93,4.87 0.32,0 1.27,-0.44 1.51,-0.62 1.73,-1.28 1.96,-11.3 1.96,-13.25 0,-1.52 -0.27,-1.85 -0.27,-3.47 0.2,0.29 0.05,0.04 0.29,0.51l0.74 1.92c0.31,0.93 0.58,1.67 0.87,2.6 1.44,4.64 1.35,10.44 2.37,11.51 1.4,1.46 4,0.37 4,-1.33 0,-3.09 -0.72,-7.47 -1.44,-10.02l-2.22 -6.59c-0.37,-0.85 -0.66,-1.15 -0.87,-2.06 3.92,2.62 7.43,9.52 8.46,14.47 0.29,1.39 0.19,2.74 0.48,4.06 0.66,3.08 4.67,2.89 4.67,-0.4 0,-6.03 -3.5,-14.27 -7.4,-18.47l-3.2 -3.2c-3.5,-3.13 -5.65,-3.47 -8.16,-4.91 -1.96,-1.13 -1.76,-2.76 -4.44,-2.76 -0.74,0 -1.87,1.12 -1.87,1.87zm29.6 11.2l0 17.07c0,2.04 4.54,2.77 4.54,-0.54l0 -16 27.2 0 0 15.73c0,3.15 4.8,3.87 4.8,-0.53l0 -15.2 4.26 0 0 15.2c0,4.4 4.8,3.68 4.8,0.53l0 -15.2c0,-2.81 -1.77,-5.07 -4.53,-5.07l-36.54 0c-2.43,0 -4.54,2.02 -4.54,4zm37.87 64.28l-19.74 0 0 -13.6 21.07 0 -0.99 10.22c-0.13,0.99 -0.33,2.63 -0.35,3.39zm-45.34 -13.6l21.07 0 0 13.6 -19.74 0c0,-1.43 -0.18,-2.07 -0.28,-3.46l-0.72 -6.75c-0.13,-1.02 -0.32,-2.61 -0.34,-3.39zm-6.13 -16.53l1.06 12 -14.68 -0.02c-2.18,0 -2.92,0.57 -2.92,2.42 0,2.86 3.52,2.13 6.4,2.13 2.93,0 5.87,0.03 8.8,0 3.92,-0.04 2.43,-0.81 3.31,5.49 0.35,2.54 0.69,5.5 0.69,8.11l-14.14 0c-1.68,0 -2.79,1.66 -2.12,3.17 0.81,1.83 2.28,1.37 4.79,1.37 4,-0 8,0 12,0l1.2 11.6c0.66,3.05 4.13,2.7 4.62,0.35 0.23,-1.11 -0.15,-2.74 -0.23,-3.94 -0.17,-2.47 -0.79,-5.53 -0.79,-8.01l19.2 0 0 11.46c0,2.45 3.33,3.05 4.32,1.12 0.33,-0.64 0.23,-1.54 0.22,-2.45l-0.02 -8.02c-0.02,-1.13 -0.26,-2.12 0.81,-2.12l18.41 0c0,6.78 -2.91,13.76 1.33,13.76 2.65,0 2.47,-3.07 2.69,-5.73 0.2,-2.45 0.78,-5.47 0.78,-8.02l11.47 0c3.17,0 2.46,-4.54 0.27,-4.54l-11.2 0 1.33 -13.6 13.33 0c2.18,0 2.8,-4.53 -0.27,-4.53l-12.54 0c0,-6.31 2.9,-13.78 -1.3,-13.72 -2.69,0.04 -2.55,3.22 -2.72,5.71 -0.17,2.48 -0.79,5.53 -0.79,8.01l-20.81 0c-1.27,0 -0.8,-2.16 -0.8,-4.54 0,-4.46 0.77,-8.41 -1.59,-9.1 -1.25,-0.36 -2.95,0.43 -2.95,2.17l0 11.47 -20.8 0c-1.09,0 -0.89,-1.85 -1.09,-4.24 -0.22,-2.61 -0.34,-8.44 -2.02,-9.2 -2.15,-0.97 -3.28,0.88 -3.28,1.44z"/>
  <rect class="fil1" width="180" height="180"/>
 </g>
</svg>
