<?xml version="1.0" encoding="UTF-8"?>
<!DOCTYPE svg PUBLIC "-//W3C//DTD SVG 1.1//EN" "http://www.w3.org/Graphics/SVG/1.1/DTD/svg11.dtd">
<!-- Creator: CorelDRAW -->
<svg xmlns="http://www.w3.org/2000/svg" xml:space="preserve" width="0.18in" height="0.18in" version="1.1" style="shape-rendering:geometricPrecision; text-rendering:geometricPrecision; image-rendering:optimizeQuality; fill-rule:evenodd; clip-rule:evenodd"
viewBox="0 0 180 180"
 xmlns:xlink="http://www.w3.org/1999/xlink"
 xmlns:xodm="http://www.corel.com/coreldraw/odm/2003">
 <defs>
  <style type="text/css">
   <![CDATA[
    .fil1 {fill:none}
    .fil0 {fill:#7F4629}
   ]]>
  </style>
 </defs>
 <g id="Layer_x0020_1">
  <metadata id="CorelCorpID_0Corel-Layer"/>
  <path class="fil0" d="M39.78 157.67c-0.88,-0.67 -1.63,-1.4 -1.17,-2.64 0.45,-1.21 1.47,-1.34 2.59,-1.33 4.31,0.02 8.63,0.01 12.94,0.01 0.48,0 0.95,0 1.57,0 0,-0.68 0,-1.24 0,-1.8 0,-16.11 -0,-32.23 0,-48.35 0,-3.81 2.08,-5.88 5.88,-5.89 0.79,0 1.58,0 2.43,0 1.96,-4.84 3.9,-9.65 5.85,-14.45 0.2,-0.49 0.37,-0.99 0.59,-1.47 0.54,-1.18 1.63,-1.65 2.69,-1.19 0.98,0.43 1.43,1.51 0.97,2.67 -1.62,4.09 -3.28,8.15 -4.93,12.23 -0.24,0.61 -0.47,1.22 -0.76,1.98 14.41,0 28.67,0 43.07,0 -0.16,-0.49 -0.27,-0.9 -0.43,-1.29 -3.98,-9.87 -7.97,-19.73 -11.92,-29.61 -0.38,-0.96 -0.85,-1.31 -1.91,-1.3 -4.84,0.06 -9.69,0.07 -14.53,-0 -1.09,-0.02 -1.54,0.37 -1.9,1.32 -1.16,3.04 -2.42,6.04 -3.62,9.06 -0.4,1 -1.04,1.65 -2.18,1.56 -1.41,-0.1 -2.12,-1.46 -1.52,-2.98 1.34,-3.39 2.74,-6.76 4.06,-10.17 0.29,-0.76 0.48,-1.61 0.48,-2.41 -0.04,-3.67 1.33,-6.67 4.09,-9.07 1.57,-1.35 3.07,-2.79 4.68,-4.08 0.85,-0.68 1.09,-1.43 1.09,-2.48 -0.04,-6.69 -0.02,-13.39 -0.02,-20.08 0,-2.63 0.36,-3.04 2.95,-3.35 0.34,-0.04 0.67,-0.16 1.01,-0.24 1.85,0 3.7,0 5.55,0 2.31,0.52 4.65,0.93 6.91,1.6 3.71,1.1 7.02,3.02 10.03,5.45 0.86,0.7 1.41,1.49 1.01,2.61 -0.4,1.1 -1.34,1.27 -2.37,1.28 -6.98,0.11 -13.57,1.8 -19.78,4.99 -0.97,0.5 -1.45,1.03 -1.37,2.2 0.12,1.84 0.07,3.7 0.02,5.55 -0.02,0.86 0.2,1.46 0.89,2.03 1.76,1.46 3.44,3.02 5.17,4.52 2.71,2.37 4.07,5.33 4.06,8.95 0,0.85 0.18,1.75 0.49,2.54 4.31,10.78 8.66,21.54 13,32.31 0.17,0.41 0.35,0.8 0.56,1.28 0.96,0 1.92,-0.01 2.89,0 3.07,0.05 5.33,2.11 5.36,5.2 0.08,7.44 0.04,14.89 0.02,22.33 -0,1.46 -0.81,2.31 -2,2.3 -1.19,-0.01 -1.94,-0.87 -1.94,-2.33 -0.02,-7.09 -0.01,-14.18 -0.01,-21.27 -0,-2 -0.26,-2.26 -2.3,-2.26 -18.68,0 -37.35,0 -56.03,0 -2.05,0 -2.31,0.25 -2.31,2.24 -0,16.12 0,32.24 0,48.37 0,0.43 0,0.87 0,1.37 4.9,0 9.69,0 14.67,0 0,-0.49 -0.01,-1 0,-1.51 0.09,-5.28 -0.02,-10.57 0.33,-15.84 0.48,-7.27 3.7,-13.31 9.13,-18.17 1.28,-1.15 2.56,-2.3 3.86,-3.41 1.34,-1.14 2.86,-1.32 4.09,-0.22 2.8,2.48 5.7,4.89 8.14,7.69 4.2,4.81 5.71,10.74 5.93,17 0.15,4.31 0.06,8.63 0.08,12.95 0,0.48 0,0.95 0,1.51 4.81,0 9.5,0 14.41,0 0,-0.44 0,-0.91 0,-1.37 0,-5.94 0,-11.89 0,-17.84 0,-0.44 -0.02,-0.89 0.05,-1.32 0.15,-0.93 0.73,-1.49 1.67,-1.59 1,-0.11 1.74,0.31 2.06,1.27 0.16,0.49 0.18,1.04 0.18,1.56 0.01,5.94 0.01,11.89 0.01,17.84 0,0.47 0,0.94 0,1.54 2.6,0 5.06,0 7.51,0 2.33,0 4.67,0.02 7,-0.01 1.12,-0.01 2.16,0.1 2.59,1.33 0.43,1.23 -0.27,1.99 -1.19,2.64 -33.48,0 -66.96,0 -100.44,0zm50.07 -39.59l0 0c-0.92,0.81 -1.8,1.6 -2.7,2.38 -5.99,5.18 -8.9,11.74 -8.83,19.65 0.04,4.01 0.01,8.01 0.01,12.02 0,0.47 0,0.94 0,1.45 7.94,0 15.74,0 23.65,0 0,-4.29 0.12,-8.47 -0.04,-12.65 -0.11,-2.71 -0.42,-5.45 -1.02,-8.09 -1.46,-6.48 -5.87,-10.86 -11.07,-14.77zm0.17 -67.2l0 0c-2.2,1.99 -4.35,3.8 -6.33,5.78 -1.19,1.2 -1.73,2.79 -1.6,4.56 5.35,0 10.56,0 15.82,0 0.09,-1.77 -0.39,-3.31 -1.52,-4.46 -2,-2.02 -4.17,-3.87 -6.38,-5.88zm17.25 -21.28l0 0c-4.83,-2.64 -9.92,-3.69 -15.34,-3.13 0,2.74 0,5.3 0,8.04 4.93,-2.5 10.02,-4.02 15.34,-4.91z"/>
  <rect class="fil1" width="180" height="180"/>
 </g>
</svg>
