<?xml version="1.0" encoding="UTF-8"?>
<!DOCTYPE svg PUBLIC "-//W3C//DTD SVG 1.1//EN" "http://www.w3.org/Graphics/SVG/1.1/DTD/svg11.dtd">
<!-- Creator: CorelDRAW -->
<svg xmlns="http://www.w3.org/2000/svg" xml:space="preserve" width="0.18in" height="0.18in" version="1.1" style="shape-rendering:geometricPrecision; text-rendering:geometricPrecision; image-rendering:optimizeQuality; fill-rule:evenodd; clip-rule:evenodd"
viewBox="0 0 180 180"
 xmlns:xlink="http://www.w3.org/1999/xlink"
 xmlns:xodm="http://www.corel.com/coreldraw/odm/2003">
 <defs>
  <style type="text/css">
   <![CDATA[
    .fil1 {fill:none}
    .fil0 {fill:#7F4629;fill-rule:nonzero}
   ]]>
  </style>
 </defs>
 <g id="Layer_x0020_1">
  <metadata id="CorelCorpID_0Corel-Layer"/>
  <path class="fil0" d="M26.61 139.67c-1.23,0 -2.23,-1 -2.23,-2.23 0,-1.23 1,-2.23 2.23,-2.23 4.65,0 6.93,1.46 9.2,2.92l0.12 0.08c1.68,1.07 3.4,2.13 6.69,2.13 3.38,0 5.11,-1.1 6.83,-2.21 2.28,-1.46 4.56,-2.92 9.2,-2.92 4.65,0 6.93,1.46 9.2,2.92l0.11 0.08c1.68,1.07 3.4,2.13 6.69,2.13 3.37,0 5.09,-1.1 6.81,-2.2 2.28,-1.46 4.56,-2.93 9.21,-2.93 4.65,0 6.93,1.46 9.2,2.92l0.11 0.08c1.69,1.07 3.41,2.13 6.69,2.13 3.38,0 5.11,-1.1 6.83,-2.21 2.28,-1.46 4.56,-2.92 9.2,-2.92 4.63,0 6.91,1.46 9.2,2.92 1.72,1.11 3.45,2.21 6.83,2.21 3.37,0 5.1,-1.1 6.83,-2.2 2.28,-1.46 4.57,-2.92 9.21,-2.92 1.23,0 2.22,1 2.22,2.23 0,1.23 -1,2.23 -2.22,2.23 -3.38,0 -5.1,1.1 -6.83,2.2 -2.28,1.46 -4.57,2.92 -9.21,2.92 -4.65,0 -6.93,-1.46 -9.21,-2.92 -1.72,-1.1 -3.45,-2.2 -6.81,-2.2 -3.37,0 -5.09,1.1 -6.81,2.2 -2.28,1.46 -4.57,2.92 -9.22,2.92 -4.56,0 -6.84,-1.41 -9.08,-2.84l-0.13 -0.07c-1.72,-1.1 -3.44,-2.2 -6.8,-2.2 -3.38,0 -5.11,1.1 -6.83,2.2 -2.28,1.46 -4.56,2.92 -9.2,2.92 -4.56,0 -6.84,-1.41 -9.08,-2.84l-0.13 -0.07c-1.72,-1.1 -3.45,-2.2 -6.8,-2.2 -3.37,0 -5.09,1.1 -6.81,2.2 -2.28,1.46 -4.57,2.92 -9.21,2.92 -4.56,0 -6.84,-1.41 -9.08,-2.84l-0.12 -0.07c-1.72,-1.1 -3.45,-2.2 -6.81,-2.2zm0 -15.24c-1.23,0 -2.23,-1 -2.23,-2.23 0,-1.23 1,-2.23 2.23,-2.23 4.65,0 6.93,1.46 9.2,2.92 1.72,1.1 3.45,2.21 6.81,2.21 3.37,0 5.09,-1.11 6.82,-2.21l0.12 -0.07c2.24,-1.44 4.52,-2.85 9.08,-2.85 4.65,0 6.93,1.46 9.2,2.92 1.72,1.1 3.44,2.21 6.8,2.21 3.36,0 5.09,-1.1 6.81,-2.2l0 0c2.28,-1.46 4.56,-2.93 9.22,-2.93 4.65,0 6.93,1.46 9.2,2.92 1.72,1.1 3.44,2.21 6.8,2.21 3.37,0 5.1,-1.11 6.82,-2.21l0.13 -0.07c2.24,-1.44 4.52,-2.85 9.08,-2.85 4.63,0 6.91,1.46 9.2,2.92l0.01 0c1.72,1.11 3.45,2.21 6.82,2.21 3.37,0 5.1,-1.11 6.83,-2.21 2.28,-1.46 4.57,-2.92 9.21,-2.92 1.23,0 2.22,1 2.22,2.23 0,1.23 -1,2.23 -2.22,2.23 -3.38,0 -5.1,1.1 -6.83,2.2 -2.28,1.46 -4.57,2.92 -9.21,2.92 -4.66,0 -6.94,-1.46 -9.22,-2.92l0 -0.01c-1.72,-1.1 -3.44,-2.2 -6.81,-2.2 -3.28,0 -5,1.05 -6.69,2.13l-0.11 0.08c-2.28,1.46 -4.57,2.92 -9.22,2.92 -4.65,0 -6.93,-1.46 -9.2,-2.92 -1.72,-1.1 -3.44,-2.2 -6.8,-2.2 -3.37,0 -5.1,1.1 -6.82,2.2l-0.01 0c-2.28,1.46 -4.56,2.92 -9.2,2.92 -4.65,0 -6.93,-1.46 -9.2,-2.92 -1.72,-1.1 -3.45,-2.2 -6.8,-2.2 -3.29,0 -5.01,1.05 -6.69,2.13l-0.12 0.08c-2.28,1.46 -4.57,2.92 -9.22,2.92 -4.65,0 -6.93,-1.46 -9.2,-2.92 -1.72,-1.1 -3.45,-2.2 -6.81,-2.2zm14.9 -30.06l46.25 0 0 -23.72 -46.25 0 0 23.72zm46.25 4.45l-46.25 0 0 14.68c0,1.23 -1,2.22 -2.23,2.22 -1.23,0 -2.23,-1 -2.23,-2.22l0 -61.97c0,-3.28 -1.32,-6.25 -3.47,-8.39 -2.14,-2.14 -5.1,-3.47 -8.38,-3.47 -1.23,0 -2.22,-1 -2.22,-2.22 0,-1.23 1,-2.22 2.22,-2.22 4.5,0 8.57,1.83 11.53,4.78 2.95,2.95 4.78,7.03 4.78,11.53l0 14.67 46.25 0 0 -14.67c0,-3.28 -1.33,-6.24 -3.48,-8.39l-0.1 -0.11c-2.14,-2.08 -5.06,-3.36 -8.29,-3.36 -1.23,0 -2.23,-1 -2.23,-2.22 0,-1.23 1,-2.22 2.23,-2.22 4.44,0 8.46,1.77 11.41,4.65l0.13 0.12c2.95,2.95 4.78,7.04 4.78,11.54l0 61.97c0,1.23 -1,2.22 -2.23,2.22 -1.23,0 -2.22,-1 -2.22,-2.22l0 -14.68z"/>
  <rect class="fil1" width="180" height="180"/>
 </g>
</svg>
