<?xml version="1.0" encoding="UTF-8"?>
<!DOCTYPE svg PUBLIC "-//W3C//DTD SVG 1.1//EN" "http://www.w3.org/Graphics/SVG/1.1/DTD/svg11.dtd">
<!-- Creator: CorelDRAW -->
<svg xmlns="http://www.w3.org/2000/svg" xml:space="preserve" width="0.18in" height="0.18in" version="1.1" style="shape-rendering:geometricPrecision; text-rendering:geometricPrecision; image-rendering:optimizeQuality; fill-rule:evenodd; clip-rule:evenodd"
viewBox="0 0 180 180"
 xmlns:xlink="http://www.w3.org/1999/xlink"
 xmlns:xodm="http://www.corel.com/coreldraw/odm/2003">
 <defs>
  <style type="text/css">
   <![CDATA[
    .fil1 {fill:none}
    .fil0 {fill:#7F4629;fill-rule:nonzero}
   ]]>
  </style>
 </defs>
 <g id="Layer_x0020_1">
  <metadata id="CorelCorpID_0Corel-Layer"/>
  <path class="fil0" d="M56.14 125.23l0 9.83c0,2.26 -0.92,4.31 -2.4,5.79 -1.48,1.48 -3.53,2.4 -5.79,2.4l-12.02 0c-2.26,0 -4.31,-0.92 -5.79,-2.4 -1.48,-1.48 -2.4,-3.53 -2.4,-5.79l0 -9.99c-1.4,-0.29 -2.66,-0.97 -3.66,-1.92l-0.14 -0.13c-1.36,-1.36 -2.21,-3.25 -2.21,-5.33l0 -15.45c0,-1.31 0.2,-2.63 0.59,-3.91 0.39,-1.28 0.96,-2.49 1.7,-3.58l9.15 -13.56c0.25,-0.37 0.48,-0.77 0.68,-1.2 0.19,-0.4 0.35,-0.82 0.48,-1.27l7.88 -32.41c0.85,-2.83 2.58,-5.22 4.84,-6.91 2.26,-1.68 5.04,-2.65 8,-2.65l69.91 0c2.95,0 5.74,0.97 8,2.65 2.26,1.69 3.99,4.08 4.84,6.91l7.88 32.42c0.13,0.43 0.29,0.85 0.48,1.26 0.18,0.38 0.38,0.75 0.61,1.09l9.22 13.66c0.74,1.09 1.31,2.3 1.7,3.58 0.39,1.28 0.59,2.59 0.59,3.91l0 15.45c0,2.07 -0.85,3.96 -2.21,5.32 -1.02,1.02 -2.33,1.76 -3.8,2.06l0 9.99c0,2.26 -0.92,4.31 -2.4,5.79l-0.14 0.13c-1.47,1.41 -3.47,2.27 -5.65,2.27l-12.02 0c-2.26,0 -4.31,-0.92 -5.79,-2.4l-0.13 -0.14c-1.41,-1.47 -2.27,-3.46 -2.27,-5.65l0 -9.83 -67.73 0zm-4.37 9.83l0 -9.83 -19.66 0 0 9.83c0,1.06 0.43,2.02 1.12,2.7 0.69,0.69 1.65,1.12 2.7,1.12l12.02 0c1.06,0 2.02,-0.43 2.7,-1.12 0.69,-0.69 1.12,-1.65 1.12,-2.7zm-12.97 -56.26l102.42 0 -7.6 -31.25c-0.57,-1.91 -1.74,-3.52 -3.25,-4.65 -1.52,-1.13 -3.4,-1.78 -5.41,-1.78l-69.91 0c-2,0 -3.89,0.65 -5.41,1.78 -1.52,1.13 -2.68,2.74 -3.25,4.66l-7.59 31.24zm104.14 4.37l-105.87 0 -0.29 0.45 -9.15 13.56c-0.51,0.76 -0.9,1.57 -1.15,2.41 -0.26,0.83 -0.39,1.72 -0.39,2.65l0 15.45c0,0.87 0.35,1.67 0.93,2.24l0.09 0.09c0.56,0.52 1.32,0.83 2.16,0.83l40.52 0 0 -15.84c0,-1.2 0.98,-2.19 2.19,-2.19l36.05 0c1.2,0 2.18,0.98 2.18,2.19l0 15.84 40.53 0c0.88,0 1.67,-0.35 2.24,-0.92 0.57,-0.57 0.93,-1.37 0.93,-2.25l0 -15.45c0,-0.92 -0.13,-1.81 -0.39,-2.65 -0.26,-0.83 -0.64,-1.64 -1.15,-2.4 -3.13,-4.63 -6.44,-9.31 -9.43,-14.01zm-37.09 37.69l0 -13.65 -31.68 0 0 13.65 31.68 0zm20.21 -13.65c-1.21,0 -2.19,-0.98 -2.19,-2.19 0,-1.2 0.98,-2.19 2.19,-2.19l12.02 0c1.2,0 2.19,0.98 2.19,2.19 0,1.2 -0.98,2.19 -2.19,2.19l-12.02 0zm-84.11 0c-1.21,0 -2.19,-0.98 -2.19,-2.19 0,-1.2 0.98,-2.19 2.19,-2.19l12.02 0c1.21,0 2.19,0.98 2.19,2.19 0,1.2 -0.98,2.19 -2.19,2.19l-12.02 0zm105.96 27.85l0 -9.83 -19.67 0 0 9.83c0,1.02 0.39,1.94 1.03,2.62l0.09 0.09c0.69,0.69 1.65,1.12 2.7,1.12l12.02 0c1.02,0 1.94,-0.39 2.61,-1.03l0.09 -0.09c0.69,-0.69 1.12,-1.65 1.12,-2.7z"/>
  <rect class="fil1" width="180" height="180"/>
 </g>
</svg>
