<?xml version="1.0" encoding="UTF-8"?>
<!DOCTYPE svg PUBLIC "-//W3C//DTD SVG 1.1//EN" "http://www.w3.org/Graphics/SVG/1.1/DTD/svg11.dtd">
<!-- Creator: CorelDRAW -->
<svg xmlns="http://www.w3.org/2000/svg" xml:space="preserve" width="0.18in" height="0.18in" version="1.1" style="shape-rendering:geometricPrecision; text-rendering:geometricPrecision; image-rendering:optimizeQuality; fill-rule:evenodd; clip-rule:evenodd"
viewBox="0 0 180 180"
 xmlns:xlink="http://www.w3.org/1999/xlink"
 xmlns:xodm="http://www.corel.com/coreldraw/odm/2003">
 <defs>
  <style type="text/css">
   <![CDATA[
    .fil1 {fill:none}
    .fil0 {fill:#7F4629;fill-rule:nonzero}
   ]]>
  </style>
 </defs>
 <g id="Layer_x0020_1">
  <metadata id="CorelCorpID_0Corel-Layer"/>
  <path class="fil0" d="M100.29 90c0,-5.91 -3.67,-12.91 -10.28,-12.91 -6.62,0 -10.29,7 -10.29,12.91 0,5.9 3.67,12.9 10.29,12.9 6.61,0 10.28,-7 10.28,-12.9zm-10.28 8.19c-3.85,0 -5.58,-5.04 -5.58,-8.19 0,-3.15 1.73,-8.19 5.58,-8.19 3.84,0 5.57,5.04 5.57,8.19 0,3.15 -1.73,8.19 -5.57,8.19z"/>
  <path class="fil0" d="M127.16 133.64c-6.69,-0.58 -13.9,0.04 -19.67,1.02 -2.7,-10.43 -7.7,-15.03 -5.75,-27 0.95,-5.87 3.43,-12.36 6.96,-20.15 8.67,-19.1 -0.3,-31.41 -8.45,-42.63 -2.89,-3.97 -5.67,-7.8 -7.33,-11.63 -2.12,-4.89 -2.89,-9.09 -4.89,-10.89 -2.06,1.84 -2.52,7.01 -4.38,11.14 -1.44,3.2 -3.86,6.76 -6.44,10.55 -8.12,11.91 -17.72,25.99 -8.26,43.62 4,7.44 6.44,13.84 7.27,19.74 1.49,10.69 -2.84,17.18 -6.27,26.49 -4.24,-0.87 -9.28,-1.23 -14.28,-0.93 -6.54,0.4 -20.9,3.14 -21.74,11.34 -0.53,5.1 5.87,9.06 10.05,10.52 4.2,1.48 9.23,2.03 14.32,1.98 12.98,-0.15 16.26,-2.31 28.17,-5.37 -4.46,-3.04 -7.86,-2.59 -11.25,-2.12 -8.87,2.06 -20.35,4.28 -28.67,1.13 -17.02,-6.46 1.82,-11.98 10.67,-12.31 5.91,-0.24 11.93,0.69 17.52,2.47 7.53,2.53 12.78,5.54 17.64,8.31 13.45,7.65 27.31,11.45 42.53,6.48 3.98,-1.3 9.85,-4.01 10.95,-8.57 2.24,-9.26 -11.99,-12.6 -18.7,-13.19zm6.13 16.77c-12.52,4.1 -26.61,0.43 -37.81,-5.73 -6.79,-3.73 -12.93,-7.1 -20.42,-9.47 3.83,-10.15 8.01,-16.67 6.35,-28.52 -0.91,-6.56 -3.55,-13.52 -7.83,-21.51 -7.96,-14.82 0.67,-27.48 7.96,-38.18 2.66,-3.9 5.16,-7.57 6.79,-11.13 1.87,4.12 4.72,8.03 7.67,12.08 7.3,10.04 15.33,21.07 7.91,37.39 -3.7,8.16 -6.3,15.03 -7.35,21.49 -2.12,13.11 2.5,17.55 5.97,28.76 -3.48,0.72 -6.62,1.98 -9.3,2.69 6.56,3.88 7.86,3.43 12.09,2.07 6.54,-2.1 15.2,-2.44 22.1,-2.11 7.55,0.35 21.64,7 5.86,12.16z"/>
  <rect class="fil1" width="180" height="180"/>
 </g>
</svg>
